<svg width="150" height="66" viewBox="0 0 150 66" fill="none" xmlns="http://www.w3.org/2000/svg">
<path d="M0.560059 52.8805L16.3401 43.5605L16.4701 43.8205L0.690063 53.1405L0.560059 52.8805Z" fill="#BA494B"/>
<path d="M0.560059 52.8805L16.3401 43.5605L16.4701 43.8205L0.690063 53.1405L0.560059 52.8805Z" stroke="#BA494B" stroke-width="0.19" stroke-miterlimit="10"/>
<path d="M16.3398 25.0508H16.5898V43.6908H16.3398V25.0508Z" fill="#BA494B"/>
<path d="M16.3398 25.0508H16.5898V43.6908H16.3398V25.0508Z" stroke="#BA494B" stroke-width="0.19" stroke-miterlimit="10"/>
<path d="M0.560059 34.2399L16.3401 24.9199L16.4701 25.1799L0.690063 34.4999L0.560059 34.2399Z" fill="#BA494B"/>
<path d="M0.560059 34.2399L16.3401 24.9199L16.4701 25.1799L0.690063 34.4999L0.560059 34.2399Z" stroke="#BA494B" stroke-width="0.19" stroke-miterlimit="10"/>
<path d="M0.560059 53.1409L0.690063 52.8809L16.4701 62.2009L16.3401 62.4609L0.560059 53.1409Z" fill="#BA494B"/>
<path d="M0.560059 53.1409L0.690063 52.8809L16.4701 62.2009L16.3401 62.4609L0.560059 53.1409Z" stroke="#BA494B" stroke-width="0.19" stroke-miterlimit="10"/>
<path d="M16.3401 62.2106L32.2401 52.8906L32.3701 53.1506L16.4601 62.4706L16.3301 62.2106H16.3401Z" fill="#BA494B"/>
<path d="M16.3401 62.2106L32.2401 52.8906L32.3701 53.1506L16.4601 62.4706L16.3301 62.2106H16.3401Z" stroke="#BA494B" stroke-width="0.19" stroke-miterlimit="10"/>
<path d="M16.3398 43.8108L16.4698 43.5508L32.3698 52.8808L32.2398 53.1408L16.3398 43.8108Z" fill="#BA494B"/>
<path d="M16.3398 43.8108L16.4698 43.5508L32.3698 52.8808L32.2398 53.1408L16.3398 43.8108Z" stroke="#BA494B" stroke-width="0.19" stroke-miterlimit="10"/>
<path d="M0.560059 34.5002L0.690063 34.2402L16.4701 43.5602L16.3401 43.8202L0.560059 34.5002Z" fill="#BA494B"/>
<path d="M0.560059 34.5002L0.690063 34.2402L16.4701 43.5602L16.3401 43.8202L0.560059 34.5002Z" stroke="#BA494B" stroke-width="0.19" stroke-miterlimit="10"/>
<path d="M16.3401 43.5602L32.2401 34.2402L32.3701 34.5002L16.4601 43.8202L16.3301 43.5602H16.3401Z" fill="#BA494B"/>
<path d="M16.3401 43.5602L32.2401 34.2402L32.3701 34.5002L16.4601 43.8202L16.3301 43.5602H16.3401Z" stroke="#BA494B" stroke-width="0.19" stroke-miterlimit="10"/>
<path d="M16.3398 25.1702L16.4698 24.9102L32.3698 34.2302L32.2398 34.4902L16.3398 25.1702Z" fill="#BA494B"/>
<path d="M16.3398 25.1702L16.4698 24.9102L32.3698 34.2302L32.2398 34.4902L16.3398 25.1702Z" stroke="#BA494B" stroke-width="0.19" stroke-miterlimit="10"/>
<path d="M32.1201 34.3691H32.3701V53.0091H32.1201V34.3691Z" fill="#BA494B"/>
<path d="M32.1201 34.3691H32.3701V53.0091H32.1201V34.3691Z" stroke="#BA494B" stroke-width="0.19" stroke-miterlimit="10"/>
<path d="M21.2598 22.2402H21.5098V40.8802H21.2598V22.2402Z" fill="#BA494B"/>
<path d="M21.2598 22.2402H21.5098V40.8802H21.2598V22.2402Z" stroke="#BA494B" stroke-width="0.19" stroke-miterlimit="10"/>
<path d="M21.3901 40.7497L37.1701 31.4297L37.3001 31.5597L21.5201 40.8897L21.3901 40.7597V40.7497Z" fill="#BA494B"/>
<path d="M21.3901 40.7497L37.1701 31.4297L37.3001 31.5597L21.5201 40.8897L21.3901 40.7597V40.7497Z" stroke="#BA494B" stroke-width="0.19" stroke-miterlimit="10"/>
<path d="M37.1699 12.9102H37.4199V31.5502H37.1699V12.9102Z" fill="#BA494B"/>
<path d="M37.1699 12.9102H37.4199V31.5502H37.1699V12.9102Z" stroke="#BA494B" stroke-width="0.19" stroke-miterlimit="10"/>
<path d="M21.3901 22.1091L37.1701 12.7891L37.3001 13.0491L21.5201 22.3691L21.3901 22.1091Z" fill="#BA494B"/>
<path d="M21.3901 22.1091L37.1701 12.7891L37.3001 13.0491L21.5201 22.3691L21.3901 22.1091Z" stroke="#BA494B" stroke-width="0.19" stroke-miterlimit="10"/>
<path d="M21.3901 40.88L21.5201 40.75L37.3001 50.07L37.1701 50.2L21.3901 40.88Z" fill="#BA494B"/>
<path d="M21.3901 40.88L21.5201 40.75L37.3001 50.07L37.1701 50.2L21.3901 40.88Z" stroke="#BA494B" stroke-width="0.19" stroke-miterlimit="10"/>
<path d="M37.1701 50.07L53.0701 40.75L53.2001 40.88L37.2902 50.2L37.1602 50.07H37.1701Z" fill="#BA494B"/>
<path d="M37.1701 50.07L53.0701 40.75L53.2001 40.88L37.2902 50.2L37.1602 50.07H37.1701Z" stroke="#BA494B" stroke-width="0.19" stroke-miterlimit="10"/>
<path d="M37.1699 31.5597L37.2999 31.4297L53.21 40.7497L53.08 40.8797L37.1799 31.5597H37.1699Z" fill="#BA494B"/>
<path d="M37.1699 31.5597L37.2999 31.4297L53.21 40.7497L53.08 40.8797L37.1799 31.5597H37.1699Z" stroke="#BA494B" stroke-width="0.19" stroke-miterlimit="10"/>
<path d="M21.3901 22.3596L21.5201 22.0996L37.3001 31.4196L37.1701 31.5496L21.3901 22.3596Z" fill="#BA494B"/>
<path d="M21.3901 22.3596L21.5201 22.0996L37.3001 31.4196L37.1701 31.5496L21.3901 22.3596Z" stroke="#BA494B" stroke-width="0.19" stroke-miterlimit="10"/>
<path d="M37.1701 31.4294L53.0701 22.1094L53.2001 22.3694L37.2902 31.5594L37.1602 31.4294H37.1701Z" fill="#BA494B"/>
<path d="M37.1701 31.4294L53.0701 22.1094L53.2001 22.3694L37.2902 31.5594L37.1602 31.4294H37.1701Z" stroke="#BA494B" stroke-width="0.19" stroke-miterlimit="10"/>
<path d="M37.1699 13.0393L37.2999 12.7793L53.21 22.0993L53.08 22.3593L37.1799 13.0393H37.1699Z" fill="#BA494B"/>
<path d="M37.1699 13.0393L37.2999 12.7793L53.21 22.0993L53.08 22.3593L37.1799 13.0393H37.1699Z" stroke="#BA494B" stroke-width="0.19" stroke-miterlimit="10"/>
<path d="M52.9502 22.2402H53.2002V40.8802H52.9502V22.2402Z" fill="#BA494B"/>
<path d="M52.9502 22.2402H53.2002V40.8802H52.9502V22.2402Z" stroke="#BA494B" stroke-width="0.19" stroke-miterlimit="10"/>
<path d="M42.0898 9.98047H42.3398V28.6205H42.0898V9.98047Z" fill="#BA494B"/>
<path d="M42.0898 9.98047H42.3398V28.6205H42.0898V9.98047Z" stroke="#BA494B" stroke-width="0.19" stroke-miterlimit="10"/>
<path d="M42.2202 28.4899L58.0002 19.1699L58.1302 19.4299L42.3502 28.7499L42.2202 28.4899Z" fill="#BA494B"/>
<path d="M42.2202 28.4899L58.0002 19.1699L58.1302 19.4299L42.3502 28.7499L42.2202 28.4899Z" stroke="#BA494B" stroke-width="0.19" stroke-miterlimit="10"/>
<path d="M57.8701 0.660156H58.2501V19.3002H57.8701V0.660156Z" fill="#BA494B"/>
<path d="M57.8701 0.660156H58.2501V19.3002H57.8701V0.660156Z" stroke="#BA494B" stroke-width="0.19" stroke-miterlimit="10"/>
<path d="M42.2202 9.8493L58.0002 0.529297L58.1302 0.789299L42.3502 10.1093L42.2202 9.8493Z" fill="#BA494B"/>
<path d="M42.2202 9.8493L58.0002 0.529297L58.1302 0.789299L42.3502 10.1093L42.2202 9.8493Z" stroke="#BA494B" stroke-width="0.19" stroke-miterlimit="10"/>
<path d="M42.2202 28.7502L42.3502 28.4902L58.1302 37.8102L58.0002 38.0702L42.2202 28.7502Z" fill="#BA494B"/>
<path d="M42.2202 28.7502L42.3502 28.4902L58.1302 37.8102L58.0002 38.0702L42.2202 28.7502Z" stroke="#BA494B" stroke-width="0.19" stroke-miterlimit="10"/>
<path d="M58 37.8102L73.78 28.4902L73.91 28.7502L58.13 38.0702L58 37.8102Z" fill="#BA494B"/>
<path d="M58 37.8102L73.78 28.4902L73.91 28.7502L58.13 38.0702L58 37.8102Z" stroke="#BA494B" stroke-width="0.19" stroke-miterlimit="10"/>
<path d="M58 19.4299L58.13 19.1699L73.91 28.4899L73.78 28.7499L58 19.4299Z" fill="#BA494B"/>
<path d="M58 19.4299L58.13 19.1699L73.91 28.4899L73.78 28.7499L58 19.4299Z" stroke="#BA494B" stroke-width="0.19" stroke-miterlimit="10"/>
<path d="M42.2202 10.1096L42.3502 9.84961L58.1302 19.1696L58.0002 19.4296L42.2202 10.1096Z" fill="#BA494B"/>
<path d="M42.2202 10.1096L42.3502 9.84961L58.1302 19.1696L58.0002 19.4296L42.2202 10.1096Z" stroke="#BA494B" stroke-width="0.19" stroke-miterlimit="10"/>
<path d="M58 19.1696L73.78 9.84961L73.91 10.1096L58.13 19.4296L58 19.1696Z" fill="#BA494B"/>
<path d="M58 19.1696L73.78 9.84961L73.91 10.1096L58.13 19.4296L58 19.1696Z" stroke="#BA494B" stroke-width="0.19" stroke-miterlimit="10"/>
<path d="M58 0.779533L58.13 0.519531L73.91 9.83954L73.78 10.0995L58 0.779533Z" fill="#BA494B"/>
<path d="M58 0.779533L58.13 0.519531L73.91 9.83954L73.78 10.0995L58 0.779533Z" stroke="#BA494B" stroke-width="0.19" stroke-miterlimit="10"/>
<path d="M73.7803 9.98047H74.0303V28.6205H73.7803V9.98047Z" fill="#BA494B"/>
<path d="M73.7803 9.98047H74.0303V28.6205H73.7803V9.98047Z" stroke="#BA494B" stroke-width="0.19" stroke-miterlimit="10"/>
<path d="M64.0604 43.4306L63.3004 44.2006C63.0504 43.8206 62.8003 43.5606 62.4203 43.5606C62.3203 43.5706 62.2403 43.6206 62.1703 43.6906C62.1003 43.7606 62.0504 43.8506 62.0404 43.9506V44.2106C62.3104 44.4906 62.6103 44.7406 62.9203 44.9806C63.3003 45.3606 63.5504 45.6206 63.6804 45.6206C63.7804 45.8506 63.9004 46.0606 64.0604 46.2606C64.1604 46.5006 64.2104 46.7606 64.1904 47.0306C64.1904 47.4706 64.0104 47.8806 63.6904 48.1806C63.3804 48.4606 62.9704 48.5906 62.5504 48.5606C62.1504 48.6106 61.7504 48.5206 61.4104 48.3006C61.1304 48.0306 60.8704 47.7306 60.6504 47.4106L61.5304 46.7706C61.6904 47.2006 62.0804 47.5006 62.5404 47.5406C62.6804 47.5606 62.8203 47.5106 62.9203 47.4106C63.0503 47.2806 63.1703 47.1506 63.1703 47.0306C63.1903 46.8906 63.1404 46.7506 63.0404 46.6506L62.4104 46.0106C61.9704 45.6506 61.5404 45.2706 61.1404 44.8606C60.9804 44.5906 60.9004 44.2806 60.8904 43.9706C60.8904 43.5706 61.0804 43.1906 61.3904 42.9506C61.7004 42.6706 62.1104 42.5406 62.5304 42.5706C62.8004 42.6006 63.0604 42.6806 63.2904 42.8306C63.5704 43.0006 63.8304 43.2206 64.0504 43.4706" fill="#3C5381"/>
<path d="M65.1899 42.6719H66.33V44.8419H68.22V42.6719H69.23V48.4219H68.22V45.9919H66.33V48.4219H65.1899V42.6719Z" fill="#3C5381"/>
<path d="M73.02 42.5409C73.8 42.5109 74.54 42.8409 75.04 43.4309C75.64 43.9909 75.96 44.7809 75.92 45.6009C75.93 46.4109 75.61 47.2009 75.04 47.7709C74.49 48.2809 73.77 48.5609 73.02 48.5409C72.21 48.5709 71.42 48.2509 70.87 47.6509C70.36 47.0909 70.09 46.3609 70.11 45.6109C70.08 45.0709 70.22 44.5409 70.49 44.0809C70.72 43.6209 71.07 43.2209 71.5 42.9309C71.97 42.6809 72.49 42.5509 73.01 42.5509M73.02 43.5609C72.49 43.5809 71.99 43.8109 71.63 44.2009C71.31 44.6009 71.14 45.0909 71.13 45.6009C71.03 46.5609 71.72 47.4109 72.68 47.5109C72.79 47.5209 72.91 47.5209 73.03 47.5109C73.51 47.5309 73.97 47.3509 74.29 47.0009C75.07 46.3109 75.14 45.1209 74.45 44.3509C74.4 44.3009 74.35 44.2409 74.29 44.1909C73.98 43.8109 73.52 43.5809 73.03 43.5509" fill="#3C5381"/>
<path d="M76.9302 44.8418H78.9502V45.9918H76.9302V44.8418Z" fill="#3C5381"/>
<path d="M83.2399 43.4309L82.3599 44.2009C82.1099 43.8209 81.86 43.5609 81.6 43.5609C81.34 43.5609 81.35 43.6909 81.22 43.6909C81.15 43.7609 81.1 43.8509 81.09 43.9509C81.09 44.0809 81.09 44.2109 81.22 44.2109C81.22 44.3409 81.47 44.5909 81.98 44.9809C82.36 45.3609 82.6099 45.6209 82.7399 45.6209C82.8699 45.8809 83.1199 46.1309 83.1199 46.2609C83.2199 46.5009 83.2699 46.7609 83.2499 47.0309C83.2499 47.4409 83.1099 47.8409 82.8699 48.1809C82.4999 48.4409 82.0599 48.5709 81.6099 48.5609C81.2099 48.6009 80.82 48.5109 80.47 48.3009C80.19 48.0309 79.93 47.7309 79.71 47.4109L80.59 46.7709C80.97 47.2809 81.22 47.5409 81.6 47.5409C81.78 47.5609 81.96 47.5109 82.1 47.4109C82.27 47.1809 82.27 46.8709 82.1 46.6409C81.92 46.4009 81.71 46.1809 81.47 46.0009C81.03 45.6909 80.64 45.3009 80.33 44.8509C80.08 44.6209 79.9399 44.3009 79.9399 43.9609C79.9399 43.5809 80.1899 43.3209 80.4399 42.9409C80.7499 42.6609 81.16 42.5309 81.58 42.5609C81.85 42.5909 82.11 42.6709 82.34 42.8209C82.59 42.9509 82.84 43.2009 83.22 43.4609" fill="#3C5381"/>
<path d="M84.3799 42.6702H87.4099V43.8202H85.3899V44.8402H87.4099V45.8602H85.3899V47.3902H87.4099V48.4102H84.3799V42.6602V42.6702Z" fill="#3C5381"/>
<path d="M88.4199 42.6702H89.5499V44.7102L91.0599 42.6702H92.3199L90.2999 45.2202L92.46 48.4102H91.2L89.5499 45.8602V48.4102H88.4199V42.6602V42.6702Z" fill="#3C5381"/>
<path d="M93.3403 42.6702H94.3503V44.7102L95.8603 42.6702H97.2503L95.2303 45.2202L97.3803 48.4102H96.1203L94.3503 45.8602V48.4102H93.3403V42.6602V42.6702Z" fill="#3C5381"/>
<path d="M98.1401 42.6702H101.3V43.8202H99.2802V44.8402H101.3V45.8602H99.2802V47.3902H101.3V48.4102H98.1401V42.6602V42.6702Z" fill="#3C5381"/>
<path d="M102.05 42.6719H103.31V48.5419H102.05V42.6719Z" fill="#3C5381"/>
<path d="M109.5 44.2001H110.64V47.9001C110.63 48.4501 110.45 48.9801 110.14 49.4301C109.74 49.9201 109.12 50.1601 108.5 50.0701C108.12 50.1001 107.73 50.0601 107.36 49.9401C107.1 49.8401 106.88 49.6601 106.73 49.4301C106.5 49.2801 106.32 49.0501 106.23 48.7901H107.49C107.49 48.9201 107.62 48.9201 107.87 49.0501C108 49.0501 108.12 49.1801 108.37 49.1801C108.62 49.1801 108.87 49.0501 109.13 49.0501C109.26 48.9201 109.38 48.7901 109.38 48.6701C109.51 48.5401 109.51 48.2901 109.51 47.9001C109.42 48.1001 109.23 48.2501 109.01 48.2801C108.26 48.5701 107.41 48.3601 106.86 47.7701C106.45 47.3701 106.22 46.8101 106.23 46.2401C106.25 45.6301 106.47 45.0501 106.86 44.5801C107.26 44.2801 107.75 44.1001 108.25 44.0701C108.47 44.0401 108.69 44.0801 108.88 44.2001C109.14 44.3001 109.36 44.4801 109.51 44.7101V44.2001H109.5ZM108.49 45.0901C108.15 45.0901 107.83 45.2201 107.61 45.4701C107.45 45.6901 107.36 45.9601 107.36 46.2401C107.36 46.5501 107.45 46.8601 107.61 47.1301C107.83 47.3801 108.16 47.5201 108.49 47.5101C108.79 47.5101 109.07 47.3701 109.25 47.1301C109.5 46.9001 109.64 46.5801 109.63 46.2401C109.63 45.9401 109.5 45.6501 109.25 45.4701C109.08 45.2201 108.79 45.0801 108.49 45.0901Z" fill="#8892B0"/>
<path d="M111.39 44.2008H112.27V44.7108C112.4 44.5808 112.52 44.3308 112.65 44.2008C112.78 44.2008 113.03 44.0708 113.15 44.0708C113.33 44.0508 113.51 44.1008 113.65 44.2008L113.27 45.0908C113.17 45.0808 113.09 45.0308 113.02 44.9608C112.82 44.9708 112.65 45.1408 112.64 45.3408C112.45 45.6908 112.36 46.0907 112.39 46.4908V48.4107H111.38V44.2008H111.39Z" fill="#8892B0"/>
<path d="M115.94 44.0703C116.33 44.0903 116.71 44.1803 117.08 44.3303C117.43 44.5603 117.74 44.8703 117.96 45.2203C118.12 45.5803 118.2 45.9703 118.21 46.3703C118.21 46.7303 118.12 47.0703 117.96 47.3903C117.73 47.7503 117.43 48.0503 117.08 48.2803C116.73 48.4503 116.34 48.5403 115.94 48.5403C115.38 48.5003 114.85 48.2703 114.43 47.9003C114.02 47.5003 113.8 46.9403 113.8 46.3703C113.75 45.7203 114.04 45.1003 114.56 44.7103C114.92 44.3203 115.42 44.0903 115.95 44.0703M115.94 45.1003C115.65 45.1203 115.37 45.2603 115.18 45.4803C114.91 45.6903 114.77 46.0303 114.8 46.3703C114.8 46.7103 114.93 47.0403 115.18 47.2603C115.67 47.6003 116.33 47.6003 116.82 47.2603C117.05 47.0203 117.18 46.7003 117.2 46.3703C117.24 46.0303 117.09 45.6903 116.82 45.4803C116.6 45.2303 116.27 45.0903 115.94 45.1003Z" fill="#8892B0"/>
<path d="M118.97 44.2012H119.98V46.2412C119.98 46.6212 120.11 46.8812 120.11 47.1312C120.24 47.2612 120.24 47.3912 120.36 47.3912C120.49 47.5212 120.61 47.5212 120.86 47.5212C121 47.5412 121.14 47.4912 121.24 47.3912C121.37 47.3912 121.49 47.2612 121.49 47.0112C121.62 46.8812 121.62 46.6312 121.62 46.2412V44.2012H122.63V45.9912C122.68 46.5012 122.63 47.0212 122.5 47.5212C122.4 47.8512 122.17 48.1212 121.87 48.2912C121.56 48.4512 121.21 48.5412 120.86 48.5512C120.47 48.5512 120.08 48.4712 119.72 48.2912C119.44 48.0512 119.22 47.7412 119.09 47.4012C118.96 46.9412 118.92 46.4712 118.96 45.9912V44.2012H118.97Z" fill="#8892B0"/>
<path d="M124.65 44.2001V44.7101C124.8 44.4801 125.02 44.3001 125.28 44.2001C125.47 44.0801 125.69 44.0401 125.91 44.0701C126.44 44.0901 126.94 44.3201 127.3 44.7101C127.71 45.1701 127.93 45.7601 127.93 46.3701C127.93 46.9401 127.71 47.5001 127.3 47.9001C126.94 48.2901 126.44 48.5201 125.91 48.5401C125.69 48.5701 125.47 48.5301 125.28 48.4101C125.05 48.3101 124.84 48.1801 124.65 48.0301V49.9501H123.51V44.2001H124.65ZM125.66 45.0901C125.37 45.1101 125.09 45.2501 124.9 45.4701C124.63 45.6801 124.48 46.0201 124.52 46.3601C124.52 46.7001 124.65 47.0301 124.9 47.2501C125.1 47.4501 125.38 47.5401 125.66 47.5101C125.98 47.5601 126.3 47.4701 126.54 47.2501C126.74 47.0001 126.83 46.6801 126.79 46.3601C126.79 45.9801 126.79 45.5901 126.54 45.4701C126.32 45.2201 125.99 45.0801 125.66 45.0901Z" fill="#8892B0"/>
<path d="M64.18 53.6506C64.31 53.3906 64.43 53.3906 64.68 53.3906C64.93 53.5206 65.06 53.6506 64.93 54.0306C64.82 54.4306 64.65 54.8206 64.43 55.1806H65.19C65.4 55.1806 65.57 55.3506 65.57 55.5606C65.57 55.7706 65.4 55.9406 65.19 55.9406H63.67V58.2406H64.68C65.06 58.2406 65.18 58.3706 65.18 58.5006C65.18 58.7606 65.05 58.8806 64.68 58.8806H63.67V61.3106C64.17 61.1806 64.68 61.0506 65.31 60.9306C65.44 60.9306 65.56 61.0606 65.69 61.1906C65.69 61.4506 65.56 61.5706 65.44 61.5706C64.83 61.8006 64.19 61.9306 63.55 61.9506C63.35 63.2506 62.62 64.4106 61.53 65.1406C61.28 65.1406 61.03 65.1406 61.03 65.0106C60.9 64.7506 61.03 64.6306 61.16 64.5006C61.98 63.9806 62.57 63.1506 62.8 62.2006C62.17 62.2006 61.66 62.3306 61.29 62.3306C60.92 62.3306 60.79 62.2006 60.79 61.9506C60.79 61.5706 60.92 61.4406 61.29 61.4406C61.83 61.5006 62.39 61.5006 62.93 61.4406V58.8806H61.54C61.36 58.9106 61.19 58.7806 61.16 58.5906C61.16 58.5606 61.16 58.5306 61.16 58.5006C61.16 58.3706 61.29 58.2406 61.54 58.2406H62.93V55.9406H61.29C61.08 55.9406 60.91 55.7706 60.91 55.5606C60.91 55.3506 61.08 55.1806 61.29 55.1806H62.05L61.92 54.6706L61.54 54.0306C61.41 53.7706 61.41 53.6506 61.54 53.5206C61.79 53.3906 61.92 53.3906 62.04 53.6506C62.34 54.1306 62.6 54.6506 62.8 55.1806H63.68L64.18 53.6506ZM67.97 53.7806C68.47 53.7806 68.73 54.0406 68.73 54.4206V64.0006C68.73 64.6406 68.35 65.0206 67.59 65.0206C67.16 65.0106 66.73 64.9206 66.33 64.7606C66.08 64.6306 66.08 64.5006 66.08 64.3806C66.08 64.2606 66.21 64.1206 66.46 64.1206C66.83 64.2306 67.21 64.2706 67.6 64.2506C67.78 64.2706 67.95 64.1506 67.98 63.9606C67.98 63.9306 67.98 63.9006 67.98 63.8706V60.4206C67.41 61.3506 66.73 62.2106 65.96 62.9806C65.83 63.1106 65.71 63.1106 65.46 62.9806C65.33 62.7906 65.33 62.5406 65.46 62.3406C66.47 61.4706 67.32 60.4306 67.98 59.2706V54.8006C67.98 54.5406 67.85 54.5406 67.73 54.5406H66.09C65.88 54.5406 65.71 54.3706 65.71 54.1606C65.71 53.9506 65.88 53.7806 66.09 53.7806H67.98H67.97ZM65.82 56.2006C66.07 56.0706 66.2 56.0706 66.32 56.3306C66.76 57.0906 67.1 57.9106 67.33 58.7606C67.33 59.0206 67.2 59.2706 66.95 59.2706C66.77 59.3006 66.6 59.1706 66.57 58.9806C66.57 58.9506 66.57 58.9206 66.57 58.8906C66.32 58.2506 66.07 57.4906 65.81 56.7206C65.68 56.3406 65.68 56.2106 65.81 56.2106M71.63 53.7806C71.96 53.7606 72.24 54.0206 72.26 54.3506C72.26 54.3706 72.26 54.4006 72.26 54.4206V64.0006C72.26 64.6406 71.88 65.0206 71.12 65.0206C70.69 65.0006 70.26 64.9106 69.86 64.7606C69.73 64.6306 69.61 64.5006 69.73 64.3806C69.73 64.2506 69.73 64.1206 69.98 64.1206C70.35 64.2306 70.73 64.2706 71.12 64.2506C71.37 64.2506 71.5 64.1206 71.5 63.9906V60.1606C71 61.0706 70.41 61.9206 69.73 62.7106C69.6 62.9706 69.48 62.9706 69.23 62.7106C69.1 62.5806 68.98 62.4506 69.23 62.2006C70.09 61.1606 70.85 60.0506 71.5 58.8806V54.7906C71.5 54.6173 71.4167 54.5306 71.25 54.5306H69.61C69.4 54.5306 69.23 54.3606 69.23 54.1506C69.23 53.9406 69.4 53.7706 69.61 53.7706H71.63V53.7806ZM69.48 56.2006C69.61 56.0706 69.73 56.0706 69.86 56.3306C70.36 57.0606 70.7 57.8906 70.87 58.7606C70.87 59.1406 70.74 59.2706 70.49 59.2706C70.31 59.2906 70.14 59.1706 70.11 58.9806C70.11 58.9506 70.11 58.9206 70.11 58.8906C69.86 58.0006 69.61 57.3606 69.35 56.5906C69.22 56.3306 69.22 56.2106 69.48 56.2106" fill="#3C5381"/>
<path d="M60.9001 65.0102V64.8802C60.9001 64.6202 60.9001 64.5002 61.1501 64.3702C61.8901 63.9002 62.4302 63.1702 62.6602 62.3302C62.1602 62.3302 61.6501 62.4602 61.2701 62.4602C61.0201 62.4602 60.8901 62.3302 60.7701 62.3302C60.7701 62.2002 60.6401 62.0702 60.6401 61.9502C60.6401 61.8102 60.6801 61.6702 60.7701 61.5702C60.9001 61.4402 61.0201 61.4402 61.2701 61.4402H61.6501C62.0301 61.4402 62.4102 61.3102 62.7902 61.3102V59.0102H61.5302C61.3902 59.0302 61.2501 58.9802 61.1501 58.8802C61.0201 58.8802 61.0201 58.7502 61.0201 58.5002C61.0201 58.3702 61.0201 58.2402 61.1501 58.2402C61.2501 58.1402 61.3902 58.1002 61.5302 58.1102H62.7902V55.9402H61.2802C61.1402 55.9602 61.0001 55.9102 60.9001 55.8102C60.7701 55.8102 60.7701 55.6802 60.7701 55.5502C60.7501 55.4102 60.8001 55.2702 60.9001 55.1702C61.0001 55.0702 61.1402 55.0302 61.2802 55.0402H61.9102L61.7802 54.7802L61.4001 54.0102C61.3301 53.9402 61.2901 53.8502 61.2701 53.7502C61.2701 53.6202 61.4001 53.4902 61.5201 53.3702C61.6501 53.3702 61.6501 53.2402 61.7701 53.2402C61.8901 53.2402 61.9001 53.3702 62.0201 53.3702L62.1501 53.5002C62.4501 53.9802 62.7102 54.5002 62.9102 55.0302H63.6701L64.0501 53.6302L64.3001 53.3702C64.3701 53.3002 64.4601 53.2602 64.5601 53.2402C64.6301 53.2402 64.6801 53.2902 64.6901 53.3602C64.8201 53.3602 64.9401 53.3602 64.9401 53.4902C65.0701 53.4902 65.0701 53.6202 65.0701 53.7502V54.0102C64.9501 54.3702 64.7801 54.7202 64.5701 55.0302H65.2001C65.3401 55.0102 65.4801 55.0602 65.5801 55.1602C65.6801 55.2602 65.7201 55.4002 65.7101 55.5402C65.7101 55.6702 65.7101 55.8002 65.5801 55.8002C65.4801 55.9002 65.3401 55.9402 65.2001 55.9302H63.6901V58.1002H64.7001C64.9501 58.1002 65.0801 58.1002 65.0801 58.2302C65.2101 58.2302 65.2101 58.3602 65.2101 58.4902C65.2101 58.7502 65.2101 58.8702 65.0801 58.8702C65.0801 59.0002 64.9501 59.0002 64.7001 59.0002H63.6901V61.1702C64.1901 61.0402 64.7001 61.0402 65.3301 60.9102H65.5801C65.6668 60.9969 65.7101 61.0836 65.7101 61.1702V61.5502C65.5801 61.5502 65.5801 61.6802 65.4601 61.6802C64.8801 61.8402 64.2901 61.9702 63.6901 62.0602C63.4701 63.3502 62.6802 64.4802 61.5402 65.1302C61.4702 65.2002 61.3802 65.2502 61.2902 65.2602C61.0402 65.2602 60.9102 65.1302 60.9102 65.0002M61.2802 65.0102H61.4102C62.5202 64.3302 63.3001 63.2202 63.5601 61.9402C64.1601 61.8102 64.7501 61.6402 65.3301 61.4302H65.5801V61.3002C65.5801 61.1702 65.4501 61.1702 65.4501 61.0402H65.3201C64.6901 61.1702 64.1801 61.3002 63.6801 61.4202H63.5501V58.7402H64.9401C65.0701 58.7402 65.0701 58.6102 65.0701 58.4802C65.0701 58.4102 65.0201 58.3502 64.9501 58.3502C64.8801 58.2802 64.7901 58.2402 64.7001 58.2202H63.5601V55.7902H65.2001C65.3301 55.7902 65.4501 55.7902 65.4501 55.6602V55.2802H64.3201V55.1502C64.5201 54.7402 64.6901 54.3102 64.8201 53.8702C64.8901 53.8702 64.9401 53.8002 64.9401 53.7302C64.9401 53.6702 64.8901 53.6202 64.8201 53.6102C64.8201 53.5236 64.7768 53.4802 64.6901 53.4802H64.4401C64.3701 53.4802 64.3201 53.5302 64.3101 53.6002H64.1801L64.3101 53.7302L63.8001 55.2602H62.7902V55.1302C62.4902 54.6502 62.2302 54.1302 62.0302 53.6002C61.9602 53.6002 61.9101 53.5502 61.9001 53.4802H61.6501C61.5635 53.5669 61.5201 53.6536 61.5201 53.7402C61.5201 53.8402 61.5701 53.9302 61.6501 54.0002L61.9001 54.6402L62.1501 55.2802H61.0101V55.6602C61.0101 55.7902 61.1401 55.7902 61.2601 55.7902H63.0302V58.2202H61.5201C61.4201 58.2302 61.3401 58.2802 61.2701 58.3502V58.7302H63.0402V58.8602C63.0802 59.7102 63.0402 60.5702 62.9102 61.4102C62.5002 61.5202 62.0701 61.5602 61.6501 61.5402H61.2701C61.1035 61.5402 60.9768 61.5836 60.8901 61.6702V62.0502C60.9768 62.1369 61.1035 62.1802 61.2701 62.1802C61.7801 62.1902 62.2902 62.1502 62.7802 62.0502H62.9102V62.1802C62.6402 63.1402 62.0601 64.0002 61.2701 64.6102C61.0201 64.6102 61.0201 64.7402 61.0201 64.8702C61.1068 64.9569 61.1901 65.0002 61.2701 65.0002M69.8601 64.8802C69.6101 64.7502 69.6101 64.6202 69.6101 64.5002V64.3702C69.6101 64.2836 69.6534 64.1969 69.7401 64.1102C69.8101 64.0402 69.9001 64.0002 69.9901 63.9802C70.3601 64.0902 70.7401 64.1302 71.1301 64.1102H71.3801C71.3801 64.0402 71.4301 63.9802 71.5001 63.9802V60.4102C70.7401 61.5602 70.1101 62.3302 69.8601 62.8402C69.6401 63.0102 69.3302 63.0102 69.1002 62.8402C69.1002 62.7102 68.9702 62.5802 68.9702 62.4602C68.9702 62.3402 68.9702 62.2002 69.1002 62.2002V62.0702C69.9902 61.0802 70.7901 60.0102 71.5001 58.8802V54.7902C71.4201 54.7002 71.3301 54.6202 71.2501 54.5302H69.2302C69.0602 54.3002 69.0602 53.9902 69.2302 53.7602C69.3602 53.7602 69.4801 53.6302 69.6101 53.6302H71.6301V53.8902H69.3601V54.2802C69.4468 54.3669 69.5301 54.4102 69.6101 54.4102H71.2501C71.3801 54.4102 71.5001 54.4102 71.5001 54.5402C71.6301 54.5402 71.6301 54.6702 71.6301 54.8002V59.0102C70.8901 60.1202 70.0902 61.1802 69.2302 62.2002V62.7102C69.3302 62.7202 69.4102 62.7702 69.4802 62.8402C69.6102 62.8402 69.6102 62.7102 69.7302 62.7102C70.2702 61.7902 70.8601 60.8902 71.5001 60.0302L71.6301 59.7702V63.9802C71.6301 64.1102 71.6301 64.2402 71.5001 64.2402C71.4001 64.3402 71.2601 64.3802 71.1201 64.3702C70.7401 64.3902 70.3502 64.3502 69.9802 64.2402H69.8502L69.7202 64.3702V64.5002L69.8502 64.6302C70.2602 64.7802 70.6801 64.8602 71.1101 64.8902C71.3901 64.9102 71.6601 64.8202 71.8701 64.6302C72.0501 64.4702 72.1501 64.2302 72.1201 63.9902V54.4102C72.1401 54.2702 72.0901 54.1302 71.9901 54.0302C71.8901 53.9302 71.7501 53.8902 71.6101 53.9002V53.6402C71.8101 53.6402 71.9901 53.7402 72.1101 53.9002C72.2701 54.0202 72.3601 54.2102 72.3601 54.4102V63.9902C72.4001 64.3002 72.2502 64.6002 71.9802 64.7602C71.8502 65.0202 71.4802 65.0202 71.1002 65.0202C70.6802 65.0502 70.2501 65.0002 69.8401 64.8902M66.3301 64.8902H66.2001C66.0701 64.7602 65.9501 64.6302 65.9501 64.5102V64.3802C65.9501 64.2502 66.0801 64.2502 66.0801 64.1202C66.2101 64.1202 66.3301 63.9902 66.4601 63.9902C66.8301 64.1002 67.2102 64.1402 67.6002 64.1202H67.8502V60.8002C67.3302 61.5802 66.7401 62.3002 66.0801 62.9702C65.9501 63.1002 65.8301 63.2302 65.7001 63.2302C65.6001 63.2202 65.5201 63.1702 65.4501 63.1002H65.3201C65.3201 62.9702 65.1901 62.8402 65.1901 62.7202C65.1901 62.6002 65.3201 62.4602 65.3201 62.3402H65.4501C66.3601 61.4102 67.1602 60.3802 67.8502 59.2702V54.6702C67.8502 54.6002 67.8002 54.5402 67.7302 54.5402H65.7101C65.5401 54.3102 65.5401 54.0002 65.7101 53.7702C65.8401 53.7702 65.9601 53.6402 66.0901 53.6402H67.9802V53.9002H65.8301C65.8301 54.0302 65.7001 54.0302 65.7001 54.1602C65.7001 54.2302 65.7501 54.2902 65.8201 54.2902C65.8201 54.4202 65.9501 54.4202 66.0701 54.4202H67.7101C67.7968 54.4202 67.8801 54.4636 67.9601 54.5502C68.0901 54.5502 68.0901 54.6802 68.0901 54.8102V59.2802C67.3601 60.4302 66.5101 61.5002 65.5701 62.4702C65.4401 62.4702 65.4401 62.6002 65.4401 62.7302C65.5201 62.8202 65.6101 62.9002 65.6901 62.9902C65.7768 62.9902 65.8601 62.9469 65.9401 62.8602C66.6301 62.1002 67.2601 61.2902 67.8301 60.4302L68.0801 60.1702V63.8702C68.0801 64.0002 67.9501 64.1302 67.9501 64.2502C67.8501 64.3502 67.7101 64.3902 67.5701 64.3802C67.1901 64.4102 66.8001 64.3702 66.4301 64.2502H66.1801V64.5102C66.1801 64.5802 66.2301 64.6402 66.3001 64.6402C66.7001 64.8002 67.1301 64.8802 67.5601 64.9002C67.8401 64.9202 68.1101 64.8302 68.3201 64.6402C68.5001 64.4802 68.6001 64.2402 68.5701 64.0002V54.4202C68.5701 54.2902 68.4401 54.1602 68.4401 54.0402C68.3101 53.9102 68.1901 53.9102 67.9401 53.9102V53.6502C68.1701 53.6502 68.4001 53.7502 68.5701 53.9102C68.7001 54.0402 68.7001 54.1702 68.7001 54.4202V64.0002C68.7001 64.3802 68.7001 64.6402 68.4501 64.7702C68.2101 64.9902 67.8801 65.0802 67.5701 65.0302C67.1501 65.0602 66.7201 65.0102 66.3101 64.9002M66.9601 59.2702H66.5801C66.5801 59.1402 66.4501 59.0102 66.4501 58.8902C66.2901 58.1402 66.0401 57.4102 65.6901 56.7202V56.2102C65.6901 56.1402 65.7401 56.0802 65.8101 56.0802H66.0601C66.1901 56.0802 66.3101 56.0802 66.4401 56.3402C66.9001 57.0902 67.2501 57.9102 67.4501 58.7702C67.4501 58.9002 67.3201 59.0302 67.3201 59.1502C67.2201 59.2502 67.0801 59.2902 66.9401 59.2802M66.7001 58.8802V59.0102C66.7868 59.0969 66.8701 59.1402 66.9501 59.1402C67.0801 59.1402 67.0801 59.1402 67.0801 59.0102C67.2101 59.0102 67.2101 58.8802 67.2101 58.7502C67.0301 57.9502 66.7301 57.1702 66.3301 56.4502L66.0801 56.1902C65.9935 56.1902 65.9501 56.2336 65.9501 56.3202H65.8201C65.8201 56.4069 65.8635 56.4936 65.9501 56.5802L66.7101 58.8802M70.4901 59.2702H70.2401C70.1101 59.1402 70.1101 59.0102 69.9901 58.8902C69.8701 58.1302 69.6202 57.3902 69.2302 56.7202V56.2102C69.2302 56.1402 69.2802 56.0802 69.3502 56.0802C69.4802 56.0802 69.4802 55.9502 69.6002 55.9502C69.7202 55.9502 69.8502 56.0802 69.9802 56.2102C70.4602 57.0002 70.8001 57.8602 70.9901 58.7602C70.9901 59.0202 70.9901 59.1402 70.8601 59.1402C70.7601 59.2402 70.6202 59.2802 70.4802 59.2702M69.4802 56.2002L69.3502 56.3302C69.3502 56.4302 69.4002 56.5202 69.4802 56.5902C69.7302 57.2302 69.9901 57.9902 70.2401 58.8902C70.2401 58.9769 70.2835 59.0202 70.3701 59.0202C70.4568 59.0202 70.5001 59.0636 70.5001 59.1502C70.6301 59.1502 70.7501 59.1502 70.7501 59.0202V58.8902C70.5801 57.9802 70.2401 57.1202 69.7401 56.3402C69.7401 56.2702 69.6901 56.2102 69.6201 56.2102H69.4901L69.4802 56.2002Z" fill="#3C5381"/>
<path d="M78.4501 55.4415C78.6601 55.4415 78.8301 55.6115 78.8301 55.8215C78.8301 56.0315 78.6601 56.2015 78.4501 56.2015H74.7902C74.5802 56.2015 74.4102 56.0315 74.4102 55.8215C74.4102 55.6115 74.5802 55.4415 74.7902 55.4415H78.4501ZM77.8201 53.6515C78.0301 53.6515 78.2001 53.8215 78.2001 54.0315C78.2001 54.2415 78.0301 54.4115 77.8201 54.4115H75.0402C74.8302 54.4115 74.6602 54.2415 74.6602 54.0315C74.6602 53.8215 74.8302 53.6515 75.0402 53.6515H77.8201ZM77.8201 57.1015C78.0301 57.1015 78.2001 57.2715 78.2001 57.4815C78.2001 57.6915 78.0301 57.8615 77.8201 57.8615H75.0402C74.8302 57.8615 74.6602 57.6915 74.6602 57.4815C74.6602 57.2715 74.8302 57.1015 75.0402 57.1015H77.8201ZM77.8201 58.8815C78.0301 58.8815 78.2001 59.0515 78.2001 59.2615C78.2001 59.4715 78.0301 59.6415 77.8201 59.6415H75.0402C74.8302 59.6415 74.6602 59.4715 74.6602 59.2615C74.6602 59.0515 74.8302 58.8815 75.0402 58.8815H77.8201ZM77.5601 60.6715C77.9401 60.6715 78.1901 60.9315 78.1901 61.4415V64.2515C78.1901 64.7615 77.9401 64.8915 77.5601 64.8915H75.2902C74.9102 64.8915 74.6602 64.7615 74.6602 64.2515V61.4415C74.6602 60.9315 74.9102 60.6715 75.2902 60.6715H77.5601ZM75.4201 61.5715V64.0015C75.4201 64.2615 75.5501 64.2615 75.6701 64.2615H77.3101C77.4401 64.2615 77.5601 64.2615 77.5601 64.0015V61.5715C77.5601 61.4315 77.4401 61.3215 77.3101 61.3115H75.6701C75.5301 61.3215 75.4301 61.4315 75.4201 61.5715ZM84.5001 59.2715C85.0001 59.2715 85.2601 59.4015 85.2601 59.9115C85.2401 60.3815 85.0601 60.8315 84.7601 61.1915C84.3601 61.8715 83.8501 62.4815 83.2501 62.9815C83.9701 63.4815 84.7901 63.8315 85.6501 64.0015C85.8501 64.1015 85.9902 64.2915 86.0302 64.5115C85.9002 64.8915 85.6501 64.8915 85.2701 64.7715C84.3201 64.5015 83.4201 64.0715 82.6201 63.4915C81.5801 64.1615 80.4301 64.6415 79.2101 64.8915C78.9601 65.0215 78.8301 64.8915 78.7101 64.7615C78.7101 64.5015 78.7101 64.3815 79.0901 64.2515C80.1601 63.9915 81.1801 63.5615 82.1201 62.9715C81.2201 62.1215 80.5302 61.0715 80.1002 59.9015H79.4702C79.2202 59.9015 79.0901 59.7715 79.0901 59.6415C79.0601 59.4615 79.1901 59.2815 79.3701 59.2615C79.4001 59.2615 79.4301 59.2615 79.4601 59.2615H84.5101L84.5001 59.2715ZM83.2401 53.5215C83.4701 53.5215 83.7001 53.6215 83.8701 53.7815C84.0301 53.9615 84.1201 54.1815 84.1201 54.4215V56.9715C84.0901 57.2315 84.2802 57.4515 84.5402 57.4815C84.5702 57.4815 84.6001 57.4815 84.6301 57.4815H84.8801C85.1301 57.4815 85.2601 57.3515 85.2601 56.9715V56.0815C85.2601 55.8715 85.4101 55.6915 85.6201 55.6815C85.8301 55.6815 86.0101 55.8315 86.0201 56.0415C86.0201 56.0515 86.0201 56.0615 86.0201 56.0715V57.3515C85.9901 57.5415 85.9001 57.7215 85.7701 57.8615C85.6201 58.0515 85.3801 58.1515 85.1401 58.1215H84.2601C84.0201 58.1515 83.7801 58.0515 83.6301 57.8615C83.5001 57.7215 83.4101 57.5415 83.3801 57.3515V54.6715C83.4101 54.4915 83.2801 54.3115 83.0901 54.2915C83.0601 54.2915 83.0301 54.2915 83.0001 54.2915H81.2302C81.0502 54.2615 80.8802 54.3915 80.8502 54.5815C80.8502 54.6115 80.8502 54.6415 80.8502 54.6715V55.8215C80.8302 56.7815 80.3601 57.6815 79.5901 58.2515C79.4001 58.3815 79.1501 58.3815 78.9601 58.2515C78.8301 58.1215 78.9601 57.9915 79.0901 57.7415C79.7801 57.3015 80.1702 56.5115 80.1002 55.7015V54.4215C80.1002 54.1815 80.1902 53.9615 80.3502 53.7815C80.6002 53.6515 80.7302 53.5215 80.9802 53.5215H83.2501H83.2401ZM82.6101 62.4615C83.4301 61.9615 84.0501 61.1915 84.3801 60.2915C84.5101 60.0315 84.5101 59.9115 84.2501 59.9115H80.8401C81.2701 60.8615 81.8601 61.7315 82.6101 62.4615Z" fill="#3C5381"/>
<path d="M78.8302 65.0206L78.5802 64.7606V64.6306C78.5802 64.5006 78.7102 64.3706 78.7102 64.2506C78.7969 64.2506 78.8802 64.2073 78.9602 64.1206C79.9802 63.8906 80.9602 63.5006 81.8602 62.9706C81.0802 62.0906 80.4502 61.1006 79.9702 60.0306H79.4602C79.3202 60.0506 79.1802 60.0006 79.0802 59.9006C78.9502 59.9006 78.9502 59.7706 78.9502 59.6406C78.9502 59.3806 78.9502 59.2606 79.0802 59.2606C79.1802 59.1606 79.3202 59.1206 79.4602 59.1306H84.5102V59.2606H79.4602C79.3602 59.2706 79.2702 59.3206 79.2102 59.3906C79.1402 59.4606 79.1002 59.5506 79.0802 59.6506L79.2102 59.7806C79.2802 59.8506 79.3702 59.8906 79.4602 59.9106H80.0902C80.5402 61.0306 81.2302 62.0306 82.1102 62.8506L82.2402 62.9806L82.1102 63.1106C81.1702 63.6906 80.1502 64.1206 79.0802 64.3906C78.9935 64.3906 78.9102 64.434 78.8302 64.5206V64.6506C78.8302 64.7373 78.8736 64.7806 78.9602 64.7806L79.0902 64.9106H79.2202C80.4202 64.5606 81.5702 64.0406 82.6302 63.3806H82.7602C83.5202 63.9606 84.3702 64.3906 85.2802 64.6606C85.3802 64.7606 85.5202 64.8006 85.6602 64.7906C85.7402 64.7106 85.8302 64.6206 85.9102 64.5306V64.2706C85.7802 64.2706 85.7802 64.1406 85.6602 64.1406C84.8302 63.8806 84.0302 63.5306 83.2602 63.1206L83.1302 62.9906L83.2602 62.8606C83.8602 62.4006 84.3702 61.8406 84.7702 61.2006C85.0302 60.8106 85.2002 60.3806 85.2702 59.9206C85.2702 59.6606 85.1402 59.5406 85.0202 59.5406C84.9002 59.3806 84.7102 59.2906 84.5202 59.2806V59.1506C84.7402 59.1206 84.9602 59.1606 85.1502 59.2806C85.2802 59.4206 85.3702 59.6006 85.4002 59.7906V59.9206C85.3902 60.4306 85.2102 60.9206 84.9002 61.3306C84.5002 61.9706 83.9902 62.5306 83.3902 62.9906C84.1202 63.3806 84.8802 63.7206 85.6602 64.0106H85.7902C85.8602 64.0806 85.9502 64.1206 86.0402 64.1406C86.0502 64.2406 86.1002 64.3306 86.1702 64.4006C86.1702 64.4873 86.1269 64.574 86.0402 64.6606C85.9536 64.7473 85.9102 64.834 85.9102 64.9206H85.2802C84.3502 64.6006 83.4602 64.1706 82.6302 63.6406C81.5902 64.3106 80.4302 64.7906 79.2202 65.0506H78.8402L78.8302 65.0206ZM77.5702 65.0206H75.3002C75.1202 65.0406 74.9402 64.9906 74.7902 64.8906C74.6902 64.6906 74.6402 64.4706 74.6602 64.2506V61.4406C74.6302 61.2206 74.6702 60.9906 74.7902 60.8006C74.9402 60.7006 75.1202 60.6506 75.3002 60.6706H77.5702V60.8006H75.3002C75.1702 60.8006 75.0502 60.9306 74.9202 60.9306C74.7902 61.0606 74.7902 61.1906 74.7902 61.4406V64.2506C74.7902 64.5106 74.7902 64.6306 74.9202 64.6306C75.0502 64.7606 75.1702 64.8906 75.3002 64.8906H77.5702C77.8202 64.8906 77.9502 64.7606 77.9502 64.6306C78.0802 64.6306 78.0802 64.5006 78.0802 64.2506V61.4406C78.0802 61.1806 78.0802 61.0606 77.9502 60.9306C77.8402 60.8406 77.7102 60.8006 77.5702 60.8006V60.6706C77.8202 60.6706 77.9502 60.6706 78.0702 60.8006C78.3202 60.9306 78.3202 61.1806 78.3202 61.4406V64.2506C78.3502 64.4906 78.2602 64.7306 78.0702 64.8906C77.9402 65.0206 77.8202 65.0206 77.5702 65.0206ZM77.3102 64.3806H75.4202C75.3202 64.2806 75.2802 64.1406 75.2902 64.0006V61.5706C75.2902 61.484 75.3335 61.3973 75.4202 61.3106C75.4902 61.2406 75.5802 61.2006 75.6702 61.1806H77.3102C77.3802 61.2506 77.4702 61.2906 77.5602 61.3106V64.3806H77.3102ZM75.5402 64.0006V64.1306C75.5402 64.2173 75.5835 64.2606 75.6702 64.2606H77.3102L77.4402 64.1306V61.4506H75.5502V64.0106L75.5402 64.0006ZM82.6102 62.5906C81.8202 61.8706 81.1802 61.0006 80.7202 60.0406L80.5902 59.9106H84.5002V60.2906C84.1002 61.1806 83.4902 61.9706 82.7302 62.5906H82.6002H82.6102ZM82.6102 62.3406C83.3602 61.8206 83.9702 61.1106 84.3802 60.3006V60.0406H80.9702C81.3902 60.8906 81.9402 61.6706 82.6102 62.3406ZM75.0402 59.7806C74.9402 59.7706 74.8602 59.7206 74.7902 59.6506C74.6202 59.4206 74.6202 59.1106 74.7902 58.8806C74.8602 58.8106 74.9502 58.7706 75.0402 58.7506H77.8202V59.0106H75.0402C74.9702 59.0106 74.9202 59.0606 74.9102 59.1306C74.8236 59.1306 74.7802 59.174 74.7802 59.2606C74.7802 59.3473 74.8236 59.434 74.9102 59.5206H78.0702V59.1406C78.0702 59.0106 77.9402 59.0106 77.8202 59.0106V58.7506C77.9502 58.7506 78.0702 58.8806 78.2002 58.8806C78.3702 59.1106 78.3702 59.4206 78.2002 59.6506C78.0702 59.6506 77.9502 59.7806 77.8202 59.7806H75.0402ZM78.9502 58.3806C78.8802 58.3106 78.8302 58.2206 78.8202 58.1206C78.8202 57.9906 78.9502 57.8606 78.9502 57.7406H79.0802C79.7002 57.2406 80.0702 56.4906 80.0902 55.7006V54.3006C80.0602 54.0906 80.1602 53.8906 80.3402 53.7906C80.4602 53.5506 80.7002 53.4006 80.9702 53.4106H83.2402V53.6706H80.9702C80.7202 53.6706 80.5902 53.6706 80.4702 53.9306C80.3402 54.0606 80.2202 54.1906 80.2202 54.3106V55.7106C80.2302 56.5506 79.8602 57.3506 79.2102 57.8806C79.1236 57.9673 79.0802 58.054 79.0802 58.1406V58.2706H79.2102C79.2969 58.2706 79.3802 58.2273 79.4602 58.1406C80.2502 57.6406 80.7202 56.7706 80.7202 55.8406V54.6906C80.7002 54.5506 80.7502 54.4106 80.8502 54.3106C80.9502 54.2106 81.0902 54.1706 81.2302 54.1806H83.0002C83.1402 54.1606 83.2802 54.2106 83.3802 54.3106C83.4802 54.4106 83.5202 54.5506 83.5102 54.6906V57.3706C83.5102 57.5006 83.6402 57.6306 83.7602 57.8806C83.8902 58.0106 84.0102 58.0106 84.2602 58.0106H85.1402C85.3902 58.0106 85.5202 58.0106 85.6402 57.8806C85.7702 57.6206 85.8902 57.5006 85.8902 57.3706V56.0906C85.8902 56.004 85.8469 55.9173 85.7602 55.8306H85.3802V56.9806C85.3802 57.2406 85.3802 57.3606 85.2502 57.3606C85.1502 57.4606 85.0102 57.5006 84.8702 57.4906H84.6202C84.3702 57.4906 84.2402 57.4906 84.1202 57.3606C84.0202 57.2606 83.9802 57.1206 83.9902 56.9806V54.3006C83.9902 54.1706 83.9902 54.0406 83.7402 53.9206C83.6102 53.6606 83.4902 53.6606 83.2402 53.6606V53.4106C83.5102 53.4106 83.7502 53.5606 83.8702 53.7906C84.0702 53.8906 84.2102 54.0806 84.2502 54.3006V57.2406C84.3502 57.3406 84.4902 57.3806 84.6302 57.3706H84.8802C84.9669 57.3706 85.0502 57.3273 85.1302 57.2406V56.0906C85.1302 55.9606 85.2602 55.8306 85.2602 55.7106C85.3902 55.7106 85.5102 55.5806 85.6402 55.5806C85.7702 55.5806 85.8902 55.7106 86.0202 55.7106V57.3706C86.0502 57.6106 85.9602 57.8506 85.7702 58.0106C85.6002 58.1706 85.3702 58.2606 85.1402 58.2706H84.2602C84.0302 58.2706 83.8002 58.1706 83.6302 58.0106C83.4402 57.8606 83.3502 57.6106 83.3802 57.3706V54.6906C83.3702 54.5906 83.3202 54.5006 83.2502 54.4306C83.1802 54.3606 83.0902 54.3206 83.0002 54.3006H81.2302C81.1002 54.3006 81.1002 54.4306 80.9802 54.4306V55.8306C80.9402 56.8506 80.4302 57.7906 79.5902 58.3806C79.4602 58.3806 79.3402 58.5106 79.2102 58.5106C79.1102 58.5006 79.0302 58.4506 78.9602 58.3806M75.0402 57.9906C74.9402 57.9806 74.8602 57.9306 74.7902 57.8606C74.6202 57.6306 74.6202 57.3206 74.7902 57.0906C74.8602 57.0206 74.9502 56.9806 75.0402 56.9606H77.8202V57.2206H75.0402C74.9702 57.2206 74.9202 57.2706 74.9102 57.3406C74.8236 57.3406 74.7802 57.384 74.7802 57.4706C74.7802 57.5573 74.8236 57.644 74.9102 57.7306H78.0702V57.3506C78.0702 57.2206 77.9402 57.2206 77.8202 57.2206V56.9606C77.9502 56.9606 78.0702 57.0906 78.2002 57.0906C78.3702 57.3206 78.3702 57.6306 78.2002 57.8606C78.0702 57.8606 77.9502 57.9906 77.8202 57.9906H75.0402ZM74.7902 56.2006C74.6502 56.2206 74.5102 56.1706 74.4102 56.0706C74.2802 56.0706 74.2802 55.9406 74.2802 55.8106C74.2602 55.6706 74.3102 55.5306 74.4102 55.4306C74.5102 55.3306 74.6502 55.2906 74.7902 55.3006H78.4502V55.5606H74.5402C74.4536 55.6473 74.4102 55.734 74.4102 55.8206C74.4102 55.9506 74.4102 55.9506 74.5402 55.9506C74.5402 56.0806 74.6702 56.0806 74.7902 56.0806H78.4502C78.5369 56.0806 78.6202 56.0373 78.7002 55.9506V55.5706H78.4502V55.3106C78.5902 55.2906 78.7302 55.3406 78.8302 55.4406C78.8302 55.5706 78.9602 55.7006 78.9602 55.8206C78.9502 55.9206 78.9002 56.0106 78.8302 56.0806C78.7302 56.1806 78.5902 56.2206 78.4502 56.2106H74.7902V56.2006ZM75.0402 54.4206C74.9102 54.4206 74.7902 54.4206 74.7902 54.2906C74.6602 54.2906 74.6602 54.1606 74.6602 54.0306C74.6402 53.8906 74.6902 53.7506 74.7902 53.6506C74.7902 53.5206 74.9202 53.5206 75.0402 53.5206H77.8202V53.7806H74.9202C74.7902 53.7806 74.7902 53.9106 74.7902 54.0406C74.8702 54.1206 74.9602 54.2106 75.0402 54.3006H77.8202C77.9502 54.3006 78.0702 54.3006 78.0702 54.1706V53.7906H77.8202V53.5306C77.9602 53.5106 78.1002 53.5606 78.2002 53.6606C78.3002 53.7606 78.3402 53.9006 78.3302 54.0406C78.3302 54.1706 78.3302 54.3006 78.2002 54.3006C78.1002 54.4006 77.9602 54.4406 77.8202 54.4306H75.0402V54.4206Z" fill="#3C5381"/>
<path d="M92.5902 55.4406C92.8402 55.4406 92.9702 55.4406 92.9702 55.7006C93.0002 55.8806 92.8702 56.0606 92.6902 56.0806C92.6602 56.0806 92.6302 56.0806 92.6002 56.0806H88.0602C87.8802 56.1106 87.7102 55.9806 87.6802 55.7906C87.6802 55.7606 87.6802 55.7306 87.6802 55.7006C87.6802 55.4406 87.8102 55.4406 88.0602 55.4406H92.6002H92.5902ZM91.7002 60.6706C92.0802 60.6706 92.3302 60.8006 92.3302 61.3106V64.2506C92.3302 64.7606 92.0802 64.8906 91.7002 64.8906H88.8002C88.4202 64.8906 88.1702 64.7606 88.1702 64.2506V61.3106C88.1702 60.8006 88.4202 60.6706 88.8002 60.6706H91.7002ZM91.8302 53.6506C92.0402 53.6506 92.2102 53.8206 92.2102 54.0306C92.2102 54.2406 92.0402 54.4106 91.8302 54.4106H88.6702C88.4202 54.4106 88.1702 54.2806 88.1702 54.0306C88.1702 53.7806 88.4202 53.6506 88.6702 53.6506H91.8302ZM91.8302 57.1006C92.0402 57.1006 92.2102 57.2706 92.2102 57.4806C92.2102 57.6906 92.0402 57.8606 91.8302 57.8606H88.6702C88.4202 57.8606 88.1702 57.7306 88.1702 57.4806C88.1702 57.2306 88.4202 57.1006 88.6702 57.1006H91.8302ZM91.8302 58.8806C92.0402 58.8806 92.2102 59.0506 92.2102 59.2606C92.2102 59.4706 92.0402 59.6406 91.8302 59.6406H88.6702C88.4202 59.6406 88.1702 59.5106 88.1702 59.2606C88.1702 59.0106 88.4202 58.8806 88.6702 58.8806H91.8302ZM88.9302 61.5706V64.0006C88.9302 64.1306 88.9302 64.2606 89.1802 64.2606H91.4502C91.5902 64.2606 91.6902 64.1406 91.7002 64.0006V61.5706C91.7002 61.4306 91.5802 61.3206 91.4502 61.3106H89.1802C88.9302 61.3106 88.9302 61.4406 88.9302 61.5706ZM95.7402 53.9006C95.7402 53.5206 95.8702 53.3906 96.2402 53.3906C96.4902 53.3906 96.6202 53.5206 96.6202 53.9006V57.2206H98.8902C99.1002 57.2206 99.2702 57.3906 99.2702 57.6006C99.2702 57.8106 99.1002 57.9806 98.8902 57.9806H96.6202V64.3706C96.6202 64.7506 96.4902 64.8806 96.2402 64.8806C95.8602 64.8806 95.7402 64.7506 95.7402 64.3706V57.9906H93.3402C93.1302 57.9906 92.9602 57.8206 92.9602 57.6106C92.9602 57.4006 93.1302 57.2306 93.3402 57.2306H95.7402V53.9106V53.9006Z" fill="#3C5381"/>
<path d="M96.2503 65.0104C96.1203 65.0104 95.8703 65.0104 95.8703 64.8804C95.7403 64.7504 95.7403 64.6205 95.7403 64.3705V58.1104H93.3303C93.1903 58.1304 93.0503 58.0805 92.9503 57.9805C92.8503 57.8805 92.8103 57.7404 92.8203 57.6004C92.8203 57.4704 92.8203 57.3405 92.9503 57.3405C93.0503 57.2405 93.1903 57.2004 93.3303 57.2104H95.7303V53.8905C95.7303 53.6305 95.7303 53.5104 95.8603 53.3804C95.8603 53.2504 96.1103 53.2504 96.2403 53.2504C96.3803 53.2304 96.5203 53.2804 96.6203 53.3804C96.7503 53.5104 96.7503 53.6405 96.7503 53.8905V57.2104H98.9003C99.0403 57.1904 99.1803 57.2405 99.2803 57.3405C99.4103 57.3405 99.4103 57.4704 99.4103 57.6004C99.4303 57.7404 99.3803 57.8805 99.2803 57.9805C99.1803 58.0805 99.0403 58.1204 98.9003 58.1104H96.7603V64.3705C96.7603 64.6305 96.7603 64.7504 96.6303 64.8804C96.5303 64.9804 96.3903 65.0204 96.2503 65.0104ZM93.0903 57.4805V57.8604H95.8703V64.3705C95.8703 64.5438 95.9136 64.6704 96.0003 64.7504C96.1003 64.8904 96.3003 64.9205 96.4403 64.8105C96.4603 64.7905 96.4903 64.7704 96.5003 64.7504C96.5003 64.6204 96.6303 64.6205 96.6303 64.3705V57.8604H99.1503V57.4805C99.1503 57.3505 99.0203 57.3504 98.9003 57.3504H96.6303V53.9004C96.6303 53.7704 96.5003 53.6404 96.5003 53.5204H96.0003C95.9003 53.6204 95.8603 53.7604 95.8703 53.9004V57.3504H93.3403C93.2536 57.3504 93.1703 57.3938 93.0903 57.4805ZM91.7003 65.0204H88.8003C88.5503 65.0204 88.4203 65.0205 88.3003 64.8905C88.1703 64.6305 88.0503 64.5104 88.0503 64.2504V61.3105C88.0503 61.0705 88.1403 60.8505 88.3003 60.6705C88.4303 60.5405 88.5503 60.5404 88.8003 60.5404H91.7003V60.6705H88.8003C88.6703 60.6705 88.5503 60.8004 88.4203 60.8004C88.2903 60.9304 88.2903 61.0605 88.2903 61.3105V64.2504C88.2903 64.5104 88.2903 64.6304 88.4203 64.6304C88.5503 64.7604 88.6703 64.8905 88.8003 64.8905H91.7003C91.9503 64.8905 92.0803 64.7604 92.0803 64.6304C92.2103 64.6304 92.2103 64.5004 92.2103 64.2504V61.3105C92.2103 61.0505 92.2103 60.9304 92.0803 60.8004C91.9703 60.7104 91.8403 60.6705 91.7003 60.6705V60.5404C91.9503 60.5404 92.0803 60.5405 92.2103 60.6705C92.3703 60.8505 92.4603 61.0705 92.4603 61.3105V64.2504C92.4603 64.5104 92.3303 64.6305 92.2103 64.8905C92.0803 65.0205 91.9603 65.0204 91.7003 65.0204ZM91.4503 64.2504H88.9303C88.8603 64.1804 88.8103 64.0904 88.8003 63.9904V61.5605C88.8003 61.4738 88.8436 61.3871 88.9303 61.3004C89.0003 61.2304 89.0903 61.1905 89.1803 61.1705H91.4603C91.5303 61.2405 91.6203 61.2804 91.7103 61.3004V64.2404H91.4503V64.2504ZM88.9203 63.9904C88.9903 63.9904 89.0503 64.0404 89.0503 64.1104H91.5703V61.4304H89.0503L88.9203 61.5605V63.9904ZM88.6703 59.6504C88.4203 59.6504 88.2903 59.6504 88.2903 59.5204C88.1603 59.5204 88.1603 59.3904 88.1603 59.2604C88.1403 59.1204 88.1903 58.9804 88.2903 58.8804C88.2903 58.7504 88.4203 58.7504 88.6703 58.7504H91.8303V59.0104H88.4203C88.2903 59.0104 88.2903 59.1404 88.2903 59.2704C88.2903 59.3404 88.3403 59.4004 88.4103 59.4004C88.4103 59.5304 88.5403 59.5305 88.6603 59.5305H91.8203C91.9069 59.5305 91.9903 59.4871 92.0703 59.4004V59.0204H91.8203V58.7604C91.9603 58.7404 92.1003 58.7905 92.2003 58.8905C92.2003 59.0205 92.3303 59.1504 92.3303 59.2704C92.3203 59.3704 92.2703 59.4605 92.2003 59.5305C92.1003 59.6305 91.9603 59.6704 91.8203 59.6604H88.6603L88.6703 59.6504ZM88.6703 57.9904C88.5303 57.9904 88.4003 57.9504 88.2903 57.8604C88.1203 57.6304 88.1203 57.3205 88.2903 57.0905C88.4003 57.0005 88.5303 56.9604 88.6703 56.9604H91.8303V57.2204H88.6803C88.5503 57.2204 88.4303 57.2204 88.4303 57.3504C88.3436 57.3504 88.3003 57.3938 88.3003 57.4805C88.3003 57.5671 88.3436 57.6538 88.4303 57.7404H92.0903V57.3604C92.0036 57.2738 91.9203 57.2305 91.8403 57.2305V56.9704C91.9703 56.9704 92.0903 57.1004 92.2203 57.1004C92.2203 57.2304 92.3503 57.3605 92.3503 57.4805C92.3503 57.6005 92.2203 57.7404 92.2203 57.8604C92.0903 57.8604 91.9703 57.9904 91.8403 57.9904H88.6803H88.6703ZM88.0403 56.2005C87.9003 56.2205 87.7603 56.1704 87.6603 56.0704C87.5603 55.9704 87.5203 55.8304 87.5303 55.6904C87.5303 55.5604 87.5303 55.4304 87.6603 55.4304C87.7603 55.3304 87.9003 55.2904 88.0403 55.3004H92.5803V55.4304H88.0403C87.9403 55.4404 87.8603 55.4905 87.7903 55.5605L87.6603 55.6904C87.6703 55.7904 87.7203 55.8805 87.7903 55.9505H92.8403V55.5704C92.7103 55.5704 92.7103 55.4404 92.5903 55.4404V55.3105C92.7303 55.2905 92.8703 55.3404 92.9703 55.4404C93.0403 55.5104 93.0803 55.6005 93.1003 55.7005C93.1003 55.8305 92.9703 55.9604 92.9703 56.0804C92.8703 56.1804 92.7303 56.2204 92.5903 56.2104H88.0503L88.0403 56.2005ZM88.6703 54.4205C88.4203 54.4205 88.2903 54.4204 88.2903 54.2904C88.1603 54.2904 88.1603 54.1605 88.1603 54.0305C88.1403 53.8905 88.1903 53.7504 88.2903 53.6504C88.2903 53.5204 88.4203 53.5204 88.6703 53.5204H91.8303V53.7805H88.4203C88.2903 53.7805 88.2903 53.9104 88.2903 54.0404C88.2903 54.1104 88.3403 54.1705 88.4103 54.1705C88.4103 54.3005 88.5403 54.3004 88.6603 54.3004H91.8203C91.9069 54.3004 91.9903 54.2571 92.0703 54.1705V53.7904H91.8203V53.5305C91.9603 53.5105 92.1003 53.5604 92.2003 53.6604C92.2003 53.7904 92.3303 53.9204 92.3303 54.0404C92.3203 54.1404 92.2703 54.2304 92.2003 54.3004C92.1003 54.4004 91.9603 54.4404 91.8203 54.4304H88.6603L88.6703 54.4205Z" fill="#3C5381"/>
<path d="M104.2 53.52C104.45 53.52 104.58 53.78 104.58 54.03V54.8H109C110.01 54.8 110.51 55.31 110.51 56.2C110.43 57.3 110.18 58.38 109.75 59.39C109.28 60.32 108.68 61.18 107.98 61.94C106.36 63.49 104.28 64.48 102.05 64.75C101.67 64.75 101.55 64.62 101.55 64.37C101.52 64.19 101.65 64.01 101.84 63.99C101.87 63.99 101.9 63.99 101.93 63.99C103.93 63.54 105.79 62.62 107.36 61.31C107.92 60.66 108.39 59.93 108.75 59.14C109.2 58.31 109.46 57.4 109.51 56.46C109.51 55.95 109.38 55.69 108.88 55.69H104.34C103.7 57.26 102.6 58.59 101.18 59.52C100.93 59.65 100.68 59.65 100.55 59.39C100.53 59.21 100.58 59.03 100.68 58.88C102.3 57.76 103.36 55.99 103.58 54.03C103.58 53.65 103.83 53.52 104.21 53.52M111.15 54.8C111.28 55.06 111.15 55.18 111.02 55.18C110.91 55.26 110.76 55.24 110.68 55.13C110.66 55.11 110.65 55.08 110.64 55.05C110.4 54.51 110.11 54 109.76 53.52C109.76 53.39 109.76 53.26 109.89 53.26C109.97 53.16 110.12 53.13 110.22 53.21C110.24 53.22 110.25 53.24 110.27 53.26C110.61 53.74 110.91 54.25 111.15 54.79M111.02 53.14C110.91 53.06 110.89 52.91 110.97 52.8C110.98 52.78 111 52.77 111.02 52.75C111.27 52.75 111.4 52.75 111.52 52.88C111.9 53.52 112.15 54.03 112.4 54.41C112.4 54.67 112.27 54.79 112.15 54.79C112.02 54.92 111.9 54.79 111.77 54.66L111.01 53.13" fill="#3C5381"/>
<path d="M101.67 64.7611C101.54 64.6311 101.42 64.5011 101.42 64.3811C101.4 64.2411 101.45 64.1011 101.55 64.0011C101.65 63.9011 101.79 63.8611 101.93 63.8711C103.94 63.5611 105.79 62.6211 107.23 61.1911C107.82 60.6111 108.29 59.9111 108.62 59.1511C109.07 58.3211 109.33 57.4111 109.38 56.4711V56.3411C109.4 56.2011 109.35 56.0611 109.25 55.9611C109.14 55.8711 109.01 55.8311 108.87 55.8311H104.33C103.81 57.4011 102.73 58.7211 101.3 59.5311C101.2 59.6311 101.06 59.6811 100.92 59.6611C100.79 59.6611 100.54 59.5311 100.54 59.4011C100.41 59.4011 100.41 59.2711 100.41 59.1411C100.41 59.0111 100.54 58.8811 100.66 58.7611C102.24 57.6811 103.26 55.9411 103.44 54.0411C103.44 53.8411 103.54 53.6511 103.69 53.5311C103.82 53.5311 103.94 53.4011 104.07 53.4011H104.2C104.33 53.4011 104.45 53.5311 104.58 53.6611C104.68 53.7611 104.72 53.9011 104.71 54.0411L104.58 54.6811H109C109.41 54.6511 109.82 54.7911 110.13 55.0611C110.49 55.3211 110.69 55.7611 110.64 56.2111C110.58 57.3311 110.28 58.4211 109.76 59.4011C109.37 60.4111 108.77 61.3211 107.99 62.0811C106.34 63.5811 104.27 64.5611 102.06 64.8911C101.81 64.8911 101.68 64.8911 101.68 64.7611M101.8 64.6311H102.05C104.24 64.3611 106.28 63.3711 107.86 61.8211C108.63 61.1611 109.23 60.3311 109.63 59.3911C110.05 58.3711 110.31 57.3011 110.39 56.2011C110.42 55.8211 110.29 55.4411 110.01 55.1811C109.71 54.9911 109.36 54.9011 109 54.9211H104.46L104.59 54.0311C104.58 53.9311 104.53 53.8411 104.46 53.7711C104.373 53.6844 104.29 53.6411 104.21 53.6411H104.08C103.95 53.6411 103.83 53.6411 103.83 53.7711C103.7 53.7711 103.7 53.9011 103.7 54.0311C103.45 55.9811 102.4 57.7411 100.8 58.8811C100.73 58.9511 100.68 59.0411 100.67 59.1411V59.2711C100.8 59.4011 100.8 59.5311 100.92 59.5311C100.99 59.4611 101.08 59.4211 101.17 59.4011C102.58 58.5511 103.65 57.2411 104.2 55.7011H108.87C109.12 55.7011 109.25 55.7011 109.37 55.8311C109.53 55.9511 109.62 56.1411 109.62 56.3411V56.4711C109.44 57.4211 109.19 58.3611 108.86 59.2811C108.46 60.0311 107.95 60.7211 107.35 61.3211C105.86 62.7511 103.97 63.6911 101.92 64.0011C101.833 64.0878 101.75 64.1311 101.67 64.1311V64.3911C101.67 64.4778 101.713 64.5644 101.8 64.6511M110.64 55.3111C110.64 55.1811 110.51 55.1811 110.51 55.0511C110.28 54.5711 110.03 54.1011 109.75 53.6511C109.663 53.5644 109.62 53.4778 109.62 53.3911C109.63 53.2911 109.68 53.2011 109.75 53.1311C109.88 53.1311 109.88 53.0011 110 53.0011C110.12 53.0011 110.25 53.1311 110.38 53.1311V53.2611C110.75 53.6811 111.05 54.1511 111.26 54.6711V55.1811C111.13 55.1811 111.13 55.3111 111.01 55.3111H110.63H110.64ZM111.65 54.6711C111.42 54.1911 111.17 53.7211 110.89 53.2711V53.0111C110.89 52.8811 110.89 52.7511 111.02 52.7511C111.02 52.6211 111.15 52.6211 111.27 52.6211C111.41 52.6211 111.51 52.7411 111.52 52.8811C111.95 53.3011 112.26 53.8311 112.4 54.4111V54.7911C112.27 54.7911 112.27 54.9211 112.15 54.9211H112.02C111.89 54.9211 111.77 54.7911 111.64 54.6611M111.02 53.1411C111.37 53.5511 111.63 54.0311 111.78 54.5411L112.03 54.8011H112.16C112.16 54.7144 112.203 54.6711 112.29 54.6711V54.4111C112.11 53.8811 111.81 53.4011 111.41 53.0111C111.41 52.9411 111.36 52.8811 111.29 52.8811H111.16C111.073 52.8811 111.03 52.9244 111.03 53.0111V53.1411H111.02Z" fill="#3C5381"/>
<path d="M114.3 54.4212C114.55 54.4212 114.8 54.5512 114.8 54.8012V57.7412C114.88 60.1612 113.97 62.5212 112.27 64.2512C112.02 64.5112 111.89 64.5112 111.64 64.3812C111.51 64.1912 111.51 63.9412 111.64 63.7412C113.12 62.1012 113.89 59.9412 113.79 57.7412V54.8012C113.79 54.5412 114.04 54.4212 114.29 54.4212M117.2 54.5412C117.2 54.1612 117.33 54.0312 117.58 54.0312C117.96 54.0312 118.08 54.1612 118.08 54.5412V62.7112C118.08 63.0912 118.21 63.3512 118.58 63.3512C119.35 63.2712 120.05 62.8512 120.47 62.2012C121.35 61.3212 121.96 60.2212 122.24 59.0112C122.37 58.7512 122.49 58.6312 122.74 58.7512C122.99 58.7512 123.12 59.0112 122.99 59.2612C122.75 60.6612 122.09 61.9512 121.1 62.9612C120.37 63.8312 119.33 64.3812 118.2 64.4912C117.57 64.4912 117.19 63.9812 117.19 63.2112V54.5312L117.2 54.5412Z" fill="#3C5381"/>
<path d="M117.33 64.2502C117.17 63.9302 117.09 63.5802 117.08 63.2302V54.5502C117.08 54.4202 117.08 54.1702 117.21 54.1702C117.34 54.0402 117.46 53.9102 117.59 53.9102C117.79 53.9102 117.97 54.0102 118.09 54.1702C118.15 54.2902 118.19 54.4202 118.22 54.5502V62.7202C118.22 62.9802 118.22 63.1002 118.35 63.1002C118.35 63.2302 118.48 63.2302 118.6 63.2302C119.35 63.0902 120.03 62.6802 120.49 62.0802C121.33 61.2402 121.9 60.1802 122.13 59.0102C122.26 58.8802 122.26 58.7502 122.38 58.7502C122.38 58.6202 122.51 58.6202 122.63 58.6202H122.76C122.86 58.6302 122.95 58.6802 123.01 58.7502C123.11 58.8502 123.15 58.9902 123.14 59.1302V59.2602C122.83 60.6602 122.13 61.9402 121.12 62.9602C120.11 63.9802 119.23 64.4902 118.22 64.4902C117.9 64.5402 117.58 64.4502 117.34 64.2302M117.2 63.2202C117.2 63.5302 117.29 63.8402 117.45 64.1102C117.67 64.2702 117.93 64.3602 118.21 64.3702C119.09 64.3702 119.98 63.8602 120.99 62.8402C121.97 61.8502 122.67 60.6202 123.01 59.2602V59.1302C123.01 59.0435 122.967 58.9568 122.88 58.8702L122.75 58.7402H122.62C122.54 58.8302 122.45 58.9102 122.37 59.0002C122.04 60.2302 121.44 61.3602 120.6 62.3202C120.07 62.9102 119.36 63.3102 118.58 63.4702C118.39 63.4402 118.21 63.3502 118.08 63.2102C118.08 63.0802 117.95 62.9502 117.95 62.7002V54.5302C117.95 54.4002 117.95 54.2702 117.82 54.2702C117.82 54.1402 117.69 54.1402 117.57 54.1402C117.45 54.1402 117.44 54.1402 117.32 54.2702C117.25 54.3402 117.21 54.4302 117.19 54.5302V63.2102L117.2 63.2202ZM111.9 64.5002H111.52V64.3702C111.52 64.2402 111.39 64.1102 111.39 63.9902C111.4 63.8902 111.45 63.8002 111.52 63.7302C113.04 62.1102 113.85 59.9502 113.79 57.7302V54.8002C113.77 54.6602 113.82 54.5202 113.92 54.4202C114.02 54.3202 114.16 54.2802 114.3 54.2902V54.4202C114.2 54.4302 114.11 54.4802 114.05 54.5502C113.92 54.5502 113.92 54.6802 113.92 54.8102V57.7502C113.98 60.0102 113.17 62.2102 111.65 63.8802V64.2602C111.72 64.3302 111.81 64.3802 111.9 64.3902C111.987 64.3902 112.07 64.3468 112.15 64.2602C113.84 62.5202 114.76 60.1702 114.68 57.7502V54.8102C114.68 54.6802 114.68 54.5502 114.55 54.5502C114.48 54.4802 114.39 54.4402 114.3 54.4202V54.2902C114.44 54.2702 114.58 54.3202 114.68 54.4202C114.78 54.5202 114.82 54.6602 114.81 54.8002V57.7402C114.93 60.2102 114.01 62.6102 112.28 64.3802C112.18 64.4802 112.04 64.5202 111.9 64.5102" fill="#3C5381"/>
<path d="M146.11 54.6712C146.36 54.9312 146.36 55.3112 146.36 55.8212C146.2 60.6812 142.25 64.5512 137.39 64.6312C137.14 64.6312 137.01 64.5012 136.89 64.2512C136.86 64.0712 136.99 63.8912 137.18 63.8712C137.21 63.8712 137.24 63.8712 137.27 63.8712C139.79 63.4912 141.69 62.7212 142.95 61.3212C144.37 59.8312 145.21 57.8812 145.35 55.8312C145.37 55.5012 145.12 55.2112 144.79 55.1912C144.77 55.1912 144.74 55.1912 144.72 55.1912H136.39C136.21 55.2212 136.04 55.0912 136.01 54.9012C136.01 54.8712 136.01 54.8412 136.01 54.8012C136.01 54.4212 136.14 54.2912 136.39 54.2912H144.72C145.21 54.2412 145.71 54.3812 146.11 54.6712Z" fill="#3C5381"/>
<path d="M137.39 64.7605C137.25 64.7805 137.11 64.7305 137.01 64.6305C136.88 64.6305 136.88 64.5005 136.88 64.3705V64.2405C136.86 64.1005 136.91 63.9605 137.01 63.8605C137.08 63.7905 137.17 63.7505 137.26 63.7305C139.66 63.3505 141.55 62.5805 142.81 61.3005C144.23 59.8105 145.07 57.8605 145.21 55.8105C145.23 55.6705 145.18 55.5305 145.08 55.4305C144.98 55.3305 144.84 55.2905 144.7 55.3005H136.36C136.22 55.3205 136.08 55.2705 135.98 55.1705C135.88 55.0705 135.84 54.9305 135.85 54.7905C135.85 54.5305 135.85 54.4105 135.98 54.2805C136.11 54.2805 136.23 54.1505 136.36 54.1505H144.7C145.25 54.1005 145.8 54.2905 146.21 54.6605C146.38 55.0205 146.47 55.4105 146.46 55.8105C146.25 60.6705 142.35 64.5505 137.49 64.7505H137.37L137.39 64.7605ZM137.14 64.5005C137.227 64.5005 137.31 64.5438 137.39 64.6305C140.17 64.2505 142.19 63.3505 143.58 61.8205C145.22 60.2305 146.21 58.0905 146.36 55.8205C146.36 55.3105 146.23 54.9305 145.98 54.8005C145.85 54.5405 145.35 54.4205 144.72 54.4205H136.38C136.293 54.4205 136.21 54.4638 136.13 54.5505V55.0605C136.26 55.0605 136.26 55.1905 136.38 55.1905H144.72C144.97 55.1905 145.1 55.1905 145.22 55.3205C145.38 55.4405 145.47 55.6305 145.47 55.8305C145.29 57.9405 144.4 59.9205 142.95 61.4505C141.38 62.8905 139.39 63.7905 137.27 64.0005H137.14C137.053 64.0871 137.01 64.1738 137.01 64.2605C137.02 64.3605 137.07 64.4505 137.14 64.5205" fill="#3C5381"/>
<path d="M146.23 53.7808C146.23 52.9408 146.91 52.2607 147.74 52.2507C148.59 52.2007 149.31 52.8508 149.36 53.7008C149.41 54.5508 148.76 55.2708 147.91 55.3208C147.85 55.3208 147.8 55.3208 147.74 55.3208C146.9 55.3008 146.23 54.6208 146.23 53.7908M146.86 53.7808C146.84 54.3008 147.23 54.7508 147.74 54.8008C148.29 54.8008 148.75 54.3608 148.75 53.8108C148.75 53.8008 148.75 53.7908 148.75 53.7808C148.75 53.2808 148.34 52.8808 147.84 52.8808C147.81 52.8808 147.77 52.8808 147.74 52.8808C147.26 52.8808 146.86 53.2608 146.86 53.7408C146.86 53.7508 146.86 53.7708 146.86 53.7808Z" fill="#3C5381"/>
<path d="M125.03 59.78C124.69 59.75 124.42 59.48 124.4 59.14C124.46 58.82 124.71 58.57 125.03 58.5H134.37C134.71 58.52 134.98 58.8 135 59.14C135.02 59.47 134.77 59.76 134.44 59.78C134.42 59.78 134.39 59.78 134.37 59.78H125.03Z" fill="#3C5381"/>
<path d="M33.23 51.0303L17.76 42.0003L17.71 41.9803C17.71 41.9803 17.66 41.9503 17.63 41.9403L17.56 41.9103C17.56 41.9103 17.51 41.8903 17.49 41.8803C17.47 41.8703 17.44 41.8603 17.41 41.8503C17.38 41.8403 17.36 41.8403 17.34 41.8403C17.31 41.8403 17.29 41.8203 17.26 41.8203H17.19C17.19 41.8203 17.14 41.8003 17.11 41.8003H17.03H16.88H16.82C16.82 41.8003 16.76 41.8103 16.74 41.8203C16.72 41.8303 16.69 41.8203 16.68 41.8203C16.65 41.8203 16.62 41.8303 16.6 41.8403C16.58 41.8403 16.56 41.8403 16.54 41.8603C16.51 41.8603 16.48 41.8703 16.46 41.8903C16.43 41.8903 16.41 41.9103 16.38 41.9203C16.36 41.9303 16.34 41.9403 16.32 41.9503C16.3 41.9603 16.27 41.9803 16.24 41.9903C16.23 41.9903 16.22 42.0003 16.21 42.0103L3.06 49.6803V35.2403L17.76 26.6603C18.5 26.2203 18.75 25.2703 18.32 24.5203C17.9 23.7803 16.97 23.5203 16.23 23.9303C16.23 23.9303 16.22 23.9303 16.21 23.9403L0.75 32.9703L0.720032 32.9903C0.720032 32.9903 0.670015 33.0203 0.640015 33.0403C0.620015 33.0603 0.610027 33.0703 0.590027 33.0803C0.570027 33.0903 0.550029 33.1103 0.530029 33.1303C0.510029 33.1503 0.490032 33.1703 0.470032 33.1903L0.419983 33.2303C0.419983 33.2303 0.379995 33.2703 0.369995 33.3003C0.349995 33.3103 0.340017 33.3303 0.330017 33.3503C0.310017 33.3703 0.290029 33.4003 0.280029 33.4203C0.280029 33.4403 0.24999 33.4603 0.23999 33.4803L0.190002 33.5503C0.190002 33.5503 0.170024 33.6003 0.150024 33.6203L0.130005 33.6903C0.130005 33.6903 0.100027 33.7403 0.0900269 33.7703C0.0900269 33.7903 0.0900073 33.8103 0.0700073 33.8303C0.0600073 33.8503 0.0500391 33.8803 0.0400391 33.9103C0.0400391 33.9303 0.0400195 33.9603 0.0200195 33.9803C0.0100195 34.0103 0 34.0303 0 34.0603C0 34.0903 0 34.1103 0 34.1403C0 34.1703 0 34.1803 0 34.2103V34.3503V52.4103C0 52.9703 0.300029 53.4803 0.780029 53.7703C1.02003 53.9103 1.28 53.9803 1.56 53.9803C1.83 53.9803 2.10003 53.9103 2.34003 53.7703L17.03 45.1903L29.39 52.4103L16.26 60.0803C15.51 60.5203 15.26 61.4703 15.69 62.2203C15.96 62.7103 16.48 63.0103 17.03 63.0103C17.3 63.0103 17.57 62.9403 17.81 62.8003L33.28 53.7603C34.03 53.3003 34.27 52.3203 33.81 51.5703C33.68 51.3603 33.5 51.1803 33.28 51.0403" fill="#274574"/>
<path d="M53.54 39.1703L38.85 30.5903V13.4303C38.87 12.5703 38.19 11.8603 37.33 11.8403C36.47 11.8203 35.76 12.5003 35.74 13.3603C35.74 13.3803 35.74 13.4103 35.74 13.4303V30.6203L23.38 37.8403V22.4603C23.4 21.6003 22.72 20.8903 21.86 20.8703C21 20.8503 20.29 21.5303 20.27 22.3903C20.27 22.4103 20.27 22.4403 20.27 22.4603V40.5603C20.27 40.8303 20.34 41.1003 20.48 41.3303C20.66 41.6503 20.94 41.8903 21.28 42.0103L36.5 50.9003C37.23 51.3303 38.18 51.0903 38.61 50.3503C38.61 50.3503 38.62 50.3303 38.63 50.3203C39.06 49.5703 38.81 48.6103 38.06 48.1803L24.96 40.5203L37.32 33.3003L51.98 41.8603C52.71 42.2903 53.65 42.0503 54.08 41.3203C54.08 41.3103 54.09 41.3003 54.1 41.2903C54.53 40.5403 54.27 39.5903 53.53 39.1503" fill="#274574"/>
<path d="M74.6199 10.6V10.56C74.6199 10.56 74.6199 10.5 74.6199 10.47V10.4C74.6199 10.4 74.62 10.35 74.6 10.32C74.6 10.29 74.59 10.26 74.58 10.24C74.58 10.22 74.58 10.2 74.58 10.18L74.5599 10.09C74.5599 10.09 74.54 10.05 74.53 10.03C74.53 10 74.5099 9.98 74.4999 9.95C74.4999 9.93 74.48 9.91001 74.47 9.89001L74.4299 9.82C74.4299 9.82 74.4 9.77999 74.39 9.74999L74.35 9.68999C74.35 9.68999 74.3199 9.64 74.2999 9.62C74.2999 9.6 74.28 9.59 74.27 9.57L74.2 9.49999C74.2 9.49999 74.17 9.47001 74.15 9.45C74.13 9.43 74.11 9.41001 74.09 9.39001C74.07 9.37001 74.05 9.36 74.04 9.34C74.02 9.33 73.9999 9.31 73.9899 9.29C73.9599 9.27 73.94 9.26 73.91 9.24C73.9 9.23 73.8899 9.21999 73.8699 9.21999L58.41 0.190002C58.41 0.190002 58.3899 0.179998 58.3799 0.169998C58.3799 0.169998 58.35 0.160002 58.34 0.150002C58.33 0.150002 58.3099 0.139997 58.2999 0.129997C58.2799 0.119997 58.25 0.109998 58.22 0.0999985H58.2L58.16 0.0800018L58.08 0.0500031H58.0599L58.04 0.0400009C58 0.0400009 57.9599 0.0199966 57.9299 0.0199966H57.91C57.91 0.0199966 57.83 0.01 57.79 0H57.77C57.77 0 57.6999 0 57.6799 0H57.6199C57.6199 0 57.54 0 57.52 0H57.45C57.45 0 57.3999 0.00999664 57.3599 0.0199966H57.34L57.2999 0.0299988C57.2699 0.0299988 57.24 0.0400031 57.22 0.0500031C57.21 0.0500031 57.1999 0.0499976 57.1899 0.0599976C57.1799 0.0599976 57.17 0.0599997 57.16 0.0699997L57.08 0.0999985H57.0499L57.03 0.120003C56.99 0.140003 56.9699 0.149998 56.9299 0.169998H56.91V0.190002L41.4399 9.21999C41.4399 9.21999 41.42 9.24 41.4 9.24C41.37 9.26 41.3499 9.27 41.3199 9.29C41.2999 9.31 41.2799 9.31999 41.2599 9.32999C41.2399 9.33999 41.22 9.36 41.21 9.38C41.2 9.4 41.16 9.41999 41.15 9.43999C41.13 9.45 41.12 9.47 41.1 9.49C41.08 9.51 41.0599 9.53001 41.0499 9.56001C41.0299 9.57001 41.0199 9.58999 40.9999 9.60999C40.9799 9.62999 40.96 9.65 40.95 9.68L40.91 9.74C40.91 9.74 40.8799 9.78001 40.8599 9.81001C40.8599 9.83001 40.8299 9.85 40.8199 9.88L40.7999 9.95C40.7999 9.95 40.7699 10 40.7599 10.02C40.7599 10.04 40.7499 10.06 40.7399 10.09C40.7299 10.11 40.72 10.14 40.71 10.17C40.71 10.19 40.6999 10.22 40.6899 10.24C40.6799 10.26 40.6699 10.29 40.6699 10.32C40.6699 10.35 40.6699 10.38 40.6699 10.4C40.6699 10.42 40.6699 10.44 40.6699 10.46V10.56V28.7C40.6699 28.74 40.6699 28.77 40.6699 28.81V28.87C40.6699 28.87 40.6899 28.93 40.6899 28.96V28.99L40.71 29.03L40.73 29.11V29.15L40.7599 29.18L40.78 29.26V29.29L40.8099 29.31C40.8099 29.35 40.8299 29.38 40.8599 29.41V29.43L40.8799 29.45C40.9199 29.52 40.9599 29.59 40.9999 29.64C40.9999 29.64 41.06 29.72 41.1 29.76L41.1299 29.8C41.1599 29.84 41.1999 29.87 41.2399 29.89V29.9C41.2899 29.95 41.3499 29.99 41.4199 30.02L56.89 39.05C56.89 39.05 56.97 39.09 57.02 39.12C57.04 39.12 57.0499 39.14 57.0699 39.15L57.14 39.17C57.3 39.23 57.48 39.27 57.65 39.27H57.6699C57.8399 39.27 58.0099 39.24 58.1799 39.18C58.2099 39.18 58.2299 39.16 58.2599 39.16C58.2699 39.16 58.2899 39.15 58.2999 39.13C58.3499 39.11 58.3899 39.09 58.4399 39.06L73.89 30.04C73.89 30.04 73.9099 30.03 73.9199 30.02C73.9599 30 73.99 29.98 74.02 29.95H74.04L74.0699 29.92C74.1099 29.89 74.1499 29.86 74.1799 29.82C74.2299 29.77 74.28 29.71 74.33 29.65L74.35 29.63V29.61C74.35 29.61 74.42 29.52 74.45 29.48V29.45C74.45 29.45 74.4899 29.37 74.4999 29.34V29.32L74.5499 29.2L74.5699 29.18L74.59 29.07V29.05V29.04C74.59 29.01 74.6099 28.97 74.6199 28.94V28.89V28.8V28.76V10.62V10.6ZM59.16 4.28001L71.52 11.5V25.94L59.16 18.72V4.28001ZM43.6899 11.5L56.0599 4.28001V18.72L43.6899 25.94V11.5ZM57.6199 35.88L45.2499 28.66L57.6199 21.44L69.97 28.66L57.6199 35.88Z" fill="#274574"/>
</svg>
