<svg width="200" height="100" viewBox="0 0 200 100" fill="none" xmlns="http://www.w3.org/2000/svg">
<path d="M94.457 23.52L99.837 20.87L109.097 39.72L103.717 42.37L94.457 23.52ZM132.147 5L117.337 12.28L115.687 8.91L110.307 11.56L111.957 14.93L101.187 20.22L110.447 39.07L121.217 33.78L138.747 69.45L144.127 66.8L126.597 31.13L141.407 23.85L132.147 5Z" fill="#274374"/>
<path d="M104.496 80.8182L69.1406 45.4629L54.9985 59.605L90.3538 94.9604L104.496 80.8182Z" fill="url(#paint0_linear_1162_17776)"/>
<path d="M69.1368 94.9589L104.492 59.6035L90.3501 45.4614L54.9947 80.8167L69.1368 94.9589Z" fill="url(#paint1_linear_1162_17776)"/>
<defs>
<linearGradient id="paint0_linear_1162_17776" x1="79.7472" y1="45.4629" x2="79.7472" y2="94.9604" gradientUnits="userSpaceOnUse">
<stop stop-color="#3975BF"/>
<stop offset="1" stop-color="#ADADAD"/>
</linearGradient>
<linearGradient id="paint1_linear_1162_17776" x1="79.7435" y1="94.9589" x2="79.7435" y2="45.4614" gradientUnits="userSpaceOnUse">
<stop stop-color="#3975BF"/>
<stop offset="1" stop-color="#ADADAD"/>
</linearGradient>
</defs>
</svg>
