<svg width="371" height="398" viewBox="0 0 371 398" fill="none" xmlns="http://www.w3.org/2000/svg">
<path d="M216 0H135C121.193 0 110 11.1929 110 25C110 38.8071 121.193 50 135 50H216C229.807 50 241 38.8071 241 25C241 11.1929 229.807 0 216 0Z" fill="#274374"/>
<path d="M133.244 15.862H150.69V17.93H133.244V15.862ZM132.078 25.19H151.966V27.28H132.078V25.19ZM134.696 19.382L136.588 18.832C136.867 19.3307 137.131 19.8733 137.38 20.46C137.644 21.032 137.879 21.5967 138.084 22.154C138.304 22.6967 138.458 23.1807 138.546 23.606L136.544 24.266C136.441 23.8407 136.295 23.3493 136.104 22.792C135.928 22.2347 135.715 21.6553 135.466 21.054C135.217 20.4527 134.96 19.8953 134.696 19.382ZM147.368 18.744L149.59 19.338C149.326 19.91 149.04 20.4967 148.732 21.098C148.424 21.6993 148.123 22.2787 147.83 22.836C147.537 23.3787 147.258 23.8627 146.994 24.288L145.168 23.716C145.432 23.276 145.703 22.77 145.982 22.198C146.261 21.6113 146.517 21.0173 146.752 20.416C147.001 19.8 147.207 19.2427 147.368 18.744ZM140.9 16.698H143.056V34.826H140.9V16.698ZM162.658 22.506H169.324V24.376H162.658V22.506ZM161.58 29.458C162.24 29.238 163.003 28.9813 163.868 28.688C164.733 28.3947 165.657 28.072 166.64 27.72C167.623 27.3533 168.598 26.994 169.566 26.642L169.94 28.424C168.649 28.9373 167.337 29.458 166.002 29.986C164.667 30.514 163.465 30.9907 162.394 31.416L161.58 29.458ZM163.626 18.018H172.382V19.998H163.626V18.018ZM171.744 18.018H173.856C173.856 18.018 173.849 18.0913 173.834 18.238C173.834 18.37 173.834 18.5167 173.834 18.678C173.834 18.8393 173.827 18.9713 173.812 19.074C173.739 21.5673 173.658 23.694 173.57 25.454C173.482 27.1993 173.379 28.6293 173.262 29.744C173.159 30.8587 173.027 31.7387 172.866 32.384C172.719 33.0147 172.536 33.4693 172.316 33.748C172.052 34.1147 171.766 34.364 171.458 34.496C171.165 34.6427 170.805 34.7453 170.38 34.804C169.999 34.8627 169.5 34.8847 168.884 34.87C168.268 34.87 167.63 34.8553 166.97 34.826C166.955 34.518 166.882 34.1587 166.75 33.748C166.633 33.352 166.479 33.0073 166.288 32.714C166.992 32.7727 167.637 32.8093 168.224 32.824C168.811 32.824 169.236 32.824 169.5 32.824C169.72 32.8387 169.896 32.824 170.028 32.78C170.175 32.7213 170.307 32.6187 170.424 32.472C170.6 32.2813 170.754 31.8927 170.886 31.306C171.033 30.7047 171.157 29.8613 171.26 28.776C171.363 27.676 171.451 26.2827 171.524 24.596C171.612 22.9093 171.685 20.8707 171.744 18.48V18.018ZM163.978 14.41L166.09 14.872C165.782 16.0013 165.401 17.1013 164.946 18.172C164.491 19.2427 163.993 20.24 163.45 21.164C162.907 22.088 162.335 22.902 161.734 23.606C161.617 23.474 161.448 23.3273 161.228 23.166C161.008 22.99 160.781 22.8213 160.546 22.66C160.311 22.4987 160.106 22.3667 159.93 22.264C160.839 21.3253 161.639 20.1667 162.328 18.788C163.017 17.3947 163.567 15.9353 163.978 14.41ZM154.078 19.47H161.052V21.45H154.078V19.47ZM156.652 14.63H158.676V29.128H156.652V14.63ZM153.638 29.194C154.269 28.9593 154.995 28.688 155.816 28.38C156.652 28.0573 157.532 27.7127 158.456 27.346C159.38 26.9793 160.297 26.6127 161.206 26.246L161.646 28.182C160.414 28.7247 159.153 29.2673 157.862 29.81C156.586 30.3527 155.427 30.844 154.386 31.284L153.638 29.194ZM180.83 14.344L182.942 14.894C182.531 15.9647 182.055 17.0207 181.512 18.062C180.969 19.0887 180.383 20.042 179.752 20.922C179.121 21.802 178.461 22.572 177.772 23.232C177.64 23.1147 177.464 22.968 177.244 22.792C177.039 22.616 176.819 22.4473 176.584 22.286C176.364 22.11 176.166 21.978 175.99 21.89C176.679 21.2887 177.325 20.592 177.926 19.8C178.527 18.9933 179.07 18.128 179.554 17.204C180.053 16.2653 180.478 15.312 180.83 14.344ZM180.83 16.984H194.932V18.986H179.818L180.83 16.984ZM179.554 22.066H194.426V24.002H181.622V28.952H179.554V22.066ZM175.968 27.918H196.054V29.942H175.968V27.918ZM186.088 18.018H188.222V34.848H186.088V18.018ZM202.786 14.454H204.722V20.57H202.786V14.454ZM202.764 22.616H204.04V31.416H202.764V22.616ZM199.222 15.642H200.982V20.394H199.222V15.642ZM198.562 22.418H200.146V34.826H198.562V22.418ZM206.614 22.44H208.264V34.606H206.614V22.44ZM211.036 25.3H212.994V34.848H211.036V25.3ZM203.666 16.302H208.132V17.974H203.666V16.302ZM210.31 21.186H216.008V22.99H210.31V21.186ZM209.078 24.86H216.58V26.664H209.078V24.86ZM200.586 25.828H206.174V27.082H200.586V25.828ZM199.442 31.812H207.604V33.418H199.442V31.812ZM197.814 19.932H208.638V21.692H197.814V19.932ZM200.564 23.364L201.532 23.056C201.737 23.3933 201.913 23.7673 202.06 24.178C202.221 24.574 202.324 24.9187 202.368 25.212L201.334 25.586C201.29 25.278 201.195 24.9187 201.048 24.508C200.901 24.0827 200.74 23.7013 200.564 23.364ZM205.206 23.1L206.306 23.408C206.115 23.804 205.925 24.1927 205.734 24.574C205.558 24.9407 205.389 25.2707 205.228 25.564L204.282 25.256C204.458 24.948 204.634 24.5887 204.81 24.178C204.986 23.7673 205.118 23.408 205.206 23.1ZM202.566 26.422L203.446 26.796C203.285 27.28 203.072 27.786 202.808 28.314C202.544 28.8273 202.251 29.3113 201.928 29.766C201.62 30.206 201.297 30.58 200.96 30.888C200.916 30.6973 200.828 30.4773 200.696 30.228C200.579 29.964 200.461 29.744 200.344 29.568C200.637 29.348 200.923 29.0693 201.202 28.732C201.481 28.38 201.737 28.006 201.972 27.61C202.221 27.214 202.419 26.818 202.566 26.422ZM203.974 27.016C204.077 27.104 204.238 27.2507 204.458 27.456C204.678 27.6467 204.913 27.8593 205.162 28.094C205.426 28.3287 205.668 28.5487 205.888 28.754C206.108 28.9447 206.262 29.084 206.35 29.172L205.558 30.14C205.441 29.9787 205.287 29.7807 205.096 29.546C204.905 29.3113 204.693 29.0693 204.458 28.82C204.223 28.556 204.003 28.314 203.798 28.094C203.593 27.8593 203.417 27.676 203.27 27.544L203.974 27.016ZM213.082 16.632C212.818 17.3067 212.459 18.0327 212.004 18.81C211.564 19.5727 211.065 20.3133 210.508 21.032C209.951 21.7507 209.357 22.3667 208.726 22.88C208.623 22.6013 208.477 22.286 208.286 21.934C208.095 21.582 207.912 21.2887 207.736 21.054C208.367 20.57 208.961 19.954 209.518 19.206C210.075 18.458 210.574 17.6733 211.014 16.852C211.469 16.016 211.821 15.2167 212.07 14.454H213.984C214.336 15.2607 214.754 16.0673 215.238 16.874C215.722 17.6807 216.243 18.4287 216.8 19.118C217.372 19.7927 217.951 20.3353 218.538 20.746C218.347 21.01 218.157 21.3253 217.966 21.692C217.775 22.0587 217.614 22.396 217.482 22.704C216.881 22.2053 216.301 21.6113 215.744 20.922C215.187 20.2327 214.681 19.514 214.226 18.766C213.771 18.018 213.39 17.3067 213.082 16.632ZM215.48 24.86H217.372V30.448C217.372 30.888 217.328 31.2473 217.24 31.526C217.152 31.8047 216.961 32.032 216.668 32.208C216.36 32.3693 215.993 32.472 215.568 32.516C215.157 32.5453 214.666 32.56 214.094 32.56C214.065 32.2813 213.991 31.966 213.874 31.614C213.757 31.2473 213.632 30.9393 213.5 30.69C213.896 30.7047 214.248 30.712 214.556 30.712C214.864 30.712 215.077 30.712 215.194 30.712C215.311 30.6973 215.385 30.6753 215.414 30.646C215.458 30.602 215.48 30.5287 215.48 30.426V24.86Z" fill="white"/>
<path d="M181.5 135C199.464 135 217.238 138.681 233.725 145.815C250.212 152.95 265.062 163.387 277.359 176.482C289.657 189.577 299.141 205.054 305.226 221.956C311.311 238.858 313.869 256.828 312.741 274.757L224.809 269.225C225.182 263.308 224.338 257.378 222.33 251.8C220.321 246.223 217.192 241.116 213.134 236.794C209.075 232.473 204.175 229.028 198.734 226.674C193.294 224.32 187.428 223.105 181.5 223.105L181.5 135Z" fill="url(#paint0_linear_1177_43073)"/>
<path d="M312.741 274.757C310.551 309.564 294.623 342.076 268.463 365.14C242.302 388.203 208.05 399.93 173.243 397.741L178.775 309.809C190.262 310.532 201.565 306.662 210.198 299.051C218.831 291.44 224.087 280.711 224.809 269.225L312.741 274.757Z" fill="url(#paint1_linear_1177_43073)"/>
<path d="M173.243 397.741C144.117 395.908 116.428 384.439 94.5375 365.14C72.6466 345.84 57.7977 319.807 52.3292 291.141L138.874 274.631C140.678 284.091 145.578 292.682 152.802 299.051C160.026 305.42 169.164 309.205 178.775 309.809L173.243 397.741Z" fill="url(#paint2_linear_1177_43073)"/>
<path d="M52.3292 291.141C48.1788 269.383 49.5914 246.93 56.4361 225.864C63.2807 204.799 75.3356 185.803 91.4821 170.641L151.794 234.866C146.466 239.87 142.488 246.139 140.229 253.09C137.97 260.042 137.504 267.451 138.874 274.631L52.3292 291.141Z" fill="url(#paint3_linear_1177_43073)"/>
<path d="M91.4821 170.641C111.726 151.631 137.468 139.517 165.019 136.037L176.061 223.447C166.969 224.596 158.474 228.593 151.794 234.866L91.4821 170.641Z" fill="url(#paint4_linear_1177_43073)"/>
<path d="M165.019 136.037C170.485 135.346 175.99 135 181.5 135L181.5 223.105C179.682 223.105 177.865 223.219 176.061 223.447L165.019 136.037Z" fill="url(#paint5_linear_1177_43073)"/>
<path d="M349.592 152.904L369.272 150.344L369.688 153.224L350.008 155.784L349.592 152.904ZM361.88 143.912L364.12 142.472C364.739 142.963 365.368 143.517 366.008 144.136C366.648 144.755 367.245 145.373 367.8 145.992C368.355 146.589 368.792 147.144 369.112 147.656L366.712 149.224C366.413 148.733 365.997 148.179 365.464 147.56C364.931 146.941 364.355 146.312 363.736 145.672C363.117 145.011 362.499 144.424 361.88 143.912ZM348.6 142.28L351.48 143.208C350.691 145.107 349.752 146.973 348.664 148.808C347.576 150.621 346.392 152.328 345.112 153.928C343.853 155.528 342.563 156.936 341.24 158.152C341.133 157.917 340.973 157.608 340.76 157.224C340.568 156.84 340.355 156.456 340.12 156.072C339.885 155.688 339.683 155.379 339.512 155.144C340.707 154.12 341.869 152.925 343 151.56C344.131 150.195 345.176 148.723 346.136 147.144C347.096 145.565 347.917 143.944 348.6 142.28ZM345.112 151.112L348.184 148.04L348.216 148.072V171.624H345.112V151.112ZM356.248 142.472H359.288C359.373 145.992 359.576 149.277 359.896 152.328C360.216 155.357 360.643 158.035 361.176 160.36C361.731 162.664 362.413 164.488 363.224 165.832C364.056 167.155 365.027 167.891 366.136 168.04C366.541 168.061 366.872 167.624 367.128 166.728C367.384 165.832 367.576 164.477 367.704 162.664C367.917 162.856 368.173 163.069 368.472 163.304C368.792 163.517 369.112 163.72 369.432 163.912C369.773 164.104 370.029 164.243 370.2 164.328C369.965 166.269 369.645 167.784 369.24 168.872C368.835 169.939 368.376 170.675 367.864 171.08C367.373 171.485 366.829 171.677 366.232 171.656C364.76 171.528 363.491 170.973 362.424 169.992C361.357 169.032 360.451 167.699 359.704 165.992C358.979 164.264 358.381 162.216 357.912 159.848C357.443 157.459 357.08 154.803 356.824 151.88C356.568 148.957 356.376 145.821 356.248 142.472Z" fill="#254170"/>
<path d="M137.289 87.443L148.974 85.923L149.221 87.633L137.536 89.153L137.289 87.443ZM144.585 82.104L145.915 81.249C146.282 81.5403 146.656 81.8697 147.036 82.237C147.416 82.6043 147.771 82.9717 148.1 83.339C148.429 83.6937 148.689 84.023 148.879 84.327L147.454 85.258C147.277 84.9667 147.03 84.6373 146.713 84.27C146.396 83.9027 146.054 83.529 145.687 83.149C145.32 82.7563 144.952 82.408 144.585 82.104ZM136.7 81.135L138.41 81.686C137.941 82.8133 137.384 83.9217 136.738 85.011C136.092 86.0877 135.389 87.101 134.629 88.051C133.882 89.001 133.115 89.837 132.33 90.559C132.267 90.4197 132.172 90.236 132.045 90.008C131.931 89.78 131.804 89.552 131.665 89.324C131.526 89.096 131.405 88.9123 131.304 88.773C132.013 88.165 132.704 87.4557 133.375 86.645C134.046 85.8343 134.667 84.9603 135.237 84.023C135.807 83.0857 136.295 82.123 136.7 81.135ZM134.629 86.379L136.453 84.555L136.472 84.574V98.558H134.629V86.379ZM141.241 81.249H143.046C143.097 83.339 143.217 85.2897 143.407 87.101C143.597 88.8997 143.85 90.4893 144.167 91.87C144.496 93.238 144.902 94.321 145.383 95.119C145.877 95.9043 146.453 96.3413 147.112 96.43C147.353 96.4427 147.549 96.183 147.701 95.651C147.853 95.119 147.967 94.3147 148.043 93.238C148.17 93.352 148.322 93.4787 148.499 93.618C148.689 93.7447 148.879 93.865 149.069 93.979C149.272 94.093 149.424 94.1753 149.525 94.226C149.386 95.3787 149.196 96.278 148.955 96.924C148.714 97.5573 148.442 97.9943 148.138 98.235C147.847 98.4757 147.524 98.5897 147.169 98.577C146.295 98.501 145.541 98.1717 144.908 97.589C144.275 97.019 143.736 96.2273 143.293 95.214C142.862 94.188 142.508 92.972 142.229 91.566C141.95 90.1473 141.735 88.5703 141.583 86.835C141.431 85.0997 141.317 83.2377 141.241 81.249Z" fill="#254170"/>
<path d="M60.282 204.934L73.812 203.174L74.098 205.154L60.568 206.914L60.282 204.934ZM68.73 198.752L70.27 197.762C70.6953 198.099 71.128 198.481 71.568 198.906C72.008 199.331 72.4187 199.757 72.8 200.182C73.1813 200.593 73.482 200.974 73.702 201.326L72.052 202.404C71.8467 202.067 71.5607 201.685 71.194 201.26C70.8273 200.835 70.4313 200.402 70.006 199.962C69.5807 199.507 69.1553 199.104 68.73 198.752ZM59.6 197.63L61.58 198.268C61.0373 199.573 60.392 200.857 59.644 202.118C58.896 203.365 58.082 204.538 57.202 205.638C56.3367 206.738 55.4493 207.706 54.54 208.542C54.4667 208.381 54.3567 208.168 54.21 207.904C54.078 207.64 53.9313 207.376 53.77 207.112C53.6087 206.848 53.4693 206.635 53.352 206.474C54.1733 205.77 54.9727 204.949 55.75 204.01C56.5273 203.071 57.246 202.059 57.906 200.974C58.566 199.889 59.1307 198.774 59.6 197.63ZM57.202 203.702L59.314 201.59L59.336 201.612V217.804H57.202V203.702ZM64.858 197.762H66.948C67.0067 200.182 67.146 202.441 67.366 204.538C67.586 206.621 67.8793 208.461 68.246 210.06C68.6273 211.644 69.0967 212.898 69.654 213.822C70.226 214.731 70.8933 215.237 71.656 215.34C71.9347 215.355 72.162 215.054 72.338 214.438C72.514 213.822 72.646 212.891 72.734 211.644C72.8807 211.776 73.0567 211.923 73.262 212.084C73.482 212.231 73.702 212.37 73.922 212.502C74.1567 212.634 74.3327 212.729 74.45 212.788C74.2887 214.123 74.0687 215.164 73.79 215.912C73.5113 216.645 73.196 217.151 72.844 217.43C72.5067 217.709 72.1327 217.841 71.722 217.826C70.71 217.738 69.8373 217.357 69.104 216.682C68.3707 216.022 67.7473 215.105 67.234 213.932C66.7353 212.744 66.3247 211.336 66.002 209.708C65.6793 208.065 65.43 206.239 65.254 204.23C65.078 202.221 64.946 200.065 64.858 197.762Z" fill="#254170"/>
<path d="M58.289 117.443L69.974 115.923L70.221 117.633L58.536 119.153L58.289 117.443ZM65.585 112.104L66.915 111.249C67.2823 111.54 67.656 111.87 68.036 112.237C68.416 112.604 68.7707 112.972 69.1 113.339C69.4293 113.694 69.689 114.023 69.879 114.327L68.454 115.258C68.2767 114.967 68.0297 114.637 67.713 114.27C67.3963 113.903 67.0543 113.529 66.687 113.149C66.3197 112.756 65.9523 112.408 65.585 112.104ZM57.7 111.135L59.41 111.686C58.9413 112.813 58.384 113.922 57.738 115.011C57.092 116.088 56.389 117.101 55.629 118.051C54.8817 119.001 54.1153 119.837 53.33 120.559C53.2667 120.42 53.1717 120.236 53.045 120.008C52.931 119.78 52.8043 119.552 52.665 119.324C52.5257 119.096 52.4053 118.912 52.304 118.773C53.0133 118.165 53.7037 117.456 54.375 116.645C55.0463 115.834 55.667 114.96 56.237 114.023C56.807 113.086 57.2947 112.123 57.7 111.135ZM55.629 116.379L57.453 114.555L57.472 114.574V128.558H55.629V116.379ZM62.241 111.249H64.046C64.0967 113.339 64.217 115.29 64.407 117.101C64.597 118.9 64.8503 120.489 65.167 121.87C65.4963 123.238 65.9017 124.321 66.383 125.119C66.877 125.904 67.4533 126.341 68.112 126.43C68.3527 126.443 68.549 126.183 68.701 125.651C68.853 125.119 68.967 124.315 69.043 123.238C69.1697 123.352 69.3217 123.479 69.499 123.618C69.689 123.745 69.879 123.865 70.069 123.979C70.2717 124.093 70.4237 124.175 70.525 124.226C70.3857 125.379 70.1957 126.278 69.955 126.924C69.7143 127.557 69.442 127.994 69.138 128.235C68.8467 128.476 68.5237 128.59 68.169 128.577C67.295 128.501 66.5413 128.172 65.908 127.589C65.2747 127.019 64.7363 126.227 64.293 125.214C63.8623 124.188 63.5077 122.972 63.229 121.566C62.9503 120.147 62.735 118.57 62.583 116.835C62.431 115.1 62.317 113.238 62.241 111.249Z" fill="#254170"/>
<path d="M331.282 355.934L344.812 354.174L345.098 356.154L331.568 357.914L331.282 355.934ZM339.73 349.752L341.27 348.762C341.695 349.099 342.128 349.481 342.568 349.906C343.008 350.331 343.419 350.757 343.8 351.182C344.181 351.593 344.482 351.974 344.702 352.326L343.052 353.404C342.847 353.067 342.561 352.685 342.194 352.26C341.827 351.835 341.431 351.402 341.006 350.962C340.581 350.507 340.155 350.104 339.73 349.752ZM330.6 348.63L332.58 349.268C332.037 350.573 331.392 351.857 330.644 353.118C329.896 354.365 329.082 355.538 328.202 356.638C327.337 357.738 326.449 358.706 325.54 359.542C325.467 359.381 325.357 359.168 325.21 358.904C325.078 358.64 324.931 358.376 324.77 358.112C324.609 357.848 324.469 357.635 324.352 357.474C325.173 356.77 325.973 355.949 326.75 355.01C327.527 354.071 328.246 353.059 328.906 351.974C329.566 350.889 330.131 349.774 330.6 348.63ZM328.202 354.702L330.314 352.59L330.336 352.612V368.804H328.202V354.702ZM335.858 348.762H337.948C338.007 351.182 338.146 353.441 338.366 355.538C338.586 357.621 338.879 359.461 339.246 361.06C339.627 362.644 340.097 363.898 340.654 364.822C341.226 365.731 341.893 366.237 342.656 366.34C342.935 366.355 343.162 366.054 343.338 365.438C343.514 364.822 343.646 363.891 343.734 362.644C343.881 362.776 344.057 362.923 344.262 363.084C344.482 363.231 344.702 363.37 344.922 363.502C345.157 363.634 345.333 363.729 345.45 363.788C345.289 365.123 345.069 366.164 344.79 366.912C344.511 367.645 344.196 368.151 343.844 368.43C343.507 368.709 343.133 368.841 342.722 368.826C341.71 368.738 340.837 368.357 340.104 367.682C339.371 367.022 338.747 366.105 338.234 364.932C337.735 363.744 337.325 362.336 337.002 360.708C336.679 359.065 336.43 357.239 336.254 355.23C336.078 353.221 335.946 351.065 335.858 348.762Z" fill="#254170"/>
<path d="M81.282 358.934L94.812 357.174L95.098 359.154L81.568 360.914L81.282 358.934ZM89.73 352.752L91.27 351.762C91.6953 352.099 92.128 352.481 92.568 352.906C93.008 353.331 93.4187 353.757 93.8 354.182C94.1813 354.593 94.482 354.974 94.702 355.326L93.052 356.404C92.8467 356.067 92.5607 355.685 92.194 355.26C91.8273 354.835 91.4313 354.402 91.006 353.962C90.5807 353.507 90.1553 353.104 89.73 352.752ZM80.6 351.63L82.58 352.268C82.0373 353.573 81.392 354.857 80.644 356.118C79.896 357.365 79.082 358.538 78.202 359.638C77.3367 360.738 76.4493 361.706 75.54 362.542C75.4667 362.381 75.3567 362.168 75.21 361.904C75.078 361.64 74.9313 361.376 74.77 361.112C74.6087 360.848 74.4693 360.635 74.352 360.474C75.1733 359.77 75.9727 358.949 76.75 358.01C77.5273 357.071 78.246 356.059 78.906 354.974C79.566 353.889 80.1307 352.774 80.6 351.63ZM78.202 357.702L80.314 355.59L80.336 355.612V371.804H78.202V357.702ZM85.858 351.762H87.948C88.0067 354.182 88.146 356.441 88.366 358.538C88.586 360.621 88.8793 362.461 89.246 364.06C89.6273 365.644 90.0967 366.898 90.654 367.822C91.226 368.731 91.8933 369.237 92.656 369.34C92.9347 369.355 93.162 369.054 93.338 368.438C93.514 367.822 93.646 366.891 93.734 365.644C93.8807 365.776 94.0567 365.923 94.262 366.084C94.482 366.231 94.702 366.37 94.922 366.502C95.1567 366.634 95.3327 366.729 95.45 366.788C95.2887 368.123 95.0687 369.164 94.79 369.912C94.5113 370.645 94.196 371.151 93.844 371.43C93.5067 371.709 93.1327 371.841 92.722 371.826C91.71 371.738 90.8373 371.357 90.104 370.682C89.3707 370.022 88.7473 369.105 88.234 367.932C87.7353 366.744 87.3247 365.336 87.002 363.708C86.6793 362.065 86.43 360.239 86.254 358.23C86.078 356.221 85.946 354.065 85.858 351.762Z" fill="#254170"/>
<path d="M134.236 119.488C133.488 119.488 132.828 119.29 132.256 118.894C131.684 118.483 131.237 117.889 130.914 117.112C130.591 116.335 130.43 115.403 130.43 114.318C130.43 113.233 130.591 112.316 130.914 111.568C131.237 110.805 131.684 110.226 132.256 109.83C132.828 109.419 133.488 109.214 134.236 109.214C135.38 109.214 136.297 109.661 136.986 110.556C137.69 111.436 138.042 112.69 138.042 114.318C138.042 115.403 137.881 116.335 137.558 117.112C137.25 117.889 136.81 118.483 136.238 118.894C135.666 119.29 134.999 119.488 134.236 119.488ZM134.236 117.97C134.823 117.97 135.292 117.677 135.644 117.09C136.011 116.489 136.194 115.565 136.194 114.318C136.194 113.071 136.011 112.162 135.644 111.59C135.292 111.003 134.823 110.71 134.236 110.71C133.679 110.71 133.217 111.003 132.85 111.59C132.483 112.162 132.3 113.071 132.3 114.318C132.3 115.565 132.483 116.489 132.85 117.09C133.217 117.677 133.679 117.97 134.236 117.97ZM145.786 126.066C145.038 126.066 144.371 125.861 143.784 125.45C143.212 125.039 142.765 124.453 142.442 123.69C142.119 122.913 141.958 121.981 141.958 120.896C141.958 119.811 142.119 118.894 142.442 118.146C142.765 117.383 143.212 116.804 143.784 116.408C144.371 115.997 145.038 115.792 145.786 115.792C146.549 115.792 147.209 115.997 147.766 116.408C148.338 116.804 148.785 117.383 149.108 118.146C149.431 118.894 149.592 119.811 149.592 120.896C149.592 121.981 149.431 122.913 149.108 123.69C148.785 124.453 148.338 125.039 147.766 125.45C147.209 125.861 146.549 126.066 145.786 126.066ZM145.786 124.548C146.358 124.548 146.827 124.255 147.194 123.668C147.561 123.067 147.744 122.143 147.744 120.896C147.744 119.649 147.561 118.74 147.194 118.168C146.827 117.581 146.358 117.288 145.786 117.288C145.214 117.288 144.745 117.581 144.378 118.168C144.011 118.74 143.828 119.649 143.828 120.896C143.828 122.143 144.011 123.067 144.378 123.668C144.745 124.255 145.214 124.548 145.786 124.548ZM134.742 126.066L143.652 109.214H145.258L136.348 126.066H134.742Z" fill="#254170"/>
<path d="M112.188 245.304C111.304 245.304 110.524 245.07 109.848 244.602C109.172 244.117 108.643 243.415 108.262 242.496C107.881 241.577 107.69 240.477 107.69 239.194C107.69 237.911 107.881 236.828 108.262 235.944C108.643 235.043 109.172 234.358 109.848 233.89C110.524 233.405 111.304 233.162 112.188 233.162C113.54 233.162 114.623 233.691 115.438 234.748C116.27 235.788 116.686 237.27 116.686 239.194C116.686 240.477 116.495 241.577 116.114 242.496C115.75 243.415 115.23 244.117 114.554 244.602C113.878 245.07 113.089 245.304 112.188 245.304ZM112.188 243.51C112.881 243.51 113.436 243.163 113.852 242.47C114.285 241.759 114.502 240.667 114.502 239.194C114.502 237.721 114.285 236.646 113.852 235.97C113.436 235.277 112.881 234.93 112.188 234.93C111.529 234.93 110.983 235.277 110.55 235.97C110.117 236.646 109.9 237.721 109.9 239.194C109.9 240.667 110.117 241.759 110.55 242.47C110.983 243.163 111.529 243.51 112.188 243.51ZM125.838 253.078C124.954 253.078 124.165 252.835 123.472 252.35C122.796 251.865 122.267 251.171 121.886 250.27C121.505 249.351 121.314 248.251 121.314 246.968C121.314 245.685 121.505 244.602 121.886 243.718C122.267 242.817 122.796 242.132 123.472 241.664C124.165 241.179 124.954 240.936 125.838 240.936C126.739 240.936 127.519 241.179 128.178 241.664C128.854 242.132 129.383 242.817 129.764 243.718C130.145 244.602 130.336 245.685 130.336 246.968C130.336 248.251 130.145 249.351 129.764 250.27C129.383 251.171 128.854 251.865 128.178 252.35C127.519 252.835 126.739 253.078 125.838 253.078ZM125.838 251.284C126.514 251.284 127.069 250.937 127.502 250.244C127.935 249.533 128.152 248.441 128.152 246.968C128.152 245.495 127.935 244.42 127.502 243.744C127.069 243.051 126.514 242.704 125.838 242.704C125.162 242.704 124.607 243.051 124.174 243.744C123.741 244.42 123.524 245.495 123.524 246.968C123.524 248.441 123.741 249.533 124.174 250.244C124.607 250.937 125.162 251.284 125.838 251.284ZM112.786 253.078L123.316 233.162H125.214L114.684 253.078H112.786Z" fill="white"/>
<path d="M57.236 151.488C56.488 151.488 55.828 151.29 55.256 150.894C54.684 150.483 54.2367 149.889 53.914 149.112C53.5913 148.335 53.43 147.403 53.43 146.318C53.43 145.233 53.5913 144.316 53.914 143.568C54.2367 142.805 54.684 142.226 55.256 141.83C55.828 141.419 56.488 141.214 57.236 141.214C58.38 141.214 59.2967 141.661 59.986 142.556C60.69 143.436 61.042 144.69 61.042 146.318C61.042 147.403 60.8807 148.335 60.558 149.112C60.25 149.889 59.81 150.483 59.238 150.894C58.666 151.29 57.9987 151.488 57.236 151.488ZM57.236 149.97C57.8227 149.97 58.292 149.677 58.644 149.09C59.0107 148.489 59.194 147.565 59.194 146.318C59.194 145.071 59.0107 144.162 58.644 143.59C58.292 143.003 57.8227 142.71 57.236 142.71C56.6787 142.71 56.2167 143.003 55.85 143.59C55.4833 144.162 55.3 145.071 55.3 146.318C55.3 147.565 55.4833 148.489 55.85 149.09C56.2167 149.677 56.6787 149.97 57.236 149.97ZM68.786 158.066C68.038 158.066 67.3707 157.861 66.784 157.45C66.212 157.039 65.7647 156.453 65.442 155.69C65.1193 154.913 64.958 153.981 64.958 152.896C64.958 151.811 65.1193 150.894 65.442 150.146C65.7647 149.383 66.212 148.804 66.784 148.408C67.3707 147.997 68.038 147.792 68.786 147.792C69.5487 147.792 70.2087 147.997 70.766 148.408C71.338 148.804 71.7853 149.383 72.108 150.146C72.4307 150.894 72.592 151.811 72.592 152.896C72.592 153.981 72.4307 154.913 72.108 155.69C71.7853 156.453 71.338 157.039 70.766 157.45C70.2087 157.861 69.5487 158.066 68.786 158.066ZM68.786 156.548C69.358 156.548 69.8273 156.255 70.194 155.668C70.5607 155.067 70.744 154.143 70.744 152.896C70.744 151.649 70.5607 150.74 70.194 150.168C69.8273 149.581 69.358 149.288 68.786 149.288C68.214 149.288 67.7447 149.581 67.378 150.168C67.0113 150.74 66.828 151.649 66.828 152.896C66.828 154.143 67.0113 155.067 67.378 155.668C67.7447 156.255 68.214 156.548 68.786 156.548ZM57.742 158.066L66.652 141.214H68.258L59.348 158.066H57.742Z" fill="#254170"/>
<path d="M255.14 334.12C254.12 334.12 253.22 333.85 252.44 333.31C251.66 332.75 251.05 331.94 250.61 330.88C250.17 329.82 249.95 328.55 249.95 327.07C249.95 325.59 250.17 324.34 250.61 323.32C251.05 322.28 251.66 321.49 252.44 320.95C253.22 320.39 254.12 320.11 255.14 320.11C256.7 320.11 257.95 320.72 258.89 321.94C259.85 323.14 260.33 324.85 260.33 327.07C260.33 328.55 260.11 329.82 259.67 330.88C259.25 331.94 258.65 332.75 257.87 333.31C257.09 333.85 256.18 334.12 255.14 334.12ZM255.14 332.05C255.94 332.05 256.58 331.65 257.06 330.85C257.56 330.03 257.81 328.77 257.81 327.07C257.81 325.37 257.56 324.13 257.06 323.35C256.58 322.55 255.94 322.15 255.14 322.15C254.38 322.15 253.75 322.55 253.25 323.35C252.75 324.13 252.5 325.37 252.5 327.07C252.5 328.77 252.75 330.03 253.25 330.85C253.75 331.65 254.38 332.05 255.14 332.05ZM270.89 343.09C269.87 343.09 268.96 342.81 268.16 342.25C267.38 341.69 266.77 340.89 266.33 339.85C265.89 338.79 265.67 337.52 265.67 336.04C265.67 334.56 265.89 333.31 266.33 332.29C266.77 331.25 267.38 330.46 268.16 329.92C268.96 329.36 269.87 329.08 270.89 329.08C271.93 329.08 272.83 329.36 273.59 329.92C274.37 330.46 274.98 331.25 275.42 332.29C275.86 333.31 276.08 334.56 276.08 336.04C276.08 337.52 275.86 338.79 275.42 339.85C274.98 340.89 274.37 341.69 273.59 342.25C272.83 342.81 271.93 343.09 270.89 343.09ZM270.89 341.02C271.67 341.02 272.31 340.62 272.81 339.82C273.31 339 273.56 337.74 273.56 336.04C273.56 334.34 273.31 333.1 272.81 332.32C272.31 331.52 271.67 331.12 270.89 331.12C270.11 331.12 269.47 331.52 268.97 332.32C268.47 333.1 268.22 334.34 268.22 336.04C268.22 337.74 268.47 339 268.97 339.82C269.47 340.62 270.11 341.02 270.89 341.02ZM255.83 343.09L267.98 320.11H270.17L258.02 343.09H255.83Z" fill="white"/>
<path d="M140.14 333.12C139.12 333.12 138.22 332.85 137.44 332.31C136.66 331.75 136.05 330.94 135.61 329.88C135.17 328.82 134.95 327.55 134.95 326.07C134.95 324.59 135.17 323.34 135.61 322.32C136.05 321.28 136.66 320.49 137.44 319.95C138.22 319.39 139.12 319.11 140.14 319.11C141.7 319.11 142.95 319.72 143.89 320.94C144.85 322.14 145.33 323.85 145.33 326.07C145.33 327.55 145.11 328.82 144.67 329.88C144.25 330.94 143.65 331.75 142.87 332.31C142.09 332.85 141.18 333.12 140.14 333.12ZM140.14 331.05C140.94 331.05 141.58 330.65 142.06 329.85C142.56 329.03 142.81 327.77 142.81 326.07C142.81 324.37 142.56 323.13 142.06 322.35C141.58 321.55 140.94 321.15 140.14 321.15C139.38 321.15 138.75 321.55 138.25 322.35C137.75 323.13 137.5 324.37 137.5 326.07C137.5 327.77 137.75 329.03 138.25 329.85C138.75 330.65 139.38 331.05 140.14 331.05ZM155.89 342.09C154.87 342.09 153.96 341.81 153.16 341.25C152.38 340.69 151.77 339.89 151.33 338.85C150.89 337.79 150.67 336.52 150.67 335.04C150.67 333.56 150.89 332.31 151.33 331.29C151.77 330.25 152.38 329.46 153.16 328.92C153.96 328.36 154.87 328.08 155.89 328.08C156.93 328.08 157.83 328.36 158.59 328.92C159.37 329.46 159.98 330.25 160.42 331.29C160.86 332.31 161.08 333.56 161.08 335.04C161.08 336.52 160.86 337.79 160.42 338.85C159.98 339.89 159.37 340.69 158.59 341.25C157.83 341.81 156.93 342.09 155.89 342.09ZM155.89 340.02C156.67 340.02 157.31 339.62 157.81 338.82C158.31 338 158.56 336.74 158.56 335.04C158.56 333.34 158.31 332.1 157.81 331.32C157.31 330.52 156.67 330.12 155.89 330.12C155.11 330.12 154.47 330.52 153.97 331.32C153.47 332.1 153.22 333.34 153.22 335.04C153.22 336.74 153.47 338 153.97 338.82C154.47 339.62 155.11 340.02 155.89 340.02ZM140.83 342.09L152.98 319.11H155.17L143.02 342.09H140.83Z" fill="white"/>
<path d="M267.14 216.12C266.12 216.12 265.22 215.85 264.44 215.31C263.66 214.75 263.05 213.94 262.61 212.88C262.17 211.82 261.95 210.55 261.95 209.07C261.95 207.59 262.17 206.34 262.61 205.32C263.05 204.28 263.66 203.49 264.44 202.95C265.22 202.39 266.12 202.11 267.14 202.11C268.7 202.11 269.95 202.72 270.89 203.94C271.85 205.14 272.33 206.85 272.33 209.07C272.33 210.55 272.11 211.82 271.67 212.88C271.25 213.94 270.65 214.75 269.87 215.31C269.09 215.85 268.18 216.12 267.14 216.12ZM267.14 214.05C267.94 214.05 268.58 213.65 269.06 212.85C269.56 212.03 269.81 210.77 269.81 209.07C269.81 207.37 269.56 206.13 269.06 205.35C268.58 204.55 267.94 204.15 267.14 204.15C266.38 204.15 265.75 204.55 265.25 205.35C264.75 206.13 264.5 207.37 264.5 209.07C264.5 210.77 264.75 212.03 265.25 212.85C265.75 213.65 266.38 214.05 267.14 214.05ZM282.89 225.09C281.87 225.09 280.96 224.81 280.16 224.25C279.38 223.69 278.77 222.89 278.33 221.85C277.89 220.79 277.67 219.52 277.67 218.04C277.67 216.56 277.89 215.31 278.33 214.29C278.77 213.25 279.38 212.46 280.16 211.92C280.96 211.36 281.87 211.08 282.89 211.08C283.93 211.08 284.83 211.36 285.59 211.92C286.37 212.46 286.98 213.25 287.42 214.29C287.86 215.31 288.08 216.56 288.08 218.04C288.08 219.52 287.86 220.79 287.42 221.85C286.98 222.89 286.37 223.69 285.59 224.25C284.83 224.81 283.93 225.09 282.89 225.09ZM282.89 223.02C283.67 223.02 284.31 222.62 284.81 221.82C285.31 221 285.56 219.74 285.56 218.04C285.56 216.34 285.31 215.1 284.81 214.32C284.31 213.52 283.67 213.12 282.89 213.12C282.11 213.12 281.47 213.52 280.97 214.32C280.47 215.1 280.22 216.34 280.22 218.04C280.22 219.74 280.47 221 280.97 221.82C281.47 222.62 282.11 223.02 282.89 223.02ZM267.83 225.09L279.98 202.11H282.17L270.02 225.09H267.83Z" fill="white"/>
<path d="M244.719 173V168.281V165.785C244.719 162.925 245.252 160.442 246.318 158.336C247.41 156.23 248.84 154.397 250.608 152.837C252.376 151.251 254.313 149.847 256.419 148.625C258.551 147.403 260.67 146.233 262.776 145.115C264.882 143.997 266.819 142.84 268.587 141.644C270.355 140.422 271.772 139.057 272.838 137.549C273.93 136.015 274.476 134.221 274.476 132.167C274.476 129.463 273.527 127.266 271.629 125.576C269.731 123.886 267.157 123.041 263.907 123.041C260.449 123.041 257.641 124.016 255.483 125.966C253.325 127.916 252.077 130.607 251.739 134.039H243.549C243.627 130.685 244.446 127.63 246.006 124.874C247.566 122.118 249.867 119.921 252.909 118.283C255.951 116.645 259.721 115.826 264.219 115.826C268.119 115.826 271.486 116.515 274.32 117.893C277.18 119.245 279.39 121.143 280.95 123.587C282.51 126.031 283.29 128.878 283.29 132.128C283.29 135.014 282.757 137.497 281.691 139.577C280.625 141.657 279.221 143.451 277.479 144.959C275.763 146.467 273.865 147.806 271.785 148.976C269.705 150.12 267.625 151.225 265.545 152.291C263.465 153.331 261.554 154.436 259.812 155.606C258.07 156.75 256.666 158.05 255.6 159.506C254.534 160.962 254.001 162.717 254.001 164.771V165.746H283.485V173H244.719ZM311.522 173.858C305.152 173.858 300.134 171.427 296.468 166.565C292.802 161.677 290.969 154.488 290.969 144.998C290.969 138.628 291.814 133.285 293.504 128.969C295.194 124.627 297.573 121.351 300.641 119.141C303.735 116.931 307.375 115.826 311.561 115.826C317.827 115.826 322.806 118.296 326.498 123.236C330.216 128.15 332.075 135.378 332.075 144.92C332.075 154.41 330.229 161.612 326.537 166.526C322.871 171.414 317.866 173.858 311.522 173.858ZM311.561 166.76C315.409 166.76 318.295 165.07 320.219 161.69C322.143 158.284 323.105 152.707 323.105 144.959C323.105 137.055 322.13 131.374 320.18 127.916C318.23 124.432 315.344 122.69 311.522 122.69C307.726 122.69 304.827 124.445 302.825 127.955C300.823 131.439 299.822 137.107 299.822 144.959C299.822 152.681 300.81 158.245 302.786 161.651C304.788 165.057 307.713 166.76 311.561 166.76Z" fill="#254170"/>
<path d="M208.541 225V222.459V221.115C208.541 219.575 208.828 218.238 209.402 217.104C209.99 215.97 210.76 214.983 211.712 214.143C212.664 213.289 213.707 212.533 214.841 211.875C215.989 211.217 217.13 210.587 218.264 209.985C219.398 209.383 220.441 208.76 221.393 208.116C222.345 207.458 223.108 206.723 223.682 205.911C224.27 205.085 224.564 204.119 224.564 203.013C224.564 201.557 224.053 200.374 223.031 199.464C222.009 198.554 220.623 198.099 218.873 198.099C217.011 198.099 215.499 198.624 214.337 199.674C213.175 200.724 212.503 202.173 212.321 204.021H207.911C207.953 202.215 208.394 200.57 209.234 199.086C210.074 197.602 211.313 196.419 212.951 195.537C214.589 194.655 216.619 194.214 219.041 194.214C221.141 194.214 222.954 194.585 224.48 195.327C226.02 196.055 227.21 197.077 228.05 198.393C228.89 199.709 229.31 201.242 229.31 202.992C229.31 204.546 229.023 205.883 228.449 207.003C227.875 208.123 227.119 209.089 226.181 209.901C225.257 210.713 224.235 211.434 223.115 212.064C221.995 212.68 220.875 213.275 219.755 213.849C218.635 214.409 217.606 215.004 216.668 215.634C215.73 216.25 214.974 216.95 214.4 217.734C213.826 218.518 213.539 219.463 213.539 220.569V221.094H229.415V225H208.541ZM245.247 225.462C242.839 225.462 240.746 224.853 238.968 223.635C237.204 222.403 235.839 220.66 234.873 218.406C233.921 216.138 233.445 213.443 233.445 210.321C233.445 207.045 233.914 204.203 234.852 201.795C235.79 199.373 237.162 197.504 238.968 196.188C240.774 194.872 242.972 194.214 245.562 194.214C247.298 194.214 248.901 194.536 250.371 195.18C251.855 195.824 253.073 196.755 254.025 197.973C254.991 199.177 255.565 200.64 255.747 202.362H251.568C251.176 200.962 250.469 199.87 249.447 199.086C248.439 198.288 247.172 197.889 245.646 197.889C243.952 197.889 242.531 198.372 241.383 199.338C240.249 200.29 239.423 201.683 238.905 203.517C238.401 205.351 238.24 207.563 238.422 210.153C238.814 209.229 239.388 208.424 240.144 207.738C240.914 207.038 241.796 206.499 242.79 206.121C243.784 205.743 244.848 205.554 245.982 205.554C247.998 205.554 249.762 205.939 251.274 206.709C252.786 207.479 253.962 208.578 254.802 210.006C255.656 211.434 256.083 213.128 256.083 215.088C256.083 217.104 255.635 218.896 254.739 220.464C253.857 222.018 252.604 223.243 250.98 224.139C249.356 225.021 247.445 225.462 245.247 225.462ZM245.163 221.85C246.339 221.85 247.382 221.577 248.292 221.031C249.216 220.471 249.944 219.701 250.476 218.721C251.008 217.727 251.274 216.586 251.274 215.298C251.274 213.996 251.029 212.883 250.539 211.959C250.049 211.035 249.342 210.328 248.418 209.838C247.508 209.348 246.416 209.103 245.142 209.103C244.092 209.103 243.091 209.348 242.139 209.838C241.187 210.314 240.41 210.944 239.808 211.728C239.206 212.512 238.905 213.366 238.905 214.29C238.877 215.788 239.122 217.104 239.64 218.238C240.172 219.372 240.907 220.261 241.845 220.905C242.797 221.535 243.903 221.85 245.163 221.85Z" fill="white"/>
<path d="M89.688 97C89.8653 95.784 90.201 94.2703 90.695 92.459C91.189 90.6477 91.854 88.6653 92.69 86.512C93.5387 84.346 94.5647 82.104 95.768 79.786C96.9713 77.468 98.371 75.1943 99.967 72.965H84.729V69.526H104.356V72.965C103.406 74.2443 102.462 75.701 101.525 77.335C100.588 78.969 99.6947 80.6853 98.846 82.484C98.01 84.27 97.25 86.056 96.566 87.842C95.8947 89.6153 95.3437 91.2937 94.913 92.877C94.4823 94.4477 94.2163 95.822 94.115 97H89.688ZM117.25 97.418C114.147 97.418 111.702 96.2337 109.916 93.865C108.13 91.4837 107.237 87.9813 107.237 83.358C107.237 80.2547 107.649 77.6517 108.472 75.549C109.296 73.4337 110.455 71.8377 111.949 70.761C113.457 69.6843 115.23 69.146 117.269 69.146C120.322 69.146 122.748 70.3493 124.546 72.756C126.358 75.15 127.263 78.6713 127.263 83.32C127.263 87.9433 126.364 91.452 124.565 93.846C122.779 96.2273 120.341 97.418 117.25 97.418ZM117.269 93.96C119.144 93.96 120.55 93.1367 121.487 91.49C122.425 89.8307 122.893 87.1137 122.893 83.339C122.893 79.4883 122.418 76.7207 121.468 75.036C120.518 73.3387 119.112 72.49 117.25 72.49C115.401 72.49 113.989 73.345 113.013 75.055C112.038 76.7523 111.55 79.5137 111.55 83.339C111.55 87.101 112.032 89.8117 112.994 91.471C113.97 93.1303 115.395 93.96 117.269 93.96Z" fill="#254170"/>
<path d="M14.049 218.462C12.145 218.462 10.381 218.14 8.757 217.496C7.133 216.838 5.733 215.942 4.557 214.808C3.395 213.66 2.534 212.337 1.974 210.839L5.733 209.054C6.237 210.146 6.86 211.126 7.602 211.994C8.344 212.848 9.219 213.52 10.227 214.01C11.235 214.486 12.39 214.724 13.692 214.724C15.75 214.724 17.409 214.143 18.669 212.981C19.929 211.805 20.559 210.216 20.559 208.214C20.559 206.968 20.265 205.876 19.677 204.938C19.089 204 18.298 203.272 17.304 202.754C16.31 202.222 15.197 201.956 13.965 201.956C13.195 201.956 12.474 202.026 11.802 202.166C11.13 202.292 10.458 202.551 9.786 202.943C9.128 203.321 8.428 203.888 7.686 204.644C7.574 204.7 7.49 204.728 7.434 204.728C7.392 204.728 7.301 204.693 7.161 204.623L3.57 203.321L4.956 187.634H23.457L23.31 191.435H8.673L7.959 200.57C8.995 199.73 10.087 199.128 11.235 198.764C12.383 198.386 13.629 198.197 14.973 198.197C16.863 198.197 18.585 198.575 20.139 199.331C21.707 200.087 22.96 201.2 23.898 202.67C24.836 204.126 25.305 205.925 25.305 208.067C25.305 210.181 24.843 212.015 23.919 213.569C22.995 215.123 21.686 216.327 19.992 217.181C18.312 218.035 16.331 218.462 14.049 218.462ZM40.3574 218.462C36.9274 218.462 34.2254 217.153 32.2514 214.535C30.2774 211.903 29.2904 208.032 29.2904 202.922C29.2904 199.492 29.7454 196.615 30.6554 194.291C31.5654 191.953 32.8464 190.189 34.4984 188.999C36.1644 187.809 38.1244 187.214 40.3784 187.214C43.7524 187.214 46.4334 188.544 48.4214 191.204C50.4234 193.85 51.4244 197.742 51.4244 202.88C51.4244 207.99 50.4304 211.868 48.4424 214.514C46.4684 217.146 43.7734 218.462 40.3574 218.462ZM40.3784 214.64C42.4504 214.64 44.0044 213.73 45.0404 211.91C46.0764 210.076 46.5944 207.073 46.5944 202.901C46.5944 198.645 46.0694 195.586 45.0194 193.724C43.9694 191.848 42.4154 190.91 40.3574 190.91C38.3134 190.91 36.7524 191.855 35.6744 193.745C34.5964 195.621 34.0574 198.673 34.0574 202.901C34.0574 207.059 34.5894 210.055 35.6534 211.889C36.7314 213.723 38.3064 214.64 40.3784 214.64Z" fill="#254170"/>
<path d="M14.464 128.418C12.2853 128.418 10.3917 127.867 8.783 126.765C7.187 125.65 5.952 124.073 5.078 122.034C4.21667 119.982 3.786 117.544 3.786 114.719C3.786 111.755 4.21033 109.184 5.059 107.005C5.90767 104.814 7.149 103.123 8.783 101.932C10.417 100.741 12.4057 100.146 14.749 100.146C16.3197 100.146 17.77 100.437 19.1 101.02C20.4427 101.603 21.5447 102.445 22.406 103.547C23.28 104.636 23.7993 105.96 23.964 107.518H20.183C19.8283 106.251 19.1887 105.263 18.264 104.554C17.352 103.832 16.2057 103.471 14.825 103.471C13.2923 103.471 12.0067 103.908 10.968 104.782C9.942 105.643 9.19467 106.904 8.726 108.563C8.27 110.222 8.12433 112.224 8.289 114.567C8.64367 113.731 9.163 113.003 9.847 112.382C10.5437 111.749 11.3417 111.261 12.241 110.919C13.1403 110.577 14.103 110.406 15.129 110.406C16.953 110.406 18.549 110.754 19.917 111.451C21.285 112.148 22.349 113.142 23.109 114.434C23.8817 115.726 24.268 117.259 24.268 119.032C24.268 120.856 23.8627 122.477 23.052 123.896C22.254 125.302 21.1203 126.41 19.651 127.221C18.1817 128.019 16.4527 128.418 14.464 128.418ZM14.388 125.15C15.452 125.15 16.3957 124.903 17.219 124.409C18.055 123.902 18.7137 123.206 19.195 122.319C19.6763 121.42 19.917 120.387 19.917 119.222C19.917 118.044 19.6953 117.037 19.252 116.201C18.8087 115.365 18.169 114.725 17.333 114.282C16.5097 113.839 15.5217 113.617 14.369 113.617C13.419 113.617 12.5133 113.839 11.652 114.282C10.7907 114.713 10.0877 115.283 9.543 115.992C8.99833 116.701 8.726 117.474 8.726 118.31C8.70067 119.665 8.92233 120.856 9.391 121.882C9.87233 122.908 10.5373 123.712 11.386 124.295C12.2473 124.865 13.248 125.15 14.388 125.15ZM37.6232 128.418C34.5199 128.418 32.0752 127.234 30.2892 124.865C28.5032 122.484 27.6102 118.981 27.6102 114.358C27.6102 111.255 28.0219 108.652 28.8452 106.549C29.6686 104.434 30.8276 102.838 32.3222 101.761C33.8296 100.684 35.6029 100.146 37.6422 100.146C40.6949 100.146 43.1206 101.349 44.9192 103.756C46.7306 106.15 47.6362 109.671 47.6362 114.32C47.6362 118.943 46.7369 122.452 44.9382 124.846C43.1522 127.227 40.7139 128.418 37.6232 128.418ZM37.6422 124.96C39.5169 124.96 40.9229 124.137 41.8602 122.49C42.7976 120.831 43.2662 118.114 43.2662 114.339C43.2662 110.488 42.7912 107.721 41.8412 106.036C40.8912 104.339 39.4852 103.49 37.6232 103.49C35.7739 103.49 34.3616 104.345 33.3862 106.055C32.4109 107.752 31.9232 110.514 31.9232 114.339C31.9232 118.101 32.4046 120.812 33.3672 122.471C34.3426 124.13 35.7676 124.96 37.6422 124.96Z" fill="#254170"/>
<path d="M113.714 127V125.306V124.41C113.714 123.383 113.905 122.492 114.288 121.736C114.68 120.98 115.193 120.322 115.828 119.762C116.462 119.193 117.158 118.689 117.914 118.25C118.679 117.811 119.44 117.391 120.196 116.99C120.952 116.589 121.647 116.173 122.282 115.744C122.916 115.305 123.425 114.815 123.808 114.274C124.2 113.723 124.396 113.079 124.396 112.342C124.396 111.371 124.055 110.583 123.374 109.976C122.692 109.369 121.768 109.066 120.602 109.066C119.36 109.066 118.352 109.416 117.578 110.116C116.803 110.816 116.355 111.782 116.234 113.014H113.294C113.322 111.81 113.616 110.713 114.176 109.724C114.736 108.735 115.562 107.946 116.654 107.358C117.746 106.77 119.099 106.476 120.714 106.476C122.114 106.476 123.322 106.723 124.34 107.218C125.366 107.703 126.16 108.385 126.72 109.262C127.28 110.139 127.56 111.161 127.56 112.328C127.56 113.364 127.368 114.255 126.986 115.002C126.603 115.749 126.099 116.393 125.474 116.934C124.858 117.475 124.176 117.956 123.43 118.376C122.683 118.787 121.936 119.183 121.19 119.566C120.443 119.939 119.757 120.336 119.132 120.756C118.506 121.167 118.002 121.633 117.62 122.156C117.237 122.679 117.046 123.309 117.046 124.046V124.396H127.63V127H113.714Z" fill="#254170"/>
<path d="M74.3875 253V233.19H69.5925V230.862C71.0858 230.862 72.2583 230.746 73.11 230.512C73.9733 230.267 74.5917 229.912 74.965 229.445C75.35 228.967 75.5658 228.383 75.6125 227.695H78.22V253H74.3875ZM93.9038 253.385C91.8972 253.385 90.153 252.877 88.6713 251.862C87.2013 250.836 86.0638 249.383 85.2588 247.505C84.4655 245.615 84.0688 243.369 84.0688 240.767C84.0688 238.037 84.4597 235.669 85.2413 233.662C86.023 231.644 87.1663 230.087 88.6713 228.99C90.1763 227.893 92.008 227.345 94.1663 227.345C95.613 227.345 96.9488 227.613 98.1738 228.15C99.4105 228.687 100.425 229.462 101.219 230.477C102.024 231.481 102.502 232.7 102.654 234.135H99.1713C98.8447 232.968 98.2555 232.058 97.4038 231.405C96.5638 230.74 95.508 230.407 94.2363 230.407C92.8247 230.407 91.6405 230.81 90.6838 231.615C89.7388 232.408 89.0505 233.569 88.6188 235.097C88.1988 236.626 88.0647 238.469 88.2163 240.627C88.543 239.857 89.0213 239.187 89.6513 238.615C90.293 238.032 91.028 237.582 91.8563 237.267C92.6847 236.952 93.5713 236.795 94.5163 236.795C96.1963 236.795 97.6663 237.116 98.9263 237.757C100.186 238.399 101.166 239.315 101.866 240.505C102.578 241.695 102.934 243.107 102.934 244.74C102.934 246.42 102.56 247.913 101.814 249.22C101.079 250.515 100.035 251.536 98.6813 252.282C97.328 253.018 95.7355 253.385 93.9038 253.385ZM93.8338 250.375C94.8138 250.375 95.683 250.147 96.4413 249.692C97.2113 249.226 97.818 248.584 98.2613 247.767C98.7047 246.939 98.9263 245.988 98.9263 244.915C98.9263 243.83 98.7222 242.902 98.3138 242.132C97.9055 241.362 97.3163 240.773 96.5463 240.365C95.788 239.957 94.878 239.752 93.8163 239.752C92.9413 239.752 92.1072 239.957 91.3138 240.365C90.5205 240.762 89.873 241.287 89.3713 241.94C88.8697 242.593 88.6188 243.305 88.6188 244.075C88.5955 245.323 88.7997 246.42 89.2313 247.365C89.6747 248.31 90.2872 249.051 91.0688 249.587C91.8622 250.112 92.7838 250.375 93.8338 250.375Z" fill="white"/>
<path d="M27.1803 158V142.152H23.3443V140.29C24.539 140.29 25.477 140.197 26.1583 140.01C26.849 139.814 27.3436 139.529 27.6423 139.156C27.9503 138.773 28.123 138.307 28.1603 137.756H30.2463V158H27.1803ZM42.3034 158.308C40.0167 158.308 38.2154 157.435 36.8994 155.69C35.5834 153.935 34.9254 151.355 34.9254 147.948C34.9254 145.661 35.2287 143.743 35.8354 142.194C36.442 140.635 37.296 139.459 38.3974 138.666C39.508 137.873 40.8147 137.476 42.3174 137.476C44.5667 137.476 46.354 138.363 47.6794 140.136C49.014 141.9 49.6814 144.495 49.6814 147.92C49.6814 151.327 49.0187 153.912 47.6934 155.676C46.3774 157.431 44.5807 158.308 42.3034 158.308ZM42.3174 155.76C43.6987 155.76 44.7347 155.153 45.4254 153.94C46.116 152.717 46.4614 150.715 46.4614 147.934C46.4614 145.097 46.1114 143.057 45.4114 141.816C44.7114 140.565 43.6754 139.94 42.3034 139.94C40.9407 139.94 39.9 140.57 39.1814 141.83C38.4627 143.081 38.1034 145.115 38.1034 147.934C38.1034 150.706 38.458 152.703 39.1674 153.926C39.886 155.149 40.936 155.76 42.3174 155.76Z" fill="#254170"/>
<path d="M201.36 343V340.64V339.392C201.36 337.962 201.626 336.721 202.159 335.668C202.705 334.615 203.42 333.698 204.304 332.918C205.188 332.125 206.157 331.423 207.21 330.812C208.276 330.201 209.335 329.616 210.388 329.057C211.441 328.498 212.41 327.92 213.294 327.322C214.178 326.711 214.886 326.028 215.419 325.274C215.965 324.507 216.238 323.61 216.238 322.583C216.238 321.231 215.764 320.133 214.815 319.288C213.866 318.443 212.579 318.02 210.954 318.02C209.225 318.02 207.821 318.508 206.742 319.483C205.663 320.458 205.039 321.803 204.87 323.519H200.775C200.814 321.842 201.223 320.315 202.003 318.937C202.783 317.559 203.934 316.46 205.455 315.641C206.976 314.822 208.861 314.413 211.11 314.413C213.06 314.413 214.743 314.757 216.16 315.446C217.59 316.122 218.695 317.071 219.475 318.293C220.255 319.515 220.645 320.939 220.645 322.564C220.645 324.007 220.379 325.248 219.846 326.288C219.312 327.328 218.611 328.225 217.74 328.979C216.882 329.733 215.933 330.403 214.893 330.988C213.853 331.56 212.813 332.112 211.773 332.645C210.733 333.165 209.777 333.718 208.906 334.303C208.035 334.875 207.333 335.525 206.8 336.253C206.267 336.981 206.001 337.858 206.001 338.885V339.373H220.743V343H201.36ZM235.697 343.429C233.929 343.429 232.291 343.13 230.783 342.532C229.275 341.921 227.975 341.089 226.883 340.036C225.804 338.97 225.004 337.741 224.484 336.35L227.975 334.693C228.443 335.707 229.021 336.617 229.71 337.423C230.399 338.216 231.212 338.84 232.148 339.295C233.084 339.737 234.156 339.958 235.365 339.958C237.276 339.958 238.817 339.418 239.987 338.339C241.157 337.247 241.742 335.772 241.742 333.913C241.742 332.756 241.469 331.742 240.923 330.871C240.377 330 239.642 329.324 238.719 328.843C237.796 328.349 236.763 328.102 235.619 328.102C234.904 328.102 234.234 328.167 233.61 328.297C232.986 328.414 232.362 328.654 231.738 329.018C231.127 329.369 230.477 329.896 229.788 330.598C229.684 330.65 229.606 330.676 229.554 330.676C229.515 330.676 229.431 330.643 229.301 330.578L225.966 329.369L227.253 314.803H244.433L244.296 318.332H230.705L230.042 326.815C231.004 326.035 232.018 325.476 233.084 325.138C234.15 324.787 235.307 324.611 236.555 324.611C238.31 324.611 239.909 324.962 241.352 325.664C242.808 326.366 243.971 327.4 244.842 328.765C245.713 330.117 246.149 331.787 246.149 333.776C246.149 335.739 245.72 337.442 244.862 338.885C244.004 340.328 242.788 341.446 241.215 342.239C239.655 343.033 237.816 343.429 235.697 343.429Z" fill="white"/>
<path d="M94.3595 342V339.64V338.392C94.3595 336.962 94.626 335.721 95.159 334.668C95.705 333.615 96.42 332.698 97.304 331.918C98.188 331.125 99.1565 330.423 100.21 329.812C101.276 329.201 102.335 328.616 103.388 328.057C104.441 327.498 105.41 326.92 106.294 326.322C107.178 325.711 107.886 325.028 108.419 324.274C108.965 323.507 109.238 322.61 109.238 321.583C109.238 320.231 108.764 319.133 107.815 318.288C106.866 317.443 105.579 317.02 103.954 317.02C102.225 317.02 100.821 317.508 99.7415 318.483C98.6625 319.458 98.0385 320.803 97.8695 322.519H93.7745C93.8135 320.842 94.223 319.315 95.003 317.937C95.783 316.559 96.9335 315.46 98.4545 314.641C99.9755 313.822 101.861 313.413 104.11 313.413C106.06 313.413 107.743 313.757 109.16 314.446C110.59 315.122 111.695 316.071 112.475 317.293C113.255 318.515 113.645 319.939 113.645 321.564C113.645 323.007 113.379 324.248 112.846 325.288C112.312 326.328 111.611 327.225 110.74 327.979C109.882 328.733 108.933 329.403 107.893 329.988C106.853 330.56 105.813 331.112 104.773 331.645C103.733 332.165 102.777 332.718 101.906 333.303C101.035 333.875 100.333 334.525 99.8 335.253C99.267 335.981 99.0005 336.858 99.0005 337.885V338.373H113.743V342H94.3595ZM122.769 342V319.926H117.426V317.332C119.09 317.332 120.396 317.202 121.345 316.942C122.307 316.669 122.996 316.273 123.412 315.753C123.841 315.22 124.082 314.57 124.134 313.803H127.039V342H122.769Z" fill="white"/>
<path d="M286.128 369V361.524H271.911V357.576L285.981 338.634H290.496V357.639H295.431V361.524H290.496V369H286.128ZM276.153 357.639H286.065V344.346L276.153 357.639ZM309.742 369.462C306.312 369.462 303.61 368.153 301.636 365.535C299.662 362.903 298.675 359.032 298.675 353.922C298.675 350.492 299.13 347.615 300.04 345.291C300.95 342.953 302.231 341.189 303.883 339.999C305.549 338.809 307.509 338.214 309.763 338.214C313.137 338.214 315.818 339.544 317.806 342.204C319.808 344.85 320.809 348.742 320.809 353.88C320.809 358.99 319.815 362.868 317.827 365.514C315.853 368.146 313.158 369.462 309.742 369.462ZM309.763 365.64C311.835 365.64 313.389 364.73 314.425 362.91C315.461 361.076 315.979 358.073 315.979 353.901C315.979 349.645 315.454 346.586 314.404 344.724C313.354 342.848 311.8 341.91 309.742 341.91C307.698 341.91 306.137 342.855 305.059 344.745C303.981 346.621 303.442 349.673 303.442 353.901C303.442 358.059 303.974 361.055 305.038 362.889C306.116 364.723 307.691 365.64 309.763 365.64Z" fill="#254170"/>
<path d="M32.936 372.462C30.752 372.448 28.848 372.063 27.224 371.307C25.6 370.537 24.333 369.452 23.423 368.052C22.513 366.652 22.03 365 21.974 363.096H26.405C26.699 364.93 27.441 366.323 28.631 367.275C29.835 368.213 31.312 368.682 33.062 368.682C34.49 368.682 35.722 368.465 36.758 368.031C37.808 367.583 38.62 366.974 39.194 366.204C39.768 365.42 40.055 364.51 40.055 363.474C40.055 362.354 39.74 361.402 39.11 360.618C38.494 359.834 37.64 359.239 36.548 358.833C35.47 358.413 34.259 358.189 32.915 358.161L30.122 358.098V354.36L32.726 354.276C34 354.248 35.127 354.01 36.107 353.562C37.101 353.1 37.878 352.498 38.438 351.756C38.998 351.014 39.278 350.195 39.278 349.299C39.278 348.487 39.026 347.745 38.522 347.073C38.032 346.401 37.318 345.869 36.38 345.477C35.456 345.071 34.343 344.868 33.041 344.868C31.991 344.868 30.99 345.064 30.038 345.456C29.1 345.848 28.323 346.471 27.707 347.325C27.105 348.165 26.776 349.264 26.72 350.622H22.31C22.31 348.592 22.793 346.884 23.759 345.498C24.739 344.098 26.041 343.034 27.665 342.306C29.303 341.578 31.116 341.214 33.104 341.214C35.246 341.214 37.143 341.515 38.795 342.117C40.447 342.719 41.742 343.608 42.68 344.784C43.632 345.96 44.108 347.409 44.108 349.131C44.108 350.629 43.639 351.98 42.701 353.184C41.777 354.374 40.335 355.305 38.375 355.977C39.649 356.327 40.776 356.845 41.756 357.531C42.736 358.203 43.499 359.043 44.045 360.051C44.605 361.059 44.885 362.228 44.885 363.558C44.885 364.972 44.584 366.232 43.982 367.338C43.38 368.444 42.54 369.382 41.462 370.152C40.384 370.922 39.117 371.503 37.661 371.895C36.205 372.287 34.63 372.476 32.936 372.462ZM59.6601 372.462C56.2301 372.462 53.5281 371.153 51.5541 368.535C49.5801 365.903 48.5931 362.032 48.5931 356.922C48.5931 353.492 49.0481 350.615 49.9581 348.291C50.8681 345.953 52.1491 344.189 53.8011 342.999C55.4671 341.809 57.4271 341.214 59.6811 341.214C63.0551 341.214 65.7361 342.544 67.7241 345.204C69.7261 347.85 70.7271 351.742 70.7271 356.88C70.7271 361.99 69.7331 365.868 67.7451 368.514C65.7711 371.146 63.0761 372.462 59.6601 372.462ZM59.6811 368.64C61.7531 368.64 63.3071 367.73 64.3431 365.91C65.3791 364.076 65.8971 361.073 65.8971 356.901C65.8971 352.645 65.3721 349.586 64.3221 347.724C63.2721 345.848 61.7181 344.91 59.6601 344.91C57.6161 344.91 56.0551 345.855 54.9771 347.745C53.8991 349.621 53.3601 352.673 53.3601 356.901C53.3601 361.059 53.8921 364.055 54.9561 365.889C56.0341 367.723 57.6091 368.64 59.6811 368.64Z" fill="#254170"/>
<path d="M154.5 105.5H163.657L171 139" stroke="#003C81"/>
<path d="M77 135H91.6571L116.157 155.5" stroke="#003C81"/>
<defs>
<linearGradient id="paint0_linear_1177_43073" x1="181.49" y1="398" x2="181.49" y2="135" gradientUnits="userSpaceOnUse">
<stop stop-color="#3975BF"/>
<stop offset="1" stop-color="#ADADAD"/>
</linearGradient>
<linearGradient id="paint1_linear_1177_43073" x1="292.5" y1="256.5" x2="181.5" y2="398" gradientUnits="userSpaceOnUse">
<stop stop-color="#92BED7"/>
<stop offset="1" stop-color="#C0D7E3"/>
</linearGradient>
<linearGradient id="paint2_linear_1177_43073" x1="248" y1="244" x2="16.5" y2="249.5" gradientUnits="userSpaceOnUse">
<stop stop-color="#B2D1FF"/>
<stop offset="1" stop-color="#6B7D99"/>
</linearGradient>
<linearGradient id="paint3_linear_1177_43073" x1="181.49" y1="398" x2="181.49" y2="135" gradientUnits="userSpaceOnUse">
<stop stop-color="#72A5E4"/>
<stop offset="1" stop-color="#AFC9E9"/>
</linearGradient>
<linearGradient id="paint4_linear_1177_43073" x1="181.5" y1="135" x2="31.5" y2="317" gradientUnits="userSpaceOnUse">
<stop stop-color="#9DC4DA"/>
<stop offset="1" stop-color="#085C99"/>
</linearGradient>
<linearGradient id="paint5_linear_1177_43073" x1="197" y1="153.5" x2="23.5" y2="276" gradientUnits="userSpaceOnUse">
<stop stop-color="#467CBE"/>
<stop offset="1" stop-color="#E4E5E6"/>
</linearGradient>
</defs>
</svg>
