<svg width="323" height="330" viewBox="0 0 323 330" fill="none" xmlns="http://www.w3.org/2000/svg">
<path d="M185.924 20H137.076C128.75 20 122 26.7157 122 35C122 43.2843 128.75 50 137.076 50H185.924C194.25 50 201 43.2843 201 35C201 26.7157 194.25 20 185.924 20Z" fill="#274374"/>
<path d="M137.71 28.128L139.054 28.478C138.793 29.1593 138.489 29.8313 138.144 30.494C137.799 31.1473 137.425 31.754 137.024 32.314C136.623 32.874 136.203 33.364 135.764 33.784C135.68 33.7093 135.568 33.616 135.428 33.504C135.297 33.392 135.157 33.2847 135.008 33.182C134.868 33.07 134.742 32.986 134.63 32.93C135.069 32.5473 135.479 32.104 135.862 31.6C136.245 31.0867 136.59 30.536 136.898 29.948C137.215 29.3507 137.486 28.744 137.71 28.128ZM137.71 29.808H146.684V31.082H137.066L137.71 29.808ZM136.898 33.042H146.362V34.274H138.214V37.424H136.898V33.042ZM134.616 36.766H147.398V38.054H134.616V36.766ZM141.056 30.466H142.414V41.176H141.056V30.466ZM152.956 36.752H157.016V37.718H152.956V36.752ZM152.886 34.652H157.646V39.874H152.886V38.866H156.4V35.66H152.886V34.652ZM152.326 34.652H153.53V40.588H152.326V34.652ZM149.848 30.718H153.572V31.656H149.848V30.718ZM156.33 30.718H160.096V31.656H156.33V30.718ZM159.55 28.758H160.894V39.524C160.894 39.9067 160.843 40.2053 160.74 40.42C160.647 40.644 160.474 40.8167 160.222 40.938C159.97 41.05 159.643 41.1153 159.242 41.134C158.85 41.162 158.355 41.176 157.758 41.176C157.749 41.0453 157.716 40.896 157.66 40.728C157.613 40.5693 157.562 40.406 157.506 40.238C157.45 40.0793 157.389 39.9393 157.324 39.818C157.585 39.8367 157.847 39.846 158.108 39.846C158.369 39.846 158.598 39.846 158.794 39.846C158.999 39.846 159.144 39.846 159.228 39.846C159.349 39.8367 159.433 39.8087 159.48 39.762C159.527 39.7153 159.55 39.6313 159.55 39.51V28.758ZM149.96 28.758H154.412V33.686H149.96V32.706H153.166V29.738H149.96V28.758ZM160.236 28.758V29.738H156.806V32.734H160.236V33.714H155.546V28.758H160.236ZM149.19 28.758H150.506V41.19H149.19V28.758ZM170.162 28.394H171.478V41.176H170.162V28.394ZM166.368 31.684H175.37V32.972H166.368V31.684ZM171.828 32.09C172.024 32.6873 172.262 33.2893 172.542 33.896C172.831 34.5027 173.149 35.086 173.494 35.646C173.839 36.206 174.203 36.7193 174.586 37.186C174.969 37.6527 175.361 38.054 175.762 38.39C175.659 38.4647 175.543 38.5627 175.412 38.684C175.291 38.8053 175.169 38.9313 175.048 39.062C174.936 39.1927 174.843 39.3187 174.768 39.44C174.357 39.0573 173.961 38.6047 173.578 38.082C173.195 37.55 172.831 36.976 172.486 36.36C172.141 35.7347 171.823 35.086 171.534 34.414C171.245 33.742 170.993 33.07 170.778 32.398L171.828 32.09ZM169.868 32.132L171.002 32.468C170.703 33.392 170.335 34.2973 169.896 35.184C169.467 36.0613 168.986 36.8733 168.454 37.62C167.931 38.3667 167.376 39.0013 166.788 39.524C166.713 39.412 166.615 39.2907 166.494 39.16C166.382 39.0293 166.265 38.9033 166.144 38.782C166.023 38.6513 165.911 38.5487 165.808 38.474C166.368 38.0353 166.905 37.4753 167.418 36.794C167.941 36.1127 168.412 35.3707 168.832 34.568C169.252 33.756 169.597 32.944 169.868 32.132ZM165.948 28.268L167.25 28.674C166.923 29.4953 166.536 30.3027 166.088 31.096C165.649 31.8893 165.164 32.636 164.632 33.336C164.109 34.036 163.568 34.6473 163.008 35.17C162.971 35.0673 162.901 34.9273 162.798 34.75C162.705 34.5727 162.607 34.4 162.504 34.232C162.401 34.0547 162.308 33.91 162.224 33.798C162.728 33.3593 163.209 32.846 163.666 32.258C164.133 31.67 164.557 31.04 164.94 30.368C165.332 29.6867 165.668 28.9867 165.948 28.268ZM164.45 32.118L165.738 30.83L165.752 30.844V41.148H164.45V32.118ZM178.338 29.08H187.774V40.966H186.346V30.424H179.696V41.022H178.338V29.08ZM179.248 33.868H186.948V35.184H179.248V33.868ZM179.234 38.768H186.962V40.098H179.234V38.768Z" fill="white"/>
<path d="M218.978 178H105.022C96.7258 178 90 184.716 90 193C90 201.284 96.7258 208 105.022 208H218.978C227.274 208 234 201.284 234 193C234 184.716 227.274 178 218.978 178Z" fill="#274374"/>
<path d="M106.84 187.948H119.202V189.194H106.84V187.948ZM110.41 192.96H116.766V194.08H110.41V192.96ZM109.458 190.58H116.57V191.756H110.76V199.162H109.458V190.58ZM116.29 190.58H117.578V197.65C117.578 198.005 117.531 198.28 117.438 198.476C117.354 198.681 117.186 198.84 116.934 198.952C116.682 199.045 116.351 199.101 115.94 199.12C115.539 199.148 115.044 199.162 114.456 199.162C114.437 198.975 114.386 198.756 114.302 198.504C114.218 198.261 114.134 198.051 114.05 197.874C114.33 197.883 114.601 197.893 114.862 197.902C115.123 197.911 115.352 197.916 115.548 197.916C115.744 197.907 115.884 197.902 115.968 197.902C116.089 197.902 116.173 197.883 116.22 197.846C116.267 197.799 116.29 197.725 116.29 197.622V190.58ZM111.306 186.17L112.664 186.492C112.347 187.519 111.945 188.541 111.46 189.558C110.975 190.575 110.387 191.523 109.696 192.4C109.015 193.268 108.226 194.015 107.33 194.64C107.265 194.547 107.181 194.439 107.078 194.318C106.975 194.187 106.868 194.061 106.756 193.94C106.653 193.809 106.555 193.707 106.462 193.632C107.087 193.203 107.657 192.708 108.17 192.148C108.683 191.579 109.141 190.967 109.542 190.314C109.953 189.651 110.303 188.97 110.592 188.27C110.891 187.57 111.129 186.87 111.306 186.17ZM110.41 195.312H116.766V196.432H110.41V195.312ZM127.112 190.748H131.76V191.952H127.112V190.748ZM127.14 197.216H132.026V198.392H127.14V197.216ZM129.338 187.696C129.086 188.135 128.773 188.606 128.4 189.11C128.027 189.614 127.611 190.109 127.154 190.594C126.706 191.07 126.235 191.499 125.74 191.882C125.665 191.714 125.553 191.518 125.404 191.294C125.255 191.07 125.115 190.888 124.984 190.748C125.479 190.375 125.959 189.936 126.426 189.432C126.902 188.928 127.331 188.405 127.714 187.864C128.106 187.323 128.419 186.814 128.652 186.338H129.926C130.253 186.851 130.626 187.374 131.046 187.906C131.466 188.438 131.914 188.937 132.39 189.404C132.866 189.871 133.333 190.263 133.79 190.58C133.65 190.748 133.505 190.944 133.356 191.168C133.207 191.392 133.076 191.607 132.964 191.812C132.535 191.457 132.087 191.042 131.62 190.566C131.163 190.09 130.738 189.6 130.346 189.096C129.954 188.592 129.618 188.125 129.338 187.696ZM126.454 193.436H132.572V199.106H131.312V194.626H127.686V199.162H126.454V193.436ZM122.646 186.184L123.794 186.632C123.617 186.977 123.425 187.341 123.22 187.724C123.024 188.097 122.823 188.457 122.618 188.802C122.422 189.138 122.235 189.437 122.058 189.698L121.162 189.306C121.339 189.026 121.517 188.704 121.694 188.34C121.881 187.976 122.058 187.607 122.226 187.234C122.394 186.851 122.534 186.501 122.646 186.184ZM124.228 187.808L125.32 188.312C125.003 188.844 124.648 189.404 124.256 189.992C123.864 190.58 123.467 191.149 123.066 191.7C122.674 192.241 122.301 192.717 121.946 193.128L121.148 192.694C121.409 192.377 121.68 192.017 121.96 191.616C122.249 191.205 122.529 190.781 122.8 190.342C123.08 189.903 123.341 189.465 123.584 189.026C123.827 188.587 124.041 188.181 124.228 187.808ZM120.462 189.292L121.106 188.41C121.367 188.625 121.629 188.863 121.89 189.124C122.151 189.376 122.389 189.633 122.604 189.894C122.828 190.146 123.001 190.379 123.122 190.594L122.422 191.602C122.301 191.387 122.133 191.145 121.918 190.874C121.703 190.594 121.47 190.319 121.218 190.048C120.966 189.768 120.714 189.516 120.462 189.292ZM123.766 191.098L124.676 190.734C124.863 191.042 125.04 191.373 125.208 191.728C125.385 192.083 125.539 192.428 125.67 192.764C125.801 193.091 125.899 193.389 125.964 193.66L124.998 194.094C124.942 193.823 124.849 193.515 124.718 193.17C124.597 192.825 124.452 192.47 124.284 192.106C124.125 191.742 123.953 191.406 123.766 191.098ZM120.42 192.414C121.045 192.395 121.787 192.367 122.646 192.33C123.514 192.293 124.396 192.251 125.292 192.204L125.278 193.282C124.429 193.338 123.589 193.394 122.758 193.45C121.937 193.497 121.195 193.543 120.532 193.59L120.42 192.414ZM124.102 194.486L125.054 194.178C125.241 194.579 125.413 195.018 125.572 195.494C125.74 195.97 125.866 196.381 125.95 196.726L124.942 197.09C124.877 196.735 124.765 196.315 124.606 195.83C124.447 195.335 124.279 194.887 124.102 194.486ZM121.134 194.29L122.254 194.486C122.17 195.149 122.044 195.802 121.876 196.446C121.717 197.09 121.531 197.636 121.316 198.084C121.241 198.037 121.143 197.981 121.022 197.916C120.901 197.851 120.77 197.79 120.63 197.734C120.499 197.669 120.387 197.622 120.294 197.594C120.518 197.165 120.695 196.656 120.826 196.068C120.966 195.48 121.069 194.887 121.134 194.29ZM122.674 192.96H123.836V199.204H122.674V192.96ZM135.428 187.094H146.53V188.41H135.428V187.094ZM134.686 193.03H147.342V194.36H134.686V193.03ZM136.352 189.334L137.556 188.984C137.733 189.301 137.901 189.647 138.06 190.02C138.228 190.384 138.377 190.743 138.508 191.098C138.648 191.443 138.746 191.751 138.802 192.022L137.528 192.442C137.463 192.171 137.369 191.859 137.248 191.504C137.136 191.149 137.001 190.781 136.842 190.398C136.683 190.015 136.52 189.661 136.352 189.334ZM144.416 188.928L145.83 189.306C145.662 189.67 145.48 190.043 145.284 190.426C145.088 190.809 144.897 191.177 144.71 191.532C144.523 191.877 144.346 192.185 144.178 192.456L143.016 192.092C143.184 191.812 143.357 191.49 143.534 191.126C143.711 190.753 143.875 190.375 144.024 189.992C144.183 189.6 144.313 189.245 144.416 188.928ZM140.3 187.626H141.672V199.162H140.3V187.626ZM154.146 191.322H158.388V192.512H154.146V191.322ZM153.46 195.746C153.88 195.606 154.365 195.443 154.916 195.256C155.467 195.069 156.055 194.864 156.68 194.64C157.305 194.407 157.926 194.178 158.542 193.954L158.78 195.088C157.959 195.415 157.123 195.746 156.274 196.082C155.425 196.418 154.659 196.721 153.978 196.992L153.46 195.746ZM154.762 188.466H160.334V189.726H154.762V188.466ZM159.928 188.466H161.272C161.272 188.466 161.267 188.513 161.258 188.606C161.258 188.69 161.258 188.783 161.258 188.886C161.258 188.989 161.253 189.073 161.244 189.138C161.197 190.725 161.146 192.078 161.09 193.198C161.034 194.309 160.969 195.219 160.894 195.928C160.829 196.637 160.745 197.197 160.642 197.608C160.549 198.009 160.432 198.299 160.292 198.476C160.124 198.709 159.942 198.868 159.746 198.952C159.559 199.045 159.331 199.111 159.06 199.148C158.817 199.185 158.5 199.199 158.108 199.19C157.716 199.19 157.31 199.181 156.89 199.162C156.881 198.966 156.834 198.737 156.75 198.476C156.675 198.224 156.577 198.005 156.456 197.818C156.904 197.855 157.315 197.879 157.688 197.888C158.061 197.888 158.332 197.888 158.5 197.888C158.64 197.897 158.752 197.888 158.836 197.86C158.929 197.823 159.013 197.757 159.088 197.664C159.2 197.543 159.298 197.295 159.382 196.922C159.475 196.539 159.555 196.003 159.62 195.312C159.685 194.612 159.741 193.725 159.788 192.652C159.844 191.579 159.891 190.281 159.928 188.76V188.466ZM154.986 186.17L156.33 186.464C156.134 187.183 155.891 187.883 155.602 188.564C155.313 189.245 154.995 189.88 154.65 190.468C154.305 191.056 153.941 191.574 153.558 192.022C153.483 191.938 153.376 191.845 153.236 191.742C153.096 191.63 152.951 191.523 152.802 191.42C152.653 191.317 152.522 191.233 152.41 191.168C152.989 190.571 153.497 189.833 153.936 188.956C154.375 188.069 154.725 187.141 154.986 186.17ZM148.686 189.39H153.124V190.65H148.686V189.39ZM150.324 186.31H151.612V195.536H150.324V186.31ZM148.406 195.578C148.807 195.429 149.269 195.256 149.792 195.06C150.324 194.855 150.884 194.635 151.472 194.402C152.06 194.169 152.643 193.935 153.222 193.702L153.502 194.934C152.718 195.279 151.915 195.625 151.094 195.97C150.282 196.315 149.545 196.628 148.882 196.908L148.406 195.578ZM169.21 188.06H174.208V189.348H169.21V188.06ZM162.644 187.024H169.574V188.256H162.644V187.024ZM164.366 189.88H167.88V191.084H164.366V189.88ZM164.366 192.792H167.88V193.982H164.366V192.792ZM173.83 188.06H174.054L174.292 188.004L175.146 188.228C174.941 190.104 174.586 191.737 174.082 193.128C173.578 194.519 172.939 195.699 172.164 196.67C171.389 197.631 170.489 198.415 169.462 199.022C169.359 198.854 169.224 198.663 169.056 198.448C168.888 198.233 168.734 198.065 168.594 197.944C169.518 197.459 170.339 196.773 171.058 195.886C171.777 194.99 172.374 193.912 172.85 192.652C173.326 191.383 173.653 189.95 173.83 188.354V188.06ZM170.638 189.39C170.881 190.678 171.221 191.882 171.66 193.002C172.099 194.113 172.654 195.093 173.326 195.942C173.998 196.791 174.801 197.463 175.734 197.958C175.631 198.042 175.519 198.149 175.398 198.28C175.286 198.411 175.174 198.541 175.062 198.672C174.959 198.812 174.875 198.938 174.81 199.05C173.811 198.471 172.962 197.725 172.262 196.81C171.562 195.886 170.979 194.822 170.512 193.618C170.045 192.405 169.667 191.079 169.378 189.642L170.638 189.39ZM163.666 187.5H164.94V196.628H163.666V187.5ZM167.362 187.5H168.636V199.162H167.362V187.5ZM162.336 196.18C162.793 196.124 163.321 196.059 163.918 195.984C164.515 195.909 165.15 195.825 165.822 195.732C166.494 195.629 167.166 195.531 167.838 195.438L167.908 196.656C166.965 196.805 166.023 196.959 165.08 197.118C164.147 197.267 163.316 197.398 162.588 197.51L162.336 196.18ZM182.972 189.418V190.37H187.186V189.418H182.972ZM182.972 187.57V188.508H187.186V187.57H182.972ZM181.698 186.604H188.516V191.336H181.698V186.604ZM180.9 192.148H189.09V193.254H180.9V192.148ZM180.564 194.276H189.356V195.41H180.564V194.276ZM186.01 193.114H187.34V197.804C187.34 198.131 187.298 198.383 187.214 198.56C187.13 198.747 186.971 198.887 186.738 198.98C186.505 199.073 186.211 199.129 185.856 199.148C185.511 199.167 185.086 199.176 184.582 199.176C184.554 198.999 184.498 198.798 184.414 198.574C184.33 198.359 184.241 198.163 184.148 197.986C184.503 197.995 184.829 198 185.128 198C185.436 198.009 185.637 198.009 185.73 198C185.842 197.991 185.917 197.972 185.954 197.944C185.991 197.916 186.01 197.86 186.01 197.776V193.114ZM181.656 196.124L182.594 195.494C182.902 195.783 183.224 196.11 183.56 196.474C183.896 196.829 184.153 197.141 184.33 197.412L183.336 198.126C183.233 197.939 183.084 197.729 182.888 197.496C182.701 197.263 182.501 197.025 182.286 196.782C182.071 196.539 181.861 196.32 181.656 196.124ZM179.696 189.292L180.858 189.768C180.531 190.328 180.149 190.888 179.71 191.448C179.281 192.008 178.823 192.54 178.338 193.044C177.862 193.539 177.386 193.973 176.91 194.346C176.873 194.243 176.817 194.108 176.742 193.94C176.667 193.772 176.583 193.604 176.49 193.436C176.397 193.259 176.317 193.119 176.252 193.016C176.672 192.717 177.092 192.367 177.512 191.966C177.941 191.565 178.343 191.135 178.716 190.678C179.099 190.221 179.425 189.759 179.696 189.292ZM179.402 186.212L180.662 186.716C180.373 187.127 180.032 187.542 179.64 187.962C179.248 188.382 178.837 188.779 178.408 189.152C177.979 189.525 177.549 189.857 177.12 190.146C177.073 190.034 177.008 189.913 176.924 189.782C176.84 189.642 176.756 189.507 176.672 189.376C176.588 189.236 176.509 189.119 176.434 189.026C176.807 188.793 177.181 188.522 177.554 188.214C177.937 187.897 178.287 187.565 178.604 187.22C178.931 186.865 179.197 186.529 179.402 186.212ZM178.38 192.05L179.626 190.818L179.682 190.846V199.176H178.38V192.05ZM192.338 187.08H201.774V198.966H200.346V188.424H193.696V199.022H192.338V187.08ZM193.248 191.868H200.948V193.184H193.248V191.868ZM193.234 196.768H200.962V198.098H193.234V196.768ZM204.49 193.576H211.462V194.668H204.49V193.576ZM204.602 188.662H211.406V189.726H204.602V188.662ZM207.066 192.456L208.298 192.722C208.074 193.189 207.831 193.679 207.57 194.192C207.309 194.705 207.052 195.2 206.8 195.676C206.548 196.152 206.31 196.577 206.086 196.95L204.924 196.572C205.139 196.217 205.372 195.807 205.624 195.34C205.885 194.864 206.137 194.374 206.38 193.87C206.632 193.366 206.861 192.895 207.066 192.456ZM209.11 194.276L210.342 194.416C210.211 195.116 210.02 195.727 209.768 196.25C209.516 196.773 209.18 197.221 208.76 197.594C208.34 197.967 207.827 198.28 207.22 198.532C206.623 198.793 205.913 199.013 205.092 199.19C205.055 199.003 204.98 198.807 204.868 198.602C204.765 198.397 204.653 198.224 204.532 198.084C205.493 197.935 206.282 197.715 206.898 197.426C207.523 197.127 208.009 196.721 208.354 196.208C208.709 195.695 208.961 195.051 209.11 194.276ZM210.034 186.408L211.168 186.87C210.953 187.187 210.734 187.505 210.51 187.822C210.295 188.139 210.095 188.415 209.908 188.648L209.026 188.242C209.203 187.99 209.385 187.691 209.572 187.346C209.768 186.991 209.922 186.679 210.034 186.408ZM207.402 186.17H208.634V192.638H207.402V186.17ZM205.05 186.87L206.03 186.464C206.226 186.744 206.403 187.052 206.562 187.388C206.73 187.715 206.847 187.999 206.912 188.242L205.89 188.704C205.834 188.452 205.727 188.158 205.568 187.822C205.409 187.477 205.237 187.159 205.05 186.87ZM207.444 189.166L208.312 189.684C208.079 190.067 207.785 190.454 207.43 190.846C207.085 191.229 206.707 191.583 206.296 191.91C205.895 192.237 205.493 192.512 205.092 192.736C205.017 192.587 204.915 192.414 204.784 192.218C204.653 192.022 204.523 191.863 204.392 191.742C204.784 191.583 205.171 191.369 205.554 191.098C205.946 190.827 206.305 190.524 206.632 190.188C206.968 189.852 207.239 189.511 207.444 189.166ZM208.508 189.614C208.629 189.679 208.807 189.787 209.04 189.936C209.283 190.076 209.539 190.23 209.81 190.398C210.09 190.557 210.342 190.711 210.566 190.86C210.799 191 210.963 191.107 211.056 191.182L210.342 192.106C210.221 191.994 210.053 191.849 209.838 191.672C209.623 191.495 209.39 191.313 209.138 191.126C208.895 190.93 208.657 190.748 208.424 190.58C208.2 190.403 208.013 190.263 207.864 190.16L208.508 189.614ZM212.442 188.746H217.496V189.964H212.442V188.746ZM212.694 186.17L214.038 186.366C213.889 187.299 213.697 188.2 213.464 189.068C213.231 189.936 212.951 190.739 212.624 191.476C212.297 192.213 211.924 192.862 211.504 193.422C211.439 193.338 211.341 193.24 211.21 193.128C211.079 193.016 210.944 192.904 210.804 192.792C210.664 192.671 210.543 192.577 210.44 192.512C210.841 192.017 211.187 191.439 211.476 190.776C211.765 190.104 212.013 189.376 212.218 188.592C212.423 187.808 212.582 187.001 212.694 186.17ZM215.368 189.474L216.712 189.6C216.497 191.205 216.171 192.619 215.732 193.842C215.303 195.065 214.71 196.119 213.954 197.006C213.207 197.883 212.246 198.621 211.07 199.218C211.033 199.115 210.967 198.985 210.874 198.826C210.781 198.677 210.683 198.527 210.58 198.378C210.477 198.229 210.384 198.112 210.3 198.028C211.383 197.524 212.265 196.885 212.946 196.11C213.637 195.326 214.169 194.383 214.542 193.282C214.925 192.181 215.2 190.911 215.368 189.474ZM213.17 189.768C213.366 191.009 213.646 192.176 214.01 193.268C214.383 194.351 214.864 195.303 215.452 196.124C216.049 196.936 216.782 197.571 217.65 198.028C217.547 198.112 217.435 198.219 217.314 198.35C217.193 198.49 217.081 198.63 216.978 198.77C216.875 198.91 216.787 199.041 216.712 199.162C215.788 198.621 215.018 197.902 214.402 197.006C213.786 196.101 213.282 195.055 212.89 193.87C212.507 192.675 212.199 191.373 211.966 189.964L213.17 189.768ZM205.932 196.474L206.646 195.564C207.197 195.779 207.747 196.021 208.298 196.292C208.849 196.553 209.357 196.829 209.824 197.118C210.3 197.398 210.701 197.664 211.028 197.916L210.118 198.868C209.81 198.607 209.432 198.331 208.984 198.042C208.536 197.753 208.051 197.473 207.528 197.202C207.005 196.931 206.473 196.689 205.932 196.474Z" fill="white"/>
<path d="M177.68 112.76H196.083V135.941H193.298V115.381H180.329V136.05H177.68V112.76ZM179.455 122.097H194.472V124.664H179.455V122.097ZM179.428 131.654H194.499V134.248H179.428V131.654Z" fill="#274374"/>
<path d="M44.368 138.201V87.5572H32.092V82.2332C35.9053 82.2332 38.868 81.9545 40.98 81.3972C43.092 80.8398 44.588 79.9892 45.468 78.8452C46.3773 77.7012 46.876 76.2785 46.964 74.5772H52.772V138.201H44.368ZM69.2919 138.201V133.229V130.633C69.2919 127.377 69.8933 124.561 71.0959 122.185C72.3279 119.809 73.9413 117.741 75.9359 115.981C77.9599 114.192 80.1599 112.593 82.5359 111.185C84.9413 109.777 87.3319 108.428 89.7079 107.137C92.1133 105.817 94.3133 104.453 96.3079 103.045C98.3026 101.608 99.9013 99.9945 101.104 98.2052C102.336 96.3865 102.952 94.2452 102.952 91.7812C102.952 88.5545 101.808 85.9292 99.5199 83.9052C97.2613 81.8812 94.1959 80.8692 90.3239 80.8692C86.1586 80.8692 82.8146 82.0425 80.2919 84.3892C77.7693 86.7358 76.3466 89.8598 76.0239 93.7612H67.9279C68.0159 90.0945 68.9253 86.7505 70.6559 83.7292C72.3866 80.6785 74.9239 78.2438 78.2679 76.4252C81.6119 74.6065 85.7333 73.6972 90.6319 73.6972C94.8853 73.6972 98.5813 74.4598 101.72 75.9852C104.859 77.4812 107.279 79.5932 108.98 82.3212C110.711 85.0198 111.576 88.1732 111.576 91.7812C111.576 95.0665 110.975 97.8825 109.772 100.229C108.569 102.576 106.971 104.615 104.976 106.345C103.011 108.047 100.855 109.572 98.5079 110.921C96.1613 112.271 93.7999 113.576 91.4239 114.837C89.0479 116.069 86.8773 117.375 84.9119 118.753C82.9466 120.103 81.3626 121.657 80.1599 123.417C78.9573 125.177 78.3559 127.275 78.3559 129.709V130.985H111.928V138.201H69.2919ZM144.682 139.169C139.754 139.169 135.471 137.893 131.834 135.341C128.226 132.789 125.424 129.152 123.43 124.429C121.464 119.677 120.482 113.987 120.482 107.357C120.482 100.552 121.435 94.6265 123.342 89.5812C125.278 84.5358 128.094 80.6345 131.79 77.8772C135.486 75.0905 140.018 73.6972 145.386 73.6972C148.906 73.6972 152.147 74.3572 155.11 75.6772C158.102 76.9972 160.58 78.8892 162.546 81.3532C164.511 83.8172 165.728 86.7945 166.198 90.2852H158.542C157.691 87.2638 156.151 84.8732 153.922 83.1132C151.692 81.3532 148.891 80.4732 145.518 80.4732C141.763 80.4732 138.624 81.5438 136.102 83.6852C133.608 85.7972 131.79 88.9065 130.646 93.0132C129.502 97.0905 129.106 102.107 129.458 108.061C130.25 105.92 131.452 104.043 133.066 102.429C134.708 100.787 136.615 99.5252 138.786 98.6452C140.956 97.7358 143.303 97.2812 145.826 97.2812C150.02 97.2812 153.687 98.1025 156.826 99.7452C159.964 101.359 162.414 103.676 164.174 106.697C165.934 109.689 166.814 113.268 166.814 117.433C166.814 121.687 165.904 125.456 164.086 128.741C162.296 131.997 159.744 134.549 156.43 136.397C153.115 138.245 149.199 139.169 144.682 139.169ZM144.594 132.437C147.204 132.437 149.522 131.821 151.546 130.589C153.57 129.357 155.154 127.641 156.298 125.441C157.471 123.241 158.058 120.704 158.058 117.829C158.058 114.925 157.53 112.432 156.474 110.349C155.447 108.267 153.922 106.668 151.898 105.553C149.874 104.439 147.41 103.881 144.506 103.881C142.188 103.881 139.959 104.439 137.818 105.553C135.706 106.639 133.975 108.076 132.626 109.865C131.306 111.655 130.646 113.635 130.646 115.805C130.616 119.032 131.174 121.907 132.318 124.429C133.491 126.923 135.134 128.888 137.246 130.325C139.358 131.733 141.807 132.437 144.594 132.437Z" fill="#274374"/>
<path d="M103.576 298.4C104.045 295.496 104.881 291.903 106.084 287.62C107.316 283.338 108.929 278.659 110.924 273.584C112.919 268.48 115.324 263.215 118.14 257.788C120.956 252.362 124.183 247.038 127.82 241.816H92.092V234.776H136.752V241.816C134.493 244.896 132.249 248.402 130.02 252.332C127.82 256.234 125.723 260.326 123.728 264.608C121.733 268.862 119.944 273.071 118.36 277.236C116.776 281.372 115.456 285.274 114.4 288.94C113.373 292.578 112.713 295.731 112.42 298.4H103.576ZM135.035 298.4V288.016H144.715V298.4H135.035ZM176.669 299.368C172.298 299.339 168.441 298.532 165.097 296.948C161.782 295.364 159.172 293.15 157.265 290.304C155.358 287.43 154.332 284.027 154.185 280.096H162.325C162.941 284.056 164.554 287.092 167.165 289.204C169.776 291.316 173.046 292.372 176.977 292.372C180.086 292.372 182.8 291.888 185.117 290.92C187.434 289.923 189.224 288.559 190.485 286.828C191.746 285.098 192.377 283.074 192.377 280.756C192.377 278.204 191.673 276.048 190.265 274.288C188.857 272.528 186.936 271.194 184.501 270.284C182.066 269.346 179.353 268.862 176.361 268.832L170.641 268.7V261.792L176.097 261.66C178.884 261.602 181.377 261.074 183.577 260.076C185.777 259.05 187.508 257.715 188.769 256.072C190.06 254.4 190.705 252.567 190.705 250.572C190.705 248.812 190.162 247.184 189.077 245.688C187.992 244.163 186.422 242.946 184.369 242.036C182.345 241.127 179.881 240.672 176.977 240.672C174.689 240.672 172.504 241.127 170.421 242.036C168.338 242.916 166.622 244.28 165.273 246.128C163.924 247.976 163.205 250.367 163.117 253.3H155.021C155.021 249.194 156.018 245.703 158.013 242.828C160.008 239.924 162.662 237.71 165.977 236.184C169.321 234.659 173.002 233.896 177.021 233.896C181.421 233.896 185.308 234.542 188.681 235.832C192.054 237.094 194.694 238.942 196.601 241.376C198.508 243.811 199.461 246.788 199.461 250.308C199.461 253.447 198.464 256.292 196.469 258.844C194.474 261.367 191.424 263.347 187.317 264.784C190.104 265.547 192.538 266.662 194.621 268.128C196.704 269.595 198.317 271.399 199.461 273.54C200.605 275.652 201.177 278.087 201.177 280.844C201.177 283.748 200.561 286.359 199.329 288.676C198.126 290.964 196.425 292.915 194.225 294.528C192.025 296.112 189.429 297.33 186.437 298.18C183.445 299.002 180.189 299.398 176.669 299.368Z" fill="#274374"/>
<path d="M212.88 272.961H231.283V296.142H228.498V275.582H215.529V296.251H212.88V272.961ZM214.655 282.299H229.672V284.865H214.655V282.299ZM214.628 291.855H229.699V294.449H214.628V291.855Z" fill="#274374"/>
<path d="M233.904 122.33C234.08 114.25 240.68 107.754 248.8 107.754C256.92 107.754 263.52 114.25 263.696 122.33H233.904Z" fill="url(#paint0_linear_1177_43277)"/>
<path d="M217 122.331H280.6V123.659H217V122.331Z" fill="url(#paint1_linear_1177_43277)"/>
<path d="M279.424 133.586C279.432 133.45 279.448 133.314 279.448 133.17L279.496 131.266C279.512 128.714 279.416 126.122 279.096 123.514C278.832 120.898 278.416 118.266 277.832 115.642C277.264 113.01 276.568 110.378 275.72 107.77C274.056 102.546 271.96 97.3539 269.448 92.3139C268.208 89.7859 266.864 87.2899 265.432 84.8339C264.712 83.6099 263.976 82.3939 263.208 81.1939L262.04 79.4099C261.664 78.8019 261.4 78.1059 261.496 77.0579L262.08 76.5059C263.152 76.5139 263.84 76.8979 264.4 77.3779C264.944 77.8739 265.472 78.3859 266 78.9059C267.056 79.9379 268.088 80.9859 269.104 82.0579C271.128 84.2019 273.088 86.4259 274.968 88.7379C278.696 93.3699 282.176 98.2819 285.144 103.594C286.648 106.242 288.024 108.978 289.28 111.81C290.552 114.634 291.656 117.554 292.616 120.562C293.912 124.738 294.872 129.098 295.408 133.578H279.416L279.424 133.586Z" fill="url(#paint2_linear_1177_43277)"/>
<path d="M247.552 72.4028C245.216 71.3548 242.936 70.4348 240.368 69.5628C237.792 68.6428 234.952 67.9948 231.336 66.9708C232.48 65.4828 233.912 64.3228 235.512 63.4588C237.104 62.5628 238.872 62.0108 240.704 61.6908C244.368 61.0828 248.248 61.6668 251.608 63.1388C254.992 64.5948 257.904 66.8588 260.096 69.6108C260.832 70.5548 261.496 71.5468 262.072 72.5868C262.368 71.8908 262.704 71.2028 263.08 70.5308C264.88 67.3868 267.672 64.6028 271.192 62.8588C272.944 61.9948 274.848 61.4108 276.784 61.1468C278.72 60.8828 280.664 60.9868 282.504 61.3628C286.168 62.1948 289.408 64.0188 291.656 66.9228C288.024 67.5068 285.008 67.8348 282.336 68.4508C281.008 68.8028 279.776 69.1068 278.616 69.5548C277.456 69.9868 276.36 70.4588 275.272 71.0108C273.4 71.9628 271.568 73.1868 269.656 74.6108C270.576 74.2668 271.52 73.9868 272.488 73.7788C276.032 73.0348 279.976 73.2668 283.608 74.7308C285.416 75.4668 287.128 76.4988 288.608 77.7628C290.096 79.0268 291.312 80.5548 292.248 82.1788C294.08 85.4588 294.864 89.0908 294.192 92.7068C291.336 90.3788 289.088 88.3468 286.848 86.7628C285.704 86.0108 284.656 85.2828 283.552 84.7148C282.456 84.1388 281.376 83.6348 280.248 83.1868C277.984 82.3068 275.512 81.6988 272.736 81.1628C270.136 80.6508 267.328 80.2908 264.136 79.7468V79.8588C261.56 81.9948 259.424 83.7708 257.56 85.5948C255.704 87.4108 254.12 89.1388 252.688 91.0508C251.256 92.9548 249.912 94.9948 248.528 97.3308C247.096 99.6588 245.752 102.259 243.776 105.179C241.992 102.123 241.472 98.7548 241.72 95.3388C241.984 91.9308 243.256 88.4908 245.4 85.5948C247.528 82.6908 250.528 80.4108 253.84 79.2108C255.496 78.6188 257.216 78.2508 258.944 78.2028C259.16 78.2028 259.384 78.2028 259.6 78.2028C257.888 77.4108 256.32 76.6268 254.784 75.8908C252.216 74.6348 249.864 73.4348 247.528 72.4028H247.552Z" fill="url(#paint3_linear_1177_43277)"/>
<defs>
<linearGradient id="paint0_linear_1177_43277" x1="234.104" y1="123.994" x2="264.296" y2="110.866" gradientUnits="userSpaceOnUse">
<stop stop-color="#3975BF"/>
<stop offset="1" stop-color="#ADADAD"/>
</linearGradient>
<linearGradient id="paint1_linear_1177_43277" x1="220.904" y1="135.123" x2="283.392" y2="107.947" gradientUnits="userSpaceOnUse">
<stop stop-color="#3975BF"/>
<stop offset="1" stop-color="#ADADAD"/>
</linearGradient>
<linearGradient id="paint2_linear_1177_43277" x1="278.456" y1="133.586" x2="278.456" y2="71.4899" gradientUnits="userSpaceOnUse">
<stop stop-color="#3975BF"/>
<stop offset="1" stop-color="#ADADAD"/>
</linearGradient>
<linearGradient id="paint3_linear_1177_43277" x1="236.208" y1="90.5068" x2="299.12" y2="63.1548" gradientUnits="userSpaceOnUse">
<stop stop-color="#3975BF"/>
<stop offset="1" stop-color="#ADADAD"/>
</linearGradient>
</defs>
</svg>
