<svg width="323" height="310" viewBox="0 0 323 310" fill="none" xmlns="http://www.w3.org/2000/svg">
<path d="M211.95 20H111.05C102.738 20 96 26.7157 96 35C96 43.2843 102.738 50 111.05 50H211.95C220.262 50 227 43.2843 227 35C227 26.7157 220.262 20 211.95 20Z" fill="#274374"/>
<path d="M115.772 34.12H123.388V35.212H117.088V41.19H115.772V34.12ZM122.954 34.12H124.298V39.86C124.298 40.196 124.247 40.448 124.144 40.616C124.051 40.784 123.883 40.9147 123.64 41.008C123.388 41.092 123.061 41.1387 122.66 41.148C122.268 41.1667 121.792 41.176 121.232 41.176C121.204 41.0173 121.148 40.8353 121.064 40.63C120.98 40.434 120.896 40.2567 120.812 40.098C121.064 40.1073 121.316 40.1167 121.568 40.126C121.829 40.1353 122.058 40.1353 122.254 40.126C122.45 40.126 122.581 40.126 122.646 40.126C122.767 40.1167 122.847 40.0933 122.884 40.056C122.931 40.0187 122.954 39.9533 122.954 39.86V34.12ZM116.57 36.094H123.486V37.046H116.57V36.094ZM113.812 29.472H126.188V30.634H113.812V29.472ZM117.522 30.186L118.992 30.578C118.675 31.0073 118.334 31.4413 117.97 31.88C117.615 32.3093 117.289 32.678 116.99 32.986L115.94 32.594C116.117 32.37 116.304 32.118 116.5 31.838C116.696 31.558 116.883 31.2733 117.06 30.984C117.247 30.6853 117.401 30.4193 117.522 30.186ZM121.568 31.11L122.632 30.452C123.033 30.7133 123.453 31.012 123.892 31.348C124.34 31.6747 124.76 32.006 125.152 32.342C125.553 32.678 125.88 32.986 126.132 33.266L124.984 34.036C124.76 33.756 124.457 33.4433 124.074 33.098C123.691 32.7527 123.281 32.4073 122.842 32.062C122.413 31.7073 121.988 31.39 121.568 31.11ZM114.33 32.174C114.965 32.174 115.679 32.1693 116.472 32.16C117.275 32.1507 118.129 32.1367 119.034 32.118C119.939 32.0993 120.863 32.0853 121.806 32.076C122.758 32.0573 123.701 32.034 124.634 32.006L124.564 33.098C123.341 33.1353 122.109 33.1773 120.868 33.224C119.636 33.2613 118.46 33.294 117.34 33.322C116.229 33.35 115.24 33.3733 114.372 33.392L114.33 32.174ZM116.57 37.942H123.444V38.894H116.57V37.942ZM119.3 28.17H120.658V30.06H119.3V28.17ZM133.454 32.888V34.806H137.836V32.888H133.454ZM133.454 29.948V31.824H137.836V29.948H133.454ZM132.18 28.786H139.18V35.968H132.18V28.786ZM128.946 28.576H130.234V36.178H128.946V28.576ZM135.036 36.332H136.38V39.398C136.38 39.6033 136.417 39.734 136.492 39.79C136.567 39.846 136.735 39.874 136.996 39.874C137.061 39.874 137.164 39.874 137.304 39.874C137.444 39.874 137.603 39.874 137.78 39.874C137.957 39.874 138.121 39.874 138.27 39.874C138.429 39.874 138.545 39.874 138.62 39.874C138.788 39.874 138.914 39.832 138.998 39.748C139.091 39.6547 139.152 39.468 139.18 39.188C139.217 38.908 139.245 38.4833 139.264 37.914C139.357 37.9887 139.474 38.0633 139.614 38.138C139.763 38.2033 139.917 38.264 140.076 38.32C140.235 38.3667 140.375 38.4087 140.496 38.446C140.449 39.1553 140.365 39.7013 140.244 40.084C140.132 40.476 139.955 40.7467 139.712 40.896C139.479 41.0453 139.157 41.12 138.746 41.12C138.671 41.12 138.541 41.12 138.354 41.12C138.177 41.12 137.981 41.12 137.766 41.12C137.561 41.12 137.369 41.12 137.192 41.12C137.015 41.12 136.893 41.12 136.828 41.12C136.343 41.12 135.969 41.0687 135.708 40.966C135.456 40.8633 135.279 40.686 135.176 40.434C135.083 40.182 135.036 39.8413 135.036 39.412V36.332ZM131.326 36.346H132.754C132.679 36.962 132.558 37.5267 132.39 38.04C132.231 38.544 131.989 39.0013 131.662 39.412C131.345 39.8133 130.906 40.168 130.346 40.476C129.786 40.784 129.072 41.0453 128.204 41.26C128.157 41.1387 128.092 41.0033 128.008 40.854C127.924 40.714 127.831 40.574 127.728 40.434C127.625 40.294 127.532 40.1773 127.448 40.084C128.223 39.9253 128.848 39.7293 129.324 39.496C129.809 39.2627 130.187 38.992 130.458 38.684C130.729 38.376 130.925 38.0307 131.046 37.648C131.167 37.256 131.261 36.822 131.326 36.346ZM149.162 28.394H150.478V41.176H149.162V28.394ZM145.368 31.684H154.37V32.972H145.368V31.684ZM150.828 32.09C151.024 32.6873 151.262 33.2893 151.542 33.896C151.831 34.5027 152.149 35.086 152.494 35.646C152.839 36.206 153.203 36.7193 153.586 37.186C153.969 37.6527 154.361 38.054 154.762 38.39C154.659 38.4647 154.543 38.5627 154.412 38.684C154.291 38.8053 154.169 38.9313 154.048 39.062C153.936 39.1927 153.843 39.3187 153.768 39.44C153.357 39.0573 152.961 38.6047 152.578 38.082C152.195 37.55 151.831 36.976 151.486 36.36C151.141 35.7347 150.823 35.086 150.534 34.414C150.245 33.742 149.993 33.07 149.778 32.398L150.828 32.09ZM148.868 32.132L150.002 32.468C149.703 33.392 149.335 34.2973 148.896 35.184C148.467 36.0613 147.986 36.8733 147.454 37.62C146.931 38.3667 146.376 39.0013 145.788 39.524C145.713 39.412 145.615 39.2907 145.494 39.16C145.382 39.0293 145.265 38.9033 145.144 38.782C145.023 38.6513 144.911 38.5487 144.808 38.474C145.368 38.0353 145.905 37.4753 146.418 36.794C146.941 36.1127 147.412 35.3707 147.832 34.568C148.252 33.756 148.597 32.944 148.868 32.132ZM144.948 28.268L146.25 28.674C145.923 29.4953 145.536 30.3027 145.088 31.096C144.649 31.8893 144.164 32.636 143.632 33.336C143.109 34.036 142.568 34.6473 142.008 35.17C141.971 35.0673 141.901 34.9273 141.798 34.75C141.705 34.5727 141.607 34.4 141.504 34.232C141.401 34.0547 141.308 33.91 141.224 33.798C141.728 33.3593 142.209 32.846 142.666 32.258C143.133 31.67 143.557 31.04 143.94 30.368C144.332 29.6867 144.668 28.9867 144.948 28.268ZM143.45 32.118L144.738 30.83L144.752 30.844V41.148H143.45V32.118ZM160.824 34.666H163.68V35.758H160.824V34.666ZM160.824 37.27H163.89V38.39H160.824V37.27ZM164.072 34.246H167.376V35.338H164.072V34.246ZM160.698 28.772H163.96V33.35H160.698V32.244H162.812V29.864H160.698V28.772ZM164.464 28.772H168.132V33.322H164.464V32.188H166.984V29.892H164.464V28.772ZM160.194 28.772H161.426V41.148H160.194V28.772ZM167.124 34.246H167.348L167.558 34.204L168.3 34.4C168.104 35.6227 167.796 36.6727 167.376 37.55C166.965 38.4273 166.452 39.1647 165.836 39.762C165.22 40.35 164.511 40.8213 163.708 41.176C163.633 41.036 163.531 40.868 163.4 40.672C163.269 40.476 163.143 40.322 163.022 40.21C163.722 39.93 164.352 39.5287 164.912 39.006C165.472 38.4833 165.939 37.8393 166.312 37.074C166.695 36.3087 166.965 35.4313 167.124 34.442V34.246ZM165.276 35.296C165.444 36.0147 165.677 36.696 165.976 37.34C166.275 37.984 166.639 38.5487 167.068 39.034C167.507 39.5193 168.001 39.8973 168.552 40.168C168.421 40.28 168.281 40.4293 168.132 40.616C167.983 40.812 167.861 40.9893 167.768 41.148C167.171 40.812 166.643 40.364 166.186 39.804C165.738 39.2347 165.355 38.586 165.038 37.858C164.73 37.13 164.478 36.346 164.282 35.506L165.276 35.296ZM156.652 29.178H159.452V38.684H156.652V37.522H158.36V30.34H156.652V29.178ZM156.708 33.308H158.976V34.456H156.708V33.308ZM155.994 29.178H157.044V39.804H155.994V29.178ZM176.21 30.06H181.208V31.348H176.21V30.06ZM169.644 29.024H176.574V30.256H169.644V29.024ZM171.366 31.88H174.88V33.084H171.366V31.88ZM171.366 34.792H174.88V35.982H171.366V34.792ZM180.83 30.06H181.054L181.292 30.004L182.146 30.228C181.941 32.104 181.586 33.7373 181.082 35.128C180.578 36.5187 179.939 37.6993 179.164 38.67C178.389 39.6313 177.489 40.4153 176.462 41.022C176.359 40.854 176.224 40.6627 176.056 40.448C175.888 40.2333 175.734 40.0653 175.594 39.944C176.518 39.4587 177.339 38.7727 178.058 37.886C178.777 36.99 179.374 35.912 179.85 34.652C180.326 33.3827 180.653 31.95 180.83 30.354V30.06ZM177.638 31.39C177.881 32.678 178.221 33.882 178.66 35.002C179.099 36.1127 179.654 37.0927 180.326 37.942C180.998 38.7913 181.801 39.4633 182.734 39.958C182.631 40.042 182.519 40.1493 182.398 40.28C182.286 40.4107 182.174 40.5413 182.062 40.672C181.959 40.812 181.875 40.938 181.81 41.05C180.811 40.4713 179.962 39.7247 179.262 38.81C178.562 37.886 177.979 36.822 177.512 35.618C177.045 34.4047 176.667 33.0793 176.378 31.642L177.638 31.39ZM170.666 29.5H171.94V38.628H170.666V29.5ZM174.362 29.5H175.636V41.162H174.362V29.5ZM169.336 38.18C169.793 38.124 170.321 38.0587 170.918 37.984C171.515 37.9093 172.15 37.8253 172.822 37.732C173.494 37.6293 174.166 37.5313 174.838 37.438L174.908 38.656C173.965 38.8053 173.023 38.9593 172.08 39.118C171.147 39.2673 170.316 39.398 169.588 39.51L169.336 38.18ZM189.972 31.418V32.37H194.186V31.418H189.972ZM189.972 29.57V30.508H194.186V29.57H189.972ZM188.698 28.604H195.516V33.336H188.698V28.604ZM187.9 34.148H196.09V35.254H187.9V34.148ZM187.564 36.276H196.356V37.41H187.564V36.276ZM193.01 35.114H194.34V39.804C194.34 40.1307 194.298 40.3827 194.214 40.56C194.13 40.7467 193.971 40.8867 193.738 40.98C193.505 41.0733 193.211 41.1293 192.856 41.148C192.511 41.1667 192.086 41.176 191.582 41.176C191.554 40.9987 191.498 40.798 191.414 40.574C191.33 40.3593 191.241 40.1633 191.148 39.986C191.503 39.9953 191.829 40 192.128 40C192.436 40.0093 192.637 40.0093 192.73 40C192.842 39.9907 192.917 39.972 192.954 39.944C192.991 39.916 193.01 39.86 193.01 39.776V35.114ZM188.656 38.124L189.594 37.494C189.902 37.7833 190.224 38.11 190.56 38.474C190.896 38.8287 191.153 39.1413 191.33 39.412L190.336 40.126C190.233 39.9393 190.084 39.7293 189.888 39.496C189.701 39.2627 189.501 39.0247 189.286 38.782C189.071 38.5393 188.861 38.32 188.656 38.124ZM186.696 31.292L187.858 31.768C187.531 32.328 187.149 32.888 186.71 33.448C186.281 34.008 185.823 34.54 185.338 35.044C184.862 35.5387 184.386 35.9727 183.91 36.346C183.873 36.2433 183.817 36.108 183.742 35.94C183.667 35.772 183.583 35.604 183.49 35.436C183.397 35.2587 183.317 35.1187 183.252 35.016C183.672 34.7173 184.092 34.3673 184.512 33.966C184.941 33.5647 185.343 33.1353 185.716 32.678C186.099 32.2207 186.425 31.7587 186.696 31.292ZM186.402 28.212L187.662 28.716C187.373 29.1267 187.032 29.542 186.64 29.962C186.248 30.382 185.837 30.7787 185.408 31.152C184.979 31.5253 184.549 31.8567 184.12 32.146C184.073 32.034 184.008 31.9127 183.924 31.782C183.84 31.642 183.756 31.5067 183.672 31.376C183.588 31.236 183.509 31.1193 183.434 31.026C183.807 30.7927 184.181 30.522 184.554 30.214C184.937 29.8967 185.287 29.5653 185.604 29.22C185.931 28.8653 186.197 28.5293 186.402 28.212ZM185.38 34.05L186.626 32.818L186.682 32.846V41.176H185.38V34.05ZM203.272 28.184H204.644V30.158H203.272V28.184ZM203.272 36.262H204.644V41.204H203.272V36.262ZM197.728 37.27H210.3V38.502H197.728V37.27ZM198.162 29.668H209.88V30.872H198.162V29.668ZM208.648 31.166L209.824 31.754C209.469 32.0807 209.087 32.398 208.676 32.706C208.275 33.0047 207.906 33.266 207.57 33.49L206.604 32.958C206.828 32.7993 207.066 32.6173 207.318 32.412C207.57 32.2067 207.813 31.9967 208.046 31.782C208.279 31.558 208.48 31.3527 208.648 31.166ZM203.09 30.564L204.224 30.984C203.953 31.348 203.669 31.712 203.37 32.076C203.081 32.44 202.81 32.7527 202.558 33.014L201.704 32.636C201.863 32.4493 202.026 32.2347 202.194 31.992C202.371 31.74 202.539 31.488 202.698 31.236C202.857 30.984 202.987 30.76 203.09 30.564ZM205.162 31.614L206.198 32.104C205.825 32.552 205.414 33.0187 204.966 33.504C204.527 33.98 204.079 34.442 203.622 34.89C203.174 35.3287 202.749 35.716 202.348 36.052L201.564 35.618C201.965 35.2633 202.385 34.8573 202.824 34.4C203.263 33.9333 203.687 33.4573 204.098 32.972C204.518 32.4867 204.873 32.034 205.162 31.614ZM201.06 32.706L201.704 31.936C201.975 32.0947 202.259 32.2767 202.558 32.482C202.866 32.6873 203.155 32.8927 203.426 33.098C203.697 33.294 203.916 33.476 204.084 33.644L203.426 34.526C203.258 34.3487 203.039 34.1527 202.768 33.938C202.507 33.7233 202.227 33.5087 201.928 33.294C201.629 33.07 201.34 32.874 201.06 32.706ZM200.906 35.212C201.363 35.1933 201.886 35.1747 202.474 35.156C203.071 35.128 203.701 35.0953 204.364 35.058C205.027 35.0207 205.694 34.988 206.366 34.96V35.912C205.423 35.996 204.49 36.0707 203.566 36.136C202.642 36.2013 201.821 36.262 201.102 36.318L200.906 35.212ZM204.7 34.092L205.652 33.672C205.867 33.924 206.086 34.204 206.31 34.512C206.534 34.82 206.735 35.1233 206.912 35.422C207.099 35.7113 207.239 35.9773 207.332 36.22L206.324 36.71C206.231 36.4673 206.1 36.1967 205.932 35.898C205.764 35.59 205.573 35.2773 205.358 34.96C205.143 34.6427 204.924 34.3533 204.7 34.092ZM197.63 35.478C198.078 35.3287 198.615 35.128 199.24 34.876C199.865 34.6147 200.505 34.358 201.158 34.106L201.396 35.086C200.864 35.3473 200.323 35.6087 199.772 35.87C199.231 36.122 198.731 36.3507 198.274 36.556L197.63 35.478ZM198.092 32.062L198.974 31.334C199.226 31.4647 199.492 31.6187 199.772 31.796C200.052 31.9733 200.318 32.1507 200.57 32.328C200.822 32.5053 201.027 32.6733 201.186 32.832L200.262 33.63C200.113 33.4807 199.912 33.3127 199.66 33.126C199.417 32.93 199.161 32.7387 198.89 32.552C198.619 32.3653 198.353 32.202 198.092 32.062ZM206.31 34.694L207.22 33.966C207.565 34.134 207.934 34.33 208.326 34.554C208.718 34.7687 209.091 34.988 209.446 35.212C209.801 35.436 210.095 35.646 210.328 35.842L209.362 36.654C209.147 36.4673 208.867 36.2573 208.522 36.024C208.177 35.7907 207.808 35.5573 207.416 35.324C207.033 35.0907 206.665 34.8807 206.31 34.694Z" fill="white"/>
<path d="M194.906 164H129.094C120.758 164 114 170.716 114 179C114 187.284 120.758 194 129.094 194H194.906C203.242 194 210 187.284 210 179C210 170.716 203.242 164 194.906 164Z" fill="#274374"/>
<path d="M129.772 178.12H137.388V179.212H131.088V185.19H129.772V178.12ZM136.954 178.12H138.298V183.86C138.298 184.196 138.247 184.448 138.144 184.616C138.051 184.784 137.883 184.915 137.64 185.008C137.388 185.092 137.061 185.139 136.66 185.148C136.268 185.167 135.792 185.176 135.232 185.176C135.204 185.017 135.148 184.835 135.064 184.63C134.98 184.434 134.896 184.257 134.812 184.098C135.064 184.107 135.316 184.117 135.568 184.126C135.829 184.135 136.058 184.135 136.254 184.126C136.45 184.126 136.581 184.126 136.646 184.126C136.767 184.117 136.847 184.093 136.884 184.056C136.931 184.019 136.954 183.953 136.954 183.86V178.12ZM130.57 180.094H137.486V181.046H130.57V180.094ZM127.812 173.472H140.188V174.634H127.812V173.472ZM131.522 174.186L132.992 174.578C132.675 175.007 132.334 175.441 131.97 175.88C131.615 176.309 131.289 176.678 130.99 176.986L129.94 176.594C130.117 176.37 130.304 176.118 130.5 175.838C130.696 175.558 130.883 175.273 131.06 174.984C131.247 174.685 131.401 174.419 131.522 174.186ZM135.568 175.11L136.632 174.452C137.033 174.713 137.453 175.012 137.892 175.348C138.34 175.675 138.76 176.006 139.152 176.342C139.553 176.678 139.88 176.986 140.132 177.266L138.984 178.036C138.76 177.756 138.457 177.443 138.074 177.098C137.691 176.753 137.281 176.407 136.842 176.062C136.413 175.707 135.988 175.39 135.568 175.11ZM128.33 176.174C128.965 176.174 129.679 176.169 130.472 176.16C131.275 176.151 132.129 176.137 133.034 176.118C133.939 176.099 134.863 176.085 135.806 176.076C136.758 176.057 137.701 176.034 138.634 176.006L138.564 177.098C137.341 177.135 136.109 177.177 134.868 177.224C133.636 177.261 132.46 177.294 131.34 177.322C130.229 177.35 129.24 177.373 128.372 177.392L128.33 176.174ZM130.57 181.942H137.444V182.894H130.57V181.942ZM133.3 172.17H134.658V174.06H133.3V172.17ZM149.162 172.394H150.478V185.176H149.162V172.394ZM145.368 175.684H154.37V176.972H145.368V175.684ZM150.828 176.09C151.024 176.687 151.262 177.289 151.542 177.896C151.831 178.503 152.149 179.086 152.494 179.646C152.839 180.206 153.203 180.719 153.586 181.186C153.969 181.653 154.361 182.054 154.762 182.39C154.659 182.465 154.543 182.563 154.412 182.684C154.291 182.805 154.169 182.931 154.048 183.062C153.936 183.193 153.843 183.319 153.768 183.44C153.357 183.057 152.961 182.605 152.578 182.082C152.195 181.55 151.831 180.976 151.486 180.36C151.141 179.735 150.823 179.086 150.534 178.414C150.245 177.742 149.993 177.07 149.778 176.398L150.828 176.09ZM148.868 176.132L150.002 176.468C149.703 177.392 149.335 178.297 148.896 179.184C148.467 180.061 147.986 180.873 147.454 181.62C146.931 182.367 146.376 183.001 145.788 183.524C145.713 183.412 145.615 183.291 145.494 183.16C145.382 183.029 145.265 182.903 145.144 182.782C145.023 182.651 144.911 182.549 144.808 182.474C145.368 182.035 145.905 181.475 146.418 180.794C146.941 180.113 147.412 179.371 147.832 178.568C148.252 177.756 148.597 176.944 148.868 176.132ZM144.948 172.268L146.25 172.674C145.923 173.495 145.536 174.303 145.088 175.096C144.649 175.889 144.164 176.636 143.632 177.336C143.109 178.036 142.568 178.647 142.008 179.17C141.971 179.067 141.901 178.927 141.798 178.75C141.705 178.573 141.607 178.4 141.504 178.232C141.401 178.055 141.308 177.91 141.224 177.798C141.728 177.359 142.209 176.846 142.666 176.258C143.133 175.67 143.557 175.04 143.94 174.368C144.332 173.687 144.668 172.987 144.948 172.268ZM143.45 176.118L144.738 174.83L144.752 174.844V185.148H143.45V176.118ZM161.51 172.17L162.812 172.478C162.523 173.271 162.159 174.041 161.72 174.788C161.291 175.525 160.833 176.146 160.348 176.65C160.273 176.575 160.166 176.491 160.026 176.398C159.886 176.295 159.741 176.197 159.592 176.104C159.452 176.011 159.331 175.936 159.228 175.88C159.713 175.432 160.157 174.877 160.558 174.214C160.959 173.551 161.277 172.87 161.51 172.17ZM161.566 173.542H168.3V174.634H160.992L161.566 173.542ZM162.182 177.938V178.75H166.214V177.938H162.182ZM162.182 176.328V177.112H166.214V176.328H162.182ZM160.992 175.446H167.446V179.618H160.992V175.446ZM162.588 179.254L163.736 179.59C163.344 180.29 162.835 180.939 162.21 181.536C161.585 182.133 160.95 182.623 160.306 183.006C160.241 182.931 160.152 182.843 160.04 182.74C159.928 182.637 159.811 182.535 159.69 182.432C159.578 182.329 159.475 182.245 159.382 182.18C160.026 181.844 160.637 181.424 161.216 180.92C161.795 180.407 162.252 179.851 162.588 179.254ZM162.364 181.06C162.719 181.592 163.204 182.063 163.82 182.474C164.445 182.885 165.169 183.225 165.99 183.496C166.811 183.757 167.703 183.944 168.664 184.056C168.533 184.187 168.393 184.359 168.244 184.574C168.095 184.798 167.978 184.994 167.894 185.162C166.886 185.013 165.962 184.77 165.122 184.434C164.291 184.098 163.554 183.678 162.91 183.174C162.275 182.661 161.743 182.068 161.314 181.396L162.364 181.06ZM162.392 180.472H166.578V181.382H161.552L162.392 180.472ZM166.242 180.472H166.494L166.718 180.416L167.516 180.808C167.189 181.471 166.765 182.049 166.242 182.544C165.719 183.029 165.122 183.449 164.45 183.804C163.778 184.149 163.055 184.434 162.28 184.658C161.515 184.882 160.721 185.059 159.9 185.19C159.853 185.031 159.769 184.845 159.648 184.63C159.536 184.415 159.429 184.238 159.326 184.098C160.082 184.014 160.815 183.883 161.524 183.706C162.243 183.519 162.91 183.286 163.526 183.006C164.142 182.726 164.683 182.39 165.15 181.998C165.617 181.606 165.981 181.153 166.242 180.64V180.472ZM158.584 175.11L159.76 175.544C159.443 176.104 159.079 176.664 158.668 177.224C158.257 177.775 157.819 178.297 157.352 178.792C156.895 179.277 156.437 179.711 155.98 180.094C155.943 179.991 155.877 179.865 155.784 179.716C155.7 179.567 155.611 179.413 155.518 179.254C155.425 179.095 155.341 178.974 155.266 178.89C155.677 178.573 156.087 178.213 156.498 177.812C156.909 177.411 157.291 176.981 157.646 176.524C158.01 176.057 158.323 175.586 158.584 175.11ZM158.29 172.184L159.466 172.646C159.186 173.047 158.859 173.453 158.486 173.864C158.113 174.275 157.725 174.667 157.324 175.04C156.923 175.413 156.521 175.745 156.12 176.034C156.064 175.941 155.994 175.838 155.91 175.726C155.826 175.605 155.737 175.483 155.644 175.362C155.56 175.241 155.481 175.143 155.406 175.068C155.761 174.816 156.12 174.531 156.484 174.214C156.848 173.887 157.189 173.547 157.506 173.192C157.823 172.837 158.085 172.501 158.29 172.184ZM157.352 177.896L158.458 176.79L158.598 176.846V185.218H157.352V177.896ZM170.036 173.85H171.114V180.5H170.036V173.85ZM177.218 178.568H178.45V185.19H177.218V178.568ZM172.178 172.198H173.368V177.826C173.368 178.517 173.34 179.203 173.284 179.884C173.237 180.556 173.13 181.205 172.962 181.83C172.803 182.455 172.565 183.048 172.248 183.608C171.94 184.168 171.52 184.691 170.988 185.176C170.923 185.092 170.829 184.994 170.708 184.882C170.596 184.779 170.479 184.677 170.358 184.574C170.237 184.471 170.125 184.392 170.022 184.336C170.666 183.757 171.142 183.123 171.45 182.432C171.758 181.741 171.954 181.009 172.038 180.234C172.131 179.45 172.178 178.647 172.178 177.826V172.198ZM174.586 179.758H180.606V180.864H175.762V184.252H174.586V179.758ZM174.642 172.562H181.194V176.93H174.488V175.964H179.962V173.528H174.642V172.562ZM175.006 174.27H180.732V175.194H175.006V174.27ZM180.018 179.758H181.25V182.964C181.25 183.235 181.222 183.454 181.166 183.622C181.11 183.781 180.989 183.907 180.802 184C180.625 184.093 180.405 184.149 180.144 184.168C179.892 184.187 179.593 184.196 179.248 184.196C179.239 184.028 179.201 183.846 179.136 183.65C179.08 183.445 179.015 183.263 178.94 183.104C179.155 183.113 179.346 183.118 179.514 183.118C179.682 183.118 179.799 183.113 179.864 183.104C179.92 183.104 179.957 183.095 179.976 183.076C180.004 183.048 180.018 183.001 180.018 182.936V179.758ZM173.718 177.588H182.23V179.926H180.998V178.61H174.894V179.926H173.718V177.588ZM189.272 172.184H190.644V174.158H189.272V172.184ZM189.272 180.262H190.644V185.204H189.272V180.262ZM183.728 181.27H196.3V182.502H183.728V181.27ZM184.162 173.668H195.88V174.872H184.162V173.668ZM194.648 175.166L195.824 175.754C195.469 176.081 195.087 176.398 194.676 176.706C194.275 177.005 193.906 177.266 193.57 177.49L192.604 176.958C192.828 176.799 193.066 176.617 193.318 176.412C193.57 176.207 193.813 175.997 194.046 175.782C194.279 175.558 194.48 175.353 194.648 175.166ZM189.09 174.564L190.224 174.984C189.953 175.348 189.669 175.712 189.37 176.076C189.081 176.44 188.81 176.753 188.558 177.014L187.704 176.636C187.863 176.449 188.026 176.235 188.194 175.992C188.371 175.74 188.539 175.488 188.698 175.236C188.857 174.984 188.987 174.76 189.09 174.564ZM191.162 175.614L192.198 176.104C191.825 176.552 191.414 177.019 190.966 177.504C190.527 177.98 190.079 178.442 189.622 178.89C189.174 179.329 188.749 179.716 188.348 180.052L187.564 179.618C187.965 179.263 188.385 178.857 188.824 178.4C189.263 177.933 189.687 177.457 190.098 176.972C190.518 176.487 190.873 176.034 191.162 175.614ZM187.06 176.706L187.704 175.936C187.975 176.095 188.259 176.277 188.558 176.482C188.866 176.687 189.155 176.893 189.426 177.098C189.697 177.294 189.916 177.476 190.084 177.644L189.426 178.526C189.258 178.349 189.039 178.153 188.768 177.938C188.507 177.723 188.227 177.509 187.928 177.294C187.629 177.07 187.34 176.874 187.06 176.706ZM186.906 179.212C187.363 179.193 187.886 179.175 188.474 179.156C189.071 179.128 189.701 179.095 190.364 179.058C191.027 179.021 191.694 178.988 192.366 178.96V179.912C191.423 179.996 190.49 180.071 189.566 180.136C188.642 180.201 187.821 180.262 187.102 180.318L186.906 179.212ZM190.7 178.092L191.652 177.672C191.867 177.924 192.086 178.204 192.31 178.512C192.534 178.82 192.735 179.123 192.912 179.422C193.099 179.711 193.239 179.977 193.332 180.22L192.324 180.71C192.231 180.467 192.1 180.197 191.932 179.898C191.764 179.59 191.573 179.277 191.358 178.96C191.143 178.643 190.924 178.353 190.7 178.092ZM183.63 179.478C184.078 179.329 184.615 179.128 185.24 178.876C185.865 178.615 186.505 178.358 187.158 178.106L187.396 179.086C186.864 179.347 186.323 179.609 185.772 179.87C185.231 180.122 184.731 180.351 184.274 180.556L183.63 179.478ZM184.092 176.062L184.974 175.334C185.226 175.465 185.492 175.619 185.772 175.796C186.052 175.973 186.318 176.151 186.57 176.328C186.822 176.505 187.027 176.673 187.186 176.832L186.262 177.63C186.113 177.481 185.912 177.313 185.66 177.126C185.417 176.93 185.161 176.739 184.89 176.552C184.619 176.365 184.353 176.202 184.092 176.062ZM192.31 178.694L193.22 177.966C193.565 178.134 193.934 178.33 194.326 178.554C194.718 178.769 195.091 178.988 195.446 179.212C195.801 179.436 196.095 179.646 196.328 179.842L195.362 180.654C195.147 180.467 194.867 180.257 194.522 180.024C194.177 179.791 193.808 179.557 193.416 179.324C193.033 179.091 192.665 178.881 192.31 178.694Z" fill="white"/>
<path d="M125.28 130.28C121.307 130.254 117.8 129.52 114.76 128.08C111.747 126.64 109.373 124.627 107.64 122.04C105.907 119.427 104.973 116.334 104.84 112.76H112.24C112.8 116.36 114.267 119.12 116.64 121.04C119.013 122.96 121.987 123.92 125.56 123.92C128.387 123.92 130.853 123.48 132.96 122.6C135.067 121.694 136.693 120.454 137.84 118.88C138.987 117.307 139.56 115.467 139.56 113.36C139.56 111.04 138.92 109.08 137.64 107.48C136.36 105.88 134.613 104.667 132.4 103.84C130.187 102.987 127.72 102.547 125 102.52L119.8 102.4V96.1204L124.76 96.0004C127.293 95.9471 129.56 95.4671 131.56 94.5604C133.56 93.6271 135.133 92.4137 136.28 90.9204C137.453 89.4004 138.04 87.7337 138.04 85.9204C138.04 84.3204 137.547 82.8404 136.56 81.4804C135.573 80.0937 134.147 78.9871 132.28 78.1604C130.44 77.3337 128.2 76.9204 125.56 76.9204C123.48 76.9204 121.493 77.3337 119.6 78.1604C117.707 78.9604 116.147 80.2004 114.92 81.8804C113.693 83.5604 113.04 85.7337 112.96 88.4004H105.6C105.6 84.6671 106.507 81.4937 108.32 78.8804C110.133 76.2404 112.547 74.2271 115.56 72.8404C118.6 71.4537 121.947 70.7604 125.6 70.7604C129.6 70.7604 133.133 71.3471 136.2 72.5204C139.267 73.6671 141.667 75.3471 143.4 77.5604C145.133 79.7737 146 82.4804 146 85.6804C146 88.5337 145.093 91.1204 143.28 93.4404C141.467 95.7337 138.693 97.5337 134.96 98.8404C137.493 99.5337 139.707 100.547 141.6 101.88C143.493 103.214 144.96 104.854 146 106.8C147.04 108.72 147.56 110.934 147.56 113.44C147.56 116.08 147 118.454 145.88 120.56C144.787 122.64 143.24 124.414 141.24 125.88C139.24 127.32 136.88 128.427 134.16 129.2C131.44 129.947 128.48 130.307 125.28 130.28ZM175.202 130.28C171.229 130.254 167.722 129.52 164.682 128.08C161.669 126.64 159.295 124.627 157.562 122.04C155.829 119.427 154.895 116.334 154.762 112.76H162.162C162.722 116.36 164.189 119.12 166.562 121.04C168.935 122.96 171.909 123.92 175.482 123.92C178.309 123.92 180.775 123.48 182.882 122.6C184.989 121.694 186.615 120.454 187.762 118.88C188.909 117.307 189.482 115.467 189.482 113.36C189.482 111.04 188.842 109.08 187.562 107.48C186.282 105.88 184.535 104.667 182.322 103.84C180.109 102.987 177.642 102.547 174.922 102.52L169.722 102.4V96.1204L174.682 96.0004C177.215 95.9471 179.482 95.4671 181.482 94.5604C183.482 93.6271 185.055 92.4137 186.202 90.9204C187.375 89.4004 187.962 87.7337 187.962 85.9204C187.962 84.3204 187.469 82.8404 186.482 81.4804C185.495 80.0937 184.069 78.9871 182.202 78.1604C180.362 77.3337 178.122 76.9204 175.482 76.9204C173.402 76.9204 171.415 77.3337 169.522 78.1604C167.629 78.9604 166.069 80.2004 164.842 81.8804C163.615 83.5604 162.962 85.7337 162.882 88.4004H155.522C155.522 84.6671 156.429 81.4937 158.242 78.8804C160.055 76.2404 162.469 74.2271 165.482 72.8404C168.522 71.4537 171.869 70.7604 175.522 70.7604C179.522 70.7604 183.055 71.3471 186.122 72.5204C189.189 73.6671 191.589 75.3471 193.322 77.5604C195.055 79.7737 195.922 82.4804 195.922 85.6804C195.922 88.5337 195.015 91.1204 193.202 93.4404C191.389 95.7337 188.615 97.5337 184.882 98.8404C187.415 99.5337 189.629 100.547 191.522 101.88C193.415 103.214 194.882 104.854 195.922 106.8C196.962 108.72 197.482 110.934 197.482 113.44C197.482 116.08 196.922 118.454 195.802 120.56C194.709 122.64 193.162 124.414 191.162 125.88C189.162 127.32 186.802 128.427 184.082 129.2C181.362 129.947 178.402 130.307 175.202 130.28Z" fill="#274374"/>
<path d="M207.599 120.476C206.671 120.476 205.852 120.23 205.142 119.739C204.432 119.229 203.877 118.501 203.476 117.555C203.094 116.59 202.903 115.434 202.903 114.087C202.903 112.74 203.094 111.602 203.476 110.674C203.877 109.727 204.432 109.008 205.142 108.517C205.852 108.026 206.671 107.78 207.599 107.78C208.546 107.78 209.374 108.026 210.084 108.517C210.794 109.008 211.34 109.727 211.722 110.674C212.123 111.602 212.323 112.74 212.323 114.087C212.323 115.434 212.123 116.59 211.722 117.555C211.34 118.501 210.794 119.229 210.084 119.739C209.374 120.23 208.546 120.476 207.599 120.476ZM207.599 118.647C208.309 118.647 208.882 118.274 209.319 117.527C209.774 116.781 210.002 115.634 210.002 114.087C210.002 112.54 209.774 111.411 209.319 110.701C208.882 109.991 208.309 109.636 207.599 109.636C206.907 109.636 206.334 109.991 205.879 110.701C205.424 111.411 205.196 112.54 205.196 114.087C205.196 115.634 205.424 116.781 205.879 117.527C206.334 118.274 206.907 118.647 207.599 118.647ZM208.227 128.64L219.231 107.78H221.224L210.22 128.64H208.227ZM221.879 128.64C220.951 128.64 220.132 128.385 219.422 127.876C218.712 127.366 218.157 126.638 217.756 125.691C217.374 124.745 217.183 123.598 217.183 122.251C217.183 120.886 217.374 119.739 217.756 118.811C218.157 117.882 218.712 117.172 219.422 116.681C220.132 116.171 220.951 115.916 221.879 115.916C222.807 115.916 223.627 116.171 224.337 116.681C225.046 117.172 225.592 117.882 225.975 118.811C226.375 119.739 226.575 120.886 226.575 122.251C226.575 123.598 226.375 124.745 225.975 125.691C225.592 126.638 225.046 127.366 224.337 127.876C223.627 128.385 222.807 128.64 221.879 128.64ZM221.879 126.756C222.571 126.756 223.144 126.392 223.599 125.664C224.073 124.936 224.309 123.798 224.309 122.251C224.309 120.686 224.073 119.548 223.599 118.838C223.144 118.128 222.571 117.773 221.879 117.773C221.187 117.773 220.614 118.128 220.159 118.838C219.704 119.548 219.476 120.686 219.476 122.251C219.476 123.798 219.704 124.936 220.159 125.664C220.614 126.392 221.187 126.756 221.879 126.756Z" fill="#274374"/>
<path d="M97.88 276.601V230.561H86.72V225.721C90.1867 225.721 92.88 225.467 94.8 224.961C96.72 224.454 98.08 223.681 98.88 222.641C99.7067 221.601 100.16 220.307 100.24 218.761H105.52V276.601H97.88ZM140.018 277.481C133.698 277.481 128.685 275.001 124.978 270.041C121.271 265.054 119.418 257.681 119.418 247.921C119.418 241.334 120.271 235.814 121.978 231.361C123.685 226.907 126.085 223.561 129.178 221.321C132.271 219.081 135.911 217.961 140.098 217.961C146.365 217.961 151.351 220.481 155.058 225.521C158.791 230.534 160.658 237.961 160.658 247.801C160.658 257.587 158.805 264.987 155.098 270.001C151.391 274.987 146.365 277.481 140.018 277.481ZM140.098 271.081C144.231 271.081 147.351 269.267 149.458 265.641C151.591 261.987 152.658 256.054 152.658 247.841C152.658 239.467 151.578 233.441 149.418 229.761C147.285 226.054 144.165 224.201 140.058 224.201C135.978 224.201 132.831 226.067 130.618 229.801C128.431 233.507 127.338 239.521 127.338 247.841C127.338 256.027 128.431 261.947 130.618 265.601C132.805 269.254 135.965 271.081 140.098 271.081ZM188.534 277.481C182.214 277.481 177.2 275.001 173.494 270.041C169.787 265.054 167.934 257.681 167.934 247.921C167.934 241.334 168.787 235.814 170.494 231.361C172.2 226.907 174.6 223.561 177.694 221.321C180.787 219.081 184.427 217.961 188.614 217.961C194.88 217.961 199.867 220.481 203.574 225.521C207.307 230.534 209.174 237.961 209.174 247.801C209.174 257.587 207.32 264.987 203.614 270.001C199.907 274.987 194.88 277.481 188.534 277.481ZM188.614 271.081C192.747 271.081 195.867 269.267 197.974 265.641C200.107 261.987 201.174 256.054 201.174 247.841C201.174 239.467 200.094 233.441 197.934 229.761C195.8 226.054 192.68 224.201 188.574 224.201C184.494 224.201 181.347 226.067 179.134 229.801C176.947 233.507 175.854 239.521 175.854 247.841C175.854 256.027 176.947 261.947 179.134 265.601C181.32 269.254 184.48 271.081 188.614 271.081Z" fill="#274374"/>
<path d="M219.799 267.675C218.871 267.675 218.052 267.43 217.342 266.938C216.632 266.429 216.077 265.7 215.676 264.754C215.294 263.789 215.103 262.633 215.103 261.286C215.103 259.939 215.294 258.802 215.676 257.873C216.077 256.927 216.632 256.208 217.342 255.716C218.052 255.225 218.871 254.979 219.799 254.979C220.746 254.979 221.574 255.225 222.284 255.716C222.994 256.208 223.54 256.927 223.922 257.873C224.323 258.802 224.523 259.939 224.523 261.286C224.523 262.633 224.323 263.789 223.922 264.754C223.54 265.7 222.994 266.429 222.284 266.938C221.574 267.43 220.746 267.675 219.799 267.675ZM219.799 265.846C220.509 265.846 221.083 265.473 221.52 264.727C221.975 263.98 222.202 262.833 222.202 261.286C222.202 259.739 221.975 258.61 221.52 257.901C221.083 257.191 220.509 256.836 219.799 256.836C219.108 256.836 218.534 257.191 218.079 257.901C217.624 258.61 217.397 259.739 217.397 261.286C217.397 262.833 217.624 263.98 218.079 264.727C218.534 265.473 219.108 265.846 219.799 265.846ZM220.427 275.839L231.431 254.979H233.424L222.421 275.839H220.427ZM234.079 275.839C233.151 275.839 232.332 275.584 231.622 275.075C230.912 274.565 230.357 273.837 229.956 272.89C229.574 271.944 229.383 270.797 229.383 269.45C229.383 268.085 229.574 266.938 229.956 266.01C230.357 265.082 230.912 264.372 231.622 263.88C232.332 263.37 233.151 263.116 234.079 263.116C235.008 263.116 235.827 263.37 236.537 263.88C237.247 264.372 237.793 265.082 238.175 266.01C238.575 266.938 238.776 268.085 238.776 269.45C238.776 270.797 238.575 271.944 238.175 272.89C237.793 273.837 237.247 274.565 236.537 275.075C235.827 275.584 235.008 275.839 234.079 275.839ZM234.079 273.955C234.771 273.955 235.344 273.591 235.799 272.863C236.273 272.135 236.509 270.997 236.509 269.45C236.509 267.885 236.273 266.747 235.799 266.037C235.344 265.327 234.771 264.972 234.079 264.972C233.388 264.972 232.814 265.327 232.359 266.037C231.904 266.747 231.677 267.885 231.677 269.45C231.677 270.997 231.904 272.135 232.359 272.863C232.814 273.591 233.388 273.955 234.079 273.955Z" fill="#274374"/>
<g clip-path="url(#clip0_1177_43296)">
<path d="M294.853 173.317L291.566 170.03L295.194 166.403C297.198 164.399 297.198 161.153 295.194 159.149C293.19 157.145 289.943 157.145 287.939 159.149L284.312 162.776L281.025 159.489C279.085 157.548 275.938 157.548 273.998 159.489L271.772 161.715C270.937 162.549 270.933 163.905 271.772 164.743L289.603 182.575C290.437 183.409 291.793 183.414 292.632 182.575L294.858 180.349C296.799 178.409 296.799 175.262 294.858 173.322L294.853 173.317Z" fill="url(#paint0_linear_1177_43296)"/>
<path d="M287.554 184.153L270.189 166.788C267.723 164.322 263.724 164.322 261.258 166.788L233.47 194.576C231.003 197.043 231.003 201.042 233.47 203.508L250.83 220.868C253.296 223.335 257.295 223.335 259.762 220.868L287.55 193.08C290.016 190.614 290.016 186.615 287.55 184.148L287.554 184.153ZM255.976 208.794L245.548 198.367C245.172 197.99 245.172 197.383 245.548 197.006C245.924 196.63 246.532 196.63 246.908 197.006L257.336 207.434C257.712 207.811 257.712 208.418 257.336 208.794C256.96 209.171 256.352 209.171 255.976 208.794ZM255.976 189.299C256.352 188.923 256.96 188.923 257.336 189.299L265.044 197.006C265.42 197.383 265.42 197.99 265.044 198.367C264.667 198.743 264.06 198.743 263.683 198.367L255.976 190.659C255.599 190.283 255.599 189.675 255.976 189.299ZM274.111 190.659L263.683 180.231C263.307 179.855 263.307 179.247 263.683 178.871C264.06 178.495 264.667 178.495 265.044 178.871L275.471 189.299C275.848 189.675 275.848 190.283 275.471 190.659C275.095 191.035 274.488 191.035 274.111 190.659Z" fill="url(#paint1_linear_1177_43296)"/>
</g>
<defs>
<linearGradient id="paint0_linear_1177_43296" x1="292.101" y1="183.496" x2="279.842" y2="152.366" gradientUnits="userSpaceOnUse">
<stop stop-color="#3975BF"/>
<stop offset="1" stop-color="#ADADAD"/>
</linearGradient>
<linearGradient id="paint1_linear_1177_43296" x1="270.135" y1="218.275" x2="248.572" y2="163.524" gradientUnits="userSpaceOnUse">
<stop stop-color="#3975BF"/>
<stop offset="1" stop-color="#ADADAD"/>
</linearGradient>
<clipPath id="clip0_1177_43296">
<rect width="37.1888" height="75.0188" fill="white" transform="translate(282.046 146) rotate(45)"/>
</clipPath>
</defs>
</svg>
