<svg width="289" height="403" viewBox="0 0 289 403" fill="none" xmlns="http://www.w3.org/2000/svg">
<path d="M179 0H28C14.1929 0 3 11.1929 3 25C3 38.8071 14.1929 50 28 50H179C192.807 50 204 38.8071 204 25C204 11.1929 192.807 0 179 0Z" fill="#274374"/>
<path d="M137 211.5H28C14.1929 211.5 3 222.693 3 236.5C3 250.307 14.1929 261.5 28 261.5H137C150.807 261.5 162 250.307 162 236.5C162 222.693 150.807 211.5 137 211.5Z" fill="#274374"/>
<path d="M31.356 23.76H43.324V25.476H33.424V34.87H31.356V23.76ZM42.642 23.76H44.754V32.78C44.754 33.308 44.6733 33.704 44.512 33.968C44.3653 34.232 44.1013 34.4373 43.72 34.584C43.324 34.716 42.8107 34.7893 42.18 34.804C41.564 34.8333 40.816 34.848 39.936 34.848C39.892 34.5987 39.804 34.3127 39.672 33.99C39.54 33.682 39.408 33.4033 39.276 33.154C39.672 33.1687 40.068 33.1833 40.464 33.198C40.8747 33.2127 41.234 33.2127 41.542 33.198C41.85 33.198 42.0553 33.198 42.158 33.198C42.3487 33.1833 42.4733 33.1467 42.532 33.088C42.6053 33.0293 42.642 32.9267 42.642 32.78V23.76ZM32.61 26.862H43.478V28.358H32.61V26.862ZM28.276 16.456H47.724V18.282H28.276V16.456ZM34.106 17.578L36.416 18.194C35.9173 18.8687 35.382 19.5507 34.81 20.24C34.2527 20.9147 33.7393 21.494 33.27 21.978L31.62 21.362C31.8987 21.01 32.192 20.614 32.5 20.174C32.808 19.734 33.1013 19.2867 33.38 18.832C33.6733 18.3627 33.9153 17.9447 34.106 17.578ZM40.464 19.03L42.136 17.996C42.7667 18.4067 43.4267 18.876 44.116 19.404C44.82 19.9173 45.48 20.438 46.096 20.966C46.7267 21.494 47.24 21.978 47.636 22.418L45.832 23.628C45.48 23.188 45.0033 22.6967 44.402 22.154C43.8007 21.6113 43.1553 21.0687 42.466 20.526C41.7913 19.9687 41.124 19.47 40.464 19.03ZM29.09 20.702C30.0873 20.702 31.2093 20.6947 32.456 20.68C33.7173 20.6653 35.0593 20.6433 36.482 20.614C37.9047 20.5847 39.3567 20.5627 40.838 20.548C42.334 20.5187 43.8153 20.482 45.282 20.438L45.172 22.154C43.2507 22.2127 41.3147 22.2787 39.364 22.352C37.428 22.4107 35.58 22.462 33.82 22.506C32.0747 22.55 30.52 22.5867 29.156 22.616L29.09 20.702ZM32.61 29.766H43.412V31.262H32.61V29.766ZM36.9 14.41H39.034V17.38H36.9V14.41ZM59.142 21.824V24.838H66.028V21.824H59.142ZM59.142 17.204V20.152H66.028V17.204H59.142ZM57.14 15.378H68.14V26.664H57.14V15.378ZM52.058 15.048H54.082V26.994H52.058V15.048ZM61.628 27.236H63.74V32.054C63.74 32.3767 63.7987 32.582 63.916 32.67C64.0333 32.758 64.2973 32.802 64.708 32.802C64.8107 32.802 64.972 32.802 65.192 32.802C65.412 32.802 65.6613 32.802 65.94 32.802C66.2187 32.802 66.4753 32.802 66.71 32.802C66.9593 32.802 67.1427 32.802 67.26 32.802C67.524 32.802 67.722 32.736 67.854 32.604C68.0007 32.4573 68.096 32.164 68.14 31.724C68.1987 31.284 68.2427 30.6167 68.272 29.722C68.4187 29.8393 68.602 29.9567 68.822 30.074C69.0567 30.1767 69.2987 30.272 69.548 30.36C69.7973 30.4333 70.0173 30.4993 70.208 30.558C70.1347 31.6727 70.0027 32.5307 69.812 33.132C69.636 33.748 69.3573 34.1733 68.976 34.408C68.6093 34.6427 68.1033 34.76 67.458 34.76C67.3407 34.76 67.1353 34.76 66.842 34.76C66.5633 34.76 66.2553 34.76 65.918 34.76C65.5953 34.76 65.2947 34.76 65.016 34.76C64.7373 34.76 64.5467 34.76 64.444 34.76C63.6813 34.76 63.0947 34.6793 62.684 34.518C62.288 34.3567 62.0093 34.078 61.848 33.682C61.7013 33.286 61.628 32.7507 61.628 32.076V27.236ZM55.798 27.258H58.042C57.9247 28.226 57.734 29.1133 57.47 29.92C57.2207 30.712 56.8393 31.4307 56.326 32.076C55.8273 32.7067 55.138 33.264 54.258 33.748C53.378 34.232 52.256 34.6427 50.892 34.98C50.8187 34.7893 50.716 34.5767 50.584 34.342C50.452 34.122 50.3053 33.902 50.144 33.682C49.9827 33.462 49.836 33.2787 49.704 33.132C50.9213 32.8827 51.904 32.5747 52.652 32.208C53.4147 31.8413 54.0087 31.416 54.434 30.932C54.8593 30.448 55.1673 29.9053 55.358 29.304C55.5487 28.688 55.6953 28.006 55.798 27.258ZM83.826 14.762H85.894V34.848H83.826V14.762ZM77.864 19.932H92.01V21.956H77.864V19.932ZM86.444 20.57C86.752 21.5087 87.126 22.4547 87.566 23.408C88.0207 24.3613 88.5193 25.278 89.062 26.158C89.6047 27.038 90.1767 27.8447 90.778 28.578C91.3793 29.3113 91.9953 29.942 92.626 30.47C92.4647 30.5873 92.2813 30.7413 92.076 30.932C91.8853 31.1227 91.6947 31.3207 91.504 31.526C91.328 31.7313 91.1813 31.9293 91.064 32.12C90.4187 31.5187 89.7953 30.8073 89.194 29.986C88.5927 29.15 88.0207 28.248 87.478 27.28C86.9353 26.2973 86.4367 25.278 85.982 24.222C85.5273 23.166 85.1313 22.11 84.794 21.054L86.444 20.57ZM83.364 20.636L85.146 21.164C84.6767 22.616 84.0973 24.0387 83.408 25.432C82.7333 26.8107 81.978 28.0867 81.142 29.26C80.3207 30.4333 79.448 31.4307 78.524 32.252C78.4067 32.076 78.2527 31.8853 78.062 31.68C77.886 31.4747 77.7027 31.2767 77.512 31.086C77.3213 30.8807 77.1453 30.7193 76.984 30.602C77.864 29.9127 78.7073 29.0327 79.514 27.962C80.3353 26.8913 81.076 25.7253 81.736 24.464C82.396 23.188 82.9387 21.912 83.364 20.636ZM77.204 14.564L79.25 15.202C78.7367 16.4927 78.128 17.7613 77.424 19.008C76.7347 20.2547 75.972 21.428 75.136 22.528C74.3147 23.628 73.464 24.5887 72.584 25.41C72.5253 25.2487 72.4153 25.0287 72.254 24.75C72.1073 24.4713 71.9533 24.2 71.792 23.936C71.6307 23.6573 71.484 23.43 71.352 23.254C72.144 22.5647 72.8993 21.758 73.618 20.834C74.3513 19.91 75.0187 18.92 75.62 17.864C76.236 16.7933 76.764 15.6933 77.204 14.564ZM74.85 20.614L76.874 18.59L76.896 18.612V34.804H74.85V20.614ZM102.152 24.618H106.64V26.334H102.152V24.618ZM102.152 28.71H106.97V30.47H102.152V28.71ZM107.256 23.958H112.448V25.674H107.256V23.958ZM101.954 15.356H107.08V22.55H101.954V20.812H105.276V17.072H101.954V15.356ZM107.872 15.356H113.636V22.506H107.872V20.724H111.832V17.116H107.872V15.356ZM101.162 15.356H103.098V34.804H101.162V15.356ZM112.052 23.958H112.404L112.734 23.892L113.9 24.2C113.592 26.1213 113.108 27.7713 112.448 29.15C111.803 30.5287 110.996 31.6873 110.028 32.626C109.06 33.55 107.945 34.2907 106.684 34.848C106.567 34.628 106.405 34.364 106.2 34.056C105.995 33.748 105.797 33.506 105.606 33.33C106.706 32.89 107.696 32.2593 108.576 31.438C109.456 30.6167 110.189 29.6047 110.776 28.402C111.377 27.1993 111.803 25.8207 112.052 24.266V23.958ZM109.148 25.608C109.412 26.7373 109.779 27.808 110.248 28.82C110.717 29.832 111.289 30.7193 111.964 31.482C112.653 32.2447 113.431 32.8387 114.296 33.264C114.091 33.44 113.871 33.6747 113.636 33.968C113.401 34.276 113.211 34.5547 113.064 34.804C112.125 34.276 111.297 33.572 110.578 32.692C109.874 31.7973 109.273 30.778 108.774 29.634C108.29 28.49 107.894 27.258 107.586 25.938L109.148 25.608ZM95.596 15.994H99.996V30.932H95.596V29.106H98.28V17.82H95.596V15.994ZM95.684 22.484H99.248V24.288H95.684V22.484ZM94.562 15.994H96.212V32.692H94.562V15.994ZM126.33 17.38H134.184V19.404H126.33V17.38ZM116.012 15.752H126.902V17.688H116.012V15.752ZM118.718 20.24H124.24V22.132H118.718V20.24ZM118.718 24.816H124.24V26.686H118.718V24.816ZM133.59 17.38H133.942L134.316 17.292L135.658 17.644C135.335 20.592 134.778 23.1587 133.986 25.344C133.194 27.5293 132.189 29.3847 130.972 30.91C129.755 32.4207 128.339 33.6527 126.726 34.606C126.565 34.342 126.352 34.0413 126.088 33.704C125.824 33.3667 125.582 33.1027 125.362 32.912C126.814 32.1493 128.105 31.0713 129.234 29.678C130.363 28.27 131.302 26.576 132.05 24.596C132.798 22.6013 133.311 20.35 133.59 17.842V17.38ZM128.574 19.47C128.955 21.494 129.491 23.386 130.18 25.146C130.869 26.8913 131.742 28.4313 132.798 29.766C133.854 31.1007 135.115 32.1567 136.582 32.934C136.421 33.066 136.245 33.2347 136.054 33.44C135.878 33.6453 135.702 33.8507 135.526 34.056C135.365 34.276 135.233 34.474 135.13 34.65C133.561 33.7407 132.226 32.5673 131.126 31.13C130.026 29.678 129.109 28.006 128.376 26.114C127.643 24.2073 127.049 22.1247 126.594 19.866L128.574 19.47ZM117.618 16.5H119.62V30.844H117.618V16.5ZM123.426 16.5H125.428V34.826H123.426V16.5ZM115.528 30.14C116.247 30.052 117.075 29.9493 118.014 29.832C118.953 29.7147 119.95 29.5827 121.006 29.436C122.062 29.2747 123.118 29.1207 124.174 28.974L124.284 30.888C122.803 31.1227 121.321 31.3647 119.84 31.614C118.373 31.8487 117.068 32.054 115.924 32.23L115.528 30.14ZM147.956 19.514V21.01H154.578V19.514H147.956ZM147.956 16.61V18.084H154.578V16.61H147.956ZM145.954 15.092H156.668V22.528H145.954V15.092ZM144.7 23.804H157.57V25.542H144.7V23.804ZM144.172 27.148H157.988V28.93H144.172V27.148ZM152.73 25.322H154.82V32.692C154.82 33.2053 154.754 33.6013 154.622 33.88C154.49 34.1733 154.241 34.3933 153.874 34.54C153.507 34.6867 153.045 34.7747 152.488 34.804C151.945 34.8333 151.278 34.848 150.486 34.848C150.442 34.5693 150.354 34.254 150.222 33.902C150.09 33.5647 149.951 33.2567 149.804 32.978C150.361 32.9927 150.875 33 151.344 33C151.828 33.0147 152.143 33.0147 152.29 33C152.466 32.9853 152.583 32.956 152.642 32.912C152.701 32.868 152.73 32.78 152.73 32.648V25.322ZM145.888 30.052L147.362 29.062C147.846 29.5167 148.352 30.03 148.88 30.602C149.408 31.1593 149.811 31.6507 150.09 32.076L148.528 33.198C148.367 32.9047 148.132 32.5747 147.824 32.208C147.531 31.8413 147.215 31.4673 146.878 31.086C146.541 30.7047 146.211 30.36 145.888 30.052ZM142.808 19.316L144.634 20.064C144.121 20.944 143.519 21.824 142.83 22.704C142.155 23.584 141.437 24.42 140.674 25.212C139.926 25.9893 139.178 26.6713 138.43 27.258C138.371 27.0967 138.283 26.884 138.166 26.62C138.049 26.356 137.917 26.092 137.77 25.828C137.623 25.5493 137.499 25.3293 137.396 25.168C138.056 24.6987 138.716 24.1487 139.376 23.518C140.051 22.8873 140.681 22.2127 141.268 21.494C141.869 20.7753 142.383 20.0493 142.808 19.316ZM142.346 14.476L144.326 15.268C143.871 15.9133 143.336 16.566 142.72 17.226C142.104 17.886 141.459 18.5093 140.784 19.096C140.109 19.6827 139.435 20.2033 138.76 20.658C138.687 20.482 138.584 20.2913 138.452 20.086C138.32 19.866 138.188 19.6533 138.056 19.448C137.924 19.228 137.799 19.0447 137.682 18.898C138.269 18.5313 138.855 18.106 139.442 17.622C140.043 17.1233 140.593 16.6027 141.092 16.06C141.605 15.5027 142.023 14.9747 142.346 14.476ZM140.74 23.65L142.698 21.714L142.786 21.758V34.848H140.74V23.65ZM168.856 14.432H171.012V17.534H168.856V14.432ZM168.856 27.126H171.012V34.892H168.856V27.126ZM160.144 28.71H179.9V30.646H160.144V28.71ZM160.826 16.764H179.24V18.656H160.826V16.764ZM177.304 19.118L179.152 20.042C178.595 20.5553 177.993 21.054 177.348 21.538C176.717 22.0073 176.138 22.418 175.61 22.77L174.092 21.934C174.444 21.6847 174.818 21.3987 175.214 21.076C175.61 20.7533 175.991 20.4233 176.358 20.086C176.725 19.734 177.04 19.4113 177.304 19.118ZM168.57 18.172L170.352 18.832C169.927 19.404 169.479 19.976 169.01 20.548C168.555 21.12 168.13 21.6113 167.734 22.022L166.392 21.428C166.641 21.1347 166.898 20.7973 167.162 20.416C167.441 20.02 167.705 19.624 167.954 19.228C168.203 18.832 168.409 18.48 168.57 18.172ZM171.826 19.822L173.454 20.592C172.867 21.296 172.222 22.0293 171.518 22.792C170.829 23.54 170.125 24.266 169.406 24.97C168.702 25.6593 168.035 26.268 167.404 26.796L166.172 26.114C166.803 25.5567 167.463 24.9187 168.152 24.2C168.841 23.4667 169.509 22.7187 170.154 21.956C170.814 21.1933 171.371 20.482 171.826 19.822ZM165.38 21.538L166.392 20.328C166.817 20.5773 167.265 20.8633 167.734 21.186C168.218 21.5087 168.673 21.8313 169.098 22.154C169.523 22.462 169.868 22.748 170.132 23.012L169.098 24.398C168.834 24.1193 168.489 23.8113 168.064 23.474C167.653 23.1367 167.213 22.7993 166.744 22.462C166.275 22.11 165.82 21.802 165.38 21.538ZM165.138 25.476C165.857 25.4467 166.678 25.4173 167.602 25.388C168.541 25.344 169.531 25.2927 170.572 25.234C171.613 25.1753 172.662 25.124 173.718 25.08V26.576C172.237 26.708 170.77 26.8253 169.318 26.928C167.866 27.0307 166.575 27.126 165.446 27.214L165.138 25.476ZM171.1 23.716L172.596 23.056C172.933 23.452 173.278 23.892 173.63 24.376C173.982 24.86 174.297 25.3367 174.576 25.806C174.869 26.2607 175.089 26.6787 175.236 27.06L173.652 27.83C173.505 27.4487 173.3 27.0233 173.036 26.554C172.772 26.07 172.471 25.5787 172.134 25.08C171.797 24.5813 171.452 24.1267 171.1 23.716ZM159.99 25.894C160.694 25.6593 161.537 25.344 162.52 24.948C163.503 24.5373 164.507 24.134 165.534 23.738L165.908 25.278C165.072 25.6887 164.221 26.0993 163.356 26.51C162.505 26.906 161.721 27.2653 161.002 27.588L159.99 25.894ZM160.716 20.526L162.102 19.382C162.498 19.5873 162.916 19.8293 163.356 20.108C163.796 20.3867 164.214 20.6653 164.61 20.944C165.006 21.2227 165.329 21.4867 165.578 21.736L164.126 22.99C163.891 22.7553 163.576 22.4913 163.18 22.198C162.799 21.89 162.395 21.5893 161.97 21.296C161.545 21.0027 161.127 20.746 160.716 20.526ZM173.63 24.662L175.06 23.518C175.603 23.782 176.182 24.09 176.798 24.442C177.414 24.7793 178.001 25.124 178.558 25.476C179.115 25.828 179.577 26.158 179.944 26.466L178.426 27.742C178.089 27.4487 177.649 27.1187 177.106 26.752C176.563 26.3853 175.984 26.0187 175.368 25.652C174.767 25.2853 174.187 24.9553 173.63 24.662Z" fill="white"/>
<path d="M32.356 235.26H44.324V236.976H34.424V246.37H32.356V235.26ZM43.642 235.26H45.754V244.28C45.754 244.808 45.6733 245.204 45.512 245.468C45.3653 245.732 45.1013 245.937 44.72 246.084C44.324 246.216 43.8107 246.289 43.18 246.304C42.564 246.333 41.816 246.348 40.936 246.348C40.892 246.099 40.804 245.813 40.672 245.49C40.54 245.182 40.408 244.903 40.276 244.654C40.672 244.669 41.068 244.683 41.464 244.698C41.8747 244.713 42.234 244.713 42.542 244.698C42.85 244.698 43.0553 244.698 43.158 244.698C43.3487 244.683 43.4733 244.647 43.532 244.588C43.6053 244.529 43.642 244.427 43.642 244.28V235.26ZM33.61 238.362H44.478V239.858H33.61V238.362ZM29.276 227.956H48.724V229.782H29.276V227.956ZM35.106 229.078L37.416 229.694C36.9173 230.369 36.382 231.051 35.81 231.74C35.2527 232.415 34.7393 232.994 34.27 233.478L32.62 232.862C32.8987 232.51 33.192 232.114 33.5 231.674C33.808 231.234 34.1013 230.787 34.38 230.332C34.6733 229.863 34.9153 229.445 35.106 229.078ZM41.464 230.53L43.136 229.496C43.7667 229.907 44.4267 230.376 45.116 230.904C45.82 231.417 46.48 231.938 47.096 232.466C47.7267 232.994 48.24 233.478 48.636 233.918L46.832 235.128C46.48 234.688 46.0033 234.197 45.402 233.654C44.8007 233.111 44.1553 232.569 43.466 232.026C42.7913 231.469 42.124 230.97 41.464 230.53ZM30.09 232.202C31.0873 232.202 32.2093 232.195 33.456 232.18C34.7173 232.165 36.0593 232.143 37.482 232.114C38.9047 232.085 40.3567 232.063 41.838 232.048C43.334 232.019 44.8153 231.982 46.282 231.938L46.172 233.654C44.2507 233.713 42.3147 233.779 40.364 233.852C38.428 233.911 36.58 233.962 34.82 234.006C33.0747 234.05 31.52 234.087 30.156 234.116L30.09 232.202ZM33.61 241.266H44.412V242.762H33.61V241.266ZM37.9 225.91H40.034V228.88H37.9V225.91ZM62.826 226.262H64.894V246.348H62.826V226.262ZM56.864 231.432H71.01V233.456H56.864V231.432ZM65.444 232.07C65.752 233.009 66.126 233.955 66.566 234.908C67.0207 235.861 67.5193 236.778 68.062 237.658C68.6047 238.538 69.1767 239.345 69.778 240.078C70.3793 240.811 70.9953 241.442 71.626 241.97C71.4647 242.087 71.2813 242.241 71.076 242.432C70.8853 242.623 70.6947 242.821 70.504 243.026C70.328 243.231 70.1813 243.429 70.064 243.62C69.4187 243.019 68.7953 242.307 68.194 241.486C67.5927 240.65 67.0207 239.748 66.478 238.78C65.9353 237.797 65.4367 236.778 64.982 235.722C64.5273 234.666 64.1313 233.61 63.794 232.554L65.444 232.07ZM62.364 232.136L64.146 232.664C63.6767 234.116 63.0973 235.539 62.408 236.932C61.7333 238.311 60.978 239.587 60.142 240.76C59.3207 241.933 58.448 242.931 57.524 243.752C57.4067 243.576 57.2527 243.385 57.062 243.18C56.886 242.975 56.7027 242.777 56.512 242.586C56.3213 242.381 56.1453 242.219 55.984 242.102C56.864 241.413 57.7073 240.533 58.514 239.462C59.3353 238.391 60.076 237.225 60.736 235.964C61.396 234.688 61.9387 233.412 62.364 232.136ZM56.204 226.064L58.25 226.702C57.7367 227.993 57.128 229.261 56.424 230.508C55.7347 231.755 54.972 232.928 54.136 234.028C53.3147 235.128 52.464 236.089 51.584 236.91C51.5253 236.749 51.4153 236.529 51.254 236.25C51.1073 235.971 50.9533 235.7 50.792 235.436C50.6307 235.157 50.484 234.93 50.352 234.754C51.144 234.065 51.8993 233.258 52.618 232.334C53.3513 231.41 54.0187 230.42 54.62 229.364C55.236 228.293 55.764 227.193 56.204 226.064ZM53.85 232.114L55.874 230.09L55.896 230.112V246.304H53.85V232.114ZM82.23 225.91L84.276 226.394C83.8213 227.641 83.2493 228.851 82.56 230.024C81.8853 231.183 81.1667 232.158 80.404 232.95C80.2867 232.833 80.118 232.701 79.898 232.554C79.678 232.393 79.4507 232.239 79.216 232.092C78.996 231.945 78.8053 231.828 78.644 231.74C79.4067 231.036 80.1033 230.163 80.734 229.122C81.3647 228.081 81.8633 227.01 82.23 225.91ZM82.318 228.066H92.9V229.782H81.416L82.318 228.066ZM83.286 234.974V236.25H89.622V234.974H83.286ZM83.286 232.444V233.676H89.622V232.444H83.286ZM81.416 231.058H91.558V237.614H81.416V231.058ZM83.924 237.042L85.728 237.57C85.112 238.67 84.3127 239.689 83.33 240.628C82.3473 241.567 81.35 242.337 80.338 242.938C80.2353 242.821 80.096 242.681 79.92 242.52C79.744 242.359 79.5607 242.197 79.37 242.036C79.194 241.875 79.0327 241.743 78.886 241.64C79.898 241.112 80.8587 240.452 81.768 239.66C82.6773 238.853 83.396 237.981 83.924 237.042ZM83.572 239.88C84.1293 240.716 84.892 241.457 85.86 242.102C86.8427 242.747 87.9793 243.283 89.27 243.708C90.5607 244.119 91.9613 244.412 93.472 244.588C93.2667 244.793 93.0467 245.065 92.812 245.402C92.5773 245.754 92.394 246.062 92.262 246.326C90.678 246.091 89.226 245.71 87.906 245.182C86.6007 244.654 85.442 243.994 84.43 243.202C83.4327 242.395 82.5967 241.464 81.922 240.408L83.572 239.88ZM83.616 238.956H90.194V240.386H82.296L83.616 238.956ZM89.666 238.956H90.062L90.414 238.868L91.668 239.484C91.1547 240.525 90.4873 241.435 89.666 242.212C88.8447 242.975 87.906 243.635 86.85 244.192C85.794 244.735 84.6573 245.182 83.44 245.534C82.2373 245.886 80.9907 246.165 79.7 246.37C79.6267 246.121 79.4947 245.827 79.304 245.49C79.128 245.153 78.9593 244.874 78.798 244.654C79.986 244.522 81.1373 244.317 82.252 244.038C83.3813 243.745 84.43 243.378 85.398 242.938C86.366 242.498 87.2167 241.97 87.95 241.354C88.6833 240.738 89.2553 240.027 89.666 239.22V238.956ZM77.632 230.53L79.48 231.212C78.9813 232.092 78.4093 232.972 77.764 233.852C77.1187 234.717 76.4293 235.539 75.696 236.316C74.9773 237.079 74.2587 237.761 73.54 238.362C73.4813 238.201 73.3787 238.003 73.232 237.768C73.1 237.533 72.9607 237.291 72.814 237.042C72.6673 236.793 72.5353 236.602 72.418 236.47C73.0633 235.971 73.7087 235.407 74.354 234.776C74.9993 234.145 75.6007 233.471 76.158 232.752C76.73 232.019 77.2213 231.278 77.632 230.53ZM77.17 225.932L79.018 226.658C78.578 227.289 78.0647 227.927 77.478 228.572C76.8913 229.217 76.2827 229.833 75.652 230.42C75.0213 231.007 74.3907 231.527 73.76 231.982C73.672 231.835 73.562 231.674 73.43 231.498C73.298 231.307 73.1587 231.117 73.012 230.926C72.88 230.735 72.7553 230.581 72.638 230.464C73.1953 230.068 73.76 229.621 74.332 229.122C74.904 228.609 75.4393 228.073 75.938 227.516C76.4367 226.959 76.8473 226.431 77.17 225.932ZM75.696 234.908L77.434 233.17L77.654 233.258V246.414H75.696V234.908ZM95.628 228.55H97.322V239H95.628V228.55ZM106.914 235.964H108.85V246.37H106.914V235.964ZM98.994 225.954H100.864V234.798C100.864 235.883 100.82 236.961 100.732 238.032C100.659 239.088 100.49 240.107 100.226 241.09C99.9767 242.073 99.6027 243.004 99.104 243.884C98.62 244.764 97.96 245.585 97.124 246.348C97.0213 246.216 96.8747 246.062 96.684 245.886C96.508 245.725 96.3247 245.563 96.134 245.402C95.9433 245.241 95.7673 245.116 95.606 245.028C96.618 244.119 97.366 243.121 97.85 242.036C98.334 240.951 98.642 239.799 98.774 238.582C98.9207 237.35 98.994 236.089 98.994 234.798V225.954ZM102.778 237.834H112.238V239.572H104.626V244.896H102.778V237.834ZM102.866 226.526H113.162V233.39H102.624V231.872H111.226V228.044H102.866V226.526ZM103.438 229.21H112.436V230.662H103.438V229.21ZM111.314 237.834H113.25V242.872C113.25 243.297 113.206 243.642 113.118 243.906C113.03 244.155 112.839 244.353 112.546 244.5C112.267 244.647 111.923 244.735 111.512 244.764C111.116 244.793 110.647 244.808 110.104 244.808C110.089 244.544 110.031 244.258 109.928 243.95C109.84 243.627 109.737 243.341 109.62 243.092C109.957 243.107 110.258 243.114 110.522 243.114C110.786 243.114 110.969 243.107 111.072 243.092C111.16 243.092 111.219 243.077 111.248 243.048C111.292 243.004 111.314 242.931 111.314 242.828V237.834ZM101.414 234.424H114.79V238.098H112.854V236.03H103.262V238.098H101.414V234.424ZM125.856 225.932H128.012V229.034H125.856V225.932ZM125.856 238.626H128.012V246.392H125.856V238.626ZM117.144 240.21H136.9V242.146H117.144V240.21ZM117.826 228.264H136.24V230.156H117.826V228.264ZM134.304 230.618L136.152 231.542C135.595 232.055 134.993 232.554 134.348 233.038C133.717 233.507 133.138 233.918 132.61 234.27L131.092 233.434C131.444 233.185 131.818 232.899 132.214 232.576C132.61 232.253 132.991 231.923 133.358 231.586C133.725 231.234 134.04 230.911 134.304 230.618ZM125.57 229.672L127.352 230.332C126.927 230.904 126.479 231.476 126.01 232.048C125.555 232.62 125.13 233.111 124.734 233.522L123.392 232.928C123.641 232.635 123.898 232.297 124.162 231.916C124.441 231.52 124.705 231.124 124.954 230.728C125.203 230.332 125.409 229.98 125.57 229.672ZM128.826 231.322L130.454 232.092C129.867 232.796 129.222 233.529 128.518 234.292C127.829 235.04 127.125 235.766 126.406 236.47C125.702 237.159 125.035 237.768 124.404 238.296L123.172 237.614C123.803 237.057 124.463 236.419 125.152 235.7C125.841 234.967 126.509 234.219 127.154 233.456C127.814 232.693 128.371 231.982 128.826 231.322ZM122.38 233.038L123.392 231.828C123.817 232.077 124.265 232.363 124.734 232.686C125.218 233.009 125.673 233.331 126.098 233.654C126.523 233.962 126.868 234.248 127.132 234.512L126.098 235.898C125.834 235.619 125.489 235.311 125.064 234.974C124.653 234.637 124.213 234.299 123.744 233.962C123.275 233.61 122.82 233.302 122.38 233.038ZM122.138 236.976C122.857 236.947 123.678 236.917 124.602 236.888C125.541 236.844 126.531 236.793 127.572 236.734C128.613 236.675 129.662 236.624 130.718 236.58V238.076C129.237 238.208 127.77 238.325 126.318 238.428C124.866 238.531 123.575 238.626 122.446 238.714L122.138 236.976ZM128.1 235.216L129.596 234.556C129.933 234.952 130.278 235.392 130.63 235.876C130.982 236.36 131.297 236.837 131.576 237.306C131.869 237.761 132.089 238.179 132.236 238.56L130.652 239.33C130.505 238.949 130.3 238.523 130.036 238.054C129.772 237.57 129.471 237.079 129.134 236.58C128.797 236.081 128.452 235.627 128.1 235.216ZM116.99 237.394C117.694 237.159 118.537 236.844 119.52 236.448C120.503 236.037 121.507 235.634 122.534 235.238L122.908 236.778C122.072 237.189 121.221 237.599 120.356 238.01C119.505 238.406 118.721 238.765 118.002 239.088L116.99 237.394ZM117.716 232.026L119.102 230.882C119.498 231.087 119.916 231.329 120.356 231.608C120.796 231.887 121.214 232.165 121.61 232.444C122.006 232.723 122.329 232.987 122.578 233.236L121.126 234.49C120.891 234.255 120.576 233.991 120.18 233.698C119.799 233.39 119.395 233.089 118.97 232.796C118.545 232.503 118.127 232.246 117.716 232.026ZM130.63 236.162L132.06 235.018C132.603 235.282 133.182 235.59 133.798 235.942C134.414 236.279 135.001 236.624 135.558 236.976C136.115 237.328 136.577 237.658 136.944 237.966L135.426 239.242C135.089 238.949 134.649 238.619 134.106 238.252C133.563 237.885 132.984 237.519 132.368 237.152C131.767 236.785 131.187 236.455 130.63 236.162Z" fill="white"/>
<path d="M33.385 167.21C27.9217 167.173 23.1 166.165 18.92 164.185C14.7767 162.205 11.5133 159.437 9.13 155.88C6.74667 152.287 5.46333 148.033 5.28 143.12H15.455C16.225 148.07 18.2417 151.865 21.505 154.505C24.7683 157.145 28.8567 158.465 33.77 158.465C37.6567 158.465 41.0483 157.86 43.945 156.65C46.8417 155.403 49.0783 153.698 50.655 151.535C52.2317 149.372 53.02 146.842 53.02 143.945C53.02 140.755 52.14 138.06 50.38 135.86C48.62 133.66 46.2183 131.992 43.175 130.855C40.1317 129.682 36.74 129.077 33 129.04L25.85 128.875V120.24L32.67 120.075C36.1533 120.002 39.27 119.342 42.02 118.095C44.77 116.812 46.9333 115.143 48.51 113.09C50.1233 111 50.93 108.708 50.93 106.215C50.93 104.015 50.2517 101.98 48.895 100.11C47.5383 98.2033 45.5767 96.6817 43.01 95.545C40.48 94.4083 37.4 93.84 33.77 93.84C30.91 93.84 28.1783 94.4083 25.575 95.545C22.9717 96.645 20.8267 98.35 19.14 100.66C17.4533 102.97 16.555 105.958 16.445 109.625H6.325C6.325 104.492 7.57167 100.128 10.065 96.535C12.5583 92.905 15.8767 90.1367 20.02 88.23C24.2 86.3233 28.8017 85.37 33.825 85.37C39.325 85.37 44.1833 86.1767 48.4 87.79C52.6167 89.3667 55.9167 91.6767 58.3 94.72C60.6833 97.7633 61.875 101.485 61.875 105.885C61.875 109.808 60.6283 113.365 58.135 116.555C55.6417 119.708 51.8283 122.183 46.695 123.98C50.1783 124.933 53.2217 126.327 55.825 128.16C58.4283 129.993 60.445 132.248 61.875 134.925C63.305 137.565 64.02 140.608 64.02 144.055C64.02 147.685 63.25 150.948 61.71 153.845C60.2067 156.705 58.08 159.143 55.33 161.16C52.58 163.14 49.335 164.662 45.595 165.725C41.855 166.752 37.785 167.247 33.385 167.21ZM102.028 167.21C96.5642 167.173 91.7426 166.165 87.5626 164.185C83.4192 162.205 80.1559 159.437 77.7726 155.88C75.3892 152.287 74.1059 148.033 73.9226 143.12H84.0976C84.8676 148.07 86.8842 151.865 90.1476 154.505C93.4109 157.145 97.4992 158.465 102.413 158.465C106.299 158.465 109.691 157.86 112.588 156.65C115.484 155.403 117.721 153.698 119.298 151.535C120.874 149.372 121.663 146.842 121.663 143.945C121.663 140.755 120.783 138.06 119.023 135.86C117.263 133.66 114.861 131.992 111.818 130.855C108.774 129.682 105.383 129.077 101.643 129.04L94.4926 128.875V120.24L101.313 120.075C104.796 120.002 107.913 119.342 110.663 118.095C113.413 116.812 115.576 115.143 117.153 113.09C118.766 111 119.573 108.708 119.573 106.215C119.573 104.015 118.894 101.98 117.538 100.11C116.181 98.2033 114.219 96.6817 111.653 95.545C109.123 94.4083 106.043 93.84 102.413 93.84C99.5526 93.84 96.8209 94.4083 94.2176 95.545C91.6142 96.645 89.4692 98.35 87.7826 100.66C86.0959 102.97 85.1976 105.958 85.0876 109.625H74.9676C74.9676 104.492 76.2142 100.128 78.7076 96.535C81.2009 92.905 84.5192 90.1367 88.6626 88.23C92.8426 86.3233 97.4442 85.37 102.468 85.37C107.968 85.37 112.826 86.1767 117.043 87.79C121.259 89.3667 124.559 91.6767 126.943 94.72C129.326 97.7633 130.518 101.485 130.518 105.885C130.518 109.808 129.271 113.365 126.778 116.555C124.284 119.708 120.471 122.183 115.338 123.98C118.821 124.933 121.864 126.327 124.468 128.16C127.071 129.993 129.088 132.248 130.518 134.925C131.948 137.565 132.663 140.608 132.663 144.055C132.663 147.685 131.893 150.948 130.353 153.845C128.849 156.705 126.723 159.143 123.973 161.16C121.223 163.14 117.978 164.662 114.238 165.725C110.498 166.752 106.428 167.247 102.028 167.21Z" fill="#274374"/>
<path d="M149.499 151.093C148.339 151.093 147.315 150.786 146.427 150.172C145.54 149.535 144.846 148.625 144.345 147.441C143.867 146.235 143.629 144.791 143.629 143.107C143.629 141.423 143.867 140.001 144.345 138.841C144.846 137.657 145.54 136.759 146.427 136.144C147.315 135.53 148.339 135.223 149.499 135.223C150.682 135.223 151.717 135.53 152.605 136.144C153.492 136.759 154.175 137.657 154.653 138.841C155.153 140.001 155.403 141.423 155.403 143.107C155.403 144.791 155.153 146.235 154.653 147.441C154.175 148.625 153.492 149.535 152.605 150.172C151.717 150.786 150.682 151.093 149.499 151.093ZM149.499 148.807C150.386 148.807 151.103 148.34 151.649 147.407C152.218 146.474 152.502 145.041 152.502 143.107C152.502 141.173 152.218 139.762 151.649 138.875C151.103 137.987 150.386 137.544 149.499 137.544C148.634 137.544 147.918 137.987 147.349 138.875C146.78 139.762 146.496 141.173 146.496 143.107C146.496 145.041 146.78 146.474 147.349 147.407C147.918 148.34 148.634 148.807 149.499 148.807ZM150.284 161.298L164.038 135.223H166.53L152.775 161.298H150.284ZM167.349 161.298C166.189 161.298 165.165 160.98 164.277 160.342C163.39 159.705 162.696 158.795 162.195 157.612C161.717 156.429 161.479 154.995 161.479 153.312C161.479 151.605 161.717 150.172 162.195 149.011C162.696 147.851 163.39 146.964 164.277 146.349C165.165 145.712 166.189 145.394 167.349 145.394C168.509 145.394 169.533 145.712 170.421 146.349C171.308 146.964 171.991 147.851 172.468 149.011C172.969 150.172 173.219 151.605 173.219 153.312C173.219 154.995 172.969 156.429 172.468 157.612C171.991 158.795 171.308 159.705 170.421 160.342C169.533 160.98 168.509 161.298 167.349 161.298ZM167.349 158.943C168.214 158.943 168.93 158.488 169.499 157.578C170.091 156.668 170.387 155.246 170.387 153.312C170.387 151.355 170.091 149.933 169.499 149.045C168.93 148.158 168.214 147.714 167.349 147.714C166.484 147.714 165.768 148.158 165.199 149.045C164.63 149.933 164.345 151.355 164.345 153.312C164.345 155.246 164.63 156.668 165.199 157.578C165.768 158.488 166.484 158.943 167.349 158.943Z" fill="#274374"/>
<path d="M20.46 377.5V314.195H5.115V307.54C9.88167 307.54 13.585 307.192 16.225 306.495C18.865 305.798 20.735 304.735 21.835 303.305C22.9717 301.875 23.595 300.097 23.705 297.97H30.965V377.5H20.46ZM78.3999 378.71C69.7099 378.71 62.8166 375.3 57.7199 368.48C52.6233 361.623 50.0749 351.485 50.0749 338.065C50.0749 329.008 51.2483 321.418 53.5949 315.295C55.9416 309.172 59.2416 304.57 63.4949 301.49C67.7483 298.41 72.7533 296.87 78.5099 296.87C87.1266 296.87 93.9833 300.335 99.0799 307.265C104.213 314.158 106.78 324.37 106.78 337.9C106.78 351.357 104.232 361.532 99.1349 368.425C94.0383 375.282 87.1266 378.71 78.3999 378.71ZM78.5099 369.91C84.1933 369.91 88.4833 367.417 91.3799 362.43C94.3133 357.407 95.7799 349.248 95.7799 337.955C95.7799 326.442 94.2949 318.155 91.3249 313.095C88.3916 307.998 84.1016 305.45 78.4549 305.45C72.8449 305.45 68.5183 308.017 65.4749 313.15C62.4683 318.247 60.9649 326.515 60.9649 337.955C60.9649 349.212 62.4683 357.352 65.4749 362.375C68.4816 367.398 72.8266 369.91 78.5099 369.91ZM145.109 378.71C136.419 378.71 129.526 375.3 124.429 368.48C119.332 361.623 116.784 351.485 116.784 338.065C116.784 329.008 117.957 321.418 120.304 315.295C122.651 309.172 125.951 304.57 130.204 301.49C134.457 298.41 139.462 296.87 145.219 296.87C153.836 296.87 160.692 300.335 165.789 307.265C170.922 314.158 173.489 324.37 173.489 337.9C173.489 351.357 170.941 361.532 165.844 368.425C160.747 375.282 153.836 378.71 145.109 378.71ZM145.219 369.91C150.902 369.91 155.192 367.417 158.089 362.43C161.022 357.407 162.489 349.248 162.489 337.955C162.489 326.442 161.004 318.155 158.034 313.095C155.101 307.998 150.811 305.45 145.164 305.45C139.554 305.45 135.227 308.017 132.184 313.15C129.177 318.247 127.674 326.515 127.674 337.955C127.674 349.212 129.177 357.352 132.184 362.375C135.191 367.398 139.536 369.91 145.219 369.91Z" fill="#274374"/>
<path d="M193.499 362.593C192.339 362.593 191.315 362.286 190.427 361.672C189.54 361.035 188.846 360.125 188.345 358.941C187.867 357.735 187.629 356.291 187.629 354.607C187.629 352.923 187.867 351.501 188.345 350.341C188.846 349.157 189.54 348.259 190.427 347.644C191.315 347.03 192.339 346.723 193.499 346.723C194.682 346.723 195.717 347.03 196.605 347.644C197.492 348.259 198.175 349.157 198.653 350.341C199.153 351.501 199.403 352.923 199.403 354.607C199.403 356.291 199.153 357.735 198.653 358.941C198.175 360.125 197.492 361.035 196.605 361.672C195.717 362.286 194.682 362.593 193.499 362.593ZM193.499 360.307C194.386 360.307 195.103 359.84 195.649 358.907C196.218 357.974 196.502 356.541 196.502 354.607C196.502 352.673 196.218 351.262 195.649 350.375C195.103 349.487 194.386 349.044 193.499 349.044C192.634 349.044 191.918 349.487 191.349 350.375C190.78 351.262 190.496 352.673 190.496 354.607C190.496 356.541 190.78 357.974 191.349 358.907C191.918 359.84 192.634 360.307 193.499 360.307ZM194.284 372.798L208.038 346.723H210.53L196.775 372.798H194.284ZM211.349 372.798C210.189 372.798 209.165 372.48 208.277 371.842C207.39 371.205 206.696 370.295 206.195 369.112C205.717 367.929 205.479 366.495 205.479 364.812C205.479 363.105 205.717 361.672 206.195 360.511C206.696 359.351 207.39 358.464 208.277 357.849C209.165 357.212 210.189 356.894 211.349 356.894C212.509 356.894 213.533 357.212 214.421 357.849C215.308 358.464 215.991 359.351 216.468 360.511C216.969 361.672 217.219 363.105 217.219 364.812C217.219 366.495 216.969 367.929 216.468 369.112C215.991 370.295 215.308 371.205 214.421 371.842C213.533 372.48 212.509 372.798 211.349 372.798ZM211.349 370.443C212.214 370.443 212.93 369.988 213.499 369.078C214.091 368.168 214.387 366.746 214.387 364.812C214.387 362.855 214.091 361.433 213.499 360.545C212.93 359.658 212.214 359.214 211.349 359.214C210.484 359.214 209.768 359.658 209.199 360.545C208.63 361.433 208.345 362.855 208.345 364.812C208.345 366.746 208.63 368.168 209.199 369.078C209.768 369.988 210.484 370.443 211.349 370.443Z" fill="#274374"/>
<g clip-path="url(#clip0_1177_43082)">
<path d="M271.514 223.15L267.405 219.041L271.939 214.507C274.444 212.002 274.444 207.944 271.939 205.439C269.434 202.934 265.376 202.934 262.871 205.439L258.337 209.973L254.228 205.864C251.803 203.439 247.869 203.439 245.444 205.864L242.661 208.647C241.618 209.69 241.613 211.384 242.661 212.433L264.951 234.722C265.994 235.765 267.688 235.771 268.737 234.722L271.519 231.94C273.945 229.514 273.945 225.581 271.519 223.155L271.514 223.15Z" fill="url(#paint0_linear_1177_43082)"/>
<path d="M262.389 236.695L240.683 214.989C237.6 211.906 232.602 211.906 229.519 214.989L194.784 249.724C191.701 252.807 191.701 257.805 194.784 260.888L216.484 282.589C219.567 285.672 224.565 285.672 227.649 282.589L262.384 247.853C265.467 244.77 265.467 239.772 262.384 236.689L262.389 236.695ZM222.916 267.497L209.881 254.462C209.411 253.991 209.411 253.232 209.881 252.761C210.352 252.291 211.111 252.291 211.582 252.761L224.616 265.796C225.087 266.267 225.087 267.026 224.616 267.497C224.146 267.967 223.387 267.967 222.916 267.497ZM222.916 243.127C223.387 242.657 224.146 242.657 224.616 243.127L234.251 252.761C234.721 253.232 234.721 253.991 234.251 254.462C233.781 254.932 233.021 254.932 232.551 254.462L222.916 244.827C222.446 244.357 222.446 243.597 222.916 243.127ZM245.586 244.827L232.551 231.792C232.08 231.322 232.08 230.562 232.551 230.092C233.021 229.622 233.781 229.622 234.251 230.092L247.286 243.127C247.756 243.597 247.756 244.357 247.286 244.827C246.815 245.298 246.056 245.298 245.586 244.827Z" fill="url(#paint1_linear_1177_43082)"/>
</g>
<defs>
<linearGradient id="paint0_linear_1177_43082" x1="268.074" y1="235.873" x2="252.749" y2="196.961" gradientUnits="userSpaceOnUse">
<stop stop-color="#3975BF"/>
<stop offset="1" stop-color="#ADADAD"/>
</linearGradient>
<linearGradient id="paint1_linear_1177_43082" x1="240.615" y1="279.347" x2="213.662" y2="210.908" gradientUnits="userSpaceOnUse">
<stop stop-color="#3975BF"/>
<stop offset="1" stop-color="#ADADAD"/>
</linearGradient>
<clipPath id="clip0_1177_43082">
<rect width="46.486" height="93.7735" fill="white" transform="translate(255.503 189.004) rotate(45)"/>
</clipPath>
</defs>
</svg>
