<svg width="351" height="235" viewBox="0 0 351 235" fill="none" xmlns="http://www.w3.org/2000/svg">
<path d="M217 0H136C122.193 0 111 11.1929 111 25C111 38.8071 122.193 50 136 50H217C230.807 50 242 38.8071 242 25C242 11.1929 230.807 0 217 0Z" fill="#274374"/>
<path d="M137.302 20.922V22.946H148.61V20.922H137.302ZM137.302 17.314V19.272H148.61V17.314H137.302ZM135.212 15.554H150.788V24.684H135.212V15.554ZM141.856 16.368H143.968V23.826H141.856V16.368ZM133.562 26.576H150.304V28.446H133.562V26.576ZM149.402 26.576H151.536C151.536 26.576 151.529 26.6273 151.514 26.73C151.514 26.8327 151.507 26.95 151.492 27.082C151.477 27.214 151.463 27.3313 151.448 27.434C151.331 28.798 151.199 29.9273 151.052 30.822C150.905 31.702 150.737 32.3987 150.546 32.912C150.37 33.4253 150.165 33.7993 149.93 34.034C149.651 34.2833 149.358 34.452 149.05 34.54C148.757 34.6427 148.397 34.7087 147.972 34.738C147.605 34.7673 147.107 34.7747 146.476 34.76C145.86 34.76 145.2 34.7453 144.496 34.716C144.467 34.4227 144.393 34.0927 144.276 33.726C144.159 33.374 144.005 33.0733 143.814 32.824C144.518 32.8827 145.185 32.9193 145.816 32.934C146.461 32.9487 146.916 32.956 147.18 32.956C147.429 32.956 147.627 32.9413 147.774 32.912C147.921 32.8827 148.053 32.824 148.17 32.736C148.346 32.5893 148.507 32.296 148.654 31.856C148.801 31.4013 148.933 30.7707 149.05 29.964C149.182 29.1427 149.299 28.1087 149.402 26.862V26.576ZM141.526 24.332H143.704C143.572 25.3293 143.396 26.2827 143.176 27.192C142.956 28.0867 142.641 28.9227 142.23 29.7C141.819 30.4773 141.262 31.196 140.558 31.856C139.854 32.5013 138.959 33.0733 137.874 33.572C136.789 34.0707 135.469 34.496 133.914 34.848C133.855 34.6573 133.76 34.452 133.628 34.232C133.511 34.012 133.379 33.792 133.232 33.572C133.085 33.352 132.946 33.176 132.814 33.044C134.251 32.7507 135.461 32.3987 136.444 31.988C137.427 31.5627 138.226 31.086 138.842 30.558C139.473 30.0153 139.964 29.4213 140.316 28.776C140.668 28.1307 140.932 27.4413 141.108 26.708C141.284 25.96 141.423 25.168 141.526 24.332ZM155.056 19.58H175.01V21.67H155.056V19.58ZM163.13 14.432L165.396 14.828C164.971 15.9867 164.501 17.204 163.988 18.48C163.489 19.756 162.976 21.032 162.448 22.308C161.92 23.584 161.399 24.8013 160.886 25.96C160.373 27.1187 159.896 28.1673 159.456 29.106L157.366 28.336C157.806 27.456 158.275 26.444 158.774 25.3C159.287 24.156 159.801 22.9607 160.314 21.714C160.827 20.4527 161.326 19.1987 161.81 17.952C162.309 16.7053 162.749 15.532 163.13 14.432ZM169.488 20.57L171.732 21.076C171.321 23.276 170.742 25.168 169.994 26.752C169.246 28.336 168.271 29.6707 167.068 30.756C165.88 31.8267 164.406 32.692 162.646 33.352C160.886 34.0267 158.781 34.54 156.332 34.892C156.244 34.5693 156.09 34.2173 155.87 33.836C155.665 33.4547 155.452 33.132 155.232 32.868C157.549 32.5747 159.529 32.142 161.172 31.57C162.815 30.998 164.179 30.2353 165.264 29.282C166.364 28.314 167.251 27.1187 167.926 25.696C168.601 24.2587 169.121 22.55 169.488 20.57ZM158.642 27.676L160.028 26.048C161.245 26.4587 162.529 26.9353 163.878 27.478C165.242 28.0207 166.584 28.6073 167.904 29.238C169.224 29.854 170.456 30.492 171.6 31.152C172.759 31.7973 173.741 32.4207 174.548 33.022L172.986 34.958C172.238 34.3567 171.307 33.7187 170.192 33.044C169.077 32.384 167.867 31.7313 166.562 31.086C165.257 30.426 163.922 29.8027 162.558 29.216C161.209 28.6293 159.903 28.116 158.642 27.676ZM180.906 21.12H186.538V23.144H180.906V21.12ZM179.674 14.608H181.83V32.494L179.674 33V14.608ZM176.792 32.208C177.672 32.0613 178.669 31.8707 179.784 31.636C180.913 31.4013 182.094 31.152 183.326 30.888C184.573 30.6093 185.812 30.338 187.044 30.074L187.242 32.076C186.098 32.34 184.947 32.6113 183.788 32.89C182.629 33.1687 181.507 33.4327 180.422 33.682C179.337 33.9313 178.332 34.1587 177.408 34.364L176.792 32.208ZM195.228 19.25L196.724 21.032C196.02 21.4427 195.25 21.8533 194.414 22.264C193.593 22.6747 192.749 23.0633 191.884 23.43C191.019 23.7967 190.183 24.1487 189.376 24.486C189.303 24.2367 189.193 23.9507 189.046 23.628C188.914 23.3053 188.775 23.034 188.628 22.814C189.42 22.4913 190.219 22.132 191.026 21.736C191.833 21.3253 192.595 20.9073 193.314 20.482C194.047 20.0567 194.685 19.646 195.228 19.25ZM188.012 14.608H190.146V30.998C190.146 31.614 190.212 32.01 190.344 32.186C190.476 32.362 190.784 32.45 191.268 32.45C191.371 32.45 191.554 32.45 191.818 32.45C192.097 32.45 192.397 32.45 192.72 32.45C193.043 32.45 193.343 32.45 193.622 32.45C193.901 32.45 194.106 32.45 194.238 32.45C194.561 32.45 194.795 32.34 194.942 32.12C195.103 31.9 195.221 31.5113 195.294 30.954C195.367 30.382 195.426 29.5753 195.47 28.534C195.734 28.7247 196.049 28.908 196.416 29.084C196.783 29.2453 197.12 29.37 197.428 29.458C197.355 30.6753 197.223 31.6507 197.032 32.384C196.841 33.1027 196.541 33.6233 196.13 33.946C195.719 34.2833 195.147 34.452 194.414 34.452C194.311 34.452 194.143 34.452 193.908 34.452C193.688 34.452 193.431 34.452 193.138 34.452C192.845 34.452 192.551 34.452 192.258 34.452C191.965 34.452 191.708 34.452 191.488 34.452C191.268 34.452 191.107 34.452 191.004 34.452C190.227 34.452 189.618 34.3493 189.178 34.144C188.753 33.9387 188.452 33.5793 188.276 33.066C188.1 32.5673 188.012 31.8707 188.012 30.976V14.608ZM207.856 14.432H210.012V17.534H207.856V14.432ZM207.856 27.126H210.012V34.892H207.856V27.126ZM199.144 28.71H218.9V30.646H199.144V28.71ZM199.826 16.764H218.24V18.656H199.826V16.764ZM216.304 19.118L218.152 20.042C217.595 20.5553 216.993 21.054 216.348 21.538C215.717 22.0073 215.138 22.418 214.61 22.77L213.092 21.934C213.444 21.6847 213.818 21.3987 214.214 21.076C214.61 20.7533 214.991 20.4233 215.358 20.086C215.725 19.734 216.04 19.4113 216.304 19.118ZM207.57 18.172L209.352 18.832C208.927 19.404 208.479 19.976 208.01 20.548C207.555 21.12 207.13 21.6113 206.734 22.022L205.392 21.428C205.641 21.1347 205.898 20.7973 206.162 20.416C206.441 20.02 206.705 19.624 206.954 19.228C207.203 18.832 207.409 18.48 207.57 18.172ZM210.826 19.822L212.454 20.592C211.867 21.296 211.222 22.0293 210.518 22.792C209.829 23.54 209.125 24.266 208.406 24.97C207.702 25.6593 207.035 26.268 206.404 26.796L205.172 26.114C205.803 25.5567 206.463 24.9187 207.152 24.2C207.841 23.4667 208.509 22.7187 209.154 21.956C209.814 21.1933 210.371 20.482 210.826 19.822ZM204.38 21.538L205.392 20.328C205.817 20.5773 206.265 20.8633 206.734 21.186C207.218 21.5087 207.673 21.8313 208.098 22.154C208.523 22.462 208.868 22.748 209.132 23.012L208.098 24.398C207.834 24.1193 207.489 23.8113 207.064 23.474C206.653 23.1367 206.213 22.7993 205.744 22.462C205.275 22.11 204.82 21.802 204.38 21.538ZM204.138 25.476C204.857 25.4467 205.678 25.4173 206.602 25.388C207.541 25.344 208.531 25.2927 209.572 25.234C210.613 25.1753 211.662 25.124 212.718 25.08V26.576C211.237 26.708 209.77 26.8253 208.318 26.928C206.866 27.0307 205.575 27.126 204.446 27.214L204.138 25.476ZM210.1 23.716L211.596 23.056C211.933 23.452 212.278 23.892 212.63 24.376C212.982 24.86 213.297 25.3367 213.576 25.806C213.869 26.2607 214.089 26.6787 214.236 27.06L212.652 27.83C212.505 27.4487 212.3 27.0233 212.036 26.554C211.772 26.07 211.471 25.5787 211.134 25.08C210.797 24.5813 210.452 24.1267 210.1 23.716ZM198.99 25.894C199.694 25.6593 200.537 25.344 201.52 24.948C202.503 24.5373 203.507 24.134 204.534 23.738L204.908 25.278C204.072 25.6887 203.221 26.0993 202.356 26.51C201.505 26.906 200.721 27.2653 200.002 27.588L198.99 25.894ZM199.716 20.526L201.102 19.382C201.498 19.5873 201.916 19.8293 202.356 20.108C202.796 20.3867 203.214 20.6653 203.61 20.944C204.006 21.2227 204.329 21.4867 204.578 21.736L203.126 22.99C202.891 22.7553 202.576 22.4913 202.18 22.198C201.799 21.89 201.395 21.5893 200.97 21.296C200.545 21.0027 200.127 20.746 199.716 20.526ZM212.63 24.662L214.06 23.518C214.603 23.782 215.182 24.09 215.798 24.442C216.414 24.7793 217.001 25.124 217.558 25.476C218.115 25.828 218.577 26.158 218.944 26.466L217.426 27.742C217.089 27.4487 216.649 27.1187 216.106 26.752C215.563 26.3853 214.984 26.0187 214.368 25.652C213.767 25.2853 213.187 24.9553 212.63 24.662Z" fill="white"/>
<path d="M16.6 152.78C25.7679 152.78 33.2 145.348 33.2 136.18C33.2 127.012 25.7679 119.58 16.6 119.58C7.43207 119.58 0 127.012 0 136.18C0 145.348 7.43207 152.78 16.6 152.78Z" fill="url(#paint0_linear_1177_43071)"/>
<path d="M33.19 157.52H0V190.71H33.19V157.52Z" fill="url(#paint1_linear_1177_43071)"/>
<path d="M334.4 151.2C343.568 151.2 351 143.768 351 134.6C351 125.432 343.568 118 334.4 118C325.232 118 317.8 125.432 317.8 134.6C317.8 143.768 325.232 151.2 334.4 151.2Z" fill="url(#paint2_linear_1177_43071)"/>
<path d="M351 189.129H317.81L334.4 155.939L351 189.129Z" fill="url(#paint3_linear_1177_43071)"/>
<path d="M85.249 204C85.9797 199.479 87.2812 193.885 89.1535 187.217C91.0715 180.55 93.5832 173.266 96.6885 165.366C99.7938 157.42 103.539 149.223 107.923 140.774C112.307 132.326 117.33 124.038 122.993 115.909H67.3705V104.949H136.898V115.909C133.382 120.704 129.888 126.161 126.418 132.28C122.993 138.354 119.727 144.725 116.622 151.392C113.517 158.014 110.731 164.567 108.265 171.051C105.799 177.49 103.744 183.564 102.1 189.272C100.502 194.935 99.4742 199.844 99.0175 204H85.249ZM165.885 152.077V135.979H181.024V152.077H165.885ZM165.885 203.589V187.628H181.024V203.589H165.885ZM245.905 205.507C239.101 205.461 233.096 204.206 227.89 201.74C222.729 199.273 218.665 195.826 215.697 191.396C212.728 186.921 211.13 181.623 210.902 175.504H223.574C224.533 181.669 227.045 186.395 231.109 189.683C235.173 192.971 240.265 194.615 246.385 194.615C251.225 194.615 255.449 193.862 259.057 192.355C262.665 190.802 265.45 188.679 267.414 185.984C269.378 183.29 270.36 180.139 270.36 176.531C270.36 172.558 269.264 169.202 267.072 166.462C264.88 163.722 261.888 161.644 258.098 160.228C254.308 158.767 250.084 158.014 245.426 157.968L236.521 157.762V147.008L245.015 146.802C249.353 146.711 253.235 145.889 256.66 144.336C260.085 142.738 262.779 140.66 264.743 138.103C266.752 135.5 267.757 132.646 267.757 129.54C267.757 126.8 266.912 124.266 265.222 121.937C263.532 119.562 261.089 117.667 257.893 116.251C254.742 114.836 250.906 114.128 246.385 114.128C242.823 114.128 239.42 114.836 236.178 116.251C232.936 117.621 230.264 119.745 228.164 122.622C226.063 125.499 224.944 129.221 224.807 133.787H212.203C212.203 127.394 213.756 121.96 216.861 117.484C219.966 112.963 224.099 109.516 229.26 107.141C234.466 104.766 240.197 103.579 246.453 103.579C253.303 103.579 259.354 104.584 264.606 106.593C269.857 108.557 273.967 111.434 276.936 115.224C279.904 119.014 281.388 123.649 281.388 129.129C281.388 134.016 279.835 138.445 276.73 142.418C273.625 146.346 268.875 149.428 262.482 151.666C266.82 152.853 270.611 154.589 273.853 156.872C277.095 159.155 279.607 161.964 281.388 165.298C283.169 168.585 284.06 172.376 284.06 176.668C284.06 181.189 283.101 185.254 281.183 188.861C279.31 192.423 276.662 195.46 273.237 197.972C269.812 200.438 265.77 202.333 261.112 203.657C256.454 204.936 251.385 205.553 245.905 205.507Z" fill="#274374"/>
<defs>
<linearGradient id="paint0_linear_1177_43071" x1="16.6" y1="152.77" x2="16.6" y2="119.58" gradientUnits="userSpaceOnUse">
<stop stop-color="#3975BF"/>
<stop offset="1" stop-color="#ADADAD"/>
</linearGradient>
<linearGradient id="paint1_linear_1177_43071" x1="16.6" y1="190.71" x2="16.6" y2="157.52" gradientUnits="userSpaceOnUse">
<stop stop-color="#3975BF"/>
<stop offset="1" stop-color="#ADADAD"/>
</linearGradient>
<linearGradient id="paint2_linear_1177_43071" x1="334.4" y1="151.19" x2="334.4" y2="118" gradientUnits="userSpaceOnUse">
<stop stop-color="#3975BF"/>
<stop offset="1" stop-color="#ADADAD"/>
</linearGradient>
<linearGradient id="paint3_linear_1177_43071" x1="334.4" y1="189.129" x2="334.4" y2="155.939" gradientUnits="userSpaceOnUse">
<stop stop-color="#3975BF"/>
<stop offset="1" stop-color="#ADADAD"/>
</linearGradient>
</defs>
</svg>
