<svg width="475" height="256" viewBox="0 0 475 256" fill="none" xmlns="http://www.w3.org/2000/svg">
<path d="M146 0H25C11.1929 0 0 11.1929 0 25C0 38.8071 11.1929 50 25 50H146C159.807 50 171 38.8071 171 25C171 11.1929 159.807 0 146 0Z" fill="#274374"/>
<path d="M22.244 15.862H39.69V17.93H22.244V15.862ZM21.078 25.19H40.966V27.28H21.078V25.19ZM23.696 19.382L25.588 18.832C25.8667 19.3307 26.1307 19.8733 26.38 20.46C26.644 21.032 26.8787 21.5967 27.084 22.154C27.304 22.6967 27.458 23.1807 27.546 23.606L25.544 24.266C25.4413 23.8407 25.2947 23.3493 25.104 22.792C24.928 22.2347 24.7153 21.6553 24.466 21.054C24.2167 20.4527 23.96 19.8953 23.696 19.382ZM36.368 18.744L38.59 19.338C38.326 19.91 38.04 20.4967 37.732 21.098C37.424 21.6993 37.1233 22.2787 36.83 22.836C36.5367 23.3787 36.258 23.8627 35.994 24.288L34.168 23.716C34.432 23.276 34.7033 22.77 34.982 22.198C35.2607 21.6113 35.5173 21.0173 35.752 20.416C36.0013 19.8 36.2067 19.2427 36.368 18.744ZM29.9 16.698H32.056V34.826H29.9V16.698ZM51.658 22.506H58.324V24.376H51.658V22.506ZM50.58 29.458C51.24 29.238 52.0027 28.9813 52.868 28.688C53.7333 28.3947 54.6573 28.072 55.64 27.72C56.6227 27.3533 57.598 26.994 58.566 26.642L58.94 28.424C57.6493 28.9373 56.3367 29.458 55.002 29.986C53.6673 30.514 52.4647 30.9907 51.394 31.416L50.58 29.458ZM52.626 18.018H61.382V19.998H52.626V18.018ZM60.744 18.018H62.856C62.856 18.018 62.8487 18.0913 62.834 18.238C62.834 18.37 62.834 18.5167 62.834 18.678C62.834 18.8393 62.8267 18.9713 62.812 19.074C62.7387 21.5673 62.658 23.694 62.57 25.454C62.482 27.1993 62.3793 28.6293 62.262 29.744C62.1593 30.8587 62.0273 31.7387 61.866 32.384C61.7193 33.0147 61.536 33.4693 61.316 33.748C61.052 34.1147 60.766 34.364 60.458 34.496C60.1647 34.6427 59.8053 34.7453 59.38 34.804C58.9987 34.8627 58.5 34.8847 57.884 34.87C57.268 34.87 56.63 34.8553 55.97 34.826C55.9553 34.518 55.882 34.1587 55.75 33.748C55.6327 33.352 55.4787 33.0073 55.288 32.714C55.992 32.7727 56.6373 32.8093 57.224 32.824C57.8107 32.824 58.236 32.824 58.5 32.824C58.72 32.8387 58.896 32.824 59.028 32.78C59.1747 32.7213 59.3067 32.6187 59.424 32.472C59.6 32.2813 59.754 31.8927 59.886 31.306C60.0327 30.7047 60.1573 29.8613 60.26 28.776C60.3627 27.676 60.4507 26.2827 60.524 24.596C60.612 22.9093 60.6853 20.8707 60.744 18.48V18.018ZM52.978 14.41L55.09 14.872C54.782 16.0013 54.4007 17.1013 53.946 18.172C53.4913 19.2427 52.9927 20.24 52.45 21.164C51.9073 22.088 51.3353 22.902 50.734 23.606C50.6167 23.474 50.448 23.3273 50.228 23.166C50.008 22.99 49.7807 22.8213 49.546 22.66C49.3113 22.4987 49.106 22.3667 48.93 22.264C49.8393 21.3253 50.6387 20.1667 51.328 18.788C52.0173 17.3947 52.5673 15.9353 52.978 14.41ZM43.078 19.47H50.052V21.45H43.078V19.47ZM45.652 14.63H47.676V29.128H45.652V14.63ZM42.638 29.194C43.2687 28.9593 43.9947 28.688 44.816 28.38C45.652 28.0573 46.532 27.7127 47.456 27.346C48.38 26.9793 49.2967 26.6127 50.206 26.246L50.646 28.182C49.414 28.7247 48.1527 29.2673 46.862 29.81C45.586 30.3527 44.4273 30.844 43.386 31.284L42.638 29.194ZM76.012 19.536H83.536V21.472H76.012V19.536ZM82.942 19.536H84.9C84.9 19.536 84.9 19.602 84.9 19.734C84.9 19.8513 84.8927 19.9833 84.878 20.13C84.878 20.2767 84.878 20.394 84.878 20.482C84.834 22.7847 84.7827 24.728 84.724 26.312C84.6653 27.896 84.592 29.194 84.504 30.206C84.4307 31.218 84.3353 32.0027 84.218 32.56C84.1007 33.1173 83.9613 33.5133 83.8 33.748C83.58 34.056 83.3527 34.276 83.118 34.408C82.8833 34.54 82.5973 34.628 82.26 34.672C81.9667 34.7307 81.5927 34.76 81.138 34.76C80.6833 34.76 80.1993 34.7453 79.686 34.716C79.6713 34.4373 79.6127 34.1073 79.51 33.726C79.422 33.3593 79.2973 33.044 79.136 32.78C79.6053 32.824 80.038 32.8533 80.434 32.868C80.83 32.868 81.1233 32.868 81.314 32.868C81.49 32.868 81.6293 32.846 81.732 32.802C81.8493 32.758 81.952 32.6553 82.04 32.494C82.172 32.3327 82.282 32.0027 82.37 31.504C82.458 30.9907 82.5387 30.2573 82.612 29.304C82.6853 28.336 82.744 27.0893 82.788 25.564C82.8467 24.0387 82.898 22.1833 82.942 19.998V19.536ZM78.366 14.63H80.302C80.302 16.9473 80.2727 19.118 80.214 21.142C80.1553 23.166 79.9867 25.0433 79.708 26.774C79.444 28.49 79.004 30.03 78.388 31.394C77.772 32.758 76.8993 33.9313 75.77 34.914C75.682 34.7527 75.55 34.5767 75.374 34.386C75.198 34.21 75.0147 34.034 74.824 33.858C74.648 33.682 74.4793 33.5427 74.318 33.44C75.154 32.736 75.8287 31.9147 76.342 30.976C76.87 30.0227 77.2733 28.9667 77.552 27.808C77.8307 26.6493 78.0213 25.388 78.124 24.024C78.2413 22.6453 78.3073 21.1713 78.322 19.602C78.3513 18.0327 78.366 16.3753 78.366 14.63ZM65.628 28.798H75.484V30.316H65.628V28.798ZM65.32 25.85H75.704V27.412H65.32V25.85ZM64.99 16.192H76.078V17.754H64.99V16.192ZM69.5 20.394H71.436V32.78H69.5V20.394ZM67.234 14.432H69.148V19.338H67.234V14.432ZM71.744 14.432H73.68V19.338H71.744V14.432ZM64.836 32.428C65.7453 32.3547 66.794 32.2593 67.982 32.142C69.17 32.0247 70.424 31.9 71.744 31.768C73.0787 31.6213 74.406 31.482 75.726 31.35L75.748 33.022C74.472 33.154 73.1887 33.2933 71.898 33.44C70.622 33.5867 69.3973 33.7187 68.224 33.836C67.0653 33.968 66.0093 34.0853 65.056 34.188L64.836 32.428ZM67.476 21.23V23.21H73.526V21.23H67.476ZM65.672 19.778H75.418V24.684H65.672V19.778ZM99.948 14.41H101.994V20.592H99.948V14.41ZM95.086 16.346H106.922V18.062H95.086V16.346ZM95.878 19.756H106.218V21.472H95.878V19.756ZM95.108 22.77H107.054V26.906H105.228V24.398H96.868V26.906H95.108V22.77ZM101.862 25.784H103.754V32.252C103.754 32.5307 103.776 32.714 103.82 32.802C103.879 32.8753 104.003 32.912 104.194 32.912C104.253 32.912 104.355 32.912 104.502 32.912C104.663 32.912 104.817 32.912 104.964 32.912C105.125 32.912 105.243 32.912 105.316 32.912C105.433 32.912 105.529 32.8533 105.602 32.736C105.675 32.604 105.727 32.3473 105.756 31.966C105.785 31.57 105.807 30.976 105.822 30.184C106.027 30.3453 106.291 30.4993 106.614 30.646C106.951 30.778 107.252 30.8807 107.516 30.954C107.472 31.9367 107.377 32.692 107.23 33.22C107.083 33.7627 106.871 34.1367 106.592 34.342C106.328 34.562 105.969 34.672 105.514 34.672C105.426 34.672 105.309 34.672 105.162 34.672C105.015 34.672 104.861 34.672 104.7 34.672C104.539 34.672 104.377 34.672 104.216 34.672C104.069 34.672 103.959 34.672 103.886 34.672C103.343 34.672 102.925 34.5987 102.632 34.452C102.339 34.3053 102.133 34.056 102.016 33.704C101.913 33.352 101.862 32.868 101.862 32.252V25.784ZM97.858 25.806H99.75V27.368C99.75 27.9253 99.6913 28.534 99.574 29.194C99.4713 29.8393 99.2587 30.4993 98.936 31.174C98.628 31.8487 98.1587 32.5013 97.528 33.132C96.912 33.7773 96.0833 34.3567 95.042 34.87C94.8807 34.6647 94.6607 34.4227 94.382 34.144C94.1033 33.88 93.8393 33.66 93.59 33.484C94.5433 33.0147 95.306 32.516 95.878 31.988C96.45 31.4453 96.8753 30.9027 97.154 30.36C97.4327 29.8027 97.616 29.2673 97.704 28.754C97.8067 28.226 97.858 27.7493 97.858 27.324V25.806ZM90.158 14.432L91.962 15.092C91.6833 15.6493 91.3827 16.2287 91.06 16.83C90.752 17.4167 90.4367 17.9813 90.114 18.524C89.806 19.0667 89.5127 19.5433 89.234 19.954L87.826 19.36C88.1047 18.9347 88.3833 18.436 88.662 17.864C88.9553 17.2773 89.234 16.6833 89.498 16.082C89.762 15.4807 89.982 14.9307 90.158 14.432ZM92.622 16.984L94.338 17.776C93.8247 18.5973 93.2527 19.4627 92.622 20.372C92.006 21.2813 91.3827 22.1613 90.752 23.012C90.1213 23.848 89.5273 24.5887 88.97 25.234L87.738 24.53C88.1487 24.046 88.5813 23.496 89.036 22.88C89.4907 22.2493 89.9307 21.5967 90.356 20.922C90.796 20.2327 91.2067 19.5507 91.588 18.876C91.984 18.2013 92.3287 17.5707 92.622 16.984ZM86.704 19.272L87.76 17.886C88.1413 18.238 88.53 18.6267 88.926 19.052C89.322 19.4773 89.6887 19.8953 90.026 20.306C90.3633 20.7167 90.62 21.0907 90.796 21.428L89.674 23.012C89.498 22.6453 89.2487 22.2493 88.926 21.824C88.6033 21.384 88.244 20.944 87.848 20.504C87.452 20.0493 87.0707 19.6387 86.704 19.272ZM91.808 22.132L93.304 21.516C93.5973 22 93.8833 22.528 94.162 23.1C94.4407 23.6573 94.6827 24.2 94.888 24.728C95.108 25.2413 95.2693 25.7107 95.372 26.136L93.744 26.862C93.6707 26.4367 93.5313 25.9527 93.326 25.41C93.1353 24.8673 92.908 24.31 92.644 23.738C92.38 23.166 92.1013 22.6307 91.808 22.132ZM86.55 24.134C87.518 24.0753 88.662 24.0167 89.982 23.958C91.302 23.8847 92.6587 23.804 94.052 23.716L94.074 25.432C92.7687 25.5347 91.478 25.63 90.202 25.718C88.926 25.806 87.7893 25.8867 86.792 25.96L86.55 24.134ZM92.402 27.544L93.898 27.082C94.1767 27.7127 94.4187 28.3947 94.624 29.128C94.844 29.8613 94.9833 30.4993 95.042 31.042L93.48 31.548C93.4213 31.0053 93.2893 30.36 93.084 29.612C92.8933 28.864 92.666 28.1747 92.402 27.544ZM87.716 27.17L89.432 27.456C89.3 28.4973 89.1093 29.524 88.86 30.536C88.6253 31.548 88.3393 32.406 88.002 33.11C87.8847 33.0367 87.7307 32.956 87.54 32.868C87.3493 32.7653 87.1513 32.67 86.946 32.582C86.7553 32.4793 86.594 32.406 86.462 32.362C86.7993 31.6873 87.0633 30.888 87.254 29.964C87.4593 29.04 87.6133 28.1087 87.716 27.17ZM90.092 25.014H91.896V34.848H90.092V25.014ZM113.83 14.344L115.942 14.894C115.531 15.9647 115.055 17.0207 114.512 18.062C113.969 19.0887 113.383 20.042 112.752 20.922C112.121 21.802 111.461 22.572 110.772 23.232C110.64 23.1147 110.464 22.968 110.244 22.792C110.039 22.616 109.819 22.4473 109.584 22.286C109.364 22.11 109.166 21.978 108.99 21.89C109.679 21.2887 110.325 20.592 110.926 19.8C111.527 18.9933 112.07 18.128 112.554 17.204C113.053 16.2653 113.478 15.312 113.83 14.344ZM113.83 16.984H127.932V18.986H112.818L113.83 16.984ZM112.554 22.066H127.426V24.002H114.622V28.952H112.554V22.066ZM108.968 27.918H129.054V29.942H108.968V27.918ZM119.088 18.018H121.222V34.848H119.088V18.018ZM130.77 26.048H141.726V27.764H130.77V26.048ZM130.946 18.326H141.638V19.998H130.946V18.326ZM134.818 24.288L136.754 24.706C136.402 25.4393 136.021 26.2093 135.61 27.016C135.199 27.8227 134.796 28.6 134.4 29.348C134.004 30.096 133.63 30.7633 133.278 31.35L131.452 30.756C131.789 30.1987 132.156 29.5533 132.552 28.82C132.963 28.072 133.359 27.302 133.74 26.51C134.136 25.718 134.495 24.9773 134.818 24.288ZM138.03 27.148L139.966 27.368C139.761 28.468 139.46 29.4287 139.064 30.25C138.668 31.0713 138.14 31.7753 137.48 32.362C136.82 32.9487 136.013 33.44 135.06 33.836C134.121 34.2467 133.007 34.5913 131.716 34.87C131.657 34.5767 131.54 34.2687 131.364 33.946C131.203 33.6233 131.027 33.352 130.836 33.132C132.347 32.8973 133.586 32.5527 134.554 32.098C135.537 31.6287 136.299 30.9907 136.842 30.184C137.399 29.3773 137.795 28.3653 138.03 27.148ZM139.482 14.784L141.264 15.51C140.927 16.0087 140.582 16.5073 140.23 17.006C139.893 17.5047 139.577 17.9373 139.284 18.304L137.898 17.666C138.177 17.27 138.463 16.8007 138.756 16.258C139.064 15.7007 139.306 15.2093 139.482 14.784ZM135.346 14.41H137.282V24.574H135.346V14.41ZM131.65 15.51L133.19 14.872C133.498 15.312 133.777 15.796 134.026 16.324C134.29 16.8373 134.473 17.2847 134.576 17.666L132.97 18.392C132.882 17.996 132.713 17.534 132.464 17.006C132.215 16.4633 131.943 15.9647 131.65 15.51ZM135.412 19.118L136.776 19.932C136.409 20.5333 135.947 21.142 135.39 21.758C134.847 22.3593 134.253 22.9167 133.608 23.43C132.977 23.9433 132.347 24.376 131.716 24.728C131.599 24.4933 131.437 24.222 131.232 23.914C131.027 23.606 130.821 23.3567 130.616 23.166C131.232 22.9167 131.841 22.5793 132.442 22.154C133.058 21.7287 133.623 21.252 134.136 20.724C134.664 20.196 135.089 19.6607 135.412 19.118ZM137.084 19.822C137.275 19.9247 137.553 20.0933 137.92 20.328C138.301 20.548 138.705 20.79 139.13 21.054C139.57 21.3033 139.966 21.5453 140.318 21.78C140.685 22 140.941 22.1687 141.088 22.286L139.966 23.738C139.775 23.562 139.511 23.3347 139.174 23.056C138.837 22.7773 138.47 22.4913 138.074 22.198C137.693 21.89 137.319 21.604 136.952 21.34C136.6 21.0613 136.307 20.8413 136.072 20.68L137.084 19.822ZM143.266 18.458H151.208V20.372H143.266V18.458ZM143.662 14.41L145.774 14.718C145.539 16.1847 145.239 17.6 144.872 18.964C144.505 20.328 144.065 21.5893 143.552 22.748C143.039 23.9067 142.452 24.926 141.792 25.806C141.689 25.674 141.535 25.52 141.33 25.344C141.125 25.168 140.912 24.992 140.692 24.816C140.472 24.6253 140.281 24.4787 140.12 24.376C140.751 23.5987 141.293 22.6893 141.748 21.648C142.203 20.592 142.591 19.448 142.914 18.216C143.237 16.984 143.486 15.7153 143.662 14.41ZM147.864 19.602L149.976 19.8C149.639 22.3227 149.125 24.5447 148.436 26.466C147.761 28.3873 146.83 30.0447 145.642 31.438C144.469 32.8167 142.958 33.9753 141.11 34.914C141.051 34.7527 140.949 34.5473 140.802 34.298C140.655 34.0633 140.501 33.8287 140.34 33.594C140.179 33.3593 140.032 33.176 139.9 33.044C141.601 32.252 142.987 31.2473 144.058 30.03C145.143 28.798 145.979 27.3167 146.566 25.586C147.167 23.8553 147.6 21.8607 147.864 19.602ZM144.41 20.064C144.718 22.0147 145.158 23.848 145.73 25.564C146.317 27.2653 147.072 28.7613 147.996 30.052C148.935 31.328 150.086 32.3253 151.45 33.044C151.289 33.176 151.113 33.3447 150.922 33.55C150.731 33.77 150.555 33.99 150.394 34.21C150.233 34.43 150.093 34.6353 149.976 34.826C148.524 33.9753 147.314 32.846 146.346 31.438C145.378 30.0153 144.586 28.3727 143.97 26.51C143.369 24.6327 142.885 22.5867 142.518 20.372L144.41 20.064ZM133.036 30.602L134.158 29.172C135.023 29.5093 135.889 29.8907 136.754 30.316C137.619 30.7267 138.419 31.1593 139.152 31.614C139.9 32.054 140.531 32.472 141.044 32.868L139.614 34.364C139.13 33.9533 138.536 33.5207 137.832 33.066C137.128 32.6113 136.365 32.1713 135.544 31.746C134.723 31.3207 133.887 30.9393 133.036 30.602Z" fill="white"/>
<path d="M49.251 226.507C41.579 226.507 34.9117 224.52 29.249 220.547C23.632 216.574 19.2708 210.912 16.1655 203.559C13.1058 196.161 11.576 187.302 11.576 176.981C11.576 166.387 13.0602 157.162 16.0285 149.307C19.0425 141.453 23.4265 135.379 29.1805 131.086C34.9345 126.748 41.99 124.579 50.347 124.579C55.827 124.579 60.8732 125.606 65.4855 127.661C70.1435 129.716 74.0023 132.662 77.062 136.498C80.1217 140.334 82.0168 144.969 82.7475 150.403H70.8285C69.5042 145.7 67.1067 141.978 63.636 139.238C60.1653 136.498 55.8042 135.128 50.5525 135.128C44.7072 135.128 39.8208 136.795 35.8935 140.128C32.0118 143.416 29.1805 148.257 27.3995 154.65C25.6185 160.998 25.002 168.807 25.55 178.077C26.783 174.744 28.6553 171.821 31.167 169.309C33.7243 166.752 36.6927 164.788 40.072 163.418C43.4513 162.003 47.1047 161.295 51.032 161.295C57.5623 161.295 63.2707 162.574 68.157 165.131C73.0433 167.643 76.8565 171.25 79.5965 175.954C82.3365 180.612 83.7065 186.183 83.7065 192.668C83.7065 199.29 82.2908 205.158 79.4595 210.272C76.6738 215.341 72.7008 219.314 67.5405 222.191C62.3802 225.069 56.2837 226.507 49.251 226.507ZM49.114 216.026C53.1783 216.026 56.786 215.067 59.937 213.149C63.088 211.231 65.554 208.56 67.335 205.135C69.1617 201.71 70.075 197.76 70.075 193.284C70.075 188.763 69.253 184.882 67.609 181.639C66.0107 178.397 63.636 175.908 60.485 174.173C57.334 172.438 53.498 171.57 48.977 171.57C45.3693 171.57 41.8987 172.438 38.565 174.173C35.277 175.863 32.5827 178.1 30.482 180.886C28.427 183.672 27.3995 186.754 27.3995 190.133C27.3538 195.157 28.2215 199.632 30.0025 203.559C31.8292 207.441 34.3865 210.501 37.6745 212.738C40.9625 214.93 44.7757 216.026 49.114 216.026Z" fill="#274374"/>
<path d="M152.39 225C152.763 222.69 153.428 219.832 154.385 216.425C155.365 213.018 156.648 209.297 158.235 205.26C159.822 201.2 161.735 197.012 163.975 192.695C166.215 188.378 168.782 184.143 171.675 179.99H143.255V174.39H178.78V179.99C176.983 182.44 175.198 185.228 173.425 188.355C171.675 191.458 170.007 194.713 168.42 198.12C166.833 201.503 165.41 204.852 164.15 208.165C162.89 211.455 161.84 214.558 161 217.475C160.183 220.368 159.658 222.877 159.425 225H152.39Z" fill="#274374"/>
<path d="M101.444 193.878L104.721 194.731C104.084 196.392 103.344 198.031 102.502 199.646C101.661 201.239 100.75 202.718 99.772 204.083C98.7936 205.448 97.7697 206.643 96.7003 207.667C96.4955 207.485 96.2225 207.257 95.8812 206.984C95.5626 206.711 95.2213 206.449 94.8573 206.199C94.516 205.926 94.2088 205.721 93.9358 205.585C95.0052 204.652 96.0063 203.571 96.9392 202.342C97.8721 201.091 98.714 199.748 99.4648 198.315C100.238 196.859 100.898 195.38 101.444 193.878ZM101.444 197.974H123.322V201.08H99.8744L101.444 197.974ZM99.4648 205.858H122.537V208.861H102.673V216.54H99.4648V205.858ZM93.9016 214.936H125.062V218.076H93.9016V214.936ZM109.601 199.578H112.912V225.687H109.601V199.578Z" fill="#274374"/>
<g clip-path="url(#clip0_1177_43078)">
<path d="M429.58 141.02C444.911 141.02 457.34 128.591 457.34 113.26C457.34 97.9286 444.911 85.5 429.58 85.5C414.249 85.5 401.82 97.9286 401.82 113.26C401.82 128.591 414.249 141.02 429.58 141.02Z" fill="url(#paint0_linear_1177_43078)"/>
<path d="M410.82 148.33H448.35C462.99 148.33 474.88 160.22 474.88 174.86V215.54H384.29V174.86C384.29 160.22 396.18 148.33 410.82 148.33Z" fill="url(#paint1_linear_1177_43078)"/>
<path d="M394.51 208.24H298.07V215.55H394.51V208.24Z" fill="#274374"/>
<path d="M371.13 208.241H298.07L282 155.641H355.06L371.13 208.241Z" fill="#274374"/>
</g>
<path d="M191.485 202.513C191.372 202.854 191.246 203.184 191.11 203.503C190.996 203.799 190.894 204.094 190.803 204.39C190.621 204.868 190.393 205.425 190.12 206.062C189.87 206.7 189.597 207.325 189.301 207.94C189.028 208.554 188.766 209.077 188.516 209.51C188.106 210.238 187.595 211.023 186.98 211.865C186.389 212.706 185.774 213.491 185.137 214.22C184.5 214.948 183.92 215.551 183.397 216.028L180.257 214.185C180.985 213.639 181.667 213.025 182.304 212.342C182.941 211.66 183.522 210.966 184.045 210.26C184.591 209.555 185.046 208.895 185.41 208.281C185.865 207.553 186.241 206.813 186.537 206.062C186.855 205.312 187.105 204.595 187.287 203.912C187.378 203.571 187.458 203.207 187.526 202.82C187.617 202.411 187.686 202.035 187.731 201.694L191.485 202.513ZM187.731 207.018C188.05 207.018 188.607 207.018 189.403 207.018C190.223 207.018 191.155 207.018 192.202 207.018C193.272 207.018 194.375 207.018 195.513 207.018C196.673 207.018 197.765 207.018 198.789 207.018C199.813 207.018 200.689 207.018 201.417 207.018C202.168 207.018 202.646 207.018 202.851 207.018C203.237 207.018 203.693 207.018 204.216 207.018C204.762 206.995 205.251 206.95 205.683 206.882V210.192C205.206 210.147 204.694 210.124 204.148 210.124C203.624 210.101 203.192 210.09 202.851 210.09C202.646 210.09 202.168 210.09 201.417 210.09C200.689 210.09 199.802 210.09 198.755 210.09C197.731 210.09 196.639 210.09 195.479 210.09C194.318 210.09 193.203 210.09 192.134 210.09C191.064 210.09 190.109 210.09 189.267 210.09C188.448 210.09 187.845 210.09 187.458 210.09L187.731 207.018ZM198.311 208.827C198.198 211.58 197.799 214.038 197.117 216.199C196.434 218.338 195.456 220.204 194.182 221.796C192.907 223.366 191.349 224.72 189.506 225.858L186.161 223.605C186.571 223.423 187.048 223.173 187.595 222.854C188.163 222.536 188.63 222.229 188.994 221.933C189.745 221.341 190.461 220.659 191.144 219.885C191.827 219.089 192.441 218.167 192.987 217.121C193.533 216.074 193.977 214.868 194.318 213.503C194.659 212.138 194.864 210.579 194.932 208.827H198.311ZM219.438 195.721H236.912V198.861H219.438V195.721ZM219.438 203.912H237.049V206.984H219.438V203.912ZM219.199 212.103H236.844V215.209H219.199V212.103ZM217.288 195.721H220.598V206.609C220.598 208.088 220.519 209.68 220.359 211.387C220.2 213.071 219.893 214.777 219.438 216.506C218.983 218.236 218.312 219.897 217.424 221.489C216.537 223.059 215.354 224.47 213.875 225.721C213.715 225.494 213.488 225.221 213.192 224.902C212.896 224.606 212.589 224.311 212.271 224.015C211.952 223.742 211.668 223.526 211.417 223.366C212.76 222.206 213.818 220.932 214.591 219.544C215.388 218.156 215.979 216.722 216.366 215.243C216.753 213.764 217.003 212.286 217.117 210.807C217.231 209.328 217.288 207.917 217.288 206.574V195.721ZM235.445 195.721H238.858V221.284C238.858 222.331 238.699 223.127 238.38 223.674C238.084 224.242 237.584 224.663 236.878 224.936C236.15 225.232 235.183 225.414 233.977 225.482C232.794 225.551 231.292 225.585 229.472 225.585C229.427 225.244 229.324 224.868 229.165 224.459C229.006 224.049 228.835 223.639 228.653 223.23C228.494 222.82 228.323 222.468 228.141 222.172C229.028 222.217 229.893 222.251 230.735 222.274C231.599 222.274 232.35 222.274 232.987 222.274C233.647 222.251 234.114 222.24 234.387 222.24C234.774 222.24 235.047 222.172 235.206 222.035C235.365 221.876 235.445 221.614 235.445 221.25V195.721Z" fill="#274374"/>
<defs>
<linearGradient id="paint0_linear_1177_43078" x1="429.58" y1="141.03" x2="429.58" y2="85.5" gradientUnits="userSpaceOnUse">
<stop stop-color="#3975BF"/>
<stop offset="1" stop-color="#ADADAD"/>
</linearGradient>
<linearGradient id="paint1_linear_1177_43078" x1="429.58" y1="215.55" x2="429.58" y2="148.33" gradientUnits="userSpaceOnUse">
<stop stop-color="#3975BF"/>
<stop offset="1" stop-color="#ADADAD"/>
</linearGradient>
<clipPath id="clip0_1177_43078">
<rect width="192.88" height="130.05" fill="white" transform="translate(282 85.5)"/>
</clipPath>
</defs>
</svg>
