<svg width="279" height="403" viewBox="0 0 279 403" fill="none" xmlns="http://www.w3.org/2000/svg">
<path d="M111 0H30C16.1929 0 5 11.1929 5 25C5 38.8071 16.1929 50 30 50H111C124.807 50 136 38.8071 136 25C136 11.1929 124.807 0 111 0Z" fill="#274374"/>
<path d="M31.83 14.344L33.942 14.894C33.5313 15.9647 33.0547 17.0207 32.512 18.062C31.9693 19.0887 31.3827 20.042 30.752 20.922C30.1213 21.802 29.4613 22.572 28.772 23.232C28.64 23.1147 28.464 22.968 28.244 22.792C28.0387 22.616 27.8187 22.4473 27.584 22.286C27.364 22.11 27.166 21.978 26.99 21.89C27.6793 21.2887 28.3247 20.592 28.926 19.8C29.5273 18.9933 30.07 18.128 30.554 17.204C31.0527 16.2653 31.478 15.312 31.83 14.344ZM31.83 16.984H45.932V18.986H30.818L31.83 16.984ZM30.554 22.066H45.426V24.002H32.622V28.952H30.554V22.066ZM26.968 27.918H47.054V29.942H26.968V27.918ZM37.088 18.018H39.222V34.848H37.088V18.018ZM55.788 27.896H62.168V29.414H55.788V27.896ZM55.678 24.596H63.158V32.802H55.678V31.218H61.2V26.18H55.678V24.596ZM54.798 24.596H56.69V33.924H54.798V24.596ZM50.904 18.414H56.756V19.888H50.904V18.414ZM61.09 18.414H67.008V19.888H61.09V18.414ZM66.15 15.334H68.262V32.252C68.262 32.8533 68.1813 33.3227 68.02 33.66C67.8733 34.012 67.602 34.2833 67.206 34.474C66.81 34.65 66.2967 34.7527 65.666 34.782C65.05 34.826 64.2727 34.848 63.334 34.848C63.3193 34.6427 63.268 34.408 63.18 34.144C63.1067 33.8947 63.026 33.638 62.938 33.374C62.85 33.1247 62.7547 32.9047 62.652 32.714C63.0627 32.7433 63.4733 32.758 63.884 32.758C64.2947 32.758 64.654 32.758 64.962 32.758C65.2847 32.758 65.512 32.758 65.644 32.758C65.8347 32.7433 65.9667 32.6993 66.04 32.626C66.1133 32.5527 66.15 32.4207 66.15 32.23V15.334ZM51.08 15.334H58.076V23.078H51.08V21.538H56.118V16.874H51.08V15.334ZM67.228 15.334V16.874H61.838V21.582H67.228V23.122H59.858V15.334H67.228ZM49.87 15.334H51.938V34.87H49.87V15.334ZM79.922 14.432H81.99V17.886H79.922V14.432ZM71.848 16.852H90.394V20.834H88.37V18.304H73.784V20.834H71.848V16.852ZM77.216 20.548V21.824H84.938V20.548H77.216ZM75.28 19.338H86.984V23.034H75.28V19.338ZM73.916 15.092L75.764 14.564C76.0867 14.872 76.3947 15.224 76.688 15.62C76.996 16.016 77.2307 16.368 77.392 16.676L75.5 17.358C75.3533 17.05 75.126 16.6833 74.818 16.258C74.51 15.818 74.2093 15.4293 73.916 15.092ZM86.39 14.476L88.524 15.026C88.172 15.4807 87.8127 15.9133 87.446 16.324C87.0793 16.72 86.742 17.0647 86.434 17.358L84.762 16.83C85.0407 16.4927 85.334 16.104 85.642 15.664C85.9647 15.2093 86.214 14.8133 86.39 14.476ZM76.006 27.324V28.358H86.28V27.324H76.006ZM76.006 29.502V30.558H86.28V29.502H76.006ZM76.006 25.168V26.18H86.28V25.168H76.006ZM74.026 23.98H88.326V31.746H74.026V23.98ZM77.524 31.834L79.526 32.582C78.9687 32.934 78.3087 33.2567 77.546 33.55C76.7833 33.858 75.984 34.1293 75.148 34.364C74.3267 34.5987 73.5347 34.804 72.772 34.98C72.6693 34.8333 72.5227 34.6573 72.332 34.452C72.1413 34.2467 71.9507 34.0487 71.76 33.858C71.5693 33.6673 71.3933 33.5133 71.232 33.396C72.0093 33.2933 72.794 33.1613 73.586 33C74.378 32.8533 75.1187 32.6847 75.808 32.494C76.4973 32.2887 77.0693 32.0687 77.524 31.834ZM82.496 32.868L84.102 31.724C84.894 31.9147 85.7007 32.1273 86.522 32.362C87.358 32.5967 88.1427 32.8313 88.876 33.066C89.6093 33.3007 90.24 33.5207 90.768 33.726L88.634 34.892C88.1793 34.6867 87.622 34.4667 86.962 34.232C86.3167 34.012 85.6053 33.7773 84.828 33.528C84.0653 33.2933 83.288 33.0733 82.496 32.868ZM97.852 22.308H107.972V24.222H97.852V22.308ZM98.864 17.424H110.568V19.404H98.864V17.424ZM93.122 27.06H112.922V29.062H93.122V27.06ZM107.246 22.308H109.38C109.38 22.308 109.373 22.3667 109.358 22.484C109.358 22.5867 109.351 22.7187 109.336 22.88C109.336 23.0267 109.329 23.1513 109.314 23.254C109.109 25.5273 108.896 27.39 108.676 28.842C108.471 30.2793 108.243 31.394 107.994 32.186C107.745 32.978 107.451 33.55 107.114 33.902C106.806 34.2247 106.483 34.4447 106.146 34.562C105.823 34.6793 105.427 34.76 104.958 34.804C104.562 34.8333 104.012 34.8407 103.308 34.826C102.604 34.826 101.871 34.804 101.108 34.76C101.079 34.452 100.998 34.1 100.866 33.704C100.734 33.3227 100.565 32.9853 100.36 32.692C101.167 32.7653 101.922 32.8093 102.626 32.824C103.345 32.8387 103.858 32.846 104.166 32.846C104.445 32.846 104.665 32.8313 104.826 32.802C104.987 32.7727 105.149 32.692 105.31 32.56C105.589 32.3253 105.838 31.8413 106.058 31.108C106.278 30.36 106.483 29.2967 106.674 27.918C106.879 26.5393 107.07 24.7867 107.246 22.66V22.308ZM98.402 14.388L100.558 14.608C100.397 15.4733 100.221 16.39 100.03 17.358C99.854 18.326 99.6633 19.294 99.458 20.262C99.2527 21.2153 99.0547 22.1247 98.864 22.99C98.6733 23.8553 98.49 24.618 98.314 25.278L96.136 25.102C96.3267 24.4127 96.5247 23.6353 96.73 22.77C96.9353 21.89 97.1407 20.966 97.346 19.998C97.5513 19.03 97.742 18.0693 97.918 17.116C98.1087 16.148 98.27 15.2387 98.402 14.388Z" fill="white"/>
<path d="M33.385 167.21C27.9217 167.173 23.1 166.165 18.92 164.185C14.7767 162.205 11.5133 159.437 9.13 155.88C6.74667 152.287 5.46333 148.033 5.28 143.12H15.455C16.225 148.07 18.2417 151.865 21.505 154.505C24.7683 157.145 28.8567 158.465 33.77 158.465C37.6567 158.465 41.0483 157.86 43.945 156.65C46.8417 155.403 49.0783 153.698 50.655 151.535C52.2317 149.372 53.02 146.842 53.02 143.945C53.02 140.755 52.14 138.06 50.38 135.86C48.62 133.66 46.2183 131.992 43.175 130.855C40.1317 129.682 36.74 129.077 33 129.04L25.85 128.875V120.24L32.67 120.075C36.1533 120.002 39.27 119.342 42.02 118.095C44.77 116.812 46.9333 115.143 48.51 113.09C50.1233 111 50.93 108.708 50.93 106.215C50.93 104.015 50.2517 101.98 48.895 100.11C47.5383 98.2033 45.5767 96.6817 43.01 95.545C40.48 94.4083 37.4 93.84 33.77 93.84C30.91 93.84 28.1783 94.4083 25.575 95.545C22.9717 96.645 20.8267 98.35 19.14 100.66C17.4533 102.97 16.555 105.958 16.445 109.625H6.325C6.325 104.492 7.57167 100.128 10.065 96.535C12.5583 92.905 15.8767 90.1367 20.02 88.23C24.2 86.3233 28.8017 85.37 33.825 85.37C39.325 85.37 44.1833 86.1767 48.4 87.79C52.6167 89.3667 55.9167 91.6767 58.3 94.72C60.6833 97.7633 61.875 101.485 61.875 105.885C61.875 109.808 60.6283 113.365 58.135 116.555C55.6417 119.708 51.8283 122.183 46.695 123.98C50.1783 124.933 53.2217 126.327 55.825 128.16C58.4283 129.993 60.445 132.248 61.875 134.925C63.305 137.565 64.02 140.608 64.02 144.055C64.02 147.685 63.25 150.948 61.71 153.845C60.2067 156.705 58.08 159.143 55.33 161.16C52.58 163.14 49.335 164.662 45.595 165.725C41.855 166.752 37.785 167.247 33.385 167.21Z" fill="#274374"/>
<path d="M87.6423 144.199V151.196H94.9462V144.199H87.6423ZM84.5706 141.332H98.1544V154.028H84.5706V141.332ZM77.0279 133.277H105.936V163.653H102.421V136.588H80.3727V163.653H77.0279V133.277ZM78.9392 158.807H104.434V161.844H78.9392V158.807Z" fill="#274374"/>
<path d="M36.245 378.71C31.3317 378.71 26.785 377.848 22.605 376.125C18.425 374.402 14.8317 372 11.825 368.92C8.855 365.84 6.67333 362.302 5.28 358.305L14.08 354.62C15.4 357.627 17.05 360.303 19.03 362.65C21.0467 364.997 23.43 366.83 26.18 368.15C28.93 369.47 32.0467 370.13 35.53 370.13C41.1767 370.13 45.705 368.498 49.115 365.235C52.5617 361.935 54.285 357.462 54.285 351.815C54.285 348.295 53.4783 345.233 51.865 342.63C50.2517 339.99 48.07 337.937 45.32 336.47C42.6067 335.003 39.6 334.27 36.3 334.27C34.1367 334.27 32.12 334.472 30.25 334.875C28.38 335.242 26.5283 335.975 24.695 337.075C22.8617 338.175 20.9367 339.843 18.92 342.08C18.7 342.19 18.535 342.245 18.425 342.245C18.315 342.208 18.1317 342.135 17.875 342.025L9.295 339.33L12.87 297.97H60.335L60.06 306.77H21.56L19.525 332.455C22.165 329.998 25.0433 328.257 28.16 327.23C31.3133 326.167 34.7233 325.635 38.39 325.635C43.1933 325.635 47.6117 326.625 51.645 328.605C55.715 330.548 58.9783 333.445 61.435 337.295C63.8917 341.108 65.12 345.838 65.12 351.485C65.12 356.985 63.9283 361.77 61.545 365.84C59.1617 369.91 55.8067 373.082 51.48 375.355C47.1533 377.592 42.075 378.71 36.245 378.71ZM76.5188 377.5V364.52H88.6188V377.5H76.5188ZM131.421 378.71C126.507 378.71 121.961 377.848 117.781 376.125C113.601 374.402 110.007 372 107.001 368.92C104.031 365.84 101.849 362.302 100.456 358.305L109.256 354.62C110.576 357.627 112.226 360.303 114.206 362.65C116.222 364.997 118.606 366.83 121.356 368.15C124.106 369.47 127.222 370.13 130.706 370.13C136.352 370.13 140.881 368.498 144.291 365.235C147.737 361.935 149.461 357.462 149.461 351.815C149.461 348.295 148.654 345.233 147.041 342.63C145.427 339.99 143.246 337.937 140.496 336.47C137.782 335.003 134.776 334.27 131.476 334.27C129.312 334.27 127.296 334.472 125.426 334.875C123.556 335.242 121.704 335.975 119.871 337.075C118.037 338.175 116.112 339.843 114.096 342.08C113.876 342.19 113.711 342.245 113.601 342.245C113.491 342.208 113.307 342.135 113.051 342.025L104.471 339.33L108.046 297.97H155.511L155.236 306.77H116.736L114.701 332.455C117.341 329.998 120.219 328.257 123.336 327.23C126.489 326.167 129.899 325.635 133.566 325.635C138.369 325.635 142.787 326.625 146.821 328.605C150.891 330.548 154.154 333.445 156.611 337.295C159.067 341.108 160.296 345.838 160.296 351.485C160.296 356.985 159.104 361.77 156.721 365.84C154.337 369.91 150.982 373.082 146.656 375.355C142.329 377.592 137.251 378.71 131.421 378.71Z" fill="#274374"/>
<path d="M183.485 354.013C183.372 354.354 183.246 354.684 183.11 355.003C182.996 355.299 182.894 355.594 182.803 355.89C182.621 356.368 182.393 356.925 182.12 357.562C181.87 358.2 181.597 358.825 181.301 359.44C181.028 360.054 180.766 360.577 180.516 361.01C180.106 361.738 179.595 362.523 178.98 363.365C178.389 364.206 177.774 364.991 177.137 365.72C176.5 366.448 175.92 367.051 175.397 367.528L172.257 365.685C172.985 365.139 173.667 364.525 174.304 363.842C174.941 363.16 175.522 362.466 176.045 361.76C176.591 361.055 177.046 360.395 177.41 359.781C177.865 359.053 178.241 358.313 178.537 357.562C178.855 356.812 179.105 356.095 179.287 355.412C179.378 355.071 179.458 354.707 179.526 354.32C179.617 353.911 179.686 353.535 179.731 353.194L183.485 354.013ZM179.731 358.518C180.05 358.518 180.607 358.518 181.403 358.518C182.223 358.518 183.155 358.518 184.202 358.518C185.272 358.518 186.375 358.518 187.513 358.518C188.673 358.518 189.765 358.518 190.789 358.518C191.813 358.518 192.689 358.518 193.417 358.518C194.168 358.518 194.646 358.518 194.851 358.518C195.237 358.518 195.693 358.518 196.216 358.518C196.762 358.495 197.251 358.45 197.683 358.382V361.692C197.206 361.647 196.694 361.624 196.148 361.624C195.624 361.601 195.192 361.59 194.851 361.59C194.646 361.59 194.168 361.59 193.417 361.59C192.689 361.59 191.802 361.59 190.755 361.59C189.731 361.59 188.639 361.59 187.479 361.59C186.318 361.59 185.203 361.59 184.134 361.59C183.064 361.59 182.109 361.59 181.267 361.59C180.448 361.59 179.845 361.59 179.458 361.59L179.731 358.518ZM190.311 360.327C190.198 363.08 189.799 365.538 189.117 367.699C188.434 369.838 187.456 371.704 186.182 373.296C184.907 374.866 183.349 376.22 181.506 377.358L178.161 375.105C178.571 374.923 179.048 374.673 179.595 374.354C180.163 374.036 180.63 373.729 180.994 373.433C181.745 372.841 182.461 372.159 183.144 371.385C183.827 370.589 184.441 369.667 184.987 368.621C185.533 367.574 185.977 366.368 186.318 365.003C186.659 363.638 186.864 362.079 186.932 360.327H190.311ZM211.438 347.221H228.912V350.361H211.438V347.221ZM211.438 355.412H229.049V358.484H211.438V355.412ZM211.199 363.603H228.844V366.709H211.199V363.603ZM209.288 347.221H212.598V358.109C212.598 359.588 212.519 361.18 212.359 362.887C212.2 364.571 211.893 366.277 211.438 368.006C210.983 369.736 210.312 371.397 209.424 372.989C208.537 374.559 207.354 375.97 205.875 377.221C205.715 376.994 205.488 376.721 205.192 376.402C204.896 376.106 204.589 375.811 204.271 375.515C203.952 375.242 203.668 375.026 203.417 374.866C204.76 373.706 205.818 372.432 206.591 371.044C207.388 369.656 207.979 368.222 208.366 366.743C208.753 365.264 209.003 363.786 209.117 362.307C209.231 360.828 209.288 359.417 209.288 358.074V347.221ZM227.445 347.221H230.858V372.784C230.858 373.831 230.699 374.627 230.38 375.174C230.084 375.742 229.584 376.163 228.878 376.436C228.15 376.732 227.183 376.914 225.977 376.982C224.794 377.051 223.292 377.085 221.472 377.085C221.427 376.744 221.324 376.368 221.165 375.959C221.006 375.549 220.835 375.139 220.653 374.73C220.494 374.32 220.323 373.968 220.141 373.672C221.028 373.717 221.893 373.751 222.735 373.774C223.599 373.774 224.35 373.774 224.987 373.774C225.647 373.751 226.114 373.74 226.387 373.74C226.774 373.74 227.047 373.672 227.206 373.535C227.365 373.376 227.445 373.114 227.445 372.75V347.221ZM243.179 358.245H262.223V361.385H243.179V358.245ZM261.165 358.245H264.544C264.544 358.245 264.533 358.347 264.51 358.552C264.51 358.734 264.51 358.939 264.51 359.167C264.51 359.394 264.499 359.576 264.476 359.713C264.362 362.329 264.237 364.571 264.1 366.436C263.987 368.302 263.85 369.849 263.691 371.078C263.554 372.307 263.372 373.285 263.145 374.013C262.94 374.718 262.69 375.23 262.394 375.549C262.007 376.05 261.586 376.391 261.131 376.573C260.699 376.778 260.164 376.903 259.527 376.948C258.958 377.017 258.185 377.051 257.206 377.051C256.251 377.051 255.249 377.028 254.203 376.982C254.18 376.482 254.066 375.924 253.861 375.31C253.679 374.718 253.44 374.184 253.145 373.706C254.191 373.797 255.158 373.865 256.046 373.911C256.956 373.934 257.616 373.945 258.025 373.945C258.367 373.945 258.64 373.911 258.844 373.842C259.072 373.774 259.277 373.649 259.459 373.467C259.755 373.171 260.005 372.511 260.21 371.488C260.414 370.441 260.585 368.894 260.722 366.846C260.881 364.798 261.029 362.136 261.165 358.859V358.245ZM247.479 346.095L250.926 347.085C250.084 349.041 249.095 350.919 247.957 352.716C246.819 354.491 245.579 356.129 244.237 357.631C242.894 359.132 241.495 360.429 240.039 361.522C239.857 361.294 239.595 361.021 239.254 360.702C238.912 360.361 238.56 360.031 238.196 359.713C237.832 359.394 237.525 359.144 237.274 358.962C238.708 358.006 240.062 356.857 241.336 355.515C242.633 354.172 243.804 352.705 244.851 351.112C245.921 349.496 246.797 347.824 247.479 346.095ZM259.868 346.027C260.414 347.141 261.074 348.279 261.848 349.44C262.644 350.6 263.497 351.738 264.408 352.853C265.34 353.945 266.296 354.969 267.275 355.924C268.253 356.857 269.209 357.665 270.141 358.347C269.868 358.575 269.55 358.859 269.186 359.201C268.844 359.542 268.515 359.895 268.196 360.259C267.877 360.6 267.616 360.919 267.411 361.214C266.478 360.395 265.511 359.462 264.51 358.416C263.532 357.346 262.565 356.197 261.609 354.969C260.676 353.74 259.789 352.477 258.947 351.18C258.128 349.86 257.388 348.564 256.728 347.289L259.868 346.027ZM249.868 359.167H253.384C253.202 361.055 252.917 362.898 252.53 364.696C252.144 366.47 251.529 368.154 250.687 369.747C249.845 371.34 248.662 372.784 247.138 374.081C245.636 375.378 243.657 376.482 241.199 377.392C241.063 377.096 240.881 376.766 240.653 376.402C240.426 376.038 240.175 375.686 239.902 375.344C239.629 375.003 239.356 374.718 239.083 374.491C241.358 373.74 243.167 372.819 244.51 371.726C245.875 370.634 246.91 369.417 247.616 368.075C248.344 366.709 248.856 365.276 249.151 363.774C249.47 362.272 249.709 360.737 249.868 359.167Z" fill="#274374"/>
<path d="M7.48126 247.913H34.5464V251.121H7.48126V247.913ZM5.67237 262.384H36.5259V265.626H5.67237V262.384ZM9.73384 253.374L12.669 252.52C13.1013 253.294 13.5109 254.136 13.8977 255.046C14.3073 255.933 14.6713 256.809 14.9899 257.674C15.3312 258.516 15.5701 259.267 15.7066 259.926L12.6008 260.95C12.4415 260.291 12.214 259.528 11.9182 258.664C11.6451 257.799 11.3152 256.9 10.9284 255.967C10.5416 255.035 10.1434 254.17 9.73384 253.374ZM29.3927 252.384L32.8399 253.305C32.4303 254.193 31.9866 255.103 31.5088 256.036C31.031 256.969 30.5645 257.867 30.1095 258.732C29.6544 259.574 29.2221 260.325 28.8125 260.985L25.9797 260.097C26.3893 259.415 26.8102 258.63 27.2425 257.742C27.6748 256.832 28.073 255.911 28.4371 254.978C28.8239 254.022 29.1424 253.157 29.3927 252.384ZM19.3585 249.21H22.7032V277.333H19.3585V249.21ZM53.1131 258.22H63.4545V261.121H53.1131V258.22ZM51.4407 269.005C52.4646 268.664 53.6478 268.266 54.9902 267.811C56.3327 267.355 57.7661 266.855 59.2906 266.309C60.8151 265.74 62.3282 265.183 63.8299 264.636L64.4101 267.401C62.4078 268.197 60.3714 269.005 58.3008 269.824C56.2303 270.643 54.3645 271.383 52.7035 272.043L51.4407 269.005ZM54.6148 251.257H68.1985V254.329H54.6148V251.257ZM67.2088 251.257H70.4852C70.4852 251.257 70.4739 251.371 70.4511 251.599C70.4511 251.804 70.4511 252.031 70.4511 252.281C70.4511 252.532 70.4397 252.736 70.417 252.896C70.3032 256.764 70.1781 260.063 70.0416 262.793C69.905 265.501 69.7458 267.72 69.5637 269.449C69.4045 271.178 69.1997 272.543 68.9494 273.544C68.7219 274.523 68.4374 275.228 68.0961 275.66C67.6866 276.229 67.2429 276.616 66.7651 276.821C66.31 277.048 65.7526 277.208 65.0927 277.299C64.5011 277.39 63.7275 277.424 62.7719 277.401C61.8162 277.401 60.8265 277.378 59.8026 277.333C59.7798 276.855 59.666 276.298 59.4613 275.66C59.2792 275.046 59.0403 274.511 58.7445 274.056C59.8367 274.147 60.8378 274.204 61.748 274.227C62.6581 274.227 63.3179 274.227 63.7275 274.227C64.0688 274.25 64.3418 274.227 64.5466 274.159C64.7742 274.068 64.9789 273.908 65.161 273.681C65.434 273.385 65.6729 272.782 65.8777 271.872C66.1052 270.939 66.2986 269.631 66.4579 267.947C66.6172 266.241 66.7537 264.079 66.8675 261.462C67.004 258.846 67.1178 255.683 67.2088 251.974V251.257ZM55.1609 245.66L58.4374 246.377C57.9595 248.129 57.3679 249.835 56.6626 251.496C55.9572 253.157 55.1836 254.705 54.3418 256.138C53.4999 257.572 52.6125 258.834 51.6796 259.926C51.4976 259.722 51.2359 259.494 50.8946 259.244C50.5533 258.971 50.2006 258.709 49.8366 258.459C49.4725 258.209 49.154 258.004 48.881 257.845C50.2917 256.388 51.5317 254.591 52.6011 252.452C53.6705 250.29 54.5238 248.026 55.1609 245.66ZM39.8024 253.51H50.6216V256.582H39.8024V253.51ZM43.7956 246.001H46.9355V268.493H43.7956V246.001ZM39.1198 268.596C40.0982 268.231 41.2245 267.811 42.4986 267.333C43.7956 266.832 45.1608 266.297 46.5942 265.729C48.0277 265.16 49.4498 264.591 50.8605 264.022L51.5431 267.026C49.6318 267.867 47.675 268.709 45.6727 269.551C43.6932 270.393 41.8957 271.155 40.2802 271.838L39.1198 268.596Z" fill="#274374"/>
<g clip-path="url(#clip0_1177_43080)">
<path opacity="0.5" d="M279 96.5H168.045V154.474H279V96.5Z" fill="url(#paint0_linear_1177_43080)"/>
<path d="M263.955 110.525H153V168.499H263.955V110.525Z" fill="url(#paint1_linear_1177_43080)"/>
<path d="M206.061 150.2H196.385V145.927H206.061V141.654H196.385V137.38H203.616L193.16 124.561H199.028L208.496 136.52L217.918 124.561H223.786L213.33 137.38H220.56V141.654H210.885V145.927H220.56V150.2H210.885V154.473H206.052V150.2H206.061Z" fill="white"/>
</g>
<defs>
<linearGradient id="paint0_linear_1177_43080" x1="168.045" y1="125.487" x2="279" y2="125.487" gradientUnits="userSpaceOnUse">
<stop stop-color="#3975BF"/>
<stop offset="1" stop-color="#ADADAD"/>
</linearGradient>
<linearGradient id="paint1_linear_1177_43080" x1="153" y1="139.512" x2="263.955" y2="139.512" gradientUnits="userSpaceOnUse">
<stop stop-color="#3975BF"/>
<stop offset="1" stop-color="#ADADAD"/>
</linearGradient>
<clipPath id="clip0_1177_43080">
<rect width="126" height="72" fill="white" transform="translate(153 96.5)"/>
</clipPath>
</defs>
</svg>
