<svg width="407" height="256" viewBox="0 0 407 256" fill="none" xmlns="http://www.w3.org/2000/svg">
<path d="M148 0H27C13.1929 0 2 11.1929 2 25C2 38.8071 13.1929 50 27 50H148C161.807 50 173 38.8071 173 25C173 11.1929 161.807 0 148 0Z" fill="#274374"/>
<path d="M24.244 15.862H41.69V17.93H24.244V15.862ZM23.078 25.19H42.966V27.28H23.078V25.19ZM25.696 19.382L27.588 18.832C27.8667 19.3307 28.1307 19.8733 28.38 20.46C28.644 21.032 28.8787 21.5967 29.084 22.154C29.304 22.6967 29.458 23.1807 29.546 23.606L27.544 24.266C27.4413 23.8407 27.2947 23.3493 27.104 22.792C26.928 22.2347 26.7153 21.6553 26.466 21.054C26.2167 20.4527 25.96 19.8953 25.696 19.382ZM38.368 18.744L40.59 19.338C40.326 19.91 40.04 20.4967 39.732 21.098C39.424 21.6993 39.1233 22.2787 38.83 22.836C38.5367 23.3787 38.258 23.8627 37.994 24.288L36.168 23.716C36.432 23.276 36.7033 22.77 36.982 22.198C37.2607 21.6113 37.5173 21.0173 37.752 20.416C38.0013 19.8 38.2067 19.2427 38.368 18.744ZM31.9 16.698H34.056V34.826H31.9V16.698ZM53.658 22.506H60.324V24.376H53.658V22.506ZM52.58 29.458C53.24 29.238 54.0027 28.9813 54.868 28.688C55.7333 28.3947 56.6573 28.072 57.64 27.72C58.6227 27.3533 59.598 26.994 60.566 26.642L60.94 28.424C59.6493 28.9373 58.3367 29.458 57.002 29.986C55.6673 30.514 54.4647 30.9907 53.394 31.416L52.58 29.458ZM54.626 18.018H63.382V19.998H54.626V18.018ZM62.744 18.018H64.856C64.856 18.018 64.8487 18.0913 64.834 18.238C64.834 18.37 64.834 18.5167 64.834 18.678C64.834 18.8393 64.8267 18.9713 64.812 19.074C64.7387 21.5673 64.658 23.694 64.57 25.454C64.482 27.1993 64.3793 28.6293 64.262 29.744C64.1593 30.8587 64.0273 31.7387 63.866 32.384C63.7193 33.0147 63.536 33.4693 63.316 33.748C63.052 34.1147 62.766 34.364 62.458 34.496C62.1647 34.6427 61.8053 34.7453 61.38 34.804C60.9987 34.8627 60.5 34.8847 59.884 34.87C59.268 34.87 58.63 34.8553 57.97 34.826C57.9553 34.518 57.882 34.1587 57.75 33.748C57.6327 33.352 57.4787 33.0073 57.288 32.714C57.992 32.7727 58.6373 32.8093 59.224 32.824C59.8107 32.824 60.236 32.824 60.5 32.824C60.72 32.8387 60.896 32.824 61.028 32.78C61.1747 32.7213 61.3067 32.6187 61.424 32.472C61.6 32.2813 61.754 31.8927 61.886 31.306C62.0327 30.7047 62.1573 29.8613 62.26 28.776C62.3627 27.676 62.4507 26.2827 62.524 24.596C62.612 22.9093 62.6853 20.8707 62.744 18.48V18.018ZM54.978 14.41L57.09 14.872C56.782 16.0013 56.4007 17.1013 55.946 18.172C55.4913 19.2427 54.9927 20.24 54.45 21.164C53.9073 22.088 53.3353 22.902 52.734 23.606C52.6167 23.474 52.448 23.3273 52.228 23.166C52.008 22.99 51.7807 22.8213 51.546 22.66C51.3113 22.4987 51.106 22.3667 50.93 22.264C51.8393 21.3253 52.6387 20.1667 53.328 18.788C54.0173 17.3947 54.5673 15.9353 54.978 14.41ZM45.078 19.47H52.052V21.45H45.078V19.47ZM47.652 14.63H49.676V29.128H47.652V14.63ZM44.638 29.194C45.2687 28.9593 45.9947 28.688 46.816 28.38C47.652 28.0573 48.532 27.7127 49.456 27.346C50.38 26.9793 51.2967 26.6127 52.206 26.246L52.646 28.182C51.414 28.7247 50.1527 29.2673 48.862 29.81C47.586 30.3527 46.4273 30.844 45.386 31.284L44.638 29.194ZM75.35 18.128L86.152 17.226L86.306 18.898L75.482 19.844L75.35 18.128ZM75.922 21.472L85.866 20.526L86.042 22.154L76.098 23.122L75.922 21.472ZM75.35 24.904L86.812 23.738L86.988 25.41L75.548 26.62L75.35 24.904ZM78.584 14.322H80.63C80.63 15.9207 80.674 17.4827 80.762 19.008C80.8647 20.5333 81.0113 21.9853 81.202 23.364C81.3927 24.728 81.62 25.9893 81.884 27.148C82.148 28.292 82.4487 29.282 82.786 30.118C83.1233 30.954 83.4827 31.6067 83.864 32.076C84.26 32.5307 84.6633 32.758 85.074 32.758C85.338 32.758 85.5287 32.5673 85.646 32.186C85.778 31.79 85.8807 31.0787 85.954 30.052C86.1447 30.2867 86.3793 30.5067 86.658 30.712C86.9513 30.9027 87.2153 31.0493 87.45 31.152C87.3327 32.0907 87.1713 32.8167 86.966 33.33C86.7753 33.858 86.5113 34.2247 86.174 34.43C85.8367 34.65 85.404 34.76 84.876 34.76C84.128 34.76 83.4533 34.496 82.852 33.968C82.2653 33.44 81.7373 32.6993 81.268 31.746C80.8133 30.7927 80.4173 29.6707 80.08 28.38C79.7573 27.0893 79.486 25.6887 79.266 24.178C79.046 22.6527 78.8773 21.054 78.76 19.382C78.6573 17.71 78.5987 16.0233 78.584 14.322ZM81.598 15.356L82.764 14.168C83.3067 14.388 83.8713 14.674 84.458 15.026C85.0593 15.378 85.5213 15.7153 85.844 16.038L84.634 17.358C84.326 17.0207 83.8787 16.6687 83.292 16.302C82.72 15.9207 82.1553 15.6053 81.598 15.356ZM84.92 25.652L86.416 26.708C85.668 27.852 84.7073 28.9373 83.534 29.964C82.3753 30.9907 81.092 31.9073 79.684 32.714C78.276 33.5207 76.8313 34.1513 75.35 34.606C75.2327 34.3567 75.0713 34.0633 74.866 33.726C74.6607 33.3887 74.4407 33.1027 74.206 32.868C75.306 32.5893 76.384 32.208 77.44 31.724C78.5107 31.24 79.5153 30.6827 80.454 30.052C81.4073 29.4213 82.2653 28.732 83.028 27.984C83.7907 27.2213 84.4213 26.444 84.92 25.652ZM67.056 15.466H75.592V17.358H67.056V15.466ZM69.806 19.932H73.81V21.802H69.806V19.932ZM68.288 25.256L69.344 23.782C69.7987 24.046 70.2607 24.354 70.73 24.706C71.214 25.0433 71.6613 25.388 72.072 25.74C72.4827 26.092 72.8053 26.4147 73.04 26.708L71.918 28.38C71.6833 28.072 71.3607 27.7347 70.95 27.368C70.554 26.9867 70.1213 26.6127 69.652 26.246C69.1827 25.8793 68.728 25.5493 68.288 25.256ZM69.828 16.038L71.808 16.346C71.5733 17.7687 71.2727 19.1473 70.906 20.482C70.554 21.802 70.1287 23.034 69.63 24.178C69.146 25.3073 68.5887 26.3047 67.958 27.17C67.8553 27.038 67.7087 26.8913 67.518 26.73C67.3273 26.554 67.1293 26.3853 66.924 26.224C66.7187 26.048 66.5427 25.916 66.396 25.828C66.9973 25.0507 67.518 24.1487 67.958 23.122C68.398 22.0953 68.772 20.9807 69.08 19.778C69.388 18.5607 69.6373 17.314 69.828 16.038ZM73.238 19.932H73.612L73.942 19.866L75.152 20.218C74.7413 23.8407 73.986 26.8767 72.886 29.326C71.786 31.7607 70.422 33.6087 68.794 34.87C68.6913 34.7233 68.552 34.5547 68.376 34.364C68.2147 34.1733 68.0387 33.99 67.848 33.814C67.6573 33.6527 67.4887 33.528 67.342 33.44C68.9407 32.2813 70.2387 30.6093 71.236 28.424C72.248 26.2387 72.9153 23.5473 73.238 20.35V19.932ZM89.32 27.962H108.746V29.7H89.32V27.962ZM89.408 18.216H108.68V19.954H89.408V18.216ZM90.288 22.044H107.866V23.716H90.288V22.044ZM91.388 25.058H106.81V26.598H91.388V25.058ZM97.944 22.858H99.99V34.848H97.944V22.858ZM95.964 14.41H97.922V19.03H95.964V14.41ZM100.1 14.41H102.08V18.92H100.1V14.41ZM97.416 28.688L99.088 29.458C98.3987 30.206 97.5627 30.91 96.58 31.57C95.5973 32.23 94.5413 32.8093 93.412 33.308C92.2827 33.8213 91.168 34.232 90.068 34.54C89.9653 34.3493 89.8333 34.144 89.672 33.924C89.5253 33.7187 89.364 33.5133 89.188 33.308C89.0267 33.1027 88.8653 32.9267 88.704 32.78C89.804 32.5453 90.904 32.2227 92.004 31.812C93.104 31.4013 94.1307 30.932 95.084 30.404C96.0373 29.8613 96.8147 29.2893 97.416 28.688ZM100.518 28.644C100.987 29.0987 101.545 29.5387 102.19 29.964C102.85 30.3893 103.569 30.7853 104.346 31.152C105.123 31.504 105.93 31.812 106.766 32.076C107.617 32.34 108.467 32.5527 109.318 32.714C109.171 32.8607 109.003 33.044 108.812 33.264C108.636 33.484 108.467 33.7113 108.306 33.946C108.159 34.1807 108.035 34.3933 107.932 34.584C107.067 34.3493 106.209 34.056 105.358 33.704C104.507 33.3667 103.686 32.9707 102.894 32.516C102.117 32.0613 101.383 31.57 100.694 31.042C100.019 30.4993 99.4253 29.92 98.912 29.304L100.518 28.644ZM105.182 14.652L107.338 15.202C107.001 15.7887 106.649 16.3753 106.282 16.962C105.93 17.5487 105.607 18.0547 105.314 18.48L103.62 17.952C103.811 17.644 104.001 17.2993 104.192 16.918C104.383 16.522 104.566 16.126 104.742 15.73C104.918 15.334 105.065 14.9747 105.182 14.652ZM102.256 19.316L104.434 19.844C104.155 20.3573 103.877 20.856 103.598 21.34C103.319 21.8093 103.055 22.2127 102.806 22.55L101.068 22.044C101.273 21.648 101.486 21.1933 101.706 20.68C101.941 20.1667 102.124 19.712 102.256 19.316ZM91.08 15.202L92.862 14.586C93.2287 15.07 93.5807 15.6127 93.918 16.214C94.2553 16.8153 94.5047 17.3433 94.666 17.798L92.774 18.48C92.642 18.04 92.4147 17.512 92.092 16.896C91.7693 16.28 91.432 15.7153 91.08 15.202ZM93.918 20.042L95.92 19.69C96.1547 20.0273 96.3747 20.4087 96.58 20.834C96.7853 21.2593 96.932 21.626 97.02 21.934L94.93 22.33C94.8567 22.022 94.7247 21.6553 94.534 21.23C94.3433 20.79 94.138 20.394 93.918 20.042ZM119.328 16.94H130.46V18.744H119.328V16.94ZM118.492 21.186H131.252V23.034H118.492V21.186ZM118.558 25.256H131.054V27.082H118.558V25.256ZM123.794 14.41H125.84V22.352H123.794V14.41ZM126.654 22.836H128.678V32.538C128.678 33.066 128.605 33.484 128.458 33.792C128.326 34.1 128.069 34.3273 127.688 34.474C127.307 34.6353 126.823 34.7307 126.236 34.76C125.649 34.804 124.923 34.826 124.058 34.826C124.014 34.5473 123.926 34.2173 123.794 33.836C123.662 33.4693 123.523 33.1467 123.376 32.868C124.007 32.8827 124.586 32.8973 125.114 32.912C125.657 32.912 126.016 32.912 126.192 32.912C126.368 32.8973 126.485 32.868 126.544 32.824C126.617 32.7653 126.654 32.6553 126.654 32.494V22.836ZM119.702 28.6L121.374 27.632C121.726 27.9987 122.085 28.402 122.452 28.842C122.819 29.282 123.156 29.722 123.464 30.162C123.772 30.5873 124.007 30.976 124.168 31.328L122.386 32.406C122.239 32.054 122.019 31.658 121.726 31.218C121.447 30.7633 121.132 30.3087 120.78 29.854C120.428 29.3993 120.069 28.9813 119.702 28.6ZM112.53 15.818H118.096V30.536H112.53V28.666H116.16V17.71H112.53V15.818ZM112.64 22.154H117.084V24.002H112.64V22.154ZM111.54 15.818H113.476V32.428H111.54V15.818ZM139.788 27.896H146.168V29.414H139.788V27.896ZM139.678 24.596H147.158V32.802H139.678V31.218H145.2V26.18H139.678V24.596ZM138.798 24.596H140.69V33.924H138.798V24.596ZM134.904 18.414H140.756V19.888H134.904V18.414ZM145.09 18.414H151.008V19.888H145.09V18.414ZM150.15 15.334H152.262V32.252C152.262 32.8533 152.181 33.3227 152.02 33.66C151.873 34.012 151.602 34.2833 151.206 34.474C150.81 34.65 150.297 34.7527 149.666 34.782C149.05 34.826 148.273 34.848 147.334 34.848C147.319 34.6427 147.268 34.408 147.18 34.144C147.107 33.8947 147.026 33.638 146.938 33.374C146.85 33.1247 146.755 32.9047 146.652 32.714C147.063 32.7433 147.473 32.758 147.884 32.758C148.295 32.758 148.654 32.758 148.962 32.758C149.285 32.758 149.512 32.758 149.644 32.758C149.835 32.7433 149.967 32.6993 150.04 32.626C150.113 32.5527 150.15 32.4207 150.15 32.23V15.334ZM135.08 15.334H142.076V23.078H135.08V21.538H140.118V16.874H135.08V15.334ZM151.228 15.334V16.874H145.838V21.582H151.228V23.122H143.858V15.334H151.228ZM133.87 15.334H135.938V34.87H133.87V15.334Z" fill="white"/>
<path d="M25.482 225V146.156H6.3705V137.868C12.3072 137.868 16.9195 137.434 20.2075 136.566C23.4955 135.699 25.8245 134.374 27.1945 132.593C28.6102 130.812 29.3865 128.598 29.5235 125.949H38.5655V225H25.482ZM95.5885 226.507C90.1085 226.507 84.9939 225.48 80.2445 223.424C75.5409 221.324 71.5907 218.355 68.394 214.519C65.243 210.683 63.3022 206.094 62.5715 200.751H74.9015C76.0432 205.272 78.4179 208.948 82.0255 211.779C85.6332 214.565 90.0172 215.958 95.1775 215.958C101.023 215.958 106.023 214.428 110.179 211.368C114.38 208.309 117.509 203.582 119.564 197.189C121.619 190.796 122.395 182.598 121.893 172.597C120.751 176.068 118.947 179.128 116.481 181.776C114.015 184.379 111.047 186.434 107.576 187.941C104.105 189.448 100.269 190.202 96.068 190.202C89.5377 190.202 83.7837 188.923 78.806 186.366C73.8284 183.809 69.9467 180.155 67.161 175.406C64.421 170.657 63.051 164.971 63.051 158.349C63.051 151.728 64.421 145.882 67.161 140.813C69.901 135.744 73.8284 131.771 78.943 128.894C84.0577 126.017 90.1314 124.579 97.164 124.579C104.836 124.579 111.481 126.565 117.098 130.538C122.715 134.466 127.053 140.128 130.113 147.526C133.172 154.879 134.702 163.715 134.702 174.036C134.702 185.133 133.172 194.586 130.113 202.395C127.099 210.204 122.669 216.186 116.824 220.342C111.024 224.452 103.946 226.507 95.5885 226.507ZM97.438 179.447C101.091 179.447 104.562 178.603 107.85 176.913C111.138 175.223 113.81 172.986 115.865 170.2C117.965 167.369 119.016 164.286 119.016 160.952C119.061 155.838 118.194 151.34 116.413 147.458C114.632 143.531 112.097 140.471 108.809 138.279C105.521 136.041 101.685 134.922 97.301 134.922C93.2824 134.922 89.7204 135.881 86.615 137.799C83.5554 139.717 81.135 142.389 79.354 145.814C77.6187 149.239 76.751 153.212 76.751 157.733C76.751 164.355 78.5092 169.629 82.0255 173.556C85.5419 177.484 90.6794 179.447 97.438 179.447Z" fill="#274374"/>
<path d="M159.871 194.905H177.141V197.704H159.871V194.905ZM158.574 201.493H178.369V204.359H158.574V201.493ZM158.676 207.807H178.062V210.639H158.676V207.807ZM166.799 190.98H169.974V203.301H166.799V190.98ZM171.236 204.052H174.376V219.104C174.376 219.923 174.263 220.571 174.035 221.049C173.83 221.527 173.432 221.879 172.84 222.107C172.249 222.357 171.498 222.505 170.588 222.551C169.678 222.619 168.551 222.653 167.209 222.653C167.141 222.221 167.004 221.709 166.799 221.117C166.595 220.548 166.378 220.048 166.151 219.616C167.129 219.638 168.028 219.661 168.847 219.684C169.689 219.684 170.247 219.684 170.52 219.684C170.793 219.661 170.975 219.616 171.066 219.547C171.179 219.456 171.236 219.286 171.236 219.035V204.052ZM160.451 212.994L163.045 211.493C163.591 212.061 164.149 212.687 164.717 213.37C165.286 214.052 165.81 214.735 166.287 215.418C166.765 216.077 167.129 216.68 167.38 217.226L164.615 218.899C164.388 218.353 164.046 217.738 163.591 217.056C163.159 216.35 162.67 215.645 162.124 214.94C161.578 214.234 161.02 213.586 160.451 212.994ZM149.325 193.165H157.96V215.998H149.325V213.097H154.956V196.1H149.325V193.165ZM149.496 202.994H156.39V205.861H149.496V202.994ZM147.789 193.165H150.792V218.933H147.789V193.165ZM191.612 211.902H201.51V214.257H191.612V211.902ZM191.441 206.783H203.045V219.513H191.441V217.056H200.008V209.24H191.441V206.783ZM190.076 206.783H193.011V221.254H190.076V206.783ZM184.035 197.192H193.114V199.479H184.035V197.192ZM199.837 197.192H209.018V199.479H199.837V197.192ZM207.687 192.414H210.964V218.66C210.964 219.593 210.838 220.321 210.588 220.844C210.361 221.39 209.94 221.811 209.325 222.107C208.711 222.38 207.915 222.539 206.936 222.585C205.981 222.653 204.775 222.687 203.319 222.687C203.296 222.369 203.216 222.005 203.08 221.595C202.966 221.208 202.841 220.81 202.704 220.401C202.568 220.014 202.42 219.672 202.26 219.377C202.898 219.422 203.535 219.445 204.172 219.445C204.809 219.445 205.366 219.445 205.844 219.445C206.345 219.445 206.697 219.445 206.902 219.445C207.198 219.422 207.403 219.354 207.517 219.24C207.63 219.126 207.687 218.922 207.687 218.626V192.414ZM184.308 192.414H195.161V204.428H184.308V202.039H192.124V194.803H184.308V192.414ZM209.36 192.414V194.803H200.998V202.107H209.36V204.496H197.926V192.414H209.36ZM182.431 192.414H185.639V222.721H182.431V192.414Z" fill="#274374"/>
<g clip-path="url(#clip0_1177_43079)">
<path d="M336 222.5C374.936 222.5 406.5 190.936 406.5 152C406.5 113.064 374.936 81.5 336 81.5C297.064 81.5 265.5 113.064 265.5 152C265.5 190.936 297.064 222.5 336 222.5Z" fill="url(#paint0_linear_1177_43079)"/>
<path d="M336 101.311V152.001L364 180.001" stroke="white" stroke-width="5" stroke-miterlimit="10"/>
<path d="M336 161C340.971 161 345 156.971 345 152C345 147.029 340.971 143 336 143C331.029 143 327 147.029 327 152C327 156.971 331.029 161 336 161Z" fill="#274374"/>
</g>
<defs>
<linearGradient id="paint0_linear_1177_43079" x1="336" y1="222.5" x2="336" y2="81.5" gradientUnits="userSpaceOnUse">
<stop stop-color="#3975BF"/>
<stop offset="1" stop-color="#ADADAD"/>
</linearGradient>
<clipPath id="clip0_1177_43079">
<rect width="141" height="141" fill="white" transform="translate(265.5 81.5)"/>
</clipPath>
</defs>
</svg>
