<svg width="47" height="47" viewBox="0 0 47 47" fill="none" xmlns="http://www.w3.org/2000/svg">
<path d="M23.5 46.5C36.2025 46.5 46.5 36.2025 46.5 23.5C46.5 10.7975 36.2025 0.5 23.5 0.5C10.7975 0.5 0.5 10.7975 0.5 23.5C0.5 36.2025 10.7975 46.5 23.5 46.5Z" stroke="#003C81" stroke-miterlimit="10"/>
<path d="M16.6602 22.6094C16.8402 22.6194 17.0602 22.6394 17.3302 22.6494C17.6002 22.6594 17.8802 22.6795 18.2002 22.6895C18.5202 22.6895 18.8402 22.6895 19.1602 22.6895H29.0201C29.4801 22.6895 29.8702 22.6794 30.1902 22.6494C30.5102 22.6294 30.7702 22.6096 30.9602 22.5996V24.3594C30.7802 24.3494 30.5102 24.3296 30.1602 24.3096C29.8102 24.2896 29.4302 24.2695 29.0402 24.2695H19.1602C18.6702 24.2695 18.2003 24.2693 17.7603 24.2993C17.3203 24.3193 16.9502 24.3394 16.6602 24.3594V22.5996V22.6094Z" fill="#003C81"/>
</svg>
