<svg width="74" height="60" viewBox="0 0 74 60" fill="none" xmlns="http://www.w3.org/2000/svg">
<path d="M5.6601 51.6592C2.4401 46.5792 0.830078 39.3992 0.830078 30.1292C0.830078 20.8591 2.4401 13.6493 5.6601 8.49927C8.8801 3.34927 13.3801 0.779297 19.1801 0.779297C24.9801 0.779297 29.4801 3.35927 32.7001 8.49927C35.9201 13.6493 37.5301 20.8591 37.5301 30.1292C37.5301 39.3992 35.9201 46.5792 32.7001 51.6592C29.4801 56.8092 24.9801 59.3792 19.1801 59.3792C13.3801 59.3792 8.8801 56.8092 5.6601 51.6592ZM29.9901 49.3494C32.5601 44.7794 33.8501 38.3792 33.8501 30.1392C33.8501 21.8992 32.5601 15.4992 29.9901 10.9292C27.4101 6.3592 23.8101 4.06934 19.1801 4.06934C14.5501 4.06934 10.9401 6.3592 8.37006 10.9292C5.79006 15.4992 4.51007 21.9092 4.51007 30.1392C4.51007 38.3692 5.80006 44.7794 8.37006 49.3494C10.9401 53.9194 14.5501 56.1992 19.1801 56.1992C23.8101 56.1992 27.4201 53.9194 29.9901 49.3494Z" fill="#274374"/>
<path d="M69.96 13.9094H56.73V11.3994H59.72C62.42 11.3994 64.84 10.3994 66.96 8.40942C69.15 6.34942 70.5 3.77945 71.02 0.689453H73.6299V58.7195H69.96V13.9194V13.9094Z" fill="#274374"/>
</svg>
