<svg width="83" height="60" viewBox="0 0 83 60" fill="none" xmlns="http://www.w3.org/2000/svg">
<path d="M5.66003 51.6592C2.44003 46.5792 0.830078 39.3992 0.830078 30.1292C0.830078 20.8591 2.44003 13.6493 5.66003 8.49927C8.88003 3.34927 13.3801 0.779297 19.1801 0.779297C24.9801 0.779297 29.4801 3.35927 32.7001 8.49927C35.9201 13.6493 37.53 20.8591 37.53 30.1292C37.53 39.3992 35.9201 46.5792 32.7001 51.6592C29.4801 56.8092 24.9801 59.3792 19.1801 59.3792C13.3801 59.3792 8.88003 56.8092 5.66003 51.6592ZM29.9901 49.3494C32.5601 44.7794 33.8501 38.3792 33.8501 30.1392C33.8501 21.8992 32.5601 15.4992 29.9901 10.9292C27.4101 6.3592 23.8101 4.06934 19.1801 4.06934C14.5501 4.06934 10.9401 6.3592 8.37012 10.9292C5.79012 15.4992 4.51013 21.9092 4.51013 30.1392C4.51013 38.3692 5.80012 44.7794 8.37012 49.3494C10.9401 53.9194 14.5501 56.1992 19.1801 56.1992C23.8101 56.1992 27.4201 53.9194 29.9901 49.3494Z" fill="#274374"/>
<path d="M47.5598 53.5999C47.5598 50.0599 49.2998 46.4197 52.7698 42.6897C56.1798 38.9597 60.8198 35.7398 66.6698 33.0298C70.2098 31.3598 73.0398 29.0697 75.1698 26.1697C77.2998 23.2697 78.3599 20.1797 78.3599 16.8997C78.3599 13.6197 77.0699 10.5599 74.4999 8.10986C71.9199 5.65986 68.7999 4.4397 65.1299 4.4397C61.7199 4.4397 58.7898 5.88978 56.3398 8.77979C53.8898 11.6098 52.6698 15.0599 52.6698 19.1099H48.6099C48.6099 14.0299 50.2198 9.70968 53.4398 6.16968C56.6598 2.56968 60.5499 0.759766 65.1199 0.759766C70.0099 0.759766 74.1598 2.33975 77.5798 5.48975C81.0598 8.63975 82.7898 12.4396 82.7898 16.8796C82.7898 20.7396 81.4698 24.4096 78.8298 27.8896C76.1898 31.4296 72.6199 34.2298 68.1099 36.2898C63.2199 38.5398 59.3198 41.1499 56.4298 44.1099C53.4698 47.0699 51.9899 49.8397 51.9899 52.4097V55.0198H82.7898V58.6897H47.5498V53.5698L47.5598 53.5999Z" fill="#274374"/>
</svg>
