<svg width="84" height="60" viewBox="0 0 84 60" fill="none" xmlns="http://www.w3.org/2000/svg">
<path d="M5.66003 51.6602C2.44003 46.5802 0.830078 39.4001 0.830078 30.1301C0.830078 20.8601 2.44003 13.6502 5.66003 8.50024C8.88003 3.35024 13.3801 0.780273 19.1801 0.780273C24.9801 0.780273 29.4801 3.36024 32.7001 8.50024C35.9201 13.6502 37.53 20.8601 37.53 30.1301C37.53 39.4001 35.9201 46.5802 32.7001 51.6602C29.4801 56.8102 24.9801 59.3801 19.1801 59.3801C13.3801 59.3801 8.88003 56.8102 5.66003 51.6602ZM29.9901 49.3503C32.5601 44.7803 33.8501 38.3801 33.8501 30.1401C33.8501 21.9001 32.5601 15.5002 29.9901 10.9302C27.4101 6.36018 23.8101 4.07031 19.1801 4.07031C14.5501 4.07031 10.9401 6.36018 8.37012 10.9302C5.79012 15.5002 4.51013 21.9101 4.51013 30.1401C4.51013 38.3701 5.80012 44.7803 8.37012 49.3503C10.9401 53.9203 14.5501 56.2002 19.1801 56.2002C23.8101 56.2002 27.4201 53.9203 29.9901 49.3503Z" fill="#274374"/>
<path d="M52.2001 54.8501C48.5901 51.8901 46.79 48.28 46.79 44.04V43.3601H50.8401V44.04C50.8401 47.39 52.2201 50.2499 54.9901 52.6299C57.8201 55.0099 61.2001 56.2 65.1301 56.2C69.0601 56.2 72.43 54.88 75.27 52.24C78.04 49.54 79.42 46.3201 79.42 42.5801C79.42 39.3001 78.29 36.53 76.04 34.28C73.85 31.96 71.18 30.8 68.03 30.8H61.4701V27.23H68.03C70.54 27.23 72.7001 26.14 74.5001 23.95C76.3001 21.83 77.2001 19.2199 77.2001 16.1299C77.2001 13.0399 75.9401 10.1401 73.4301 7.83008C70.9201 5.58008 67.8901 4.44995 64.3501 4.44995C60.8101 4.44995 58.0101 5.54998 55.5601 7.72998C53.1101 9.97998 51.8901 12.65 51.8901 15.74V17.5701H47.8301L48.2201 14.6699C48.2201 10.8099 49.8001 7.48998 52.9501 4.72998C56.1001 2.02998 59.9001 0.669922 64.3401 0.669922C68.7801 0.669922 72.9601 2.17996 76.3101 5.20996C79.5901 8.23996 81.2301 11.8701 81.2301 16.1201C81.2301 18.8901 80.4901 21.43 79.0101 23.75C77.5901 26.07 75.6601 27.81 73.2201 28.96C76.2401 29.8 78.6901 31.47 80.5601 33.98C82.4901 36.49 83.4601 39.3601 83.4601 42.5701C83.4601 47.2001 81.66 51.16 78.05 54.45C74.51 57.7299 70.2001 59.3701 65.1101 59.3701C60.0201 59.3701 55.71 57.8601 52.17 54.8301L52.2001 54.8501Z" fill="#274374"/>
</svg>
