<svg width="85" height="60" viewBox="0 0 85 60" fill="none" xmlns="http://www.w3.org/2000/svg">
<path d="M5.66003 51.6592C2.44003 46.5792 0.830078 39.3992 0.830078 30.1292C0.830078 20.8591 2.44003 13.6493 5.66003 8.49927C8.88003 3.34927 13.3801 0.779297 19.1801 0.779297C24.9801 0.779297 29.4801 3.35927 32.7001 8.49927C35.9201 13.6493 37.53 20.8591 37.53 30.1292C37.53 39.3992 35.9201 46.5792 32.7001 51.6592C29.4801 56.8092 24.9801 59.3792 19.1801 59.3792C13.3801 59.3792 8.88003 56.8092 5.66003 51.6592ZM29.9901 49.3494C32.5601 44.7794 33.8501 38.3792 33.8501 30.1392C33.8501 21.8992 32.5601 15.4992 29.9901 10.9292C27.4201 6.3592 23.8101 4.06934 19.1801 4.06934C14.5501 4.06934 10.9401 6.3592 8.37012 10.9292C5.79012 15.4992 4.51013 21.9092 4.51013 30.1392C4.51013 38.3692 5.80012 44.7794 8.37012 49.3494C10.9401 53.9194 14.5501 56.1992 19.1801 56.1992C23.8101 56.1992 27.4201 53.9194 29.9901 49.3494Z" fill="#274374"/>
<path d="M71.7003 44.8096H46.1104V40.3696L72.4703 0.689453H75.4603V41.1494H84.2504V44.8196H75.4603V58.7195H71.6903V44.8196L71.7003 44.8096ZM71.7003 41.1394V7.34961L49.6903 41.1394H71.7003Z" fill="#274374"/>
</svg>
