<svg width="26" height="206" viewBox="0 0 26 206" fill="none" xmlns="http://www.w3.org/2000/svg">
<path d="M0.659969 196.665C0.659969 195.067 1.01697 193.713 1.73097 192.602C2.4563 191.503 3.48764 190.709 4.82497 190.222C6.1623 189.746 7.75464 189.644 9.60197 189.916C11.4266 190.177 13.036 190.715 14.43 191.531C15.8353 192.358 16.9346 193.412 17.728 194.693C18.5213 195.974 18.918 197.441 18.918 199.096C18.918 200.728 18.5553 202.048 17.83 203.057C17.1046 204.066 16.0846 204.763 14.77 205.148C13.4666 205.533 11.9253 205.596 10.146 205.335L8.93897 205.165L8.93897 193.384C7.88497 193.225 6.93864 193.248 6.09997 193.452C5.27264 193.667 4.6153 194.07 4.12797 194.659C3.65197 195.248 3.41397 196.036 3.41397 197.022C3.41397 198.008 3.65197 198.892 4.12797 199.674C4.60397 200.467 5.3123 201.045 6.25297 201.408L6.25297 204.706C5.05163 204.332 4.03164 203.72 3.19297 202.87C2.3543 202.031 1.71963 201.068 1.28897 199.98C0.869633 198.892 0.659969 197.787 0.659969 196.665ZM11.302 193.707L11.302 202.122C12.22 202.258 13.053 202.23 13.801 202.037C14.5603 201.844 15.1553 201.47 15.586 200.915C16.028 200.371 16.249 199.629 16.249 198.688C16.249 197.747 16.0053 196.926 15.518 196.223C15.0306 195.52 14.4073 194.954 13.648 194.523C12.8886 194.104 12.1066 193.832 11.302 193.707Z" fill="url(#paint0_linear_1152_9035)"/>
<path d="M1.00003 181.4L18.578 183.882L18.578 187.316L1.00003 184.851L1.00003 181.4ZM21.995 184.29L25.582 184.783L25.582 188.37L21.995 187.877L21.995 184.29Z" fill="url(#paint1_linear_1152_9035)"/>
<path d="M1.00012 169.322L18.5781 165.752L18.5781 169.05L5.60712 171.345L5.60712 171.583L18.5781 177.652L18.5781 180.95L1.00012 172.263L1.00012 169.322Z" fill="url(#paint2_linear_1152_9035)"/>
<path d="M0.659969 153.932C0.659969 152.356 1.0113 151.03 1.71397 149.954C2.42797 148.877 3.4593 148.106 4.80797 147.642C6.15664 147.188 7.78864 147.098 9.70397 147.37C11.5513 147.619 13.1663 148.146 14.549 148.951C15.9316 149.767 17.0026 150.815 17.762 152.096C18.5326 153.376 18.918 154.844 18.918 156.499C18.918 158.085 18.5553 159.411 17.83 160.477C17.116 161.542 16.0676 162.296 14.685 162.738C13.3136 163.191 11.6533 163.282 9.70397 163.01C7.92463 162.76 6.35497 162.239 4.99497 161.446C3.63497 160.652 2.56964 159.621 1.79897 158.352C1.03964 157.094 0.659969 155.62 0.659969 153.932ZM3.46497 154.374C3.46497 155.314 3.72563 156.136 4.24697 156.839C4.77963 157.541 5.52197 158.119 6.47397 158.573C7.4373 159.026 8.54797 159.338 9.80597 159.508C10.9733 159.666 12.033 159.666 12.985 159.508C13.9483 159.36 14.7133 159.009 15.28 158.454C15.8466 157.91 16.13 157.122 16.13 156.091C16.13 155.127 15.8693 154.289 15.348 153.575C14.838 152.861 14.107 152.277 13.155 151.824C12.2143 151.382 11.098 151.076 9.80597 150.906C8.6613 150.747 7.6073 150.741 6.64397 150.889C5.68064 151.047 4.90997 151.404 4.33197 151.96C3.75397 152.526 3.46497 153.331 3.46497 154.374Z" fill="url(#paint3_linear_1152_9035)"/>
<path d="M1.00003 118.916L25.582 122.469L25.582 127.535L6.03203 131.207L25.582 140.608L25.582 145.606L1.00003 142.053L1.00003 138.415L20.584 141.254L1.00003 132.006L1.00003 128.912L20.431 125.359L1.00003 122.537L1.00003 118.916Z" fill="url(#paint4_linear_1152_9035)"/>
<path d="M0.881092 104.109C0.881092 102.84 1.05676 101.882 1.40809 101.236C1.75943 100.601 2.26376 100.193 2.92109 100.012C3.58976 99.8306 4.39443 99.8079 5.33509 99.9439L15.9601 101.474L15.9601 98.7539L18.5781 99.1449L18.5781 101.95L23.7461 103.327L23.7461 106.183L18.5951 105.452L18.5951 109.226L15.9601 108.835L15.9601 105.061L5.55609 103.565C4.70609 103.44 4.16209 103.508 3.92409 103.769C3.69742 104.041 3.58409 104.506 3.58409 105.163L3.58409 107.118L1.22109 106.778C1.13043 106.551 1.05109 106.217 0.983093 105.775C0.915093 105.344 0.881092 104.789 0.881092 104.109Z" fill="url(#paint5_linear_1152_9035)"/>
<path d="M1.00003 89.5742L18.578 92.0562L18.578 95.4902L1.00003 93.0252L1.00003 89.5742ZM21.995 92.4642L25.582 92.9572L25.582 96.5442L21.995 96.0512L21.995 92.4642Z" fill="url(#paint6_linear_1152_9035)"/>
<path d="M0.660124 76.4613C0.671457 75.6226 0.801791 74.835 1.05112 74.0983C1.30046 73.3616 1.67446 72.727 2.17312 72.1943C2.67179 71.6616 3.28946 71.2706 4.02612 71.0213C4.76279 70.772 5.61846 70.7153 6.59312 70.8513L18.5781 72.5173L18.5781 76.1213L6.98412 74.4893C5.93012 74.342 5.07446 74.529 4.41712 75.0503C3.75979 75.583 3.43112 76.4726 3.43112 77.7193C3.43112 78.864 3.74279 79.8216 4.36612 80.5923C5.00079 81.363 5.92446 81.8333 7.13712 82.0033L18.5781 83.6183L18.5781 87.1883L1.00012 84.7063L1.00012 81.9353L4.40012 82.0203C3.48212 81.6916 2.74546 81.2326 2.19012 80.6433C1.64612 80.054 1.24946 79.3966 1.00012 78.6713C0.762124 77.946 0.64879 77.2093 0.660124 76.4613Z" fill="url(#paint7_linear_1152_9035)"/>
<path d="M0.999969 57.5977L18.578 60.0797L18.578 63.5137L14.974 63.0037C15.8353 63.4003 16.555 63.8933 17.133 64.4827C17.7223 65.072 18.1643 65.7237 18.459 66.4377C18.765 67.1517 18.918 67.894 18.918 68.6647C18.918 68.88 18.901 69.084 18.867 69.2767C18.8443 69.4807 18.799 69.6337 18.731 69.7357L15.229 69.2427C15.297 69.118 15.3423 68.948 15.365 68.7327C15.3876 68.5173 15.4046 68.336 15.416 68.1887C15.484 67.1913 15.3876 66.3017 15.127 65.5197C14.8776 64.7377 14.4526 64.103 13.852 63.6157C13.2626 63.1283 12.5033 62.8167 11.574 62.6807L0.999969 61.2017L0.999969 57.5977Z" fill="url(#paint8_linear_1152_9035)"/>
<path d="M0.659969 46.9405C0.659969 45.4105 1.00563 44.1072 1.69697 43.0305C2.39963 41.9538 3.4253 41.1775 4.77397 40.7015C6.13397 40.2255 7.78297 40.1292 9.72097 40.4125C11.5456 40.6732 13.1493 41.2115 14.532 42.0275C15.9146 42.8548 16.9913 43.9088 17.762 45.1895C18.5326 46.4815 18.918 47.9492 18.918 49.5925C18.918 50.8618 18.6573 51.9498 18.136 52.8565C17.626 53.7632 16.912 54.4488 15.994 54.9135C15.076 55.3895 14.005 55.6048 12.781 55.5595L12.781 52.4655C13.359 52.4655 13.8973 52.3408 14.396 52.0915C14.8946 51.8535 15.2913 51.4908 15.586 51.0035C15.892 50.5275 16.045 49.9268 16.045 49.2015C16.045 47.8642 15.5293 46.7025 14.498 45.7165C13.4666 44.7418 11.8856 44.0958 9.75497 43.7785C7.80564 43.5065 6.25297 43.6765 5.09697 44.2885C3.94097 44.9118 3.36297 45.9545 3.36297 47.4165C3.36297 48.1532 3.52164 48.8048 3.83897 49.3715C4.1563 49.9495 4.5643 50.4255 5.06297 50.7995C5.56163 51.1848 6.0773 51.4568 6.60997 51.6155L6.60997 54.6415C5.4313 54.3468 4.3943 53.8312 3.49897 53.0945C2.60364 52.3578 1.90664 51.4568 1.40797 50.3915C0.909303 49.3375 0.659969 48.1872 0.659969 46.9405Z" fill="url(#paint9_linear_1152_9035)"/>
<path d="M0.659969 28.9442C0.659969 27.3462 1.01697 25.9919 1.73097 24.8812C2.4563 23.7819 3.48764 22.9886 4.82497 22.5012C6.1623 22.0252 7.75464 21.9232 9.60197 22.1952C11.4266 22.4559 13.036 22.9942 14.43 23.8102C15.8353 24.6376 16.9346 25.6916 17.728 26.9722C18.5213 28.2529 18.918 29.7206 18.918 31.3752C18.918 33.0072 18.5553 34.3276 17.83 35.3362C17.1046 36.3449 16.0846 37.0419 14.77 37.4272C13.4666 37.8126 11.9253 37.8749 10.146 37.6142L8.93897 37.4442L8.93897 25.6632C7.88497 25.5046 6.93864 25.5272 6.09997 25.7312C5.27264 25.9466 4.6153 26.3489 4.12797 26.9382C3.65197 27.5276 3.41397 28.3152 3.41397 29.3012C3.41397 30.2872 3.65197 31.1712 4.12797 31.9532C4.60397 32.7466 5.3123 33.3246 6.25297 33.6872L6.25297 36.9852C5.05163 36.6112 4.03164 35.9992 3.19297 35.1492C2.3543 34.3106 1.71963 33.3472 1.28897 32.2592C0.869633 31.1712 0.659969 30.0662 0.659969 28.9442ZM11.302 25.9862L11.302 34.4012C12.22 34.5372 13.053 34.5089 13.801 34.3162C14.5603 34.1236 15.1553 33.7496 15.586 33.1942C16.028 32.6502 16.249 31.9079 16.249 30.9672C16.249 30.0266 16.0053 29.2049 15.518 28.5022C15.0306 27.7996 14.4073 27.2329 13.648 26.8022C12.8886 26.3829 12.1066 26.1109 11.302 25.9862Z" fill="url(#paint10_linear_1152_9035)"/>
<path d="M1.00003 0.892577L25.582 4.46258L25.582 13.7956C25.582 15.5409 25.2987 16.9462 24.732 18.0116C24.1767 19.0882 23.3834 19.8306 22.352 20.2386C21.3207 20.6579 20.1024 20.7656 18.697 20.5616C17.371 20.3689 16.266 19.9949 15.382 19.4396C14.498 18.8842 13.7784 18.2269 13.223 17.4676C12.6677 16.7196 12.2314 15.9546 11.914 15.1726L1.00003 18.0966L1.00003 14.3736L11.285 11.7386L11.285 5.95858L1.00003 4.46258L1.00003 0.892577ZM14.226 6.38358L14.226 11.2456C14.226 12.2996 14.3904 13.2289 14.719 14.0336C15.0477 14.8382 15.5294 15.4842 16.164 15.9716C16.81 16.4589 17.5977 16.7706 18.527 16.9066C19.887 17.0992 20.9184 16.8442 21.621 16.1416C22.3237 15.4389 22.675 14.4076 22.675 13.0476L22.675 7.60758L14.226 6.38358Z" fill="url(#paint11_linear_1152_9035)"/>
<defs>
<linearGradient id="paint0_linear_1152_9035" x1="13.5" y1="-39.5" x2="13.5" y2="207" gradientUnits="userSpaceOnUse">
<stop stop-color="#934000"/>
<stop offset="0.616224" stop-color="#8E2200"/>
<stop offset="1" stop-color="#6F1800"/>
</linearGradient>
<linearGradient id="paint1_linear_1152_9035" x1="13.5" y1="-39.5" x2="13.5" y2="207" gradientUnits="userSpaceOnUse">
<stop stop-color="#934000"/>
<stop offset="0.616224" stop-color="#8E2200"/>
<stop offset="1" stop-color="#6F1800"/>
</linearGradient>
<linearGradient id="paint2_linear_1152_9035" x1="13.5" y1="-39.5" x2="13.5" y2="207" gradientUnits="userSpaceOnUse">
<stop stop-color="#934000"/>
<stop offset="0.616224" stop-color="#8E2200"/>
<stop offset="1" stop-color="#6F1800"/>
</linearGradient>
<linearGradient id="paint3_linear_1152_9035" x1="13.5" y1="-39.5" x2="13.5" y2="207" gradientUnits="userSpaceOnUse">
<stop stop-color="#934000"/>
<stop offset="0.616224" stop-color="#8E2200"/>
<stop offset="1" stop-color="#6F1800"/>
</linearGradient>
<linearGradient id="paint4_linear_1152_9035" x1="13.5" y1="-39.5" x2="13.5" y2="207" gradientUnits="userSpaceOnUse">
<stop stop-color="#934000"/>
<stop offset="0.616224" stop-color="#8E2200"/>
<stop offset="1" stop-color="#6F1800"/>
</linearGradient>
<linearGradient id="paint5_linear_1152_9035" x1="13.5" y1="-39.5" x2="13.5" y2="207" gradientUnits="userSpaceOnUse">
<stop stop-color="#934000"/>
<stop offset="0.616224" stop-color="#8E2200"/>
<stop offset="1" stop-color="#6F1800"/>
</linearGradient>
<linearGradient id="paint6_linear_1152_9035" x1="13.5" y1="-39.5" x2="13.5" y2="207" gradientUnits="userSpaceOnUse">
<stop stop-color="#934000"/>
<stop offset="0.616224" stop-color="#8E2200"/>
<stop offset="1" stop-color="#6F1800"/>
</linearGradient>
<linearGradient id="paint7_linear_1152_9035" x1="13.5" y1="-39.5" x2="13.5" y2="207" gradientUnits="userSpaceOnUse">
<stop stop-color="#934000"/>
<stop offset="0.616224" stop-color="#8E2200"/>
<stop offset="1" stop-color="#6F1800"/>
</linearGradient>
<linearGradient id="paint8_linear_1152_9035" x1="13.5" y1="-39.5" x2="13.5" y2="207" gradientUnits="userSpaceOnUse">
<stop stop-color="#934000"/>
<stop offset="0.616224" stop-color="#8E2200"/>
<stop offset="1" stop-color="#6F1800"/>
</linearGradient>
<linearGradient id="paint9_linear_1152_9035" x1="13.5" y1="-39.5" x2="13.5" y2="207" gradientUnits="userSpaceOnUse">
<stop stop-color="#934000"/>
<stop offset="0.616224" stop-color="#8E2200"/>
<stop offset="1" stop-color="#6F1800"/>
</linearGradient>
<linearGradient id="paint10_linear_1152_9035" x1="13.5" y1="-39.5" x2="13.5" y2="207" gradientUnits="userSpaceOnUse">
<stop stop-color="#934000"/>
<stop offset="0.616224" stop-color="#8E2200"/>
<stop offset="1" stop-color="#6F1800"/>
</linearGradient>
<linearGradient id="paint11_linear_1152_9035" x1="13.5" y1="-39.5" x2="13.5" y2="207" gradientUnits="userSpaceOnUse">
<stop stop-color="#934000"/>
<stop offset="0.616224" stop-color="#8E2200"/>
<stop offset="1" stop-color="#6F1800"/>
</linearGradient>
</defs>
</svg>
