<svg width="200" height="100" viewBox="0 0 200 100" fill="none" xmlns="http://www.w3.org/2000/svg">
<path d="M67.5312 29.4801V98.7701H130.631V15.8701L67.5312 29.4801ZM95.3712 77.1201H83.0012V64.7501H95.3712V77.1201ZM95.3712 58.5601H83.0012V46.1901H95.3712V58.5601ZM115.171 77.1201H102.801V64.7501H115.171V77.1201ZM115.171 58.5601H102.801V46.1901H115.171V58.5601Z" fill="url(#paint0_linear_1162_17777)"/>
<path d="M56.4017 12.5195L57.4417 16.5795C58.2317 19.6695 60.6417 22.0795 63.7317 22.8695L67.7917 23.9095L63.7317 24.9495C60.6417 25.7395 58.2317 28.1495 57.4417 31.2395L56.4017 35.2995L55.3617 31.2395C54.5717 28.1495 52.1617 25.7395 49.0717 24.9495L45.0117 23.9095L49.0717 22.8695C52.1617 22.0795 54.5717 19.6695 55.3617 16.5795L56.4017 12.5195Z" fill="url(#paint1_linear_1162_17777)"/>
<path d="M73.5891 2L74.2791 4.69C74.7991 6.74 76.3991 8.34 78.4491 8.86L81.1391 9.55L78.4491 10.24C76.3991 10.76 74.7991 12.36 74.2791 14.41L73.5891 17.1L72.8991 14.41C72.3791 12.36 70.7791 10.76 68.7291 10.24L66.0391 9.55L68.7291 8.86C70.7791 8.34 72.3791 6.74 72.8991 4.69L73.5891 2Z" fill="url(#paint2_linear_1162_17777)"/>
<path d="M146.101 57.0596L147.141 61.1196C147.931 64.2096 150.341 66.6196 153.431 67.4096L157.491 68.4496L153.431 69.4896C150.341 70.2796 147.931 72.6896 147.141 75.7796L146.101 79.8396L145.061 75.7796C144.271 72.6896 141.861 70.2796 138.771 69.4896L134.711 68.4496L138.771 67.4096C141.861 66.6196 144.271 64.2096 145.061 61.1196L146.101 57.0596Z" fill="url(#paint3_linear_1162_17777)"/>
<defs>
<linearGradient id="paint0_linear_1162_17777" x1="99.0812" y1="98.7701" x2="99.0812" y2="15.8701" gradientUnits="userSpaceOnUse">
<stop stop-color="#3975BF"/>
<stop offset="1" stop-color="#ADADAD"/>
</linearGradient>
<linearGradient id="paint1_linear_1162_17777" x1="56.4017" y1="35.3095" x2="56.4017" y2="12.5195" gradientUnits="userSpaceOnUse">
<stop stop-color="#3975BF"/>
<stop offset="1" stop-color="#ADADAD"/>
</linearGradient>
<linearGradient id="paint2_linear_1162_17777" x1="73.5891" y1="17.11" x2="73.5891" y2="2" gradientUnits="userSpaceOnUse">
<stop stop-color="#3975BF"/>
<stop offset="1" stop-color="#ADADAD"/>
</linearGradient>
<linearGradient id="paint3_linear_1162_17777" x1="146.101" y1="79.8496" x2="146.101" y2="57.0596" gradientUnits="userSpaceOnUse">
<stop stop-color="#3975BF"/>
<stop offset="1" stop-color="#ADADAD"/>
</linearGradient>
</defs>
</svg>
