<svg width="200" height="100" viewBox="0 0 200 100" fill="none" xmlns="http://www.w3.org/2000/svg">
<path d="M115.89 8H50V91.36H115.89V8Z" fill="url(#paint0_linear_1162_17773)"/>
<path d="M62.7719 25.8401L58.4219 21.4901L60.3819 19.5201L62.7719 21.9101L67.3519 17.3401L69.3119 19.3001L62.7719 25.8401Z" fill="#274374"/>
<path d="M107.472 19.71H73.1719V22.49H107.472V19.71Z" fill="#274374"/>
<path d="M62.7719 41.7197L58.4219 37.3597L60.3819 35.3997L62.7719 37.7897L67.3519 33.2197L69.3119 35.1797L62.7719 41.7197Z" fill="#274374"/>
<path d="M107.472 35.5901H73.1719V38.3701H107.472V35.5901Z" fill="#274374"/>
<path d="M62.7719 57.6001L58.4219 53.2401L60.3819 51.2801L62.7719 53.6701L67.3519 49.0901L69.3119 51.0601L62.7719 57.6001Z" fill="#274374"/>
<path d="M107.472 51.4697H73.1719V54.2497H107.472V51.4697Z" fill="#274374"/>
<path d="M62.7719 73.4797L58.4219 69.1197L60.3819 67.1497L62.7719 69.5497L67.3519 64.9697L69.3119 66.9397L62.7719 73.4797Z" fill="#274374"/>
<path d="M107.472 67.3401H73.1719V70.1201H107.472V67.3401Z" fill="#274374"/>
<path d="M135.331 31.4301C125.251 21.3501 108.921 21.3501 98.8412 31.4301C88.7613 41.5101 88.7613 57.8401 98.8412 67.9201C108.061 77.1401 122.511 77.9201 132.621 70.2701L154.041 91.6901C155.441 93.0901 157.701 93.0901 159.091 91.6901C160.481 90.2901 160.491 88.0301 159.091 86.6401L137.671 65.2201C145.321 55.1101 144.541 40.6501 135.321 31.4401L135.331 31.4301Z" fill="#274374"/>
<path d="M117.079 69.1305C127.821 69.1305 136.529 60.4224 136.529 49.6805C136.529 38.9385 127.821 30.2305 117.079 30.2305C106.337 30.2305 97.6289 38.9385 97.6289 49.6805C97.6289 60.4224 106.337 69.1305 117.079 69.1305Z" fill="white"/>
<defs>
<linearGradient id="paint0_linear_1162_17773" x1="82.95" y1="91.36" x2="82.95" y2="8" gradientUnits="userSpaceOnUse">
<stop stop-color="#3975BF"/>
<stop offset="1" stop-color="#ADADAD"/>
</linearGradient>
</defs>
</svg>
