<svg width="200" height="100" viewBox="0 0 200 100" fill="none" xmlns="http://www.w3.org/2000/svg">
<path d="M120.48 5H65.41C62.4221 5 60 7.42214 60 10.41V88.5C60 91.4879 62.4221 93.91 65.41 93.91H120.48C123.468 93.91 125.89 91.4879 125.89 88.5V10.41C125.89 7.42214 123.468 5 120.48 5Z" fill="url(#paint0_linear_1162_17772)"/>
<path d="M100.75 12.1396H85.1405C83.5333 12.1396 82.2305 13.4425 82.2305 15.0496V22.7296C82.2305 24.3368 83.5333 25.6396 85.1405 25.6396H100.75C102.358 25.6396 103.66 24.3368 103.66 22.7296V15.0496C103.66 13.4425 102.358 12.1396 100.75 12.1396Z" fill="white"/>
<path d="M86.16 33.5801H68.77C67.6544 33.5801 66.75 34.4845 66.75 35.6001V41.0901C66.75 42.2057 67.6544 43.1101 68.77 43.1101H86.16C87.2756 43.1101 88.18 42.2057 88.18 41.0901V35.6001C88.18 34.4845 87.2756 33.5801 86.16 33.5801Z" fill="white"/>
<path d="M117.121 33.5801H99.7309C98.6153 33.5801 97.7109 34.4845 97.7109 35.6001V41.0901C97.7109 42.2057 98.6153 43.1101 99.7309 43.1101H117.121C118.237 43.1101 119.141 42.2057 119.141 41.0901V35.6001C119.141 34.4845 118.237 33.5801 117.121 33.5801Z" fill="white"/>
<path d="M93.3408 22.8401H92.5508V29.9601H93.3408V22.8401Z" fill="white"/>
<path d="M108.429 36.76H107.629V30.01H78.2588V36.76H77.4688V29.21H108.429V36.76Z" fill="white"/>
<path d="M118.751 51.8401H67.9414V54.2201H118.751V51.8401Z" fill="white"/>
<path d="M119.15 61.8896H68.3398V64.2696H119.15V61.8896Z" fill="white"/>
<path d="M119.54 71.95H68.7305V74.33H119.54V71.95Z" fill="white"/>
<path d="M119.939 82.01H69.1289V84.39H119.939V82.01Z" fill="white"/>
<path d="M134.271 63.09L126.741 57.2599L159.301 15.2L166.831 21.03L134.271 63.09ZM132.331 65.5999L124.801 59.77L121.281 72.0999L132.341 65.5999H132.331Z" fill="#274374"/>
<defs>
<linearGradient id="paint0_linear_1162_17772" x1="92.95" y1="93.91" x2="92.95" y2="5" gradientUnits="userSpaceOnUse">
<stop stop-color="#3975BF"/>
<stop offset="1" stop-color="#ADADAD"/>
</linearGradient>
</defs>
</svg>
