<svg width="200" height="100" viewBox="0 0 200 100" fill="none" xmlns="http://www.w3.org/2000/svg">
<path d="M108.691 77.95L78.1711 47.4301C79.7511 41.1901 78.1011 34.3101 73.2211 29.4301C67.5211 23.7301 59.0811 22.4401 52.1411 25.5601L65.0911 38.51L63.0811 46.0001L55.5911 48.01L42.6511 35.0401C39.5411 41.9801 40.8211 50.42 46.5211 56.12C51.4011 61 58.2911 62.65 64.5211 61.07L95.0411 91.59C98.8111 95.36 104.911 95.36 108.681 91.59C112.451 87.82 112.451 81.72 108.681 77.95H108.691ZM99.1411 87.49C97.6311 85.98 97.6311 83.54 99.1411 82.03C100.651 80.52 103.091 80.52 104.601 82.03C106.111 83.54 106.111 85.98 104.601 87.49C103.091 89 100.651 89 99.1411 87.49Z" fill="url(#paint0_linear_1162_17775)"/>
<path d="M154.719 57.6C160.959 44.58 158.109 29.47 148.579 19.59L150.369 16.04L130.489 6L128.699 9.55C115.089 7.75 101.239 14.44 94.4794 27.2L88.8694 24.37L86.3594 29.34L157.819 65.4L160.329 60.43L154.719 57.6Z" fill="url(#paint1_linear_1162_17775)"/>
<defs>
<linearGradient id="paint0_linear_1162_17775" x1="76.2521" y1="94.4112" x2="76.2521" y2="23.8985" gradientUnits="userSpaceOnUse">
<stop stop-color="#3975BF"/>
<stop offset="1" stop-color="#ADADAD"/>
</linearGradient>
<linearGradient id="paint1_linear_1162_17775" x1="122.074" y1="47.3749" x2="140.416" y2="11.0314" gradientUnits="userSpaceOnUse">
<stop stop-color="#3975BF"/>
<stop offset="1" stop-color="#ADADAD"/>
</linearGradient>
</defs>
</svg>
