<svg xmlns="http://www.w3.org/2000/svg" width="50" height="50" fill="none" viewBox="0 0 50 50"><path fill="url(#a)" d="M25 36.853c-6.546 0-11.853-5.307-11.853-11.853S18.454 13.147 25 13.147 36.853 18.454 36.853 25 31.546 36.853 25 36.853m15.684-13.18v2.654h9.313v-2.654zM36.112 12.01l1.878 1.878 4.669-4.67-1.878-1.877zM23.673 9.314h2.654V0h-2.654zM12.01 13.888l1.878-1.878-4.67-4.669L7.342 9.22zM9.314 26.327v-2.654H0v2.654zm4.574 11.66L12.01 36.11l-4.669 4.669 1.878 1.877zm12.439 2.697h-2.654v9.313h2.654zm11.66-4.572L36.11 37.99l4.669 4.669 1.877-1.878z"/><defs><linearGradient id="a" x1="25" x2="25" y1="50" y2="0" gradientUnits="userSpaceOnUse"><stop stop-color="#3975bf"/><stop offset="1" stop-color="#adadad"/></linearGradient></defs></svg>