<svg width="461" height="252" viewBox="0 0 461 252" fill="none" xmlns="http://www.w3.org/2000/svg">
<path d="M148 0H27C13.1929 0 2 11.1929 2 25C2 38.8071 13.1929 50 27 50H148C161.807 50 173 38.8071 173 25C173 11.1929 161.807 0 148 0Z" fill="#274374"/>
<path d="M27.83 19.118V20.394H38.148V19.118H27.83ZM27.83 16.544V17.776H38.148V16.544H27.83ZM25.828 15.136H40.238V21.78H25.828V15.136ZM23.232 22.836H42.746V24.508H23.232V22.836ZM33.132 25.652H40.678V27.28H33.132V25.652ZM26.312 25.762H31.548V27.258H26.312V25.762ZM26.312 28.534H31.548V30.008H26.312V28.534ZM35.618 27.148C36.2487 28.6147 37.2167 29.8833 38.522 30.954C39.842 32.0247 41.4113 32.78 43.23 33.22C43.098 33.3373 42.9513 33.4913 42.79 33.682C42.6287 33.8873 42.4747 34.0853 42.328 34.276C42.196 34.4813 42.086 34.6647 41.998 34.826C40.0767 34.2687 38.434 33.374 37.07 32.142C35.7207 30.8953 34.6793 29.392 33.946 27.632L35.618 27.148ZM40.062 25.652H40.436L40.788 25.586L42.064 26.092C41.6093 27.6027 40.9493 28.9227 40.084 30.052C39.2333 31.1813 38.2433 32.1347 37.114 32.912C35.9847 33.6893 34.7673 34.3127 33.462 34.782C33.3593 34.5327 33.1907 34.2393 32.956 33.902C32.736 33.5793 32.5307 33.3227 32.34 33.132C33.2053 32.8827 34.0413 32.538 34.848 32.098C35.6547 31.6433 36.3953 31.108 37.07 30.492C37.7593 29.876 38.3607 29.194 38.874 28.446C39.402 27.6833 39.798 26.8547 40.062 25.96V25.652ZM23.034 31.812C23.7527 31.7533 24.574 31.6873 25.498 31.614C26.422 31.526 27.3973 31.438 28.424 31.35C29.4507 31.2473 30.4773 31.1447 31.504 31.042L31.526 32.736C30.03 32.8973 28.556 33.0587 27.104 33.22C25.652 33.3813 24.3467 33.5207 23.188 33.638L23.034 31.812ZM30.47 23.364H32.472V34.848H30.47V23.364ZM25.058 23.408H26.972V32.384H25.058V23.408ZM49.83 14.344L51.942 14.894C51.5313 15.9647 51.0547 17.0207 50.512 18.062C49.9693 19.0887 49.3827 20.042 48.752 20.922C48.1213 21.802 47.4613 22.572 46.772 23.232C46.64 23.1147 46.464 22.968 46.244 22.792C46.0387 22.616 45.8187 22.4473 45.584 22.286C45.364 22.11 45.166 21.978 44.99 21.89C45.6793 21.2887 46.3247 20.592 46.926 19.8C47.5273 18.9933 48.07 18.128 48.554 17.204C49.0527 16.2653 49.478 15.312 49.83 14.344ZM49.83 16.984H63.932V18.986H48.818L49.83 16.984ZM48.554 22.066H63.426V24.002H50.622V28.952H48.554V22.066ZM44.968 27.918H65.054V29.942H44.968V27.918ZM55.088 18.018H57.222V34.848H55.088V18.018ZM75.944 14.432H78.056V25.41C78.056 26.0113 77.9827 26.4733 77.836 26.796C77.6893 27.1187 77.4033 27.368 76.978 27.544C76.5673 27.7053 76.0393 27.8153 75.394 27.874C74.7487 27.918 73.964 27.94 73.04 27.94C73.0107 27.632 72.9227 27.2727 72.776 26.862C72.6293 26.4513 72.4753 26.0993 72.314 25.806C72.7687 25.806 73.2087 25.8133 73.634 25.828C74.0593 25.828 74.426 25.828 74.734 25.828C75.0567 25.828 75.284 25.828 75.416 25.828C75.6213 25.8133 75.7607 25.7767 75.834 25.718C75.9073 25.6593 75.944 25.5493 75.944 25.388V14.432ZM80.718 17.93L82.61 16.94C83.2407 17.6733 83.864 18.4727 84.48 19.338C85.096 20.2033 85.6607 21.0613 86.174 21.912C86.6873 22.748 87.076 23.518 87.34 24.222L85.228 25.344C84.9933 24.6693 84.634 23.8993 84.15 23.034C83.666 22.1687 83.1233 21.296 82.522 20.416C81.9353 19.5213 81.334 18.6927 80.718 17.93ZM81.972 23.76L84.172 24.398C83.644 26.026 82.962 27.434 82.126 28.622C81.29 29.7953 80.2707 30.7927 79.068 31.614C77.88 32.4353 76.494 33.11 74.91 33.638C73.3407 34.1807 71.544 34.606 69.52 34.914C69.432 34.5913 69.278 34.232 69.058 33.836C68.8527 33.44 68.64 33.11 68.42 32.846C70.312 32.626 71.9913 32.296 73.458 31.856C74.9393 31.4013 76.23 30.822 77.33 30.118C78.43 29.3993 79.3613 28.5193 80.124 27.478C80.8867 26.4367 81.5027 25.1973 81.972 23.76ZM70.994 17.204L73.282 17.754C72.93 18.6487 72.512 19.58 72.028 20.548C71.5587 21.5013 71.0307 22.418 70.444 23.298C69.872 24.1633 69.256 24.9333 68.596 25.608C68.4347 25.4613 68.244 25.3147 68.024 25.168C67.804 25.0067 67.5767 24.8527 67.342 24.706C67.122 24.5593 66.9167 24.442 66.726 24.354C67.3567 23.738 67.9433 23.0267 68.486 22.22C69.0433 21.4133 69.5347 20.5773 69.96 19.712C70.4 18.832 70.7447 17.996 70.994 17.204ZM94.204 32.626H105.424V34.188H94.204V32.626ZM97.944 18.942H99.946V21.494H97.944V18.942ZM89.694 20.592H108.504V24.838H106.458V22.176H91.652V24.838H89.694V20.592ZM94.116 23.364H105.16V28.006H94.116V26.466H103.092V24.904H94.116V23.364ZM94.204 29.304H106.7V34.848H104.632V30.866H94.204V29.304ZM92.972 23.364H94.952V34.87H92.972V23.364ZM91.674 16.038H98.692V17.732H91.674V16.038ZM100.386 16.038H109.12V17.732H100.386V16.038ZM91.938 14.3L93.896 14.806C93.4707 15.7887 92.9427 16.742 92.312 17.666C91.696 18.5753 91.0653 19.3453 90.42 19.976C90.3027 19.8587 90.134 19.734 89.914 19.602C89.7087 19.4553 89.496 19.316 89.276 19.184C89.0707 19.0373 88.8873 18.92 88.726 18.832C89.386 18.2747 90.002 17.5927 90.574 16.786C91.146 15.9793 91.6007 15.1507 91.938 14.3ZM100.738 14.3L102.718 14.784C102.322 15.7227 101.801 16.6247 101.156 17.49C100.525 18.3407 99.8653 19.052 99.176 19.624C99.044 19.5213 98.868 19.404 98.648 19.272C98.428 19.14 98.2007 19.0153 97.966 18.898C97.746 18.766 97.548 18.6633 97.372 18.59C98.0907 18.0767 98.7433 17.4387 99.33 16.676C99.9313 15.9133 100.401 15.1213 100.738 14.3ZM92.708 17.336L94.49 16.852C94.7687 17.2333 95.0327 17.666 95.282 18.15C95.546 18.6193 95.7367 19.03 95.854 19.382L93.984 19.932C93.8813 19.5947 93.7053 19.1767 93.456 18.678C93.2213 18.1793 92.972 17.732 92.708 17.336ZM102.256 17.38L104.082 16.852C104.419 17.2333 104.757 17.666 105.094 18.15C105.446 18.6193 105.703 19.0373 105.864 19.404L103.972 19.976C103.811 19.624 103.569 19.206 103.246 18.722C102.923 18.2233 102.593 17.776 102.256 17.38ZM120.824 21.252V23.672H128.348V21.252H120.824ZM120.824 17.182V19.58H128.348V17.182H120.824ZM118.932 15.4H130.328V25.454H118.932V15.4ZM118.734 27.72H130.614V29.612H118.734V27.72ZM117.106 32.252H131.34V34.144H117.106V32.252ZM110.902 15.818H117.964V17.754H110.902V15.818ZM111.122 22.176H117.634V24.09H111.122V22.176ZM110.66 30.558C111.276 30.3967 111.973 30.1987 112.75 29.964C113.527 29.7293 114.349 29.4727 115.214 29.194C116.079 28.9153 116.945 28.6367 117.81 28.358L118.162 30.338C116.959 30.7487 115.742 31.1593 114.51 31.57C113.278 31.9807 112.163 32.3547 111.166 32.692L110.66 30.558ZM113.52 16.588H115.5V30.162L113.52 30.514V16.588ZM123.728 16.214H125.51V24.596H125.664V33.11H123.552V24.596H123.728V16.214ZM141.746 27.346H145.992V28.776H141.746V27.346ZM140.448 16.544H147.29V18.106H140.448V16.544ZM139.898 21.384H153.23V23.056H139.898V21.384ZM142.142 24.222H146.916V31.944H142.142V30.47H145.244V25.696H142.142V24.222ZM140.91 24.222H142.538V33.286H140.91V24.222ZM142.934 14.476H144.716V17.644H142.934V14.476ZM151.096 24.024L152.812 24.398C152.181 26.7153 151.279 28.754 150.106 30.514C148.947 32.274 147.554 33.726 145.926 34.87C145.853 34.7527 145.743 34.606 145.596 34.43C145.449 34.2687 145.288 34.1 145.112 33.924C144.951 33.748 144.811 33.6013 144.694 33.484C146.293 32.516 147.627 31.2253 148.698 29.612C149.769 27.984 150.568 26.1213 151.096 24.024ZM141.02 18.48L142.384 18.15C142.575 18.6193 142.729 19.1327 142.846 19.69C142.978 20.2327 143.059 20.7093 143.088 21.12L141.614 21.472C141.614 21.076 141.555 20.5993 141.438 20.042C141.321 19.4847 141.181 18.964 141.02 18.48ZM149.644 16.016L151.03 15.29C151.499 15.8327 151.939 16.4413 152.35 17.116C152.775 17.776 153.091 18.3553 153.296 18.854L151.822 19.668C151.631 19.1693 151.331 18.5753 150.92 17.886C150.524 17.182 150.099 16.5587 149.644 16.016ZM145.09 18.128L146.718 18.48C146.542 18.9933 146.366 19.5213 146.19 20.064C146.029 20.592 145.875 21.0393 145.728 21.406L144.408 21.098C144.525 20.6873 144.65 20.2033 144.782 19.646C144.929 19.074 145.031 18.568 145.09 18.128ZM133.034 15.334H140.492V17.182H133.034V15.334ZM134.838 19.976H138.776V21.692H134.838V19.976ZM134.838 24.508H138.776V26.224H134.838V24.508ZM134.002 16.302H135.74V30.25H134.002V16.302ZM137.72 16.28H139.48V34.848H137.72V16.28ZM132.638 29.92C133.415 29.8027 134.332 29.6487 135.388 29.458C136.459 29.2527 137.551 29.04 138.666 28.82L138.82 30.602C137.793 30.822 136.774 31.042 135.762 31.262C134.765 31.4673 133.841 31.658 132.99 31.834L132.638 29.92ZM147.73 14.454H149.578C149.578 16.3753 149.6 18.2233 149.644 19.998C149.703 21.758 149.776 23.3933 149.864 24.904C149.967 26.4 150.091 27.7127 150.238 28.842C150.399 29.9567 150.575 30.8293 150.766 31.46C150.971 32.0907 151.191 32.406 151.426 32.406C151.587 32.406 151.719 32.142 151.822 31.614C151.939 31.0713 152.027 30.316 152.086 29.348C152.189 29.48 152.328 29.6267 152.504 29.788C152.68 29.9347 152.856 30.074 153.032 30.206C153.223 30.3233 153.362 30.4113 153.45 30.47C153.303 31.6287 153.105 32.5233 152.856 33.154C152.621 33.7847 152.372 34.2173 152.108 34.452C151.859 34.7013 151.609 34.826 151.36 34.826C150.773 34.8113 150.275 34.474 149.864 33.814C149.453 33.154 149.109 32.2227 148.83 31.02C148.566 29.8027 148.361 28.3507 148.214 26.664C148.067 24.9773 147.957 23.1073 147.884 21.054C147.811 18.986 147.759 16.786 147.73 14.454Z" fill="white"/>
<path d="M8.494 221V213.259V209.218C8.494 204.149 9.43017 199.765 11.3025 196.066C13.2205 192.367 15.7322 189.147 18.8375 186.408C21.9885 183.622 25.4135 181.133 29.1125 178.941C32.8572 176.749 36.579 174.648 40.278 172.639C44.0227 170.584 47.4477 168.46 50.553 166.268C53.6583 164.031 56.1472 161.519 58.0195 158.733C59.9375 155.902 60.8965 152.568 60.8965 148.732C60.8965 143.709 59.1155 139.622 55.5535 136.471C52.0372 133.32 47.265 131.744 41.237 131.744C34.7523 131.744 29.5463 133.571 25.619 137.224C21.6917 140.878 19.4768 145.741 18.9745 151.815H6.3705C6.5075 146.107 7.92317 140.901 10.6175 136.197C13.3118 131.448 17.262 127.657 22.468 124.826C27.674 121.995 34.0902 120.579 41.7165 120.579C48.3382 120.579 54.0922 121.766 58.9785 124.141C63.8648 126.47 67.6323 129.758 70.281 134.005C72.9753 138.206 74.3225 143.115 74.3225 148.732C74.3225 153.847 73.3863 158.231 71.514 161.884C69.6417 165.538 67.1528 168.712 64.0475 171.406C60.9878 174.055 57.6313 176.429 53.978 178.53C50.3247 180.631 46.6485 182.663 42.9495 184.626C39.2505 186.544 35.8712 188.577 32.8115 190.723C29.7518 192.824 27.2858 195.244 25.4135 197.984C23.5412 200.724 22.605 203.989 22.605 207.779V209.766H74.8705V221H8.494ZM125.862 222.507C118.19 222.507 111.523 220.52 105.86 216.547C100.243 212.574 95.8822 206.912 92.7768 199.559C89.7172 192.161 88.1873 183.302 88.1873 172.981C88.1873 162.387 89.6715 153.162 92.6398 145.307C95.6538 137.453 100.038 131.379 105.792 127.086C111.546 122.748 118.601 120.579 126.958 120.579C132.438 120.579 137.484 121.606 142.097 123.661C146.755 125.716 150.614 128.662 153.673 132.498C156.733 136.334 158.628 140.969 159.359 146.403H147.44C146.115 141.7 143.718 137.978 140.247 135.238C136.777 132.498 132.415 131.128 127.164 131.128C121.318 131.128 116.432 132.795 112.505 136.128C108.623 139.416 105.792 144.257 104.011 150.65C102.23 156.998 101.613 164.807 102.161 174.077C103.394 170.744 105.267 167.821 107.778 165.309C110.336 162.752 113.304 160.788 116.683 159.418C120.063 158.003 123.716 157.295 127.643 157.295C134.174 157.295 139.882 158.574 144.768 161.131C149.655 163.643 153.468 167.25 156.208 171.954C158.948 176.612 160.318 182.183 160.318 188.668C160.318 195.29 158.902 201.158 156.071 206.272C153.285 211.341 149.312 215.314 144.152 218.191C138.991 221.069 132.895 222.507 125.862 222.507ZM125.725 212.026C129.79 212.026 133.397 211.067 136.548 209.149C139.699 207.231 142.165 204.56 143.946 201.135C145.773 197.71 146.686 193.76 146.686 189.284C146.686 184.763 145.864 180.882 144.22 177.639C142.622 174.397 140.247 171.908 137.096 170.173C133.945 168.438 130.109 167.57 125.588 167.57C121.981 167.57 118.51 168.438 115.176 170.173C111.888 171.863 109.194 174.1 107.093 176.886C105.038 179.672 104.011 182.754 104.011 186.133C103.965 191.157 104.833 195.632 106.614 199.559C108.44 203.441 110.998 206.501 114.286 208.738C117.574 210.93 121.387 212.026 125.725 212.026Z" fill="#274374"/>
<path d="M185.922 196.093H188.892C188.937 198.186 189.13 200.212 189.472 202.168C189.813 204.125 190.234 205.934 190.735 207.595C191.258 209.256 191.815 210.712 192.407 211.964C193.021 213.215 193.636 214.193 194.25 214.899C194.864 215.581 195.41 215.923 195.888 215.923C196.275 215.923 196.548 215.547 196.707 214.796C196.867 214.046 196.992 212.84 197.083 211.179C197.401 211.452 197.777 211.725 198.209 211.998C198.664 212.271 199.074 212.476 199.438 212.612C199.301 214.228 199.074 215.479 198.755 216.366C198.459 217.277 198.061 217.902 197.561 218.244C197.083 218.585 196.457 218.755 195.683 218.755C194.751 218.755 193.829 218.346 192.919 217.527C192.009 216.708 191.156 215.581 190.359 214.148C189.563 212.692 188.846 211.019 188.209 209.131C187.572 207.22 187.06 205.16 186.673 202.953C186.286 200.723 186.036 198.437 185.922 196.093ZM190.666 197.493L192.509 196.093C193.215 196.525 193.954 197.037 194.728 197.629C195.524 198.198 196.127 198.71 196.537 199.165L194.625 200.735C194.239 200.257 193.658 199.722 192.885 199.131C192.111 198.516 191.372 197.97 190.666 197.493ZM182.202 208.858L184.284 208.073C184.785 208.846 185.262 209.7 185.717 210.633C186.173 211.565 186.491 212.362 186.673 213.022L184.455 213.943C184.273 213.261 183.965 212.441 183.533 211.486C183.124 210.53 182.68 209.654 182.202 208.858ZM194.182 203.192L197.049 203.807C195.956 207.151 194.421 210.075 192.441 212.578C190.462 215.081 188.163 217.117 185.547 218.687C185.388 218.505 185.171 218.266 184.898 217.971C184.648 217.697 184.375 217.424 184.079 217.151C183.806 216.878 183.567 216.651 183.363 216.469C185.934 215.126 188.141 213.317 189.984 211.042C191.85 208.767 193.249 206.15 194.182 203.192ZM175.376 208.107L177.765 208.619C177.447 209.802 177.014 210.974 176.468 212.134C175.945 213.295 175.387 214.284 174.796 215.104C174.568 214.899 174.238 214.671 173.806 214.421C173.374 214.148 173.01 213.943 172.714 213.807C173.306 213.033 173.829 212.146 174.284 211.145C174.739 210.143 175.103 209.131 175.376 208.107ZM171.963 199.404H198.516V201.964H171.963V199.404ZM174.489 204.182H185.615V206.639H174.489V204.182ZM168.379 193.943H198.653V196.571H168.379V193.943ZM184.25 189.233H195.581V191.554H184.25V189.233ZM170.222 199.404H173.192V205.24C173.192 206.241 173.146 207.333 173.055 208.516C172.964 209.677 172.794 210.871 172.543 212.1C172.316 213.306 171.974 214.478 171.519 215.616C171.087 216.753 170.518 217.8 169.813 218.755C169.654 218.551 169.415 218.323 169.096 218.073C168.8 217.823 168.493 217.584 168.175 217.356C167.879 217.129 167.617 216.958 167.39 216.844C168.232 215.707 168.846 214.455 169.233 213.09C169.642 211.725 169.904 210.36 170.018 208.994C170.154 207.629 170.222 206.366 170.222 205.206V199.404ZM182.509 187.015H185.649V195.274H182.509V187.015ZM173.704 188.516H176.741V195.581H173.704V188.516ZM178.755 205.752H181.383V215.479C181.383 216.093 181.315 216.583 181.178 216.947C181.064 217.311 180.803 217.606 180.393 217.834C180.006 218.039 179.517 218.164 178.926 218.209C178.357 218.255 177.697 218.278 176.946 218.278C176.878 217.891 176.764 217.47 176.605 217.015C176.446 216.56 176.275 216.15 176.093 215.786C176.616 215.809 177.083 215.82 177.492 215.82C177.924 215.82 178.209 215.82 178.345 215.82C178.527 215.798 178.641 215.763 178.687 215.718C178.732 215.672 178.755 215.57 178.755 215.411V205.752Z" fill="#274374"/>
<g clip-path="url(#clip0_1177_43076)">
<path d="M349.194 165.045V150.393H345.806V165.045H264.493V177.444H267.881V168.427H345.806V177.444H349.194V168.427H427.12V177.444H430.508V165.045H349.194Z" fill="#003C81"/>
<path d="M347.5 118.832C359.351 118.832 368.958 109.243 368.958 97.4158C368.958 85.5882 359.351 76 347.5 76C335.649 76 326.042 85.5882 326.042 97.4158C326.042 109.243 335.649 118.832 347.5 118.832Z" fill="url(#paint0_linear_1177_43076)"/>
<path d="M332.999 124.467H362.001C373.317 124.467 382.51 133.642 382.51 144.936V151.518H312.49V144.936C312.49 133.642 321.683 124.467 332.999 124.467Z" fill="url(#paint1_linear_1177_43076)"/>
<path d="M266.187 239.999C248.444 239.999 234 225.583 234 207.876C234 190.168 248.444 175.752 266.187 175.752C283.929 175.752 298.373 190.168 298.373 207.876C298.373 225.583 283.929 239.999 266.187 239.999Z" fill="url(#paint2_linear_1177_43076)"/>
<path d="M266.187 213.805C273.441 213.805 279.321 207.936 279.321 200.697C279.321 193.457 273.441 187.588 266.187 187.588C258.933 187.588 253.052 193.457 253.052 200.697C253.052 207.936 258.933 213.805 266.187 213.805Z" fill="white"/>
<path d="M275.063 217.242H257.31C251.223 217.242 246.141 221.57 245 227.319C250.263 233.022 257.807 236.618 266.175 236.618C274.544 236.618 282.088 233.034 287.351 227.319C286.21 221.57 281.139 217.242 275.041 217.242H275.063Z" fill="white"/>
<path d="M347.5 239.999C329.758 239.999 315.313 225.583 315.313 207.876C315.313 190.168 329.758 175.752 347.5 175.752C365.242 175.752 379.687 190.168 379.687 207.876C379.687 225.583 365.242 239.999 347.5 239.999Z" fill="url(#paint3_linear_1177_43076)"/>
<path d="M347.5 213.805C354.754 213.805 360.634 207.936 360.634 200.697C360.634 193.457 354.754 187.588 347.5 187.588C340.246 187.588 334.366 193.457 334.366 200.697C334.366 207.936 340.246 213.805 347.5 213.805Z" fill="white"/>
<path d="M356.377 217.242H338.623C332.536 217.242 327.454 221.57 326.313 227.319C331.576 233.022 339.12 236.618 347.489 236.618C355.857 236.618 363.401 233.034 368.664 227.319C367.524 221.57 362.453 217.242 356.354 217.242H356.377Z" fill="white"/>
<path d="M428.814 239.999C411.071 239.999 396.627 225.583 396.627 207.876C396.627 190.168 411.071 175.752 428.814 175.752C446.556 175.752 461 190.168 461 207.876C461 225.583 446.556 239.999 428.814 239.999Z" fill="url(#paint4_linear_1177_43076)"/>
<path d="M428.814 213.805C436.067 213.805 441.948 207.936 441.948 200.697C441.948 193.457 436.067 187.588 428.814 187.588C421.56 187.588 415.679 193.457 415.679 200.697C415.679 207.936 421.56 213.805 428.814 213.805Z" fill="white"/>
<path d="M437.69 217.242H419.937C413.85 217.242 408.768 221.57 407.627 227.319C412.89 233.022 420.434 236.618 428.802 236.618C437.171 236.618 444.715 233.034 449.978 227.319C448.837 221.57 443.766 217.242 437.668 217.242H437.69Z" fill="white"/>
</g>
<defs>
<linearGradient id="paint0_linear_1177_43076" x1="347.5" y1="118.832" x2="347.5" y2="76" gradientUnits="userSpaceOnUse">
<stop stop-color="#3975BF"/>
<stop offset="1" stop-color="#ADADAD"/>
</linearGradient>
<linearGradient id="paint1_linear_1177_43076" x1="234" y1="151.518" x2="235.125" y2="124.467" gradientUnits="userSpaceOnUse">
<stop stop-color="#3975BF"/>
<stop offset="1" stop-color="#ADADAD"/>
</linearGradient>
<linearGradient id="paint2_linear_1177_43076" x1="266.187" y1="239.999" x2="266.187" y2="175.752" gradientUnits="userSpaceOnUse">
<stop stop-color="#3975BF"/>
<stop offset="1" stop-color="#ADADAD"/>
</linearGradient>
<linearGradient id="paint3_linear_1177_43076" x1="347.5" y1="239.999" x2="347.5" y2="175.752" gradientUnits="userSpaceOnUse">
<stop stop-color="#3975BF"/>
<stop offset="1" stop-color="#ADADAD"/>
</linearGradient>
<linearGradient id="paint4_linear_1177_43076" x1="428.814" y1="239.999" x2="428.814" y2="175.752" gradientUnits="userSpaceOnUse">
<stop stop-color="#3975BF"/>
<stop offset="1" stop-color="#ADADAD"/>
</linearGradient>
<clipPath id="clip0_1177_43076">
<rect width="227" height="164" fill="white" transform="translate(234 76)"/>
</clipPath>
</defs>
</svg>
