<svg width="323" height="500" viewBox="0 0 323 500" fill="none" xmlns="http://www.w3.org/2000/svg">
<path d="M186.115 20.001H137.886C129.665 20.001 123 26.7167 123 35.001C123 43.2852 129.665 50.001 137.886 50.001H186.115C194.336 50.001 201 43.2852 201 35.001C201 26.7167 194.336 20.001 186.115 20.001Z" fill="#274374"/>
<path d="M137.374 32.315V33.603H144.57V32.315H137.374ZM137.374 30.019V31.265H144.57V30.019H137.374ZM136.044 28.899H145.956V34.709H136.044V28.899ZM140.272 29.417H141.616V34.163H140.272V29.417ZM134.994 35.913H145.648V37.103H134.994V35.913ZM145.074 35.913H146.432C146.432 35.913 146.428 35.9456 146.418 36.011C146.418 36.0763 146.414 36.151 146.404 36.235C146.395 36.319 146.386 36.3936 146.376 36.459C146.302 37.327 146.218 38.0456 146.124 38.615C146.031 39.175 145.924 39.6183 145.802 39.945C145.69 40.2716 145.56 40.5096 145.41 40.659C145.233 40.8176 145.046 40.925 144.85 40.981C144.664 41.0463 144.435 41.0883 144.164 41.107C143.931 41.1256 143.614 41.1303 143.212 41.121C142.82 41.121 142.4 41.1116 141.952 41.093C141.934 40.9063 141.887 40.6963 141.812 40.463C141.738 40.239 141.64 40.0476 141.518 39.889C141.966 39.9263 142.391 39.9496 142.792 39.959C143.203 39.9683 143.492 39.973 143.66 39.973C143.819 39.973 143.945 39.9636 144.038 39.945C144.132 39.9263 144.216 39.889 144.29 39.833C144.402 39.7396 144.505 39.553 144.598 39.273C144.692 38.9836 144.776 38.5823 144.85 38.069C144.934 37.5463 145.009 36.8883 145.074 36.095V35.913ZM140.062 34.485H141.448C141.364 35.1196 141.252 35.7263 141.112 36.305C140.972 36.8743 140.772 37.4063 140.51 37.901C140.249 38.3956 139.894 38.853 139.446 39.273C138.998 39.6836 138.429 40.0476 137.738 40.365C137.048 40.6823 136.208 40.953 135.218 41.177C135.181 41.0556 135.12 40.925 135.036 40.785C134.962 40.645 134.878 40.505 134.784 40.365C134.691 40.225 134.602 40.113 134.518 40.029C135.433 39.8423 136.203 39.6183 136.828 39.357C137.454 39.0863 137.962 38.783 138.354 38.447C138.756 38.1016 139.068 37.7236 139.292 37.313C139.516 36.9023 139.684 36.4636 139.796 35.997C139.908 35.521 139.997 35.017 140.062 34.485ZM148.672 31.461H161.37V32.791H148.672V31.461ZM153.81 28.185L155.252 28.437C154.982 29.1743 154.683 29.949 154.356 30.761C154.039 31.573 153.712 32.385 153.376 33.197C153.04 34.009 152.709 34.7836 152.382 35.521C152.056 36.2583 151.752 36.9256 151.472 37.523L150.142 37.033C150.422 36.473 150.721 35.829 151.038 35.101C151.365 34.373 151.692 33.6123 152.018 32.819C152.345 32.0163 152.662 31.2183 152.97 30.425C153.288 29.6316 153.568 28.885 153.81 28.185ZM157.856 32.091L159.284 32.413C159.023 33.813 158.654 35.017 158.178 36.025C157.702 37.033 157.082 37.8823 156.316 38.573C155.56 39.2543 154.622 39.805 153.502 40.225C152.382 40.6543 151.043 40.981 149.484 41.205C149.428 40.9996 149.33 40.7756 149.19 40.533C149.06 40.2903 148.924 40.085 148.784 39.917C150.259 39.7303 151.519 39.455 152.564 39.091C153.61 38.727 154.478 38.2416 155.168 37.635C155.868 37.019 156.433 36.2583 156.862 35.353C157.292 34.4383 157.623 33.351 157.856 32.091ZM150.954 36.613L151.836 35.577C152.611 35.8383 153.428 36.1416 154.286 36.487C155.154 36.8323 156.008 37.2056 156.848 37.607C157.688 37.999 158.472 38.405 159.2 38.825C159.938 39.2356 160.563 39.6323 161.076 40.015L160.082 41.247C159.606 40.8643 159.014 40.4583 158.304 40.029C157.595 39.609 156.825 39.1936 155.994 38.783C155.164 38.363 154.314 37.9663 153.446 37.593C152.588 37.2196 151.757 36.893 150.954 36.613ZM165.122 32.441H168.706V33.729H165.122V32.441ZM164.338 28.297H165.71V39.679L164.338 40.001V28.297ZM162.504 39.497C163.064 39.4036 163.699 39.2823 164.408 39.133C165.127 38.9836 165.878 38.825 166.662 38.657C167.456 38.4796 168.244 38.307 169.028 38.139L169.154 39.413C168.426 39.581 167.694 39.7536 166.956 39.931C166.219 40.1083 165.505 40.2763 164.814 40.435C164.124 40.5936 163.484 40.7383 162.896 40.869L162.504 39.497ZM174.236 31.251L175.188 32.385C174.74 32.6463 174.25 32.9076 173.718 33.169C173.196 33.4303 172.659 33.6776 172.108 33.911C171.558 34.1443 171.026 34.3683 170.512 34.583C170.466 34.4243 170.396 34.2423 170.302 34.037C170.218 33.8316 170.13 33.659 170.036 33.519C170.54 33.3136 171.049 33.085 171.562 32.833C172.076 32.5716 172.561 32.3056 173.018 32.035C173.485 31.7643 173.891 31.503 174.236 31.251ZM169.644 28.297H171.002V38.727C171.002 39.119 171.044 39.371 171.128 39.483C171.212 39.595 171.408 39.651 171.716 39.651C171.782 39.651 171.898 39.651 172.066 39.651C172.244 39.651 172.435 39.651 172.64 39.651C172.846 39.651 173.037 39.651 173.214 39.651C173.392 39.651 173.522 39.651 173.606 39.651C173.812 39.651 173.961 39.581 174.054 39.441C174.157 39.301 174.232 39.0536 174.278 38.699C174.325 38.335 174.362 37.8216 174.39 37.159C174.558 37.2803 174.759 37.397 174.992 37.509C175.226 37.6116 175.44 37.691 175.636 37.747C175.59 38.5216 175.506 39.1423 175.384 39.609C175.263 40.0663 175.072 40.3976 174.81 40.603C174.549 40.8176 174.185 40.925 173.718 40.925C173.653 40.925 173.546 40.925 173.396 40.925C173.256 40.925 173.093 40.925 172.906 40.925C172.72 40.925 172.533 40.925 172.346 40.925C172.16 40.925 171.996 40.925 171.856 40.925C171.716 40.925 171.614 40.925 171.548 40.925C171.054 40.925 170.666 40.8596 170.386 40.729C170.116 40.5983 169.924 40.3696 169.812 40.043C169.7 39.7256 169.644 39.2823 169.644 38.713V28.297ZM182.272 28.185H183.644V30.159H182.272V28.185ZM182.272 36.263H183.644V41.205H182.272V36.263ZM176.728 37.271H189.3V38.503H176.728V37.271ZM177.162 29.669H188.88V30.873H177.162V29.669ZM187.648 31.167L188.824 31.755C188.47 32.0816 188.087 32.399 187.676 32.707C187.275 33.0056 186.906 33.267 186.57 33.491L185.604 32.959C185.828 32.8003 186.066 32.6183 186.318 32.413C186.57 32.2076 186.813 31.9976 187.046 31.783C187.28 31.559 187.48 31.3536 187.648 31.167ZM182.09 30.565L183.224 30.985C182.954 31.349 182.669 31.713 182.37 32.077C182.081 32.441 181.81 32.7536 181.558 33.015L180.704 32.637C180.863 32.4503 181.026 32.2356 181.194 31.993C181.372 31.741 181.54 31.489 181.698 31.237C181.857 30.985 181.988 30.761 182.09 30.565ZM184.162 31.615L185.198 32.105C184.825 32.553 184.414 33.0196 183.966 33.505C183.528 33.981 183.08 34.443 182.622 34.891C182.174 35.3296 181.75 35.717 181.348 36.053L180.564 35.619C180.966 35.2643 181.386 34.8583 181.824 34.401C182.263 33.9343 182.688 33.4583 183.098 32.973C183.518 32.4876 183.873 32.035 184.162 31.615ZM180.06 32.707L180.704 31.937C180.975 32.0956 181.26 32.2776 181.558 32.483C181.866 32.6883 182.156 32.8936 182.426 33.099C182.697 33.295 182.916 33.477 183.084 33.645L182.426 34.527C182.258 34.3496 182.039 34.1536 181.768 33.939C181.507 33.7243 181.227 33.5096 180.928 33.295C180.63 33.071 180.34 32.875 180.06 32.707ZM179.906 35.213C180.364 35.1943 180.886 35.1756 181.474 35.157C182.072 35.129 182.702 35.0963 183.364 35.059C184.027 35.0216 184.694 34.989 185.366 34.961V35.913C184.424 35.997 183.49 36.0716 182.566 36.137C181.642 36.2023 180.821 36.263 180.102 36.319L179.906 35.213ZM183.7 34.093L184.652 33.673C184.867 33.925 185.086 34.205 185.31 34.513C185.534 34.821 185.735 35.1243 185.912 35.423C186.099 35.7123 186.239 35.9783 186.332 36.221L185.324 36.711C185.231 36.4683 185.1 36.1976 184.932 35.899C184.764 35.591 184.573 35.2783 184.358 34.961C184.144 34.6436 183.924 34.3543 183.7 34.093ZM176.63 35.479C177.078 35.3296 177.615 35.129 178.24 34.877C178.866 34.6156 179.505 34.359 180.158 34.107L180.396 35.087C179.864 35.3483 179.323 35.6096 178.772 35.871C178.231 36.123 177.732 36.3516 177.274 36.557L176.63 35.479ZM177.092 32.063L177.974 31.335C178.226 31.4656 178.492 31.6196 178.772 31.797C179.052 31.9743 179.318 32.1516 179.57 32.329C179.822 32.5063 180.028 32.6743 180.186 32.833L179.262 33.631C179.113 33.4816 178.912 33.3136 178.66 33.127C178.418 32.931 178.161 32.7396 177.89 32.553C177.62 32.3663 177.354 32.203 177.092 32.063ZM185.31 34.695L186.22 33.967C186.566 34.135 186.934 34.331 187.326 34.555C187.718 34.7696 188.092 34.989 188.446 35.213C188.801 35.437 189.095 35.647 189.328 35.843L188.362 36.655C188.148 36.4683 187.868 36.2583 187.522 36.025C187.177 35.7916 186.808 35.5583 186.416 35.325C186.034 35.0916 185.665 34.8816 185.31 34.695Z" fill="white"/>
<path d="M62.0055 103.318C67.6248 103.318 72.1802 98.7627 72.1802 93.1434C72.1802 87.5241 67.6248 82.9688 62.0055 82.9688C56.3862 82.9688 51.8308 87.5241 51.8308 93.1434C51.8308 98.7627 56.3862 103.318 62.0055 103.318Z" fill="url(#paint0_linear_1177_43163)"/>
<path d="M72.174 106.224H51.8308V126.567H72.174V106.224Z" fill="url(#paint1_linear_1177_43163)"/>
<path d="M256.795 102.35C262.415 102.35 266.97 97.795 266.97 92.1756C266.97 86.5563 262.415 82.001 256.795 82.001C251.176 82.001 246.621 86.5563 246.621 92.1756C246.621 97.795 251.176 102.35 256.795 102.35Z" fill="url(#paint2_linear_1177_43163)"/>
<path d="M266.971 125.598H246.627L256.796 105.255L266.971 125.598Z" fill="url(#paint3_linear_1177_43163)"/>
<path d="M108.16 136.001C108.587 133.361 109.347 130.094 110.44 126.201C111.56 122.308 113.027 118.054 114.84 113.441C116.654 108.801 118.84 104.014 121.4 99.081C123.96 94.1476 126.894 89.3076 130.2 84.561H97.7202V78.161H138.32V84.561C136.267 87.361 134.227 90.5476 132.2 94.121C130.2 97.6676 128.294 101.388 126.48 105.281C124.667 109.148 123.04 112.974 121.6 116.761C120.16 120.521 118.96 124.068 118 127.401C117.067 130.708 116.467 133.574 116.2 136.001H108.16ZM155.247 105.681V96.281H164.087V105.681H155.247ZM155.247 135.761V126.441H164.087V135.761H155.247ZM201.974 136.881C198.001 136.854 194.494 136.121 191.454 134.681C188.441 133.241 186.067 131.228 184.334 128.641C182.601 126.028 181.667 122.934 181.534 119.361H188.934C189.494 122.961 190.961 125.721 193.334 127.641C195.707 129.561 198.681 130.521 202.254 130.521C205.081 130.521 207.547 130.081 209.654 129.201C211.761 128.294 213.387 127.054 214.534 125.481C215.681 123.908 216.254 122.068 216.254 119.961C216.254 117.641 215.614 115.681 214.334 114.081C213.054 112.481 211.307 111.268 209.094 110.441C206.881 109.588 204.414 109.148 201.694 109.121L196.494 109.001V102.721L201.454 102.601C203.987 102.548 206.254 102.068 208.254 101.161C210.254 100.228 211.827 99.0143 212.974 97.521C214.147 96.001 214.734 94.3343 214.734 92.521C214.734 90.921 214.241 89.441 213.254 88.081C212.267 86.6943 210.841 85.5876 208.974 84.761C207.134 83.9343 204.894 83.521 202.254 83.521C200.174 83.521 198.187 83.9343 196.294 84.761C194.401 85.561 192.841 86.801 191.614 88.481C190.387 90.161 189.734 92.3343 189.654 95.001H182.294C182.294 91.2676 183.201 88.0943 185.014 85.481C186.827 82.841 189.241 80.8276 192.254 79.441C195.294 78.0543 198.641 77.361 202.294 77.361C206.294 77.361 209.827 77.9476 212.894 79.121C215.961 80.2676 218.361 81.9476 220.094 84.161C221.827 86.3743 222.694 89.081 222.694 92.281C222.694 95.1343 221.787 97.721 219.974 100.041C218.161 102.334 215.387 104.134 211.654 105.441C214.187 106.134 216.401 107.148 218.294 108.481C220.187 109.814 221.654 111.454 222.694 113.401C223.734 115.321 224.254 117.534 224.254 120.041C224.254 122.681 223.694 125.054 222.574 127.161C221.481 129.241 219.934 131.014 217.934 132.481C215.934 133.921 213.574 135.028 210.854 135.801C208.134 136.548 205.174 136.908 201.974 136.881Z" fill="#274374"/>
<path d="M186.115 173.999H137.886C129.665 173.999 123 180.715 123 188.999C123 197.283 129.665 203.999 137.886 203.999H186.115C194.336 203.999 201 197.283 201 188.999C201 180.715 194.336 173.999 186.115 173.999Z" fill="#274374"/>
<path d="M135.428 183.093H146.53V184.409H135.428V183.093ZM134.686 189.029H147.342V190.359H134.686V189.029ZM136.352 185.333L137.556 184.983C137.734 185.3 137.902 185.646 138.06 186.019C138.228 186.383 138.378 186.742 138.508 187.097C138.648 187.442 138.746 187.75 138.802 188.021L137.528 188.441C137.463 188.17 137.37 187.858 137.248 187.503C137.136 187.148 137.001 186.78 136.842 186.397C136.684 186.014 136.52 185.66 136.352 185.333ZM144.416 184.927L145.83 185.305C145.662 185.669 145.48 186.042 145.284 186.425C145.088 186.808 144.897 187.176 144.71 187.531C144.524 187.876 144.346 188.184 144.178 188.455L143.016 188.091C143.184 187.811 143.357 187.489 143.534 187.125C143.712 186.752 143.875 186.374 144.024 185.991C144.183 185.599 144.314 185.244 144.416 184.927ZM140.3 183.625H141.672V195.161H140.3V183.625ZM154.146 187.321H158.388V188.511H154.146V187.321ZM153.46 191.745C153.88 191.605 154.366 191.442 154.916 191.255C155.467 191.068 156.055 190.863 156.68 190.639C157.306 190.406 157.926 190.177 158.542 189.953L158.78 191.087C157.959 191.414 157.124 191.745 156.274 192.081C155.425 192.417 154.66 192.72 153.978 192.991L153.46 191.745ZM154.762 184.465H160.334V185.725H154.762V184.465ZM159.928 184.465H161.272C161.272 184.465 161.268 184.512 161.258 184.605C161.258 184.689 161.258 184.782 161.258 184.885C161.258 184.988 161.254 185.072 161.244 185.137C161.198 186.724 161.146 188.077 161.09 189.197C161.034 190.308 160.969 191.218 160.894 191.927C160.829 192.636 160.745 193.196 160.642 193.607C160.549 194.008 160.432 194.298 160.292 194.475C160.124 194.708 159.942 194.867 159.746 194.951C159.56 195.044 159.331 195.11 159.06 195.147C158.818 195.184 158.5 195.198 158.108 195.189C157.716 195.189 157.31 195.18 156.89 195.161C156.881 194.965 156.834 194.736 156.75 194.475C156.676 194.223 156.578 194.004 156.456 193.817C156.904 193.854 157.315 193.878 157.688 193.887C158.062 193.887 158.332 193.887 158.5 193.887C158.64 193.896 158.752 193.887 158.836 193.859C158.93 193.822 159.014 193.756 159.088 193.663C159.2 193.542 159.298 193.294 159.382 192.921C159.476 192.538 159.555 192.002 159.62 191.311C159.686 190.611 159.742 189.724 159.788 188.651C159.844 187.578 159.891 186.28 159.928 184.759V184.465ZM154.986 182.169L156.33 182.463C156.134 183.182 155.892 183.882 155.602 184.563C155.313 185.244 154.996 185.879 154.65 186.467C154.305 187.055 153.941 187.573 153.558 188.021C153.484 187.937 153.376 187.844 153.236 187.741C153.096 187.629 152.952 187.522 152.802 187.419C152.653 187.316 152.522 187.232 152.41 187.167C152.989 186.57 153.498 185.832 153.936 184.955C154.375 184.068 154.725 183.14 154.986 182.169ZM148.686 185.389H153.124V186.649H148.686V185.389ZM150.324 182.309H151.612V191.535H150.324V182.309ZM148.406 191.577C148.808 191.428 149.27 191.255 149.792 191.059C150.324 190.854 150.884 190.634 151.472 190.401C152.06 190.168 152.644 189.934 153.222 189.701L153.502 190.933C152.718 191.278 151.916 191.624 151.094 191.969C150.282 192.314 149.545 192.627 148.882 192.907L148.406 191.577ZM165.71 182.127L167.054 182.477C166.793 183.158 166.49 183.83 166.144 184.493C165.799 185.146 165.426 185.753 165.024 186.313C164.623 186.873 164.203 187.363 163.764 187.783C163.68 187.708 163.568 187.615 163.428 187.503C163.298 187.391 163.158 187.284 163.008 187.181C162.868 187.069 162.742 186.985 162.63 186.929C163.069 186.546 163.48 186.103 163.862 185.599C164.245 185.086 164.59 184.535 164.898 183.947C165.216 183.35 165.486 182.743 165.71 182.127ZM165.71 183.807H174.684V185.081H165.066L165.71 183.807ZM164.898 187.041H174.362V188.273H166.214V191.423H164.898V187.041ZM162.616 190.765H175.398V192.053H162.616V190.765ZM169.056 184.465H170.414V195.175H169.056V184.465ZM179.682 182.197H180.914V186.089H179.682V182.197ZM179.668 187.391H180.48V192.991H179.668V187.391ZM177.414 182.953H178.534V185.977H177.414V182.953ZM176.994 187.265H178.002V195.161H176.994V187.265ZM182.118 187.279H183.168V195.021H182.118V187.279ZM184.932 189.099H186.178V195.175H184.932V189.099ZM180.242 183.373H183.084V184.437H180.242V183.373ZM184.47 186.481H188.096V187.629H184.47V186.481ZM183.686 188.819H188.46V189.967H183.686V188.819ZM178.282 189.435H181.838V190.233H178.282V189.435ZM177.554 193.243H182.748V194.265H177.554V193.243ZM176.518 185.683H183.406V186.803H176.518V185.683ZM178.268 187.867L178.884 187.671C179.015 187.886 179.127 188.124 179.22 188.385C179.323 188.637 179.388 188.856 179.416 189.043L178.758 189.281C178.73 189.085 178.67 188.856 178.576 188.595C178.483 188.324 178.38 188.082 178.268 187.867ZM181.222 187.699L181.922 187.895C181.801 188.147 181.68 188.394 181.558 188.637C181.446 188.87 181.339 189.08 181.236 189.267L180.634 189.071C180.746 188.875 180.858 188.646 180.97 188.385C181.082 188.124 181.166 187.895 181.222 187.699ZM179.542 189.813L180.102 190.051C180 190.359 179.864 190.681 179.696 191.017C179.528 191.344 179.342 191.652 179.136 191.941C178.94 192.221 178.735 192.459 178.52 192.655C178.492 192.534 178.436 192.394 178.352 192.235C178.278 192.067 178.203 191.927 178.128 191.815C178.315 191.675 178.497 191.498 178.674 191.283C178.852 191.059 179.015 190.821 179.164 190.569C179.323 190.317 179.449 190.065 179.542 189.813ZM180.438 190.191C180.504 190.247 180.606 190.34 180.746 190.471C180.886 190.592 181.036 190.728 181.194 190.877C181.362 191.026 181.516 191.166 181.656 191.297C181.796 191.418 181.894 191.507 181.95 191.563L181.446 192.179C181.372 192.076 181.274 191.95 181.152 191.801C181.031 191.652 180.896 191.498 180.746 191.339C180.597 191.171 180.457 191.017 180.326 190.877C180.196 190.728 180.084 190.611 179.99 190.527L180.438 190.191ZM186.234 183.583C186.066 184.012 185.838 184.474 185.548 184.969C185.268 185.454 184.951 185.926 184.596 186.383C184.242 186.84 183.864 187.232 183.462 187.559C183.397 187.382 183.304 187.181 183.182 186.957C183.061 186.733 182.944 186.546 182.832 186.397C183.234 186.089 183.612 185.697 183.966 185.221C184.321 184.745 184.638 184.246 184.918 183.723C185.208 183.191 185.432 182.682 185.59 182.197H186.808C187.032 182.71 187.298 183.224 187.606 183.737C187.914 184.25 188.246 184.726 188.6 185.165C188.964 185.594 189.333 185.94 189.706 186.201C189.585 186.369 189.464 186.57 189.342 186.803C189.221 187.036 189.118 187.251 189.034 187.447C188.652 187.13 188.283 186.752 187.928 186.313C187.574 185.874 187.252 185.417 186.962 184.941C186.673 184.465 186.43 184.012 186.234 183.583ZM187.76 188.819H188.964V192.375C188.964 192.655 188.936 192.884 188.88 193.061C188.824 193.238 188.703 193.383 188.516 193.495C188.32 193.598 188.087 193.663 187.816 193.691C187.555 193.71 187.242 193.719 186.878 193.719C186.86 193.542 186.813 193.341 186.738 193.117C186.664 192.884 186.584 192.688 186.5 192.529C186.752 192.538 186.976 192.543 187.172 192.543C187.368 192.543 187.504 192.543 187.578 192.543C187.653 192.534 187.7 192.52 187.718 192.501C187.746 192.473 187.76 192.426 187.76 192.361V188.819Z" fill="white"/>
<path d="M157.397 270.576C170.936 270.576 184.333 273.35 196.759 278.728C209.185 284.105 220.377 291.971 229.646 301.841C238.915 311.711 246.063 323.376 250.649 336.115C255.235 348.854 257.163 362.398 256.313 375.911L190.039 371.741C190.32 367.282 189.683 362.813 188.17 358.609C186.656 354.405 184.298 350.556 181.239 347.298C178.18 344.041 174.487 341.445 170.386 339.671C166.286 337.896 161.865 336.981 157.397 336.981L157.397 270.576Z" fill="url(#paint4_linear_1177_43163)"/>
<path d="M256.313 375.911C254.662 402.145 242.658 426.649 222.94 444.033C203.223 461.416 177.408 470.254 151.173 468.604L155.343 402.33C164 402.875 172.519 399.958 179.026 394.222C185.533 388.485 189.494 380.399 190.039 371.741L256.313 375.911Z" fill="url(#paint5_linear_1177_43163)"/>
<path d="M151.173 468.604C129.221 467.223 108.352 458.579 91.853 444.033C75.3539 429.487 64.1622 409.865 60.0406 388.259L125.269 375.816C126.629 382.946 130.323 389.421 135.767 394.222C141.212 399.022 148.099 401.874 155.343 402.33L151.173 468.604Z" fill="url(#paint6_linear_1177_43163)"/>
<path d="M60.0406 388.259C56.9124 371.861 57.9771 354.938 63.136 339.061C68.2948 323.183 77.3805 308.867 89.5501 297.439L135.007 345.846C130.991 349.617 127.993 354.341 126.291 359.581C124.588 364.82 124.237 370.405 125.269 375.816L60.0406 388.259Z" fill="url(#paint7_linear_1177_43163)"/>
<path d="M89.5501 297.439C104.808 283.111 124.209 273.981 144.975 271.358L153.297 337.239C146.445 338.105 140.042 341.117 135.007 345.846L89.5501 297.439Z" fill="url(#paint8_linear_1177_43163)"/>
<path d="M144.975 271.358C149.095 270.837 153.244 270.576 157.397 270.576L157.397 336.981C156.026 336.981 154.657 337.067 153.297 337.239L144.975 271.358Z" fill="url(#paint9_linear_1177_43163)"/>
<path d="M284.088 280.184L298.921 278.254L299.234 280.425L284.402 282.355L284.088 280.184ZM293.35 273.407L295.038 272.321C295.504 272.691 295.978 273.109 296.461 273.575C296.943 274.042 297.393 274.508 297.811 274.974C298.229 275.424 298.559 275.843 298.8 276.228L296.991 277.41C296.766 277.04 296.453 276.622 296.051 276.156C295.649 275.69 295.215 275.215 294.748 274.733C294.282 274.235 293.816 273.792 293.35 273.407ZM283.34 272.177L285.511 272.876C284.916 274.307 284.209 275.714 283.389 277.097C282.569 278.463 281.676 279.75 280.711 280.956C279.763 282.162 278.79 283.223 277.793 284.139C277.713 283.962 277.592 283.729 277.431 283.44C277.287 283.15 277.126 282.861 276.949 282.572C276.772 282.282 276.619 282.049 276.491 281.872C277.391 281.1 278.267 280.2 279.12 279.171C279.972 278.142 280.76 277.032 281.483 275.843C282.207 274.653 282.826 273.431 283.34 272.177ZM280.711 278.833L283.027 276.518L283.051 276.542V294.293H280.711V278.833ZM289.105 272.321H291.396C291.46 274.974 291.613 277.45 291.854 279.75C292.095 282.033 292.417 284.051 292.819 285.803C293.237 287.54 293.751 288.915 294.362 289.928C294.99 290.925 295.721 291.479 296.557 291.592C296.863 291.608 297.112 291.278 297.305 290.603C297.498 289.928 297.643 288.907 297.739 287.54C297.9 287.685 298.093 287.845 298.318 288.022C298.559 288.183 298.8 288.336 299.041 288.481C299.299 288.625 299.492 288.73 299.62 288.794C299.443 290.257 299.202 291.399 298.897 292.219C298.591 293.023 298.246 293.578 297.86 293.883C297.49 294.189 297.08 294.333 296.63 294.317C295.52 294.221 294.563 293.803 293.76 293.063C292.956 292.34 292.272 291.335 291.709 290.048C291.163 288.746 290.713 287.202 290.359 285.418C290.005 283.617 289.732 281.615 289.539 279.412C289.346 277.209 289.201 274.846 289.105 272.321Z" fill="#254170"/>
<path d="M124.076 232.151L132.883 231.006L133.069 232.295L124.262 233.44L124.076 232.151ZM129.575 228.127L130.577 227.483C130.854 227.703 131.136 227.951 131.422 228.228C131.708 228.504 131.976 228.781 132.224 229.058C132.472 229.325 132.668 229.574 132.811 229.803L131.737 230.505C131.603 230.285 131.417 230.037 131.179 229.76C130.94 229.483 130.682 229.201 130.405 228.915C130.128 228.619 129.852 228.356 129.575 228.127ZM123.632 227.397L124.921 227.812C124.567 228.662 124.147 229.497 123.66 230.318C123.173 231.13 122.644 231.894 122.071 232.61C121.508 233.326 120.93 233.956 120.338 234.5C120.29 234.395 120.219 234.256 120.123 234.085C120.037 233.913 119.942 233.741 119.837 233.569C119.732 233.397 119.641 233.259 119.565 233.154C120.099 232.696 120.62 232.161 121.126 231.55C121.632 230.939 122.099 230.28 122.529 229.574C122.959 228.867 123.326 228.142 123.632 227.397ZM122.071 231.349L123.446 229.975L123.46 229.989V240.529H122.071V231.349ZM127.054 227.483H128.415C128.453 229.058 128.544 230.528 128.687 231.894C128.83 233.249 129.021 234.447 129.26 235.488C129.508 236.519 129.813 237.335 130.176 237.937C130.548 238.529 130.983 238.858 131.479 238.925C131.661 238.934 131.809 238.739 131.923 238.338C132.038 237.937 132.124 237.331 132.181 236.519C132.276 236.605 132.391 236.7 132.525 236.805C132.668 236.901 132.811 236.992 132.954 237.078C133.107 237.163 133.222 237.226 133.298 237.264C133.193 238.132 133.05 238.81 132.868 239.297C132.687 239.775 132.482 240.104 132.253 240.285C132.033 240.467 131.79 240.553 131.522 240.543C130.863 240.486 130.295 240.238 129.818 239.798C129.341 239.369 128.935 238.772 128.601 238.008C128.276 237.235 128.009 236.319 127.799 235.259C127.589 234.19 127.427 233.001 127.312 231.693C127.197 230.385 127.112 228.982 127.054 227.483Z" fill="#254170"/>
<path d="M66.035 320.69L76.2326 319.363L76.4482 320.856L66.2506 322.182L66.035 320.69ZM72.4023 316.03L73.563 315.284C73.8836 315.539 74.2097 315.826 74.5413 316.147C74.8729 316.467 75.1825 316.788 75.4699 317.108C75.7573 317.418 75.9839 317.705 76.1497 317.97L74.9061 318.783C74.7513 318.529 74.5358 318.241 74.2594 317.921C73.9831 317.6 73.6846 317.274 73.364 316.942C73.0435 316.6 72.7229 316.296 72.4023 316.03ZM65.521 315.185L67.0134 315.666C66.6043 316.649 66.118 317.617 65.5542 318.567C64.9904 319.507 64.3769 320.391 63.7137 321.22C63.0614 322.049 62.3927 322.779 61.7073 323.409C61.652 323.288 61.5691 323.127 61.4586 322.928C61.3591 322.729 61.2485 322.53 61.1269 322.331C61.0054 322.132 60.9003 321.972 60.8119 321.851C61.4309 321.32 62.0334 320.701 62.6193 319.993C63.2052 319.286 63.7468 318.523 64.2443 317.705C64.7417 316.887 65.1673 316.047 65.521 315.185ZM63.7137 319.761L65.3055 318.169L65.322 318.186V330.39H63.7137V319.761ZM69.484 315.284H71.0592C71.1034 317.108 71.2085 318.811 71.3743 320.391C71.5401 321.961 71.7612 323.348 72.0375 324.553C72.3249 325.747 72.6787 326.692 73.0987 327.389C73.5299 328.074 74.0328 328.455 74.6076 328.533C74.8177 328.544 74.989 328.317 75.1217 327.853C75.2543 327.389 75.3538 326.687 75.4201 325.747C75.5307 325.847 75.6633 325.957 75.8181 326.079C75.9839 326.189 76.1497 326.294 76.3155 326.394C76.4924 326.493 76.625 326.565 76.7135 326.609C76.5919 327.615 76.4261 328.4 76.216 328.964C76.006 329.517 75.7683 329.898 75.503 330.108C75.2488 330.318 74.9669 330.418 74.6574 330.407C73.8946 330.34 73.2369 330.053 72.6842 329.544C72.1315 329.047 71.6617 328.356 71.2748 327.472C70.8989 326.576 70.5894 325.515 70.3462 324.288C70.103 323.05 69.9151 321.674 69.7825 320.159C69.6498 318.645 69.5503 317.02 69.484 315.284Z" fill="#254170"/>
<path d="M64.5331 254.763L73.3401 253.617L73.5263 254.906L64.7193 256.052L64.5331 254.763ZM70.0321 250.739L71.0345 250.094C71.3114 250.314 71.593 250.562 71.8794 250.839C72.1658 251.116 72.4332 251.393 72.6814 251.67C72.9296 251.937 73.1253 252.185 73.2685 252.414L72.1945 253.116C72.0608 252.896 71.8747 252.648 71.636 252.371C71.3973 252.094 71.1396 251.813 70.8627 251.526C70.5858 251.23 70.309 250.968 70.0321 250.739ZM64.0892 250.008L65.378 250.424C65.0248 251.273 64.6047 252.109 64.1178 252.93C63.6309 253.741 63.1011 254.505 62.5283 255.221C61.965 255.937 61.3874 256.567 60.7955 257.111C60.7478 257.006 60.6762 256.868 60.5807 256.696C60.4948 256.524 60.3993 256.352 60.2943 256.18C60.1893 256.009 60.0986 255.87 60.0222 255.765C60.5568 255.307 61.0771 254.772 61.5831 254.161C62.0891 253.55 62.5569 252.892 62.9865 252.185C63.4161 251.479 63.7837 250.753 64.0892 250.008ZM62.5283 253.961L63.903 252.586L63.9173 252.6V263.14H62.5283V253.961ZM67.5117 250.094H68.8722C68.9104 251.67 69.0011 253.14 69.1443 254.505C69.2875 255.861 69.4784 257.059 69.7171 258.099C69.9653 259.13 70.2708 259.947 70.6336 260.548C71.0059 261.14 71.4403 261.469 71.9367 261.536C72.1181 261.546 72.2661 261.35 72.3806 260.949C72.4952 260.548 72.5811 259.942 72.6384 259.13C72.7339 259.216 72.8484 259.312 72.9821 259.417C73.1253 259.512 73.2685 259.603 73.4117 259.689C73.5645 259.775 73.679 259.837 73.7554 259.875C73.6504 260.744 73.5072 261.422 73.3258 261.909C73.1444 262.386 72.9391 262.715 72.71 262.897C72.4904 263.078 72.247 263.164 71.9797 263.154C71.3209 263.097 70.7529 262.849 70.2756 262.41C69.7982 261.98 69.3925 261.383 69.0583 260.62C68.7337 259.846 68.4664 258.93 68.2564 257.87C68.0464 256.801 67.8841 255.612 67.7695 254.304C67.6549 252.997 67.569 251.593 67.5117 250.094Z" fill="#254170"/>
<path d="M270.288 437.513L280.485 436.187L280.701 437.679L270.503 439.005L270.288 437.513ZM276.655 432.854L277.816 432.108C278.136 432.362 278.462 432.649 278.794 432.97C279.126 433.29 279.435 433.611 279.723 433.931C280.01 434.241 280.237 434.528 280.402 434.794L279.159 435.606C279.004 435.352 278.789 435.065 278.512 434.744C278.236 434.423 277.937 434.097 277.617 433.766C277.296 433.423 276.976 433.119 276.655 432.854ZM269.774 432.008L271.266 432.489C270.857 433.473 270.371 434.44 269.807 435.391C269.243 436.33 268.63 437.215 267.966 438.044C267.314 438.873 266.645 439.602 265.96 440.232C265.905 440.111 265.822 439.951 265.711 439.752C265.612 439.553 265.501 439.354 265.38 439.155C265.258 438.956 265.153 438.795 265.065 438.674C265.684 438.143 266.286 437.524 266.872 436.817C267.458 436.109 268 435.346 268.497 434.528C268.994 433.71 269.42 432.87 269.774 432.008ZM267.966 436.585L269.558 434.993L269.575 435.009V447.213H267.966V436.585ZM273.737 432.108H275.312C275.356 433.931 275.461 435.634 275.627 437.215C275.793 438.784 276.014 440.172 276.29 441.377C276.578 442.57 276.931 443.516 277.351 444.212C277.783 444.897 278.286 445.279 278.86 445.356C279.07 445.367 279.242 445.141 279.374 444.676C279.507 444.212 279.607 443.51 279.673 442.57C279.783 442.67 279.916 442.78 280.071 442.902C280.237 443.013 280.402 443.118 280.568 443.217C280.745 443.317 280.878 443.388 280.966 443.433C280.845 444.439 280.679 445.223 280.469 445.787C280.259 446.34 280.021 446.721 279.756 446.931C279.502 447.141 279.22 447.241 278.91 447.23C278.147 447.163 277.49 446.876 276.937 446.368C276.384 445.87 275.914 445.179 275.527 444.295C275.152 443.399 274.842 442.338 274.599 441.111C274.356 439.873 274.168 438.497 274.035 436.982C273.903 435.468 273.803 433.843 273.737 432.108Z" fill="#254170"/>
<path d="M81.8626 439.773L92.0602 438.446L92.2757 439.939L82.0781 441.265L81.8626 439.773ZM88.2298 435.113L89.3905 434.367C89.7111 434.622 90.0372 434.909 90.3688 435.23C90.7005 435.55 91.01 435.871 91.2974 436.191C91.5848 436.501 91.8114 436.788 91.9772 437.053L90.7336 437.866C90.5789 437.612 90.3633 437.324 90.087 437.004C89.8106 436.683 89.5121 436.357 89.1916 436.025C88.871 435.683 88.5504 435.379 88.2298 435.113ZM81.3486 434.268L82.8409 434.749C82.4319 435.732 81.9455 436.7 81.3817 437.65C80.818 438.59 80.2044 439.474 79.5412 440.303C78.889 441.133 78.2202 441.862 77.5348 442.492C77.4796 442.371 77.3967 442.21 77.2861 442.011C77.1866 441.812 77.0761 441.613 76.9545 441.414C76.8329 441.215 76.7279 441.055 76.6394 440.934C77.2585 440.403 77.8609 439.784 78.4468 439.076C79.0327 438.369 79.5743 437.606 80.0718 436.788C80.5692 435.97 80.9948 435.13 81.3486 434.268ZM79.5412 438.844L81.133 437.252L81.1496 437.269V449.473H79.5412V438.844ZM85.3115 434.367H86.8867C86.931 436.191 87.036 437.894 87.2018 439.474C87.3676 441.044 87.5887 442.431 87.8651 443.636C88.1525 444.83 88.5062 445.775 88.9263 446.472C89.3574 447.157 89.8604 447.538 90.4352 447.616C90.6452 447.627 90.8165 447.4 90.9492 446.936C91.0818 446.472 91.1813 445.77 91.2477 444.83C91.3582 444.93 91.4909 445.04 91.6456 445.162C91.8114 445.272 91.9772 445.377 92.1431 445.477C92.3199 445.576 92.4526 445.648 92.541 445.692C92.4194 446.698 92.2536 447.483 92.0436 448.047C91.8335 448.6 91.5959 448.981 91.3306 449.191C91.0763 449.401 90.7944 449.501 90.4849 449.49C89.7222 449.423 89.0644 449.136 88.5117 448.627C87.959 448.13 87.4892 447.439 87.1023 446.555C86.7265 445.659 86.4169 444.598 86.1737 443.371C85.9306 442.133 85.7426 440.757 85.61 439.242C85.4773 437.728 85.3778 436.103 85.3115 434.367Z" fill="#254170"/>
<path d="M121.774 259.058C121.21 259.058 120.713 258.908 120.282 258.61C119.851 258.301 119.513 257.853 119.27 257.267C119.027 256.681 118.905 255.979 118.905 255.161C118.905 254.343 119.027 253.652 119.27 253.088C119.513 252.514 119.851 252.077 120.282 251.778C120.713 251.469 121.21 251.314 121.774 251.314C122.636 251.314 123.327 251.651 123.847 252.326C124.377 252.989 124.643 253.934 124.643 255.161C124.643 255.979 124.521 256.681 124.278 257.267C124.046 257.853 123.714 258.301 123.283 258.61C122.852 258.908 122.349 259.058 121.774 259.058ZM121.774 257.914C122.216 257.914 122.57 257.693 122.835 257.25C123.112 256.797 123.25 256.101 123.25 255.161C123.25 254.221 123.112 253.536 122.835 253.105C122.57 252.663 122.216 252.442 121.774 252.442C121.354 252.442 121.006 252.663 120.729 253.105C120.453 253.536 120.315 254.221 120.315 255.161C120.315 256.101 120.453 256.797 120.729 257.25C121.006 257.693 121.354 257.914 121.774 257.914ZM130.479 264.016C129.916 264.016 129.413 263.861 128.97 263.551C128.539 263.242 128.202 262.8 127.959 262.225C127.716 261.639 127.594 260.937 127.594 260.119C127.594 259.301 127.716 258.61 127.959 258.046C128.202 257.471 128.539 257.035 128.97 256.736C129.413 256.427 129.916 256.272 130.479 256.272C131.054 256.272 131.552 256.427 131.972 256.736C132.403 257.035 132.74 257.471 132.983 258.046C133.226 258.61 133.348 259.301 133.348 260.119C133.348 260.937 133.226 261.639 132.983 262.225C132.74 262.8 132.403 263.242 131.972 263.551C131.552 263.861 131.054 264.016 130.479 264.016ZM130.479 262.871C130.91 262.871 131.264 262.65 131.54 262.208C131.817 261.755 131.955 261.059 131.955 260.119C131.955 259.179 131.817 258.494 131.54 258.063C131.264 257.621 130.91 257.4 130.479 257.4C130.048 257.4 129.694 257.621 129.418 258.063C129.142 258.494 129.004 259.179 129.004 260.119C129.004 261.059 129.142 261.755 129.418 262.208C129.694 262.65 130.048 262.871 130.479 262.871ZM122.155 264.016L128.871 251.314H130.081L123.366 264.016H122.155Z" fill="#254170"/>
<path d="M105.157 353.868C104.491 353.868 103.903 353.692 103.393 353.339C102.884 352.974 102.485 352.444 102.198 351.752C101.911 351.06 101.767 350.23 101.767 349.263C101.767 348.297 101.911 347.48 102.198 346.814C102.485 346.134 102.884 345.618 103.393 345.266C103.903 344.9 104.491 344.717 105.157 344.717C106.176 344.717 106.993 345.115 107.607 345.912C108.234 346.696 108.547 347.813 108.547 349.263C108.547 350.23 108.403 351.06 108.116 351.752C107.842 352.444 107.45 352.974 106.94 353.339C106.431 353.692 105.836 353.868 105.157 353.868ZM105.157 352.516C105.68 352.516 106.098 352.255 106.411 351.732C106.738 351.197 106.901 350.374 106.901 349.263C106.901 348.153 106.738 347.343 106.411 346.833C106.098 346.311 105.68 346.05 105.157 346.05C104.661 346.05 104.249 346.311 103.922 346.833C103.596 347.343 103.433 348.153 103.433 349.263C103.433 350.374 103.596 351.197 103.922 351.732C104.249 352.255 104.661 352.516 105.157 352.516ZM115.445 359.728C114.779 359.728 114.184 359.545 113.662 359.179C113.152 358.813 112.754 358.291 112.466 357.611C112.179 356.919 112.035 356.089 112.035 355.123C112.035 354.156 112.179 353.339 112.466 352.673C112.754 351.994 113.152 351.478 113.662 351.125C114.184 350.759 114.779 350.576 115.445 350.576C116.124 350.576 116.712 350.759 117.209 351.125C117.718 351.478 118.117 351.994 118.404 352.673C118.691 353.339 118.835 354.156 118.835 355.123C118.835 356.089 118.691 356.919 118.404 357.611C118.117 358.291 117.718 358.813 117.209 359.179C116.712 359.545 116.124 359.728 115.445 359.728ZM115.445 358.376C115.955 358.376 116.373 358.114 116.699 357.592C117.026 357.056 117.189 356.233 117.189 355.123C117.189 354.012 117.026 353.202 116.699 352.693C116.373 352.17 115.955 351.909 115.445 351.909C114.936 351.909 114.517 352.17 114.191 352.693C113.864 353.202 113.701 354.012 113.701 355.123C113.701 356.233 113.864 357.056 114.191 357.592C114.517 358.114 114.936 358.376 115.445 358.376ZM105.608 359.728L113.544 344.717H114.975L107.038 359.728H105.608Z" fill="white"/>
<path d="M63.7395 283.175C63.1757 283.175 62.6783 283.026 62.2471 282.727C61.816 282.418 61.4789 281.97 61.2357 281.384C60.9925 280.798 60.8709 280.096 60.8709 279.278C60.8709 278.46 60.9925 277.769 61.2357 277.206C61.4789 276.631 61.816 276.194 62.2471 275.896C62.6783 275.586 63.1757 275.431 63.7395 275.431C64.6017 275.431 65.2926 275.769 65.8121 276.443C66.3428 277.106 66.6081 278.051 66.6081 279.278C66.6081 280.096 66.4865 280.798 66.2433 281.384C66.0111 281.97 65.6795 282.418 65.2484 282.727C64.8173 283.026 64.3143 283.175 63.7395 283.175ZM63.7395 282.031C64.1816 282.031 64.5354 281.81 64.8007 281.368C65.077 280.914 65.2152 280.218 65.2152 279.278C65.2152 278.339 65.077 277.653 64.8007 277.222C64.5354 276.78 64.1816 276.559 63.7395 276.559C63.3194 276.559 62.9712 276.78 62.6948 277.222C62.4185 277.653 62.2803 278.339 62.2803 279.278C62.2803 280.218 62.4185 280.914 62.6948 281.368C62.9712 281.81 63.3194 282.031 63.7395 282.031ZM72.4447 288.133C71.8809 288.133 71.378 287.978 70.9358 287.668C70.5047 287.359 70.1675 286.917 69.9243 286.342C69.6811 285.756 69.5595 285.054 69.5595 284.236C69.5595 283.418 69.6811 282.727 69.9243 282.163C70.1675 281.589 70.5047 281.152 70.9358 280.854C71.378 280.544 71.8809 280.389 72.4447 280.389C73.0195 280.389 73.517 280.544 73.937 280.854C74.3682 281.152 74.7053 281.589 74.9485 282.163C75.1917 282.727 75.3133 283.418 75.3133 284.236C75.3133 285.054 75.1917 285.756 74.9485 286.342C74.7053 286.917 74.3682 287.359 73.937 287.668C73.517 287.978 73.0195 288.133 72.4447 288.133ZM72.4447 286.989C72.8758 286.989 73.2296 286.768 73.5059 286.325C73.7823 285.872 73.9205 285.176 73.9205 284.236C73.9205 283.297 73.7823 282.611 73.5059 282.18C73.2296 281.738 72.8758 281.517 72.4447 281.517C72.0136 281.517 71.6599 281.738 71.3835 282.18C71.1071 282.611 70.969 283.297 70.969 284.236C70.969 285.176 71.1071 285.872 71.3835 286.325C71.6599 286.768 72.0136 286.989 72.4447 286.989ZM64.1208 288.133L70.8363 275.431H72.0468L65.3313 288.133H64.1208Z" fill="#254170"/>
<path d="M212.9 421.549C212.131 421.549 211.453 421.346 210.865 420.939C210.277 420.517 209.817 419.906 209.485 419.107C209.154 418.308 208.988 417.351 208.988 416.236C208.988 415.12 209.154 414.178 209.485 413.409C209.817 412.626 210.277 412.03 210.865 411.623C211.453 411.201 212.131 410.99 212.9 410.99C214.075 410.99 215.018 411.45 215.726 412.369C216.45 413.274 216.811 414.563 216.811 416.236C216.811 417.351 216.646 418.308 216.314 419.107C215.997 419.906 215.545 420.517 214.957 420.939C214.369 421.346 213.684 421.549 212.9 421.549ZM212.9 419.989C213.503 419.989 213.985 419.688 214.347 419.085C214.724 418.467 214.912 417.517 214.912 416.236C214.912 414.954 214.724 414.02 214.347 413.432C213.985 412.829 213.503 412.528 212.9 412.528C212.327 412.528 211.852 412.829 211.475 413.432C211.098 414.02 210.91 414.954 210.91 416.236C210.91 417.517 211.098 418.467 211.475 419.085C211.852 419.688 212.327 419.989 212.9 419.989ZM224.77 428.31C224.002 428.31 223.316 428.099 222.713 427.677C222.125 427.255 221.665 426.652 221.334 425.868C221.002 425.069 220.836 424.112 220.836 422.996C220.836 421.881 221.002 420.939 221.334 420.17C221.665 419.386 222.125 418.791 222.713 418.384C223.316 417.962 224.002 417.751 224.77 417.751C225.554 417.751 226.233 417.962 226.805 418.384C227.393 418.791 227.853 419.386 228.185 420.17C228.516 420.939 228.682 421.881 228.682 422.996C228.682 424.112 228.516 425.069 228.185 425.868C227.853 426.652 227.393 427.255 226.805 427.677C226.233 428.099 225.554 428.31 224.77 428.31ZM224.77 426.75C225.358 426.75 225.841 426.448 226.218 425.845C226.594 425.227 226.783 424.278 226.783 422.996C226.783 421.715 226.594 420.781 226.218 420.193C225.841 419.59 225.358 419.288 224.77 419.288C224.183 419.288 223.7 419.59 223.323 420.193C222.947 420.781 222.758 421.715 222.758 422.996C222.758 424.278 222.947 425.227 223.323 425.845C223.7 426.448 224.183 426.75 224.77 426.75ZM213.42 428.31L222.577 410.99H224.228L215.07 428.31H213.42Z" fill="white"/>
<path d="M126.224 420.795C125.455 420.795 124.777 420.592 124.189 420.185C123.601 419.763 123.141 419.152 122.81 418.353C122.478 417.555 122.312 416.597 122.312 415.482C122.312 414.366 122.478 413.424 122.81 412.655C123.141 411.872 123.601 411.276 124.189 410.869C124.777 410.447 125.455 410.236 126.224 410.236C127.4 410.236 128.342 410.696 129.05 411.615C129.774 412.52 130.136 413.809 130.136 415.482C130.136 416.597 129.97 417.555 129.638 418.353C129.322 419.152 128.87 419.763 128.282 420.185C127.694 420.592 127.008 420.795 126.224 420.795ZM126.224 419.235C126.827 419.235 127.309 418.934 127.671 418.331C128.048 417.713 128.236 416.763 128.236 415.482C128.236 414.201 128.048 413.266 127.671 412.678C127.309 412.075 126.827 411.774 126.224 411.774C125.651 411.774 125.176 412.075 124.8 412.678C124.423 413.266 124.234 414.201 124.234 415.482C124.234 416.763 124.423 417.713 124.8 418.331C125.176 418.934 125.651 419.235 126.224 419.235ZM138.095 427.556C137.326 427.556 136.64 427.345 136.037 426.923C135.449 426.501 134.99 425.898 134.658 425.114C134.326 424.315 134.161 423.358 134.161 422.243C134.161 421.127 134.326 420.185 134.658 419.416C134.99 418.632 135.449 418.037 136.037 417.63C136.64 417.208 137.326 416.997 138.095 416.997C138.879 416.997 139.557 417.208 140.13 417.63C140.718 418.037 141.177 418.632 141.509 419.416C141.841 420.185 142.007 421.127 142.007 422.243C142.007 423.358 141.841 424.315 141.509 425.114C141.177 425.898 140.718 426.501 140.13 426.923C139.557 427.345 138.879 427.556 138.095 427.556ZM138.095 425.996C138.683 425.996 139.165 425.694 139.542 425.092C139.919 424.473 140.107 423.524 140.107 422.243C140.107 420.961 139.919 420.027 139.542 419.439C139.165 418.836 138.683 418.534 138.095 418.534C137.507 418.534 137.025 418.836 136.648 419.439C136.271 420.027 136.082 420.961 136.082 422.243C136.082 423.524 136.271 424.473 136.648 425.092C137.025 425.694 137.507 425.996 138.095 425.996ZM126.744 427.556L135.902 410.236H137.552L128.395 427.556H126.744Z" fill="white"/>
<path d="M221.944 332.613C221.175 332.613 220.497 332.409 219.909 332.002C219.321 331.58 218.861 330.97 218.529 330.171C218.198 329.372 218.032 328.415 218.032 327.299C218.032 326.184 218.198 325.242 218.529 324.473C218.861 323.689 219.321 323.094 219.909 322.687C220.497 322.264 221.175 322.053 221.944 322.053C223.119 322.053 224.062 322.513 224.77 323.433C225.494 324.337 225.855 325.626 225.855 327.299C225.855 328.415 225.69 329.372 225.358 330.171C225.041 330.97 224.589 331.58 224.001 332.002C223.413 332.409 222.728 332.613 221.944 332.613ZM221.944 331.053C222.547 331.053 223.029 330.751 223.391 330.148C223.768 329.53 223.956 328.581 223.956 327.299C223.956 326.018 223.768 325.083 223.391 324.495C223.029 323.892 222.547 323.591 221.944 323.591C221.371 323.591 220.896 323.892 220.519 324.495C220.142 325.083 219.954 326.018 219.954 327.299C219.954 328.581 220.142 329.53 220.519 330.148C220.896 330.751 221.371 331.053 221.944 331.053ZM233.814 339.373C233.046 339.373 232.36 339.162 231.757 338.74C231.169 338.318 230.709 337.715 230.378 336.932C230.046 336.133 229.88 335.175 229.88 334.06C229.88 332.944 230.046 332.002 230.378 331.234C230.709 330.45 231.169 329.854 231.757 329.447C232.36 329.025 233.046 328.814 233.814 328.814C234.598 328.814 235.277 329.025 235.849 329.447C236.437 329.854 236.897 330.45 237.229 331.234C237.56 332.002 237.726 332.944 237.726 334.06C237.726 335.175 237.56 336.133 237.229 336.932C236.897 337.715 236.437 338.318 235.849 338.74C235.277 339.162 234.598 339.373 233.814 339.373ZM233.814 337.813C234.402 337.813 234.885 337.512 235.262 336.909C235.638 336.291 235.827 335.341 235.827 334.06C235.827 332.779 235.638 331.844 235.262 331.256C234.885 330.653 234.402 330.352 233.814 330.352C233.227 330.352 232.744 330.653 232.367 331.256C231.991 331.844 231.802 332.779 231.802 334.06C231.802 335.341 231.991 336.291 232.367 336.909C232.744 337.512 233.227 337.813 233.814 337.813ZM222.464 339.373L231.621 322.053H233.272L224.114 339.373H222.464Z" fill="white"/>
<path d="M205.045 299.442V295.886V294.004C205.045 291.849 205.447 289.977 206.25 288.39C207.073 286.803 208.151 285.421 209.484 284.246C210.816 283.05 212.276 281.992 213.863 281.071C215.47 280.15 217.067 279.268 218.655 278.425C220.242 277.583 221.702 276.711 223.034 275.809C224.367 274.888 225.435 273.86 226.238 272.723C227.061 271.567 227.473 270.215 227.473 268.667C227.473 266.629 226.758 264.973 225.327 263.699C223.897 262.425 221.957 261.788 219.507 261.788C216.901 261.788 214.784 262.523 213.158 263.993C211.531 265.463 210.591 267.491 210.336 270.077H204.163C204.222 267.55 204.839 265.247 206.015 263.17C207.191 261.093 208.925 259.437 211.218 258.202C213.511 256.968 216.352 256.35 219.742 256.35C222.682 256.35 225.219 256.87 227.355 257.908C229.511 258.927 231.177 260.358 232.352 262.2C233.528 264.042 234.116 266.188 234.116 268.637C234.116 270.812 233.714 272.684 232.911 274.251C232.107 275.819 231.049 277.171 229.736 278.308C228.443 279.444 227.012 280.454 225.445 281.335C223.877 282.198 222.309 283.031 220.742 283.834C219.174 284.618 217.734 285.451 216.421 286.333C215.108 287.195 214.049 288.175 213.246 289.272C212.443 290.369 212.041 291.692 212.041 293.24V293.975H234.263V299.442H205.045ZM255.394 300.089C250.593 300.089 246.811 298.257 244.048 294.592C241.285 290.908 239.903 285.49 239.903 278.337C239.903 273.536 240.54 269.509 241.814 266.256C243.088 262.984 244.881 260.514 247.193 258.849C249.525 257.183 252.269 256.35 255.424 256.35C260.146 256.35 263.899 258.212 266.682 261.935C269.484 265.639 270.885 271.087 270.885 278.278C270.885 285.431 269.494 290.859 266.711 294.563C263.948 298.247 260.176 300.089 255.394 300.089ZM255.424 294.739C258.324 294.739 260.499 293.466 261.949 290.918C263.399 288.351 264.124 284.148 264.124 278.308C264.124 272.351 263.39 268.069 261.92 265.463C260.45 262.837 258.275 261.524 255.394 261.524C252.533 261.524 250.348 262.846 248.839 265.492C247.33 268.118 246.576 272.39 246.576 278.308C246.576 284.128 247.321 288.322 248.81 290.889C250.319 293.456 252.523 294.739 255.424 294.739Z" fill="#254170"/>
<path d="M177.778 338.262V336.347V335.334C177.778 334.173 177.995 333.165 178.427 332.31C178.87 331.456 179.451 330.712 180.168 330.079C180.886 329.435 181.672 328.865 182.527 328.369C183.392 327.873 184.252 327.399 185.107 326.945C185.961 326.491 186.747 326.022 187.465 325.536C188.182 325.04 188.757 324.486 189.19 323.874C189.633 323.252 189.855 322.524 189.855 321.69C189.855 320.593 189.47 319.701 188.699 319.015C187.929 318.329 186.885 317.986 185.566 317.986C184.162 317.986 183.023 318.382 182.147 319.173C181.271 319.965 180.764 321.057 180.627 322.45H177.303C177.335 321.089 177.668 319.849 178.301 318.73C178.934 317.612 179.868 316.72 181.102 316.055C182.337 315.391 183.867 315.058 185.692 315.058C187.275 315.058 188.641 315.338 189.792 315.897C190.952 316.446 191.849 317.216 192.482 318.208C193.115 319.2 193.432 320.355 193.432 321.674C193.432 322.846 193.216 323.853 192.783 324.697C192.35 325.542 191.781 326.27 191.074 326.882C190.377 327.494 189.607 328.037 188.763 328.512C187.919 328.976 187.074 329.425 186.23 329.857C185.386 330.279 184.611 330.728 183.904 331.203C183.197 331.667 182.627 332.194 182.194 332.785C181.762 333.376 181.545 334.088 181.545 334.922V335.318H193.511V338.262H177.778ZM205.443 338.61C203.629 338.61 202.051 338.151 200.711 337.233C199.381 336.304 198.353 334.991 197.625 333.292C196.907 331.582 196.548 329.551 196.548 327.198C196.548 324.729 196.902 322.587 197.609 320.772C198.316 318.947 199.35 317.538 200.711 316.546C202.072 315.554 203.729 315.058 205.681 315.058C206.989 315.058 208.197 315.301 209.305 315.786C210.424 316.272 211.342 316.973 212.059 317.891C212.788 318.799 213.22 319.902 213.357 321.199H210.208C209.912 320.144 209.379 319.321 208.609 318.73C207.849 318.129 206.894 317.828 205.744 317.828C204.467 317.828 203.396 318.192 202.531 318.92C201.676 319.638 201.054 320.688 200.663 322.07C200.284 323.452 200.162 325.119 200.299 327.072C200.595 326.375 201.028 325.768 201.597 325.251C202.178 324.724 202.842 324.317 203.592 324.033C204.341 323.748 205.143 323.605 205.997 323.605C207.517 323.605 208.846 323.895 209.986 324.476C211.126 325.056 212.012 325.884 212.645 326.961C213.289 328.037 213.611 329.314 213.611 330.791C213.611 332.31 213.273 333.661 212.598 334.843C211.933 336.014 210.988 336.937 209.764 337.613C208.54 338.278 207.1 338.61 205.443 338.61ZM205.38 335.888C206.266 335.888 207.053 335.682 207.738 335.27C208.435 334.848 208.984 334.268 209.385 333.529C209.786 332.78 209.986 331.92 209.986 330.949C209.986 329.968 209.801 329.129 209.432 328.433C209.063 327.736 208.53 327.203 207.833 326.834C207.148 326.465 206.325 326.28 205.364 326.28C204.573 326.28 203.818 326.465 203.101 326.834C202.383 327.193 201.798 327.668 201.344 328.259C200.89 328.85 200.663 329.493 200.663 330.19C200.642 331.319 200.827 332.31 201.217 333.165C201.618 334.02 202.172 334.69 202.879 335.175C203.597 335.65 204.43 335.888 205.38 335.888Z" fill="white"/>
<path d="M88.1984 241.802C88.332 240.885 88.585 239.744 88.9574 238.379C89.3297 237.014 89.8309 235.52 90.461 233.897C91.1006 232.264 91.8739 230.575 92.7809 228.828C93.6878 227.08 94.7428 225.367 95.9457 223.687H84.4608V221.095H99.2537V223.687C98.5376 224.651 97.8264 225.749 97.1199 226.98C96.4135 228.212 95.7404 229.505 95.1008 230.861C94.4707 232.207 93.8979 233.553 93.3823 234.899C92.8763 236.236 92.4611 237.501 92.1365 238.694C91.8119 239.878 91.6114 240.914 91.535 241.802H88.1984ZM108.944 242.117C106.605 242.117 104.763 241.224 103.416 239.439C102.07 237.644 101.397 235.004 101.397 231.52C101.397 229.181 101.708 227.219 102.328 225.634C102.949 224.04 103.822 222.837 104.949 222.025C106.085 221.214 107.421 220.808 108.958 220.808C111.259 220.808 113.087 221.715 114.443 223.529C115.808 225.333 116.491 227.987 116.491 231.491C116.491 234.976 115.813 237.62 114.457 239.425C113.111 241.219 111.273 242.117 108.944 242.117ZM108.958 239.511C110.371 239.511 111.431 238.89 112.137 237.649C112.844 236.398 113.197 234.35 113.197 231.505C113.197 228.603 112.839 226.517 112.123 225.247C111.407 223.968 110.347 223.329 108.944 223.329C107.55 223.329 106.486 223.973 105.751 225.262C105.015 226.541 104.648 228.622 104.648 231.505C104.648 234.341 105.011 236.384 105.736 237.635C106.471 238.885 107.545 239.511 108.958 239.511Z" fill="#254170"/>
<path d="M31.1888 333.333C29.7538 333.333 28.4243 333.09 27.2003 332.605C25.9762 332.109 24.9211 331.433 24.0347 330.579C23.1589 329.713 22.51 328.716 22.0879 327.587L24.9211 326.242C25.3009 327.065 25.7705 327.803 26.3297 328.458C26.889 329.101 27.5485 329.608 28.3082 329.977C29.0679 330.336 29.9385 330.515 30.9198 330.515C32.4709 330.515 33.7213 330.077 34.6709 329.202C35.6206 328.315 36.0954 327.118 36.0954 325.609C36.0954 324.67 35.8738 323.847 35.4307 323.14C34.9875 322.433 34.3913 321.884 33.6421 321.493C32.893 321.092 32.0541 320.892 31.1255 320.892C30.5452 320.892 30.0018 320.945 29.4953 321.05C28.9888 321.145 28.4823 321.34 27.9758 321.636C27.4799 321.921 26.9523 322.348 26.393 322.918C26.3086 322.96 26.2453 322.981 26.2031 322.981C26.1715 322.981 26.1029 322.955 25.9973 322.902L23.2908 321.921L24.3354 310.097H38.2797L38.1689 312.962H27.1369L26.5988 319.847C27.3796 319.214 28.2027 318.761 29.0679 318.486C29.9332 318.201 30.8723 318.059 31.8853 318.059C33.3098 318.059 34.6076 318.344 35.7789 318.914C36.9607 319.483 37.9051 320.322 38.612 321.43C39.319 322.528 39.6725 323.883 39.6725 325.498C39.6725 327.091 39.3243 328.473 38.6279 329.645C37.9314 330.816 36.9449 331.723 35.6681 332.367C34.4019 333.011 32.9088 333.333 31.1888 333.333ZM51.0175 333.333C48.4323 333.333 46.3958 332.346 44.908 330.373C43.4202 328.389 42.6763 325.471 42.6763 321.62C42.6763 319.035 43.0192 316.866 43.7051 315.115C44.391 313.353 45.3565 312.023 46.6016 311.126C47.8572 310.229 49.3345 309.781 51.0333 309.781C53.5763 309.781 55.597 310.783 57.0954 312.788C58.6043 314.783 59.3587 317.716 59.3587 321.588C59.3587 325.44 58.6095 328.363 57.1112 330.357C55.6234 332.341 53.5922 333.333 51.0175 333.333ZM51.0333 330.452C52.595 330.452 53.7663 329.766 54.5471 328.394C55.3279 327.012 55.7183 324.749 55.7183 321.604C55.7183 318.396 55.3226 316.091 54.5313 314.688C53.7399 313.274 52.5686 312.567 51.0175 312.567C49.4769 312.567 48.3004 313.279 47.4879 314.703C46.6754 316.117 46.2692 318.418 46.2692 321.604C46.2692 324.738 46.6702 326.996 47.4721 328.379C48.2846 329.761 49.4717 330.452 51.0333 330.452Z" fill="#254170"/>
<path d="M31.5022 265.482C29.8601 265.482 28.4329 265.067 27.2204 264.236C26.0175 263.396 25.0867 262.207 24.4279 260.67C23.7788 259.124 23.4542 257.286 23.4542 255.157C23.4542 252.923 23.774 250.985 24.4136 249.343C25.0533 247.691 25.9889 246.417 27.2204 245.52C28.4519 244.622 29.9508 244.173 31.717 244.173C32.9008 244.173 33.9939 244.393 34.9963 244.832C36.0083 245.271 36.8389 245.906 37.4881 246.737C38.1468 247.558 38.5382 248.555 38.6623 249.73H35.8126C35.5453 248.775 35.0632 248.03 34.3662 247.496C33.6789 246.952 32.8149 246.679 31.7743 246.679C30.6191 246.679 29.6501 247.009 28.8672 247.668C28.0939 248.317 27.5307 249.267 27.1774 250.517C26.8338 251.768 26.724 253.276 26.8481 255.043C27.1154 254.412 27.5068 253.863 28.0223 253.396C28.5474 252.918 29.1489 252.551 29.8267 252.293C30.5045 252.035 31.2301 251.906 32.0034 251.906C33.3781 251.906 34.581 252.169 35.6121 252.694C36.6432 253.219 37.4451 253.969 38.0179 254.942C38.6003 255.916 38.8915 257.071 38.8915 258.408C38.8915 259.783 38.586 261.005 37.975 262.074C37.3735 263.134 36.5191 263.969 35.4116 264.58C34.3042 265.181 33.001 265.482 31.5022 265.482ZM31.4449 263.019C32.2468 263.019 32.9581 262.833 33.5786 262.46C34.2087 262.079 34.7052 261.553 35.0679 260.885C35.4307 260.207 35.6121 259.429 35.6121 258.551C35.6121 257.663 35.445 256.904 35.1109 256.274C34.7768 255.644 34.2946 255.162 33.6645 254.828C33.044 254.494 32.2993 254.327 31.4306 254.327C30.7146 254.327 30.032 254.494 29.3828 254.828C28.7336 255.152 28.2037 255.582 27.7932 256.117C27.3827 256.651 27.1774 257.234 27.1774 257.864C27.1583 258.885 27.3254 259.783 27.6786 260.556C28.0414 261.329 28.5426 261.935 29.1823 262.375C29.8315 262.804 30.5857 263.019 31.4449 263.019ZM48.9573 265.482C46.6183 265.482 44.7758 264.589 43.4297 262.804C42.0835 261.009 41.4105 258.37 41.4105 254.885C41.4105 252.546 41.7208 250.584 42.3413 248.999C42.9619 247.405 43.8354 246.202 44.9619 245.391C46.098 244.579 47.4346 244.173 48.9716 244.173C51.2724 244.173 53.1006 245.08 54.4563 246.894C55.8215 248.699 56.5041 251.353 56.5041 254.856C56.5041 258.341 55.8263 260.985 54.4706 262.79C53.1245 264.585 51.2867 265.482 48.9573 265.482ZM48.9716 262.876C50.3846 262.876 51.4443 262.255 52.1507 261.014C52.8572 259.763 53.2104 257.716 53.2104 254.871C53.2104 251.968 52.8524 249.882 52.1364 248.613C51.4204 247.333 50.3607 246.694 48.9573 246.694C47.5635 246.694 46.499 247.338 45.7639 248.627C45.0288 249.906 44.6612 251.988 44.6612 254.871C44.6612 257.706 45.024 259.749 45.7495 261C46.4847 262.25 47.5587 262.876 48.9716 262.876Z" fill="#254170"/>
<path d="M106.494 264.197V262.92V262.245C106.494 261.471 106.638 260.8 106.926 260.23C107.222 259.66 107.609 259.164 108.087 258.742C108.565 258.313 109.089 257.933 109.659 257.602C110.236 257.272 110.809 256.955 111.379 256.653C111.949 256.35 112.473 256.037 112.951 255.714C113.43 255.383 113.813 255.014 114.102 254.606C114.397 254.191 114.545 253.705 114.545 253.15C114.545 252.418 114.288 251.824 113.774 251.366C113.261 250.909 112.565 250.68 111.685 250.68C110.75 250.68 109.99 250.944 109.406 251.472C108.822 251.999 108.484 252.727 108.393 253.656H106.177C106.198 252.749 106.42 251.922 106.842 251.176C107.264 250.431 107.887 249.836 108.71 249.393C109.533 248.95 110.553 248.728 111.77 248.728C112.825 248.728 113.736 248.915 114.503 249.288C115.276 249.653 115.874 250.167 116.296 250.828C116.718 251.489 116.929 252.26 116.929 253.139C116.929 253.92 116.785 254.592 116.497 255.154C116.208 255.717 115.829 256.203 115.357 256.611C114.893 257.019 114.379 257.381 113.817 257.697C113.254 258.007 112.691 258.306 112.128 258.594C111.566 258.876 111.049 259.175 110.577 259.491C110.106 259.801 109.726 260.152 109.438 260.546C109.149 260.94 109.005 261.415 109.005 261.971V262.235H116.982V264.197H106.494Z" fill="#254170"/>
<path d="M76.6664 359.641V344.71H73.0524V342.956C74.1779 342.956 75.0616 342.868 75.7035 342.692C76.3542 342.507 76.8203 342.239 77.1016 341.887C77.3918 341.527 77.5545 341.087 77.5897 340.568H79.5549V359.641H76.6664ZM91.3758 359.931C89.8634 359.931 88.5488 359.548 87.4321 358.783C86.3242 358.009 85.4668 356.915 84.8601 355.499C84.2622 354.075 83.9632 352.382 83.9632 350.421C83.9632 348.363 84.2578 346.578 84.8469 345.066C85.4361 343.545 86.2978 342.371 87.4321 341.544C88.5664 340.718 89.947 340.304 91.5737 340.304C92.664 340.304 93.6709 340.507 94.5941 340.911C95.5262 341.316 96.2912 341.9 96.8892 342.665C97.4959 343.422 97.8564 344.34 97.9707 345.422H95.346C95.0998 344.543 94.6557 343.857 94.0138 343.364C93.3807 342.863 92.5849 342.613 91.6265 342.613C90.5625 342.613 89.67 342.916 88.9489 343.523C88.2367 344.121 87.7179 344.996 87.3925 346.147C87.076 347.299 86.9749 348.689 87.0892 350.315C87.3354 349.735 87.6959 349.23 88.1707 348.799C88.6544 348.359 89.2083 348.02 89.8326 347.783C90.457 347.546 91.1252 347.427 91.8375 347.427C93.1037 347.427 94.2116 347.669 95.1613 348.152C96.111 348.636 96.8496 349.326 97.3772 350.223C97.9136 351.12 98.1818 352.184 98.1818 353.415C98.1818 354.681 97.9004 355.807 97.3376 356.792C96.7837 357.768 95.9967 358.537 94.9767 359.1C93.9566 359.654 92.7564 359.931 91.3758 359.931ZM91.3231 357.662C92.0617 357.662 92.7168 357.491 93.2884 357.148C93.8687 356.796 94.326 356.312 94.6601 355.697C94.9942 355.073 95.1613 354.356 95.1613 353.547C95.1613 352.729 95.0074 352.03 94.6997 351.45C94.3919 350.869 93.9479 350.425 93.3675 350.118C92.7959 349.81 92.1101 349.656 91.3099 349.656C90.6504 349.656 90.0217 349.81 89.4238 350.118C88.8258 350.417 88.3378 350.812 87.9597 351.305C87.5816 351.797 87.3925 352.333 87.3925 352.914C87.375 353.855 87.5288 354.681 87.8542 355.394C88.1883 356.106 88.65 356.664 89.2391 357.069C89.837 357.464 90.5317 357.662 91.3231 357.662Z" fill="white"/>
<path d="M41.2292 287.561V275.616H38.338V274.213C39.2384 274.213 39.9454 274.142 40.4589 274.001C40.9794 273.854 41.3523 273.639 41.5774 273.358C41.8095 273.069 41.9396 272.718 41.9678 272.303H43.54V287.561H41.2292ZM52.6274 287.793C50.904 287.793 49.5463 287.135 48.5544 285.819C47.5625 284.497 47.0666 282.552 47.0666 279.984C47.0666 278.261 47.2952 276.815 47.7525 275.648C48.2097 274.473 48.8534 273.586 49.6835 272.988C50.5206 272.391 51.5054 272.092 52.638 272.092C54.3333 272.092 55.6804 272.76 56.6793 274.096C57.6853 275.426 58.1882 277.382 58.1882 279.963C58.1882 282.531 57.6888 284.479 56.6899 285.809C55.698 287.131 54.3438 287.793 52.6274 287.793ZM52.638 285.872C53.6791 285.872 54.4599 285.415 54.9805 284.501C55.501 283.579 55.7613 282.07 55.7613 279.974C55.7613 277.835 55.4975 276.298 54.9699 275.363C54.4423 274.42 53.6615 273.949 52.6274 273.949C51.6004 273.949 50.816 274.424 50.2744 275.373C49.7327 276.316 49.4619 277.849 49.4619 279.974C49.4619 282.063 49.7292 283.568 50.2638 284.49C50.8055 285.411 51.5969 285.872 52.638 285.872Z" fill="#254170"/>
<path d="M172.365 427.458V425.68V424.739C172.365 423.661 172.566 422.726 172.968 421.932C173.379 421.138 173.918 420.447 174.584 419.86C175.251 419.262 175.981 418.733 176.774 418.272C177.578 417.812 178.376 417.371 179.17 416.95C179.964 416.528 180.693 416.092 181.36 415.641C182.026 415.181 182.56 414.667 182.962 414.098C183.373 413.52 183.579 412.844 183.579 412.07C183.579 411.051 183.221 410.223 182.506 409.586C181.791 408.949 180.821 408.631 179.596 408.631C178.293 408.631 177.235 408.998 176.422 409.733C175.608 410.468 175.138 411.482 175.011 412.776H171.924C171.954 411.512 172.262 410.36 172.85 409.322C173.438 408.283 174.305 407.455 175.451 406.838C176.598 406.221 178.019 405.912 179.714 405.912C181.183 405.912 182.452 406.172 183.52 406.691C184.598 407.2 185.431 407.916 186.019 408.837C186.607 409.758 186.901 410.831 186.901 412.055C186.901 413.143 186.7 414.079 186.298 414.863C185.896 415.646 185.367 416.322 184.711 416.891C184.064 417.459 183.349 417.964 182.565 418.405C181.781 418.836 180.997 419.252 180.213 419.654C179.43 420.046 178.709 420.462 178.053 420.903C177.396 421.334 176.867 421.824 176.466 422.373C176.064 422.921 175.863 423.583 175.863 424.357V424.724H186.974V427.458H172.365ZM198.245 427.781C196.913 427.781 195.678 427.556 194.542 427.105C193.405 426.645 192.425 426.018 191.602 425.224C190.789 424.421 190.186 423.495 189.794 422.446L192.425 421.197C192.778 421.961 193.214 422.647 193.733 423.255C194.252 423.852 194.865 424.323 195.57 424.666C196.276 424.999 197.084 425.165 197.995 425.165C199.436 425.165 200.597 424.759 201.479 423.945C202.36 423.122 202.801 422.01 202.801 420.609C202.801 419.737 202.596 418.973 202.184 418.316C201.773 417.66 201.219 417.15 200.523 416.788C199.828 416.416 199.049 416.229 198.186 416.229C197.648 416.229 197.143 416.278 196.673 416.376C196.202 416.465 195.732 416.646 195.262 416.92C194.801 417.185 194.311 417.582 193.792 418.111C193.714 418.15 193.655 418.169 193.616 418.169C193.586 418.169 193.522 418.145 193.425 418.096L190.911 417.185L191.881 406.206H204.83L204.727 408.866H194.483L193.983 415.259C194.708 414.671 195.472 414.25 196.276 413.995C197.079 413.731 197.951 413.599 198.892 413.599C200.215 413.599 201.42 413.863 202.507 414.392C203.605 414.921 204.482 415.7 205.138 416.729C205.795 417.748 206.123 419.007 206.123 420.506C206.123 421.986 205.8 423.269 205.153 424.357C204.506 425.444 203.59 426.287 202.404 426.885C201.229 427.483 199.842 427.781 198.245 427.781Z" fill="white"/>
<path d="M91.7195 426.705V424.927V423.986C91.7195 422.908 91.9203 421.973 92.3221 421.179C92.7336 420.385 93.2725 419.695 93.9387 419.107C94.605 418.509 95.335 417.98 96.1286 417.519C96.9321 417.059 97.7306 416.618 98.5243 416.197C99.3179 415.775 100.048 415.339 100.714 414.889C101.38 414.428 101.914 413.914 102.316 413.345C102.728 412.767 102.933 412.091 102.933 411.317C102.933 410.298 102.576 409.47 101.861 408.833C101.145 408.196 100.175 407.878 98.9505 407.878C97.6473 407.878 96.5891 408.245 95.7759 408.98C94.9626 409.715 94.4923 410.729 94.365 412.023H91.2786C91.308 410.759 91.6166 409.607 92.2045 408.569C92.7924 407.53 93.6595 406.702 94.8059 406.085C95.9523 405.468 97.373 405.159 99.0681 405.159C100.538 405.159 101.807 405.419 102.875 405.938C103.952 406.447 104.785 407.163 105.373 408.084C105.961 409.005 106.255 410.078 106.255 411.302C106.255 412.39 106.054 413.326 105.652 414.11C105.251 414.893 104.722 415.57 104.065 416.138C103.418 416.706 102.703 417.211 101.919 417.652C101.135 418.083 100.352 418.499 99.5678 418.901C98.7839 419.293 98.0637 419.709 97.4073 420.15C96.7508 420.581 96.2217 421.071 95.82 421.62C95.4183 422.169 95.2174 422.83 95.2174 423.604V423.971H106.328V426.705H91.7195ZM113.132 426.705V410.068H109.105V408.113C110.359 408.113 111.343 408.015 112.059 407.819C112.784 407.613 113.303 407.315 113.617 406.923C113.94 406.521 114.121 406.031 114.16 405.453H116.35V426.705H113.132Z" fill="white"/>
<path d="M236.255 446.794V441.159H225.54V438.184L236.144 423.907H239.547V438.231H243.267V441.159H239.547V446.794H236.255ZM228.737 438.231H236.208V428.212L228.737 438.231ZM254.053 447.142C251.468 447.142 249.431 446.156 247.944 444.182C246.456 442.199 245.712 439.281 245.712 435.43C245.712 432.844 246.055 430.676 246.741 428.924C247.426 427.162 248.392 425.833 249.637 424.936C250.893 424.039 252.37 423.591 254.069 423.591C256.612 423.591 258.632 424.593 260.131 426.598C261.64 428.592 262.394 431.525 262.394 435.398C262.394 439.249 261.645 442.172 260.147 444.167C258.659 446.15 256.628 447.142 254.053 447.142ZM254.069 444.262C255.631 444.262 256.802 443.576 257.583 442.204C258.363 440.822 258.754 438.558 258.754 435.414C258.754 432.206 258.358 429.9 257.567 428.497C256.775 427.083 255.604 426.376 254.053 426.376C252.512 426.376 251.336 427.088 250.523 428.513C249.711 429.927 249.305 432.227 249.305 435.414C249.305 438.548 249.706 440.806 250.508 442.188C251.32 443.57 252.507 444.262 254.069 444.262Z" fill="#254170"/>
<path d="M45.424 449.403C43.7779 449.392 42.3429 449.102 41.1188 448.532C39.8948 447.952 38.9399 447.134 38.254 446.079C37.5682 445.024 37.2041 443.779 37.1619 442.344H40.5016C40.7232 443.726 41.2824 444.776 42.1793 445.493C43.0868 446.2 44.2 446.554 45.519 446.554C46.5952 446.554 47.5238 446.39 48.3046 446.063C49.096 445.726 49.708 445.267 50.1406 444.686C50.5733 444.095 50.7896 443.409 50.7896 442.629C50.7896 441.784 50.5522 441.067 50.0773 440.476C49.6131 439.885 48.9694 439.437 48.1464 439.131C47.3339 438.814 46.4211 438.645 45.4082 438.624L43.3031 438.577V435.759L45.2657 435.696C46.2259 435.675 47.0753 435.496 47.814 435.158C48.5631 434.81 49.1488 434.356 49.5708 433.797C49.9929 433.238 50.204 432.62 50.204 431.945C50.204 431.333 50.014 430.774 49.6342 430.267C49.2648 429.761 48.7267 429.36 48.0197 429.064C47.3233 428.758 46.4844 428.605 45.5031 428.605C44.7117 428.605 43.9573 428.753 43.2398 429.048C42.5328 429.344 41.9472 429.813 41.4829 430.457C41.0292 431.09 40.7812 431.919 40.739 432.942H37.4152C37.4152 431.412 37.7792 430.125 38.5073 429.08C39.2459 428.025 40.2272 427.223 41.4512 426.674C42.6858 426.126 44.0522 425.851 45.5506 425.851C47.165 425.851 48.5948 426.078 49.8399 426.532C51.085 426.986 52.0611 427.656 52.768 428.542C53.4856 429.428 53.8443 430.52 53.8443 431.818C53.8443 432.947 53.4908 433.966 52.7839 434.873C52.0875 435.77 51.0006 436.472 49.5234 436.978C50.4836 437.242 51.333 437.632 52.0716 438.149C52.8103 438.656 53.3853 439.289 53.7968 440.049C54.2189 440.808 54.43 441.69 54.43 442.692C54.43 443.758 54.2031 444.707 53.7494 445.541C53.2956 446.375 52.6625 447.081 51.85 447.662C51.0375 448.242 50.0826 448.68 48.9852 448.976C47.8878 449.271 46.7008 449.413 45.424 449.403ZM65.566 449.403C62.9808 449.403 60.9443 448.416 59.4565 446.443C57.9687 444.459 57.2248 441.542 57.2248 437.69C57.2248 435.105 57.5677 432.937 58.2536 431.185C58.9395 429.423 59.9049 428.094 61.1501 427.197C62.4057 426.3 63.883 425.851 65.5818 425.851C68.1248 425.851 70.1455 426.854 71.6438 428.859C73.1527 430.853 73.9072 433.786 73.9072 437.659C73.9072 441.51 73.158 444.433 71.6597 446.427C70.1719 448.411 68.1406 449.403 65.566 449.403ZM65.5818 446.522C67.1435 446.522 68.3147 445.836 69.0956 444.465C69.8764 443.082 70.2668 440.819 70.2668 437.675C70.2668 434.467 69.8711 432.161 69.0797 430.758C68.2884 429.344 67.1171 428.637 65.566 428.637C64.0254 428.637 62.8489 429.349 62.0364 430.774C61.2239 432.188 60.8177 434.488 60.8177 437.675C60.8177 440.808 61.2186 443.067 62.0206 444.449C62.8331 445.831 64.0202 446.522 65.5818 446.522Z" fill="#254170"/>
<defs>
<linearGradient id="paint0_linear_1177_43163" x1="62.0055" y1="103.312" x2="62.0055" y2="82.9688" gradientUnits="userSpaceOnUse">
<stop stop-color="#3975BF"/>
<stop offset="1" stop-color="#ADADAD"/>
</linearGradient>
<linearGradient id="paint1_linear_1177_43163" x1="62.0055" y1="126.567" x2="62.0055" y2="106.224" gradientUnits="userSpaceOnUse">
<stop stop-color="#3975BF"/>
<stop offset="1" stop-color="#ADADAD"/>
</linearGradient>
<linearGradient id="paint2_linear_1177_43163" x1="256.795" y1="102.344" x2="256.795" y2="82.001" gradientUnits="userSpaceOnUse">
<stop stop-color="#3975BF"/>
<stop offset="1" stop-color="#ADADAD"/>
</linearGradient>
<linearGradient id="paint3_linear_1177_43163" x1="256.796" y1="125.598" x2="256.796" y2="105.255" gradientUnits="userSpaceOnUse">
<stop stop-color="#3975BF"/>
<stop offset="1" stop-color="#ADADAD"/>
</linearGradient>
<linearGradient id="paint4_linear_1177_43163" x1="157.389" y1="468.799" x2="157.389" y2="270.576" gradientUnits="userSpaceOnUse">
<stop stop-color="#3975BF"/>
<stop offset="1" stop-color="#ADADAD"/>
</linearGradient>
<linearGradient id="paint5_linear_1177_43163" x1="241.058" y1="362.151" x2="157.397" y2="468.799" gradientUnits="userSpaceOnUse">
<stop stop-color="#92BED7"/>
<stop offset="1" stop-color="#C0D7E3"/>
</linearGradient>
<linearGradient id="paint6_linear_1177_43163" x1="207.518" y1="352.73" x2="33.0361" y2="356.875" gradientUnits="userSpaceOnUse">
<stop stop-color="#B2D1FF"/>
<stop offset="1" stop-color="#6B7D99"/>
</linearGradient>
<linearGradient id="paint7_linear_1177_43163" x1="157.389" y1="468.799" x2="157.389" y2="270.576" gradientUnits="userSpaceOnUse">
<stop stop-color="#72A5E4"/>
<stop offset="1" stop-color="#AFC9E9"/>
</linearGradient>
<linearGradient id="paint8_linear_1177_43163" x1="157.397" y1="270.576" x2="44.3416" y2="407.75" gradientUnits="userSpaceOnUse">
<stop stop-color="#9DC4DA"/>
<stop offset="1" stop-color="#085C99"/>
</linearGradient>
<linearGradient id="paint9_linear_1177_43163" x1="169.079" y1="284.52" x2="38.312" y2="376.848" gradientUnits="userSpaceOnUse">
<stop stop-color="#467CBE"/>
<stop offset="1" stop-color="#E4E5E6"/>
</linearGradient>
</defs>
</svg>
