<svg width="323" height="270" viewBox="0 0 323 270" fill="none" xmlns="http://www.w3.org/2000/svg">
<path d="M185.924 20H137.076C128.75 20 122 26.7157 122 35C122 43.2843 128.75 50 137.076 50H185.924C194.25 50 201 43.2843 201 35C201 26.7157 194.25 20 185.924 20Z" fill="#274374"/>
<path d="M144.164 30.886H147.524V31.81H144.164V30.886ZM144.08 39.664H148.35V40.644H144.08V39.664ZM143.408 34.092H147.986V34.918H143.408V34.092ZM142.848 32.454H143.996V34.652C143.996 35.1093 143.973 35.604 143.926 36.136C143.889 36.668 143.809 37.2187 143.688 37.788C143.567 38.348 143.394 38.894 143.17 39.426C142.946 39.9487 142.657 40.4293 142.302 40.868C142.246 40.7933 142.162 40.7 142.05 40.588C141.938 40.4853 141.821 40.3827 141.7 40.28C141.588 40.1867 141.49 40.1167 141.406 40.07C141.835 39.5287 142.153 38.9407 142.358 38.306C142.563 37.6713 142.694 37.0367 142.75 36.402C142.815 35.758 142.848 35.17 142.848 34.638V32.454ZM143.492 32.454H148.532V36.57H143.464V35.618H147.342V33.42H143.492V32.454ZM143.59 37.298H148.742V41.078H147.58V38.278H144.724V41.162H143.59V37.298ZM149.54 29.878H150.8V37.704H149.54V29.878ZM152.648 28.45H153.95V39.524C153.95 39.9253 153.899 40.2287 153.796 40.434C153.693 40.6487 153.521 40.8073 153.278 40.91C153.035 41.022 152.709 41.092 152.298 41.12C151.887 41.1573 151.374 41.176 150.758 41.176C150.739 41.0547 150.707 40.91 150.66 40.742C150.613 40.5833 150.557 40.42 150.492 40.252C150.436 40.0933 150.375 39.9533 150.31 39.832C150.758 39.8507 151.169 39.86 151.542 39.86C151.915 39.86 152.167 39.86 152.298 39.86C152.429 39.8507 152.517 39.8227 152.564 39.776C152.62 39.7293 152.648 39.6407 152.648 39.51V28.45ZM145.004 28.338H145.732V28.604H146.152V28.982C145.751 29.5513 145.223 30.1767 144.57 30.858C143.926 31.5393 143.137 32.1833 142.204 32.79C142.148 32.6967 142.069 32.5893 141.966 32.468C141.873 32.3467 141.775 32.23 141.672 32.118C141.569 32.006 141.471 31.9173 141.378 31.852C141.947 31.516 142.465 31.152 142.932 30.76C143.399 30.3587 143.805 29.948 144.15 29.528C144.505 29.108 144.789 28.7113 145.004 28.338ZM145.27 28.338H146.194C146.539 28.59 146.899 28.8747 147.272 29.192C147.655 29.5 148.019 29.808 148.364 30.116C148.709 30.4147 148.999 30.6853 149.232 30.928L148.364 31.922C148.159 31.6793 147.893 31.3993 147.566 31.082C147.249 30.7553 146.908 30.4287 146.544 30.102C146.189 29.7753 145.849 29.4953 145.522 29.262H145.27V28.338ZM155.84 36.794H168.202V37.9H155.84V36.794ZM155.896 30.592H168.16V31.698H155.896V30.592ZM156.456 33.028H167.642V34.092H156.456V33.028ZM157.156 34.946H166.97V35.926H157.156V34.946ZM161.328 33.546H162.63V41.176H161.328V33.546ZM160.068 28.17H161.314V31.11H160.068V28.17ZM162.7 28.17H163.96V31.04H162.7V28.17ZM160.992 37.256L162.056 37.746C161.617 38.222 161.085 38.67 160.46 39.09C159.835 39.51 159.163 39.8787 158.444 40.196C157.725 40.5227 157.016 40.784 156.316 40.98C156.251 40.8587 156.167 40.728 156.064 40.588C155.971 40.4573 155.868 40.3267 155.756 40.196C155.653 40.0653 155.551 39.9533 155.448 39.86C156.148 39.7107 156.848 39.5053 157.548 39.244C158.248 38.9827 158.901 38.684 159.508 38.348C160.115 38.0027 160.609 37.6387 160.992 37.256ZM162.966 37.228C163.265 37.5173 163.619 37.7973 164.03 38.068C164.45 38.3387 164.907 38.5907 165.402 38.824C165.897 39.048 166.41 39.244 166.942 39.412C167.483 39.58 168.025 39.7153 168.566 39.818C168.473 39.9113 168.365 40.028 168.244 40.168C168.132 40.308 168.025 40.4527 167.922 40.602C167.829 40.7513 167.749 40.8867 167.684 41.008C167.133 40.8587 166.587 40.672 166.046 40.448C165.505 40.2333 164.982 39.9813 164.478 39.692C163.983 39.4027 163.517 39.09 163.078 38.754C162.649 38.4087 162.271 38.04 161.944 37.648L162.966 37.228ZM165.934 28.324L167.306 28.674C167.091 29.0473 166.867 29.4207 166.634 29.794C166.41 30.1673 166.205 30.4893 166.018 30.76L164.94 30.424C165.061 30.228 165.183 30.0087 165.304 29.766C165.425 29.514 165.542 29.262 165.654 29.01C165.766 28.758 165.859 28.5293 165.934 28.324ZM164.072 31.292L165.458 31.628C165.281 31.9547 165.103 32.272 164.926 32.58C164.749 32.8787 164.581 33.1353 164.422 33.35L163.316 33.028C163.447 32.776 163.582 32.4867 163.722 32.16C163.871 31.8333 163.988 31.544 164.072 31.292ZM156.96 28.674L158.094 28.282C158.327 28.59 158.551 28.9353 158.766 29.318C158.981 29.7007 159.139 30.0367 159.242 30.326L158.038 30.76C157.954 30.48 157.809 30.144 157.604 29.752C157.399 29.36 157.184 29.0007 156.96 28.674ZM158.766 31.754L160.04 31.53C160.189 31.7447 160.329 31.9873 160.46 32.258C160.591 32.5287 160.684 32.762 160.74 32.958L159.41 33.21C159.363 33.014 159.279 32.7807 159.158 32.51C159.037 32.23 158.906 31.978 158.766 31.754ZM172.71 28.128L174.054 28.478C173.793 29.1593 173.489 29.8313 173.144 30.494C172.799 31.1473 172.425 31.754 172.024 32.314C171.623 32.874 171.203 33.364 170.764 33.784C170.68 33.7093 170.568 33.616 170.428 33.504C170.297 33.392 170.157 33.2847 170.008 33.182C169.868 33.07 169.742 32.986 169.63 32.93C170.069 32.5473 170.479 32.104 170.862 31.6C171.245 31.0867 171.59 30.536 171.898 29.948C172.215 29.3507 172.486 28.744 172.71 28.128ZM172.71 29.808H181.684V31.082H172.066L172.71 29.808ZM171.898 33.042H181.362V34.274H173.214V37.424H171.898V33.042ZM169.616 36.766H182.398V38.054H169.616V36.766ZM176.056 30.466H177.414V41.176H176.056V30.466Z" fill="white"/>
<path opacity="0.27" d="M296.974 138.077V122.938H299V75H104V122.938H106.026V138.077H104V239H176.429V212.76H226.571V239H299V138.077H296.974ZM134.896 180.969H113.117V162.803H134.896V180.969ZM134.896 159.271H113.117V141.105H134.896V159.271ZM134.896 119.911H113.117V101.745H134.896V119.911ZM134.896 98.2123H113.117V80.0462H134.896V98.2123ZM160.727 180.969H138.948V162.803H160.727V180.969ZM160.727 159.271H138.948V141.105H160.727V159.271ZM160.727 119.911H138.948V101.745H160.727V119.911ZM160.727 98.2123H138.948V80.0462H160.727V98.2123ZM186.558 180.969H164.779V162.803H186.558V180.969ZM186.558 159.271H164.779V141.105H186.558V159.271ZM186.558 119.911H164.779V101.745H186.558V119.911ZM186.558 98.2123H164.779V80.0462H186.558V98.2123ZM212.39 180.969H190.61V162.803H212.39V180.969ZM212.39 159.271H190.61V141.105H212.39V159.271ZM212.39 119.911H190.61V101.745H212.39V119.911ZM212.39 98.2123H190.61V80.0462H212.39V98.2123ZM238.221 180.969H216.442V162.803H238.221V180.969ZM238.221 159.271H216.442V141.105H238.221V159.271ZM238.221 119.911H216.442V101.745H238.221V119.911ZM238.221 98.2123H216.442V80.0462H238.221V98.2123ZM264.052 180.969H242.273V162.803H264.052V180.969ZM264.052 159.271H242.273V141.105H264.052V159.271ZM264.052 119.911H242.273V101.745H264.052V119.911ZM264.052 98.2123H242.273V80.0462H264.052V98.2123ZM289.883 180.969H268.104V162.803H289.883V180.969ZM289.883 159.271H268.104V141.105H289.883V159.271ZM289.883 119.911H268.104V101.745H289.883V119.911ZM289.883 98.2123H268.104V80.0462H289.883V98.2123Z" fill="url(#paint0_linear_1177_43109)"/>
<path d="M29.6798 181.602V135.562H18.5198V130.722C21.9865 130.722 24.6798 130.468 26.5998 129.962C28.5198 129.455 29.8798 128.682 30.6798 127.642C31.5065 126.602 31.9598 125.308 32.0398 123.762H37.3198V181.602H29.6798ZM70.6179 182.482C67.4179 182.482 64.4313 181.882 61.6579 180.682C58.9113 179.455 56.6046 177.722 54.7379 175.482C52.8979 173.242 51.7646 170.562 51.3379 167.442H58.5379C59.2046 170.082 60.5913 172.228 62.6979 173.882C64.8046 175.508 67.3646 176.322 70.3779 176.322C73.7913 176.322 76.7113 175.428 79.1379 173.642C81.5913 171.855 83.4179 169.095 84.6179 165.362C85.8179 161.628 86.2713 156.842 85.9779 151.002C85.3113 153.028 84.2579 154.815 82.8179 156.362C81.3779 157.882 79.6446 159.082 77.6179 159.962C75.5913 160.842 73.3513 161.282 70.8979 161.282C67.0846 161.282 63.7246 160.535 60.8179 159.042C57.9113 157.548 55.6446 155.415 54.0179 152.642C52.4179 149.868 51.6179 146.548 51.6179 142.682C51.6179 138.815 52.4179 135.402 54.0179 132.442C55.6179 129.482 57.9113 127.162 60.8979 125.482C63.8846 123.802 67.4313 122.962 71.5379 122.962C76.0179 122.962 79.8979 124.122 83.1779 126.442C86.4579 128.735 88.9913 132.042 90.7779 136.362C92.5646 140.655 93.4579 145.815 93.4579 151.842C93.4579 158.322 92.5646 163.842 90.7779 168.402C89.0179 172.962 86.4313 176.455 83.0179 178.882C79.6313 181.282 75.4979 182.482 70.6179 182.482ZM71.6979 155.002C73.8313 155.002 75.8579 154.508 77.7779 153.522C79.6979 152.535 81.2579 151.228 82.4579 149.602C83.6846 147.948 84.2979 146.148 84.2979 144.202C84.3246 141.215 83.8179 138.588 82.7779 136.322C81.7379 134.028 80.2579 132.242 78.3379 130.962C76.4179 129.655 74.1779 129.002 71.6179 129.002C69.2713 129.002 67.1913 129.562 65.3779 130.682C63.5913 131.802 62.1779 133.362 61.1379 135.362C60.1246 137.362 59.6179 139.682 59.6179 142.322C59.6179 146.188 60.6446 149.268 62.6979 151.562C64.7513 153.855 67.7513 155.002 71.6979 155.002ZM122.711 182.482C118.284 182.482 114.418 181.802 111.111 180.442C107.804 179.055 105.231 177.122 103.391 174.642C101.578 172.162 100.671 169.255 100.671 165.922C100.671 163.682 101.231 161.535 102.351 159.482C103.498 157.428 104.964 155.682 106.751 154.242C108.538 152.802 110.404 151.895 112.351 151.522C109.711 150.402 107.524 148.775 105.791 146.642C104.084 144.508 103.231 141.868 103.231 138.722C103.231 135.362 104.084 132.508 105.791 130.162C107.498 127.815 109.818 126.028 112.751 124.802C115.711 123.575 119.031 122.962 122.711 122.962C126.418 122.962 129.738 123.575 132.671 124.802C135.604 126.028 137.924 127.815 139.631 130.162C141.338 132.508 142.191 135.362 142.191 138.722C142.191 141.868 141.338 144.508 139.631 146.642C137.951 148.775 135.778 150.402 133.111 151.522C135.058 151.895 136.911 152.802 138.671 154.242C140.458 155.682 141.924 157.428 143.071 159.482C144.218 161.535 144.791 163.682 144.791 165.922C144.791 169.255 143.871 172.162 142.031 174.642C140.218 177.122 137.658 179.055 134.351 180.442C131.044 181.802 127.164 182.482 122.711 182.482ZM122.711 176.482C127.004 176.482 130.431 175.522 132.991 173.602C135.551 171.655 136.831 169.082 136.831 165.882C136.831 163.775 136.244 161.895 135.071 160.242C133.924 158.588 132.298 157.295 130.191 156.362C128.084 155.402 125.591 154.922 122.711 154.922C119.858 154.922 117.378 155.402 115.271 156.362C113.191 157.295 111.564 158.588 110.391 160.242C109.244 161.895 108.671 163.775 108.671 165.882C108.671 169.082 109.938 171.655 112.471 173.602C115.031 175.522 118.444 176.482 122.711 176.482ZM122.711 148.402C126.231 148.402 129.084 147.535 131.271 145.802C133.484 144.068 134.591 141.655 134.591 138.562C134.591 135.442 133.484 132.988 131.271 131.202C129.058 129.388 126.204 128.482 122.711 128.482C119.218 128.482 116.364 129.388 114.151 131.202C111.938 133.015 110.831 135.468 110.831 138.562C110.831 141.655 111.938 144.068 114.151 145.802C116.364 147.535 119.218 148.402 122.711 148.402ZM174.988 182.482C171.415 182.482 168.108 181.855 165.068 180.602C162.028 179.348 159.415 177.602 157.228 175.362C155.068 173.122 153.481 170.548 152.468 167.642L158.868 164.962C159.828 167.148 161.028 169.095 162.468 170.802C163.935 172.508 165.668 173.842 167.668 174.802C169.668 175.762 171.935 176.242 174.468 176.242C178.575 176.242 181.868 175.055 184.348 172.682C186.855 170.282 188.108 167.028 188.108 162.922C188.108 160.362 187.521 158.135 186.348 156.242C185.175 154.322 183.588 152.828 181.588 151.762C179.615 150.695 177.428 150.162 175.028 150.162C173.455 150.162 171.988 150.308 170.628 150.602C169.268 150.868 167.921 151.402 166.588 152.202C165.255 153.002 163.855 154.215 162.388 155.842C162.228 155.922 162.108 155.962 162.028 155.962C161.948 155.935 161.815 155.882 161.628 155.802L155.388 153.842L157.988 123.762H192.508L192.308 130.162H164.308L162.828 148.842C164.748 147.055 166.841 145.788 169.108 145.042C171.401 144.268 173.881 143.882 176.548 143.882C180.041 143.882 183.255 144.602 186.188 146.042C189.148 147.455 191.521 149.562 193.308 152.362C195.095 155.135 195.988 158.575 195.988 162.682C195.988 166.682 195.121 170.162 193.388 173.122C191.655 176.082 189.215 178.388 186.068 180.042C182.921 181.668 179.228 182.482 174.988 182.482Z" fill="#274374"/>
<path d="M212.95 152.56L215.83 153.31C215.27 154.77 214.62 156.21 213.88 157.63C213.14 159.03 212.34 160.33 211.48 161.53C210.62 162.73 209.72 163.78 208.78 164.68C208.6 164.52 208.36 164.32 208.06 164.08C207.78 163.84 207.48 163.61 207.16 163.39C206.86 163.15 206.59 162.97 206.35 162.85C207.29 162.03 208.17 161.08 208.99 160C209.81 158.9 210.55 157.72 211.21 156.46C211.89 155.18 212.47 153.88 212.95 152.56ZM212.95 156.16H232.18V158.89H211.57L212.95 156.16ZM211.21 163.09H231.49V165.73H214.03V172.48H211.21V163.09ZM206.32 171.07H233.71V173.83H206.32V171.07ZM220.12 157.57H223.03V180.52H220.12V157.57Z" fill="#274374"/>
<defs>
<linearGradient id="paint0_linear_1177_43109" x1="201.5" y1="239" x2="201.5" y2="75" gradientUnits="userSpaceOnUse">
<stop stop-color="#3975BF"/>
<stop offset="1" stop-color="#ADADAD"/>
</linearGradient>
</defs>
</svg>
