<svg width="280" height="413" viewBox="0 0 280 413" fill="none" xmlns="http://www.w3.org/2000/svg">
<path d="M109 9.51367H28C14.1929 9.51367 3 20.7066 3 34.5137C3 48.3208 14.1929 59.5137 28 59.5137H109C122.807 59.5137 134 48.3208 134 34.5137C134 20.7066 122.807 9.51367 109 9.51367Z" fill="#274374"/>
<path d="M201 221.014H28C14.1929 221.014 3 232.207 3 246.014C3 259.821 14.1929 271.014 28 271.014H201C214.807 271.014 226 259.821 226 246.014C226 232.207 214.807 221.014 201 221.014Z" fill="#274374"/>
<path d="M29.83 23.8577L31.942 24.4077C31.5313 25.4783 31.0547 26.5343 30.512 27.5757C29.9693 28.6023 29.3827 29.5557 28.752 30.4357C28.1213 31.3157 27.4613 32.0857 26.772 32.7457C26.64 32.6283 26.464 32.4817 26.244 32.3057C26.0387 32.1297 25.8187 31.961 25.584 31.7997C25.364 31.6237 25.166 31.4917 24.99 31.4037C25.6793 30.8023 26.3247 30.1057 26.926 29.3137C27.5273 28.507 28.07 27.6417 28.554 26.7177C29.0527 25.779 29.478 24.8257 29.83 23.8577ZM29.83 26.4977H43.932V28.4997H28.818L29.83 26.4977ZM28.554 31.5797H43.426V33.5157H30.622V38.4657H28.554V31.5797ZM24.968 37.4317H45.054V39.4557H24.968V37.4317ZM35.088 27.5317H37.222V44.3617H35.088V27.5317ZM53.788 37.4097H60.168V38.9277H53.788V37.4097ZM53.678 34.1097H61.158V42.3157H53.678V40.7317H59.2V35.6937H53.678V34.1097ZM52.798 34.1097H54.69V43.4377H52.798V34.1097ZM48.904 27.9277H54.756V29.4017H48.904V27.9277ZM59.09 27.9277H65.008V29.4017H59.09V27.9277ZM64.15 24.8477H66.262V41.7657C66.262 42.367 66.1813 42.8363 66.02 43.1737C65.8733 43.5257 65.602 43.797 65.206 43.9877C64.81 44.1637 64.2967 44.2663 63.666 44.2957C63.05 44.3397 62.2727 44.3617 61.334 44.3617C61.3193 44.1563 61.268 43.9217 61.18 43.6577C61.1067 43.4083 61.026 43.1517 60.938 42.8877C60.85 42.6383 60.7547 42.4183 60.652 42.2277C61.0627 42.257 61.4733 42.2717 61.884 42.2717C62.2947 42.2717 62.654 42.2717 62.962 42.2717C63.2847 42.2717 63.512 42.2717 63.644 42.2717C63.8347 42.257 63.9667 42.213 64.04 42.1397C64.1133 42.0663 64.15 41.9343 64.15 41.7437V24.8477ZM49.08 24.8477H56.076V32.5917H49.08V31.0517H54.118V26.3877H49.08V24.8477ZM65.228 24.8477V26.3877H59.838V31.0957H65.228V32.6357H57.858V24.8477H65.228ZM47.87 24.8477H49.938V44.3837H47.87V24.8477ZM80.826 24.2757H82.894V44.3617H80.826V24.2757ZM74.864 29.4457H89.01V31.4697H74.864V29.4457ZM83.444 30.0837C83.752 31.0223 84.126 31.9683 84.566 32.9217C85.0207 33.875 85.5193 34.7917 86.062 35.6717C86.6047 36.5517 87.1767 37.3583 87.778 38.0917C88.3793 38.825 88.9953 39.4557 89.626 39.9837C89.4647 40.101 89.2813 40.255 89.076 40.4457C88.8853 40.6363 88.6947 40.8343 88.504 41.0397C88.328 41.245 88.1813 41.443 88.064 41.6337C87.4187 41.0323 86.7953 40.321 86.194 39.4997C85.5927 38.6637 85.0207 37.7617 84.478 36.7937C83.9353 35.811 83.4367 34.7917 82.982 33.7357C82.5273 32.6797 82.1313 31.6237 81.794 30.5677L83.444 30.0837ZM80.364 30.1497L82.146 30.6777C81.6767 32.1297 81.0973 33.5523 80.408 34.9457C79.7333 36.3243 78.978 37.6003 78.142 38.7737C77.3207 39.947 76.448 40.9443 75.524 41.7657C75.4067 41.5897 75.2527 41.399 75.062 41.1937C74.886 40.9883 74.7027 40.7903 74.512 40.5997C74.3213 40.3943 74.1453 40.233 73.984 40.1157C74.864 39.4263 75.7073 38.5463 76.514 37.4757C77.3353 36.405 78.076 35.239 78.736 33.9777C79.396 32.7017 79.9387 31.4257 80.364 30.1497ZM74.204 24.0777L76.25 24.7157C75.7367 26.0063 75.128 27.275 74.424 28.5217C73.7347 29.7683 72.972 30.9417 72.136 32.0417C71.3147 33.1417 70.464 34.1023 69.584 34.9237C69.5253 34.7623 69.4153 34.5423 69.254 34.2637C69.1073 33.985 68.9533 33.7137 68.792 33.4497C68.6307 33.171 68.484 32.9437 68.352 32.7677C69.144 32.0783 69.8993 31.2717 70.618 30.3477C71.3513 29.4237 72.0187 28.4337 72.62 27.3777C73.236 26.307 73.764 25.207 74.204 24.0777ZM71.85 30.1277L73.874 28.1037L73.896 28.1257V44.3177H71.85V30.1277ZM93.674 25.3537H108.502V44.0317H106.258V27.4657H95.808V44.1197H93.674V25.3537ZM95.104 32.8777H107.204V34.9457H95.104V32.8777ZM95.082 40.5777H107.226V42.6677H95.082V40.5777Z" fill="white"/>
<path d="M27.32 238.218H46.746V240.176H27.32V238.218ZM32.93 246.094H42.918V247.854H32.93V246.094ZM31.434 242.354H42.61V244.202H33.48V255.84H31.434V242.354ZM42.17 242.354H44.194V253.464C44.194 254.021 44.1207 254.454 43.974 254.762C43.842 255.084 43.578 255.334 43.182 255.51C42.786 255.656 42.2653 255.744 41.62 255.774C40.9893 255.818 40.212 255.84 39.288 255.84C39.2587 255.546 39.178 255.202 39.046 254.806C38.914 254.424 38.782 254.094 38.65 253.816C39.09 253.83 39.5153 253.845 39.926 253.86C40.3367 253.874 40.696 253.882 41.004 253.882C41.312 253.867 41.532 253.86 41.664 253.86C41.8547 253.86 41.9867 253.83 42.06 253.772C42.1333 253.698 42.17 253.581 42.17 253.42V242.354ZM34.338 235.424L36.472 235.93C35.9733 237.543 35.3427 239.149 34.58 240.748C33.8173 242.346 32.8933 243.835 31.808 245.214C30.7373 246.578 29.498 247.751 28.09 248.734C27.9873 248.587 27.8553 248.418 27.694 248.228C27.5327 248.022 27.364 247.824 27.188 247.634C27.0267 247.428 26.8727 247.267 26.726 247.15C27.7087 246.475 28.6033 245.698 29.41 244.818C30.2167 243.923 30.9353 242.962 31.566 241.936C32.2113 240.894 32.7613 239.824 33.216 238.724C33.6853 237.624 34.0593 236.524 34.338 235.424ZM32.93 249.79H42.918V251.55H32.93V249.79ZM59.176 242.618H66.48V244.51H59.176V242.618ZM59.22 252.782H66.898V254.63H59.22V252.782ZM62.674 237.822C62.278 238.511 61.7867 239.252 61.2 240.044C60.6133 240.836 59.9607 241.613 59.242 242.376C58.538 243.124 57.7973 243.798 57.02 244.4C56.9027 244.136 56.7267 243.828 56.492 243.476C56.2573 243.124 56.0373 242.838 55.832 242.618C56.6093 242.031 57.3647 241.342 58.098 240.55C58.846 239.758 59.5207 238.936 60.122 238.086C60.738 237.235 61.2293 236.436 61.596 235.688H63.598C64.1113 236.494 64.698 237.316 65.358 238.152C66.018 238.988 66.722 239.772 67.47 240.506C68.218 241.239 68.9513 241.855 69.67 242.354C69.45 242.618 69.2227 242.926 68.988 243.278C68.7533 243.63 68.548 243.967 68.372 244.29C67.6973 243.732 66.9933 243.08 66.26 242.332C65.5413 241.584 64.874 240.814 64.258 240.022C63.642 239.23 63.114 238.496 62.674 237.822ZM58.142 246.842H67.756V255.752H65.776V248.712H60.078V255.84H58.142V246.842ZM52.158 235.446L53.962 236.15C53.6833 236.692 53.3827 237.264 53.06 237.866C52.752 238.452 52.4367 239.017 52.114 239.56C51.806 240.088 51.5127 240.557 51.234 240.968L49.826 240.352C50.1047 239.912 50.3833 239.406 50.662 238.834C50.9553 238.262 51.234 237.682 51.498 237.096C51.762 236.494 51.982 235.944 52.158 235.446ZM54.644 237.998L56.36 238.79C55.8613 239.626 55.304 240.506 54.688 241.43C54.072 242.354 53.4487 243.248 52.818 244.114C52.202 244.964 51.6153 245.712 51.058 246.358L49.804 245.676C50.2147 245.177 50.64 244.612 51.08 243.982C51.5347 243.336 51.9747 242.669 52.4 241.98C52.84 241.29 53.2507 240.601 53.632 239.912C54.0133 239.222 54.3507 238.584 54.644 237.998ZM48.726 240.33L49.738 238.944C50.1487 239.281 50.5593 239.655 50.97 240.066C51.3807 240.462 51.7547 240.865 52.092 241.276C52.444 241.672 52.7153 242.038 52.906 242.376L51.806 243.96C51.6153 243.622 51.3513 243.241 51.014 242.816C50.6767 242.376 50.31 241.943 49.914 241.518C49.518 241.078 49.122 240.682 48.726 240.33ZM53.918 243.168L55.348 242.596C55.6413 243.08 55.92 243.6 56.184 244.158C56.4627 244.715 56.7047 245.258 56.91 245.786C57.1153 246.299 57.2693 246.768 57.372 247.194L55.854 247.876C55.766 247.45 55.6193 246.966 55.414 246.424C55.2233 245.881 54.996 245.324 54.732 244.752C54.4827 244.18 54.2113 243.652 53.918 243.168ZM48.66 245.236C49.6427 245.206 50.8087 245.162 52.158 245.104C53.522 245.045 54.908 244.979 56.316 244.906L56.294 246.6C54.9593 246.688 53.6393 246.776 52.334 246.864C51.0433 246.937 49.8773 247.01 48.836 247.084L48.66 245.236ZM54.446 248.492L55.942 248.008C56.2353 248.638 56.5067 249.328 56.756 250.076C57.02 250.824 57.218 251.469 57.35 252.012L55.766 252.584C55.6633 252.026 55.4873 251.366 55.238 250.604C54.9887 249.826 54.7247 249.122 54.446 248.492ZM49.782 248.184L51.542 248.492C51.41 249.533 51.212 250.56 50.948 251.572C50.6987 252.584 50.4053 253.442 50.068 254.146C49.9507 254.072 49.7967 253.984 49.606 253.882C49.4153 253.779 49.21 253.684 48.99 253.596C48.7847 253.493 48.6087 253.42 48.462 253.376C48.814 252.701 49.0927 251.902 49.298 250.978C49.518 250.054 49.6793 249.122 49.782 248.184ZM52.202 246.094H54.028V255.906H52.202V246.094ZM72.244 236.876H89.69V238.944H72.244V236.876ZM71.078 246.204H90.966V248.294H71.078V246.204ZM73.696 240.396L75.588 239.846C75.8667 240.344 76.1307 240.887 76.38 241.474C76.644 242.046 76.8787 242.61 77.084 243.168C77.304 243.71 77.458 244.194 77.546 244.62L75.544 245.28C75.4413 244.854 75.2947 244.363 75.104 243.806C74.928 243.248 74.7153 242.669 74.466 242.068C74.2167 241.466 73.96 240.909 73.696 240.396ZM86.368 239.758L88.59 240.352C88.326 240.924 88.04 241.51 87.732 242.112C87.424 242.713 87.1233 243.292 86.83 243.85C86.5367 244.392 86.258 244.876 85.994 245.302L84.168 244.73C84.432 244.29 84.7033 243.784 84.982 243.212C85.2607 242.625 85.5173 242.031 85.752 241.43C86.0013 240.814 86.2067 240.256 86.368 239.758ZM79.9 237.712H82.056V255.84H79.9V237.712ZM101.658 243.52H108.324V245.39H101.658V243.52ZM100.58 250.472C101.24 250.252 102.003 249.995 102.868 249.702C103.733 249.408 104.657 249.086 105.64 248.734C106.623 248.367 107.598 248.008 108.566 247.656L108.94 249.438C107.649 249.951 106.337 250.472 105.002 251C103.667 251.528 102.465 252.004 101.394 252.43L100.58 250.472ZM102.626 239.032H111.382V241.012H102.626V239.032ZM110.744 239.032H112.856C112.856 239.032 112.849 239.105 112.834 239.252C112.834 239.384 112.834 239.53 112.834 239.692C112.834 239.853 112.827 239.985 112.812 240.088C112.739 242.581 112.658 244.708 112.57 246.468C112.482 248.213 112.379 249.643 112.262 250.758C112.159 251.872 112.027 252.752 111.866 253.398C111.719 254.028 111.536 254.483 111.316 254.762C111.052 255.128 110.766 255.378 110.458 255.51C110.165 255.656 109.805 255.759 109.38 255.818C108.999 255.876 108.5 255.898 107.884 255.884C107.268 255.884 106.63 255.869 105.97 255.84C105.955 255.532 105.882 255.172 105.75 254.762C105.633 254.366 105.479 254.021 105.288 253.728C105.992 253.786 106.637 253.823 107.224 253.838C107.811 253.838 108.236 253.838 108.5 253.838C108.72 253.852 108.896 253.838 109.028 253.794C109.175 253.735 109.307 253.632 109.424 253.486C109.6 253.295 109.754 252.906 109.886 252.32C110.033 251.718 110.157 250.875 110.26 249.79C110.363 248.69 110.451 247.296 110.524 245.61C110.612 243.923 110.685 241.884 110.744 239.494V239.032ZM102.978 235.424L105.09 235.886C104.782 237.015 104.401 238.115 103.946 239.186C103.491 240.256 102.993 241.254 102.45 242.178C101.907 243.102 101.335 243.916 100.734 244.62C100.617 244.488 100.448 244.341 100.228 244.18C100.008 244.004 99.7807 243.835 99.546 243.674C99.3113 243.512 99.106 243.38 98.93 243.278C99.8393 242.339 100.639 241.18 101.328 239.802C102.017 238.408 102.567 236.949 102.978 235.424ZM93.078 240.484H100.052V242.464H93.078V240.484ZM95.652 235.644H97.676V250.142H95.652V235.644ZM92.638 250.208C93.2687 249.973 93.9947 249.702 94.816 249.394C95.652 249.071 96.532 248.726 97.456 248.36C98.38 247.993 99.2967 247.626 100.206 247.26L100.646 249.196C99.414 249.738 98.1527 250.281 96.862 250.824C95.586 251.366 94.4273 251.858 93.386 252.298L92.638 250.208ZM125.33 238.394H133.184V240.418H125.33V238.394ZM115.012 236.766H125.902V238.702H115.012V236.766ZM117.718 241.254H123.24V243.146H117.718V241.254ZM117.718 245.83H123.24V247.7H117.718V245.83ZM132.59 238.394H132.942L133.316 238.306L134.658 238.658C134.335 241.606 133.778 244.172 132.986 246.358C132.194 248.543 131.189 250.398 129.972 251.924C128.755 253.434 127.339 254.666 125.726 255.62C125.565 255.356 125.352 255.055 125.088 254.718C124.824 254.38 124.582 254.116 124.362 253.926C125.814 253.163 127.105 252.085 128.234 250.692C129.363 249.284 130.302 247.59 131.05 245.61C131.798 243.615 132.311 241.364 132.59 238.856V238.394ZM127.574 240.484C127.955 242.508 128.491 244.4 129.18 246.16C129.869 247.905 130.742 249.445 131.798 250.78C132.854 252.114 134.115 253.17 135.582 253.948C135.421 254.08 135.245 254.248 135.054 254.454C134.878 254.659 134.702 254.864 134.526 255.07C134.365 255.29 134.233 255.488 134.13 255.664C132.561 254.754 131.226 253.581 130.126 252.144C129.026 250.692 128.109 249.02 127.376 247.128C126.643 245.221 126.049 243.138 125.594 240.88L127.574 240.484ZM116.618 237.514H118.62V251.858H116.618V237.514ZM122.426 237.514H124.428V255.84H122.426V237.514ZM114.528 251.154C115.247 251.066 116.075 250.963 117.014 250.846C117.953 250.728 118.95 250.596 120.006 250.45C121.062 250.288 122.118 250.134 123.174 249.988L123.284 251.902C121.803 252.136 120.321 252.378 118.84 252.628C117.373 252.862 116.068 253.068 114.924 253.244L114.528 251.154ZM146.956 240.528V242.024H153.578V240.528H146.956ZM146.956 237.624V239.098H153.578V237.624H146.956ZM144.954 236.106H155.668V243.542H144.954V236.106ZM143.7 244.818H156.57V246.556H143.7V244.818ZM143.172 248.162H156.988V249.944H143.172V248.162ZM151.73 246.336H153.82V253.706C153.82 254.219 153.754 254.615 153.622 254.894C153.49 255.187 153.241 255.407 152.874 255.554C152.507 255.7 152.045 255.788 151.488 255.818C150.945 255.847 150.278 255.862 149.486 255.862C149.442 255.583 149.354 255.268 149.222 254.916C149.09 254.578 148.951 254.27 148.804 253.992C149.361 254.006 149.875 254.014 150.344 254.014C150.828 254.028 151.143 254.028 151.29 254.014C151.466 253.999 151.583 253.97 151.642 253.926C151.701 253.882 151.73 253.794 151.73 253.662V246.336ZM144.888 251.066L146.362 250.076C146.846 250.53 147.352 251.044 147.88 251.616C148.408 252.173 148.811 252.664 149.09 253.09L147.528 254.212C147.367 253.918 147.132 253.588 146.824 253.222C146.531 252.855 146.215 252.481 145.878 252.1C145.541 251.718 145.211 251.374 144.888 251.066ZM141.808 240.33L143.634 241.078C143.121 241.958 142.519 242.838 141.83 243.718C141.155 244.598 140.437 245.434 139.674 246.226C138.926 247.003 138.178 247.685 137.43 248.272C137.371 248.11 137.283 247.898 137.166 247.634C137.049 247.37 136.917 247.106 136.77 246.842C136.623 246.563 136.499 246.343 136.396 246.182C137.056 245.712 137.716 245.162 138.376 244.532C139.051 243.901 139.681 243.226 140.268 242.508C140.869 241.789 141.383 241.063 141.808 240.33ZM141.346 235.49L143.326 236.282C142.871 236.927 142.336 237.58 141.72 238.24C141.104 238.9 140.459 239.523 139.784 240.11C139.109 240.696 138.435 241.217 137.76 241.672C137.687 241.496 137.584 241.305 137.452 241.1C137.32 240.88 137.188 240.667 137.056 240.462C136.924 240.242 136.799 240.058 136.682 239.912C137.269 239.545 137.855 239.12 138.442 238.636C139.043 238.137 139.593 237.616 140.092 237.074C140.605 236.516 141.023 235.988 141.346 235.49ZM139.74 244.664L141.698 242.728L141.786 242.772V255.862H139.74V244.664ZM161.674 236.854H176.502V255.532H174.258V238.966H163.808V255.62H161.674V236.854ZM163.104 244.378H175.204V246.446H163.104V244.378ZM163.082 252.078H175.226V254.168H163.082V252.078ZM180.77 247.062H191.726V248.778H180.77V247.062ZM180.946 239.34H191.638V241.012H180.946V239.34ZM184.818 245.302L186.754 245.72C186.402 246.453 186.021 247.223 185.61 248.03C185.199 248.836 184.796 249.614 184.4 250.362C184.004 251.11 183.63 251.777 183.278 252.364L181.452 251.77C181.789 251.212 182.156 250.567 182.552 249.834C182.963 249.086 183.359 248.316 183.74 247.524C184.136 246.732 184.495 245.991 184.818 245.302ZM188.03 248.162L189.966 248.382C189.761 249.482 189.46 250.442 189.064 251.264C188.668 252.085 188.14 252.789 187.48 253.376C186.82 253.962 186.013 254.454 185.06 254.85C184.121 255.26 183.007 255.605 181.716 255.884C181.657 255.59 181.54 255.282 181.364 254.96C181.203 254.637 181.027 254.366 180.836 254.146C182.347 253.911 183.586 253.566 184.554 253.112C185.537 252.642 186.299 252.004 186.842 251.198C187.399 250.391 187.795 249.379 188.03 248.162ZM189.482 235.798L191.264 236.524C190.927 237.022 190.582 237.521 190.23 238.02C189.893 238.518 189.577 238.951 189.284 239.318L187.898 238.68C188.177 238.284 188.463 237.814 188.756 237.272C189.064 236.714 189.306 236.223 189.482 235.798ZM185.346 235.424H187.282V245.588H185.346V235.424ZM181.65 236.524L183.19 235.886C183.498 236.326 183.777 236.81 184.026 237.338C184.29 237.851 184.473 238.298 184.576 238.68L182.97 239.406C182.882 239.01 182.713 238.548 182.464 238.02C182.215 237.477 181.943 236.978 181.65 236.524ZM185.412 240.132L186.776 240.946C186.409 241.547 185.947 242.156 185.39 242.772C184.847 243.373 184.253 243.93 183.608 244.444C182.977 244.957 182.347 245.39 181.716 245.742C181.599 245.507 181.437 245.236 181.232 244.928C181.027 244.62 180.821 244.37 180.616 244.18C181.232 243.93 181.841 243.593 182.442 243.168C183.058 242.742 183.623 242.266 184.136 241.738C184.664 241.21 185.089 240.674 185.412 240.132ZM187.084 240.836C187.275 240.938 187.553 241.107 187.92 241.342C188.301 241.562 188.705 241.804 189.13 242.068C189.57 242.317 189.966 242.559 190.318 242.794C190.685 243.014 190.941 243.182 191.088 243.3L189.966 244.752C189.775 244.576 189.511 244.348 189.174 244.07C188.837 243.791 188.47 243.505 188.074 243.212C187.693 242.904 187.319 242.618 186.952 242.354C186.6 242.075 186.307 241.855 186.072 241.694L187.084 240.836ZM193.266 239.472H201.208V241.386H193.266V239.472ZM193.662 235.424L195.774 235.732C195.539 237.198 195.239 238.614 194.872 239.978C194.505 241.342 194.065 242.603 193.552 243.762C193.039 244.92 192.452 245.94 191.792 246.82C191.689 246.688 191.535 246.534 191.33 246.358C191.125 246.182 190.912 246.006 190.692 245.83C190.472 245.639 190.281 245.492 190.12 245.39C190.751 244.612 191.293 243.703 191.748 242.662C192.203 241.606 192.591 240.462 192.914 239.23C193.237 237.998 193.486 236.729 193.662 235.424ZM197.864 240.616L199.976 240.814C199.639 243.336 199.125 245.558 198.436 247.48C197.761 249.401 196.83 251.058 195.642 252.452C194.469 253.83 192.958 254.989 191.11 255.928C191.051 255.766 190.949 255.561 190.802 255.312C190.655 255.077 190.501 254.842 190.34 254.608C190.179 254.373 190.032 254.19 189.9 254.058C191.601 253.266 192.987 252.261 194.058 251.044C195.143 249.812 195.979 248.33 196.566 246.6C197.167 244.869 197.6 242.874 197.864 240.616ZM194.41 241.078C194.718 243.028 195.158 244.862 195.73 246.578C196.317 248.279 197.072 249.775 197.996 251.066C198.935 252.342 200.086 253.339 201.45 254.058C201.289 254.19 201.113 254.358 200.922 254.564C200.731 254.784 200.555 255.004 200.394 255.224C200.233 255.444 200.093 255.649 199.976 255.84C198.524 254.989 197.314 253.86 196.346 252.452C195.378 251.029 194.586 249.386 193.97 247.524C193.369 245.646 192.885 243.6 192.518 241.386L194.41 241.078ZM183.036 251.616L184.158 250.186C185.023 250.523 185.889 250.904 186.754 251.33C187.619 251.74 188.419 252.173 189.152 252.628C189.9 253.068 190.531 253.486 191.044 253.882L189.614 255.378C189.13 254.967 188.536 254.534 187.832 254.08C187.128 253.625 186.365 253.185 185.544 252.76C184.723 252.334 183.887 251.953 183.036 251.616Z" fill="white"/>
<path d="M20.46 175.514V112.209H5.115V105.554C9.88167 105.554 13.585 105.205 16.225 104.509C18.865 103.812 20.735 102.749 21.835 101.319C22.9717 99.8887 23.595 98.1103 23.705 95.9837H30.965V175.514H20.46ZM51.6149 175.514V169.299V166.054C51.6149 161.984 52.3666 158.464 53.8699 155.494C55.4099 152.524 57.4266 149.939 59.9199 147.739C62.4499 145.502 65.1999 143.504 68.1699 141.744C71.1766 139.984 74.1649 138.297 77.1349 136.684C80.1416 135.034 82.8916 133.329 85.3849 131.569C87.8783 129.772 89.8766 127.755 91.3799 125.519C92.9199 123.245 93.6899 120.569 93.6899 117.489C93.6899 113.455 92.2599 110.174 89.3999 107.644C86.5766 105.114 82.7449 103.849 77.9049 103.849C72.6983 103.849 68.5183 105.315 65.3649 108.249C62.2116 111.182 60.4333 115.087 60.0299 119.964H49.9099C50.0199 115.38 51.1566 111.2 53.3199 107.424C55.4833 103.61 58.6549 100.567 62.8349 98.2937C67.0149 96.0203 72.1666 94.8837 78.2899 94.8837C83.6066 94.8837 88.2266 95.837 92.1499 97.7437C96.0733 99.6137 99.0983 102.254 101.225 105.664C103.388 109.037 104.47 112.979 104.47 117.489C104.47 121.595 103.718 125.115 102.215 128.049C100.712 130.982 98.7133 133.53 96.2199 135.694C93.7633 137.82 91.0683 139.727 88.1349 141.414C85.2016 143.1 82.2499 144.732 79.2799 146.309C76.3099 147.849 73.5966 149.48 71.1399 151.204C68.6833 152.89 66.7033 154.834 65.1999 157.034C63.6966 159.234 62.9449 161.855 62.9449 164.899V166.494H104.91V175.514H51.6149ZM145.852 176.724C139.692 176.724 134.339 175.129 129.792 171.939C125.282 168.749 121.781 164.202 119.287 158.299C116.831 152.359 115.602 145.245 115.602 136.959C115.602 128.452 116.794 121.045 119.177 114.739C121.597 108.432 125.117 103.555 129.737 100.109C134.357 96.6253 140.022 94.8837 146.732 94.8837C151.132 94.8837 155.184 95.7087 158.887 97.3587C162.627 99.0087 165.726 101.374 168.182 104.454C170.639 107.534 172.161 111.255 172.747 115.619H163.177C162.114 111.842 160.189 108.854 157.402 106.654C154.616 104.454 151.114 103.354 146.897 103.354C142.204 103.354 138.281 104.692 135.127 107.369C132.011 110.009 129.737 113.895 128.307 119.029C126.877 124.125 126.382 130.395 126.822 137.839C127.812 135.162 129.316 132.815 131.332 130.799C133.386 128.745 135.769 127.169 138.482 126.069C141.196 124.932 144.129 124.364 147.282 124.364C152.526 124.364 157.109 125.39 161.032 127.444C164.956 129.46 168.017 132.357 170.217 136.134C172.417 139.874 173.517 144.347 173.517 149.554C173.517 154.87 172.381 159.582 170.107 163.689C167.871 167.759 164.681 170.949 160.537 173.259C156.394 175.569 151.499 176.724 145.852 176.724ZM145.742 168.309C149.006 168.309 151.902 167.539 154.432 165.999C156.962 164.459 158.942 162.314 160.372 159.564C161.839 156.814 162.572 153.642 162.572 150.049C162.572 146.419 161.912 143.302 160.592 140.699C159.309 138.095 157.402 136.097 154.872 134.704C152.342 133.31 149.262 132.614 145.632 132.614C142.736 132.614 139.949 133.31 137.272 134.704C134.632 136.06 132.469 137.857 130.782 140.094C129.132 142.33 128.307 144.805 128.307 147.519C128.271 151.552 128.967 155.145 130.397 158.299C131.864 161.415 133.917 163.872 136.557 165.669C139.197 167.429 142.259 168.309 145.742 168.309Z" fill="#274374"/>
<path d="M187.1 143.713H210.103V172.689H206.622V146.989H190.41V172.825H187.1V143.713ZM189.318 155.385H208.09V158.593H189.318V155.385ZM189.284 167.331H208.124V170.573H189.284V167.331Z" fill="#274374"/>
<path d="M19.47 387.014C20.0567 383.384 21.1017 378.892 22.605 373.539C24.145 368.185 26.1617 362.337 28.655 355.994C31.1483 349.614 34.155 343.032 37.675 336.249C41.195 329.465 45.2283 322.81 49.775 316.284H5.115V307.484H60.94V316.284C58.1167 320.134 55.3117 324.515 52.525 329.429C49.775 334.305 47.1533 339.42 44.66 344.774C42.1667 350.09 39.93 355.352 37.95 360.559C35.97 365.729 34.32 370.605 33 375.189C31.7167 379.735 30.8917 383.677 30.525 387.014H19.47ZM58.7941 387.014V374.034H70.8941V387.014H58.7941ZM110.836 388.224C105.373 388.187 100.551 387.179 96.3712 385.199C92.2278 383.219 88.9645 380.45 86.5812 376.894C84.1978 373.3 82.9145 369.047 82.7312 364.134H92.9062C93.6762 369.084 95.6928 372.879 98.9562 375.519C102.22 378.159 106.308 379.479 111.221 379.479C115.108 379.479 118.5 378.874 121.396 377.664C124.293 376.417 126.53 374.712 128.106 372.549C129.683 370.385 130.471 367.855 130.471 364.959C130.471 361.769 129.591 359.074 127.831 356.874C126.071 354.674 123.67 353.005 120.626 351.869C117.583 350.695 114.191 350.09 110.451 350.054L103.301 349.889V341.254L110.121 341.089C113.605 341.015 116.721 340.355 119.471 339.109C122.221 337.825 124.385 336.157 125.961 334.104C127.575 332.014 128.381 329.722 128.381 327.229C128.381 325.029 127.703 322.994 126.346 321.124C124.99 319.217 123.028 317.695 120.461 316.559C117.931 315.422 114.851 314.854 111.221 314.854C108.361 314.854 105.63 315.422 103.026 316.559C100.423 317.659 98.2778 319.364 96.5912 321.674C94.9045 323.984 94.0062 326.972 93.8962 330.639H83.7762C83.7762 325.505 85.0228 321.142 87.5162 317.549C90.0095 313.919 93.3278 311.15 97.4712 309.244C101.651 307.337 106.253 306.384 111.276 306.384C116.776 306.384 121.635 307.19 125.851 308.804C130.068 310.38 133.368 312.69 135.751 315.734C138.135 318.777 139.326 322.499 139.326 326.899C139.326 330.822 138.08 334.379 135.586 337.569C133.093 340.722 129.28 343.197 124.146 344.994C127.63 345.947 130.673 347.34 133.276 349.174C135.88 351.007 137.896 353.262 139.326 355.939C140.756 358.579 141.471 361.622 141.471 365.069C141.471 368.699 140.701 371.962 139.161 374.859C137.658 377.719 135.531 380.157 132.781 382.174C130.031 384.154 126.786 385.675 123.046 386.739C119.306 387.765 115.236 388.26 110.836 388.224Z" fill="#274374"/>
<path d="M156.1 355.213H179.103V384.189H175.622V358.489H159.41V384.325H156.1V355.213ZM158.318 366.885H177.09V370.093H158.318V366.885ZM158.284 378.831H177.124V382.073H158.284V378.831Z" fill="#274374"/>
<path d="M202.13 76.6634C202.35 66.5634 210.6 58.4434 220.75 58.4434C230.9 58.4434 239.15 66.5634 239.37 76.6634H202.13Z" fill="url(#paint0_linear_1177_43081)"/>
<path d="M181 76.6641H260.5V78.3241H181V76.6641Z" fill="url(#paint1_linear_1177_43081)"/>
<path d="M259.03 90.7328C259.04 90.5628 259.06 90.3928 259.06 90.2128L259.12 87.8328C259.14 84.6428 259.02 81.4028 258.62 78.1428C258.29 74.8728 257.77 71.5828 257.04 68.3028C256.33 65.0128 255.46 61.7228 254.4 58.4628C252.32 51.9328 249.7 45.4428 246.56 39.1428C245.01 35.9828 243.33 32.8628 241.54 29.7928C240.64 28.2628 239.72 26.7428 238.76 25.2428L237.3 23.0128C236.83 22.2528 236.5 21.3828 236.62 20.0728L237.35 19.3828C238.69 19.3928 239.55 19.8728 240.25 20.4728C240.93 21.0928 241.59 21.7328 242.25 22.3828C243.57 23.6728 244.86 24.9828 246.13 26.3228C248.66 29.0028 251.11 31.7828 253.46 34.6728C258.12 40.4628 262.47 46.6028 266.18 53.2428C268.06 56.5528 269.78 59.9728 271.35 63.5128C272.94 67.0428 274.32 70.6928 275.52 74.4528C277.14 79.6728 278.34 85.1228 279.01 90.7228H259.02L259.03 90.7328Z" fill="url(#paint2_linear_1177_43081)"/>
<path d="M219.19 14.2535C216.27 12.9435 213.42 11.7935 210.21 10.7035C206.99 9.55352 203.44 8.74352 198.92 7.46352C200.35 5.60352 202.14 4.15352 204.14 3.07352C206.13 1.95352 208.34 1.26352 210.63 0.863522C215.21 0.103522 220.06 0.833522 224.26 2.67352C228.49 4.49352 232.13 7.32352 234.87 10.7635C235.79 11.9435 236.62 13.1835 237.34 14.4835C237.71 13.6135 238.13 12.7535 238.6 11.9135C240.85 7.98352 244.34 4.50352 248.74 2.32352C250.93 1.24352 253.31 0.513522 255.73 0.183522C258.15 -0.146478 260.58 -0.016478 262.88 0.453522C267.46 1.49352 271.51 3.77352 274.32 7.40352C269.78 8.13352 266.01 8.54352 262.67 9.31352C261.01 9.75352 259.47 10.1335 258.02 10.6935C256.57 11.2335 255.2 11.8235 253.84 12.5135C251.5 13.7035 249.21 15.2335 246.82 17.0135C247.97 16.5835 249.15 16.2335 250.36 15.9735C254.79 15.0435 259.72 15.3335 264.26 17.1635C266.52 18.0835 268.66 19.3735 270.51 20.9535C272.37 22.5335 273.89 24.4435 275.06 26.4735C277.35 30.5735 278.33 35.1135 277.49 39.6335C273.92 36.7235 271.11 34.1835 268.31 32.2035C266.88 31.2635 265.57 30.3535 264.19 29.6435C262.82 28.9235 261.47 28.2935 260.06 27.7335C257.23 26.6335 254.14 25.8735 250.67 25.2035C247.42 24.5635 243.91 24.1135 239.92 23.4335V23.5735C236.7 26.2435 234.03 28.4635 231.7 30.7435C229.38 33.0135 227.4 35.1735 225.61 37.5635C223.82 39.9435 222.14 42.4935 220.41 45.4135C218.62 48.3235 216.94 51.5735 214.47 55.2235C212.24 51.4035 211.59 47.1935 211.9 42.9235C212.23 38.6635 213.82 34.3635 216.5 30.7435C219.16 27.1135 222.91 24.2635 227.05 22.7635C229.12 22.0235 231.27 21.5635 233.43 21.5035C233.7 21.5035 233.98 21.5035 234.25 21.5035C232.11 20.5135 230.15 19.5335 228.23 18.6135C225.02 17.0435 222.08 15.5435 219.16 14.2535H219.19Z" fill="url(#paint3_linear_1177_43081)"/>
<defs>
<linearGradient id="paint0_linear_1177_43081" x1="202.38" y1="78.7434" x2="240.12" y2="62.3334" gradientUnits="userSpaceOnUse">
<stop stop-color="#3975BF"/>
<stop offset="1" stop-color="#ADADAD"/>
</linearGradient>
<linearGradient id="paint1_linear_1177_43081" x1="185.88" y1="92.654" x2="263.99" y2="58.684" gradientUnits="userSpaceOnUse">
<stop stop-color="#3975BF"/>
<stop offset="1" stop-color="#ADADAD"/>
</linearGradient>
<linearGradient id="paint2_linear_1177_43081" x1="257.82" y1="90.7328" x2="257.82" y2="13.1128" gradientUnits="userSpaceOnUse">
<stop stop-color="#3975BF"/>
<stop offset="1" stop-color="#ADADAD"/>
</linearGradient>
<linearGradient id="paint3_linear_1177_43081" x1="205.01" y1="36.8835" x2="283.65" y2="2.69352" gradientUnits="userSpaceOnUse">
<stop stop-color="#3975BF"/>
<stop offset="1" stop-color="#ADADAD"/>
</linearGradient>
</defs>
</svg>
