<svg width="323" height="240" viewBox="0 0 323 240" fill="none" xmlns="http://www.w3.org/2000/svg">
<path d="M202.942 20H120.058C111.742 20 105 26.7157 105 35C105 43.2843 111.742 50 120.058 50H202.942C211.258 50 218 43.2843 218 35C218 26.7157 211.258 20 202.942 20Z" fill="#274374"/>
<path d="M123.71 31.166V31.978H130.276V31.166H123.71ZM123.71 29.528V30.312H130.276V29.528H123.71ZM122.436 28.632H131.606V32.86H122.436V28.632ZM120.784 33.532H133.202V34.596H120.784V33.532ZM127.084 35.324H131.886V36.36H127.084V35.324ZM122.744 35.394H126.076V36.346H122.744V35.394ZM122.744 37.158H126.076V38.096H122.744V37.158ZM128.666 36.276C129.067 37.2093 129.683 38.0167 130.514 38.698C131.354 39.3793 132.353 39.86 133.51 40.14C133.426 40.2147 133.333 40.3127 133.23 40.434C133.127 40.5647 133.029 40.6907 132.936 40.812C132.852 40.9427 132.782 41.0593 132.726 41.162C131.503 40.8073 130.458 40.238 129.59 39.454C128.731 38.6607 128.069 37.704 127.602 36.584L128.666 36.276ZM131.494 35.324H131.732L131.956 35.282L132.768 35.604C132.479 36.5653 132.059 37.4053 131.508 38.124C130.967 38.8427 130.337 39.4493 129.618 39.944C128.899 40.4387 128.125 40.8353 127.294 41.134C127.229 40.9753 127.121 40.7887 126.972 40.574C126.832 40.3687 126.701 40.2053 126.58 40.084C127.131 39.9253 127.663 39.706 128.176 39.426C128.689 39.1367 129.161 38.796 129.59 38.404C130.029 38.012 130.411 37.578 130.738 37.102C131.074 36.6167 131.326 36.0893 131.494 35.52V35.324ZM120.658 39.244C121.115 39.2067 121.638 39.1647 122.226 39.118C122.814 39.062 123.435 39.006 124.088 38.95C124.741 38.8847 125.395 38.8193 126.048 38.754L126.062 39.832C125.11 39.9347 124.172 40.0373 123.248 40.14C122.324 40.2427 121.493 40.3313 120.756 40.406L120.658 39.244ZM125.39 33.868H126.664V41.176H125.39V33.868ZM121.946 33.896H123.164V39.608H121.946V33.896ZM137.71 28.128L139.054 28.478C138.793 29.1593 138.489 29.8313 138.144 30.494C137.799 31.1473 137.425 31.754 137.024 32.314C136.623 32.874 136.203 33.364 135.764 33.784C135.68 33.7093 135.568 33.616 135.428 33.504C135.297 33.392 135.157 33.2847 135.008 33.182C134.868 33.07 134.742 32.986 134.63 32.93C135.069 32.5473 135.479 32.104 135.862 31.6C136.245 31.0867 136.59 30.536 136.898 29.948C137.215 29.3507 137.486 28.744 137.71 28.128ZM137.71 29.808H146.684V31.082H137.066L137.71 29.808ZM136.898 33.042H146.362V34.274H138.214V37.424H136.898V33.042ZM134.616 36.766H147.398V38.054H134.616V36.766ZM141.056 30.466H142.414V41.176H141.056V30.466ZM154.328 28.184H155.672V35.17C155.672 35.5527 155.625 35.8467 155.532 36.052C155.439 36.2573 155.257 36.416 154.986 36.528C154.725 36.6307 154.389 36.7007 153.978 36.738C153.567 36.766 153.068 36.78 152.48 36.78C152.461 36.584 152.405 36.3553 152.312 36.094C152.219 35.8327 152.121 35.6087 152.018 35.422C152.307 35.422 152.587 35.4267 152.858 35.436C153.129 35.436 153.362 35.436 153.558 35.436C153.763 35.436 153.908 35.436 153.992 35.436C154.123 35.4267 154.211 35.4033 154.258 35.366C154.305 35.3287 154.328 35.2587 154.328 35.156V28.184ZM157.366 30.41L158.57 29.78C158.971 30.2467 159.368 30.7553 159.76 31.306C160.152 31.8567 160.511 32.4027 160.838 32.944C161.165 33.476 161.412 33.966 161.58 34.414L160.236 35.128C160.087 34.6987 159.858 34.2087 159.55 33.658C159.242 33.1073 158.897 32.552 158.514 31.992C158.141 31.4227 157.758 30.8953 157.366 30.41ZM158.164 34.12L159.564 34.526C159.228 35.562 158.794 36.458 158.262 37.214C157.73 37.9607 157.081 38.5953 156.316 39.118C155.56 39.6407 154.678 40.07 153.67 40.406C152.671 40.7513 151.528 41.022 150.24 41.218C150.184 41.0127 150.086 40.784 149.946 40.532C149.815 40.28 149.68 40.07 149.54 39.902C150.744 39.762 151.813 39.552 152.746 39.272C153.689 38.9827 154.51 38.614 155.21 38.166C155.91 37.7087 156.503 37.1487 156.988 36.486C157.473 35.8233 157.865 35.0347 158.164 34.12ZM151.178 29.948L152.634 30.298C152.41 30.8673 152.144 31.46 151.836 32.076C151.537 32.6827 151.201 33.266 150.828 33.826C150.464 34.3767 150.072 34.8667 149.652 35.296C149.549 35.2027 149.428 35.1093 149.288 35.016C149.148 34.9133 149.003 34.8153 148.854 34.722C148.714 34.6287 148.583 34.554 148.462 34.498C148.863 34.106 149.237 33.6533 149.582 33.14C149.937 32.6267 150.249 32.0947 150.52 31.544C150.8 30.984 151.019 30.452 151.178 29.948ZM165.948 39.762H173.088V40.756H165.948V39.762ZM168.328 31.054H169.602V32.678H168.328V31.054ZM163.078 32.104H175.048V34.806H173.746V33.112H164.324V34.806H163.078V32.104ZM165.892 33.868H172.92V36.822H165.892V35.842H171.604V34.848H165.892V33.868ZM165.948 37.648H173.9V41.176H172.584V38.642H165.948V37.648ZM165.164 33.868H166.424V41.19H165.164V33.868ZM164.338 29.206H168.804V30.284H164.338V29.206ZM169.882 29.206H175.44V30.284H169.882V29.206ZM164.506 28.1L165.752 28.422C165.481 29.0473 165.145 29.654 164.744 30.242C164.352 30.8207 163.951 31.3107 163.54 31.712C163.465 31.6373 163.358 31.558 163.218 31.474C163.087 31.3807 162.952 31.292 162.812 31.208C162.681 31.1147 162.565 31.04 162.462 30.984C162.882 30.6293 163.274 30.1953 163.638 29.682C164.002 29.1687 164.291 28.6413 164.506 28.1ZM170.106 28.1L171.366 28.408C171.114 29.0053 170.783 29.5793 170.372 30.13C169.971 30.6713 169.551 31.124 169.112 31.488C169.028 31.4227 168.916 31.348 168.776 31.264C168.636 31.18 168.491 31.1007 168.342 31.026C168.202 30.942 168.076 30.8767 167.964 30.83C168.421 30.5033 168.837 30.0973 169.21 29.612C169.593 29.1267 169.891 28.6227 170.106 28.1ZM164.996 30.032L166.13 29.724C166.307 29.9667 166.475 30.242 166.634 30.55C166.802 30.8487 166.923 31.11 166.998 31.334L165.808 31.684C165.743 31.4693 165.631 31.2033 165.472 30.886C165.323 30.5687 165.164 30.284 164.996 30.032ZM171.072 30.06L172.234 29.724C172.449 29.9667 172.663 30.242 172.878 30.55C173.102 30.8487 173.265 31.1147 173.368 31.348L172.164 31.712C172.061 31.488 171.907 31.222 171.702 30.914C171.497 30.5967 171.287 30.312 171.072 30.06ZM182.888 32.524V34.064H187.676V32.524H182.888ZM182.888 29.934V31.46H187.676V29.934H182.888ZM181.684 28.8H188.936V35.198H181.684V28.8ZM181.558 36.64H189.118V37.844H181.558V36.64ZM180.522 39.524H189.58V40.728H180.522V39.524ZM176.574 29.066H181.068V30.298H176.574V29.066ZM176.714 33.112H180.858V34.33H176.714V33.112ZM176.42 38.446C176.812 38.3433 177.255 38.2173 177.75 38.068C178.245 37.9187 178.767 37.7553 179.318 37.578C179.869 37.4007 180.419 37.2233 180.97 37.046L181.194 38.306C180.429 38.5673 179.654 38.8287 178.87 39.09C178.086 39.3513 177.377 39.5893 176.742 39.804L176.42 38.446ZM178.24 29.556H179.5V38.194L178.24 38.418V29.556ZM184.736 29.318H185.87V34.652H185.968V40.07H184.624V34.652H184.736V29.318ZM196.202 36.402H198.904V37.312H196.202V36.402ZM195.376 29.528H199.73V30.522H195.376V29.528ZM195.026 32.608H203.51V33.672H195.026V32.608ZM196.454 34.414H199.492V39.328H196.454V38.39H198.428V35.352H196.454V34.414ZM195.67 34.414H196.706V40.182H195.67V34.414ZM196.958 28.212H198.092V30.228H196.958V28.212ZM202.152 34.288L203.244 34.526C202.843 36.0007 202.269 37.298 201.522 38.418C200.785 39.538 199.898 40.462 198.862 41.19C198.815 41.1153 198.745 41.022 198.652 40.91C198.559 40.8073 198.456 40.7 198.344 40.588C198.241 40.476 198.153 40.3827 198.078 40.308C199.095 39.692 199.945 38.8707 200.626 37.844C201.307 36.808 201.816 35.6227 202.152 34.288ZM195.74 30.76L196.608 30.55C196.729 30.8487 196.827 31.1753 196.902 31.53C196.986 31.8753 197.037 32.1787 197.056 32.44L196.118 32.664C196.118 32.412 196.081 32.1087 196.006 31.754C195.931 31.3993 195.843 31.068 195.74 30.76ZM201.228 29.192L202.11 28.73C202.409 29.0753 202.689 29.4627 202.95 29.892C203.221 30.312 203.421 30.6807 203.552 30.998L202.614 31.516C202.493 31.1987 202.301 30.8207 202.04 30.382C201.788 29.934 201.517 29.5373 201.228 29.192ZM198.33 30.536L199.366 30.76C199.254 31.0867 199.142 31.4227 199.03 31.768C198.927 32.104 198.829 32.3887 198.736 32.622L197.896 32.426C197.971 32.1647 198.05 31.8567 198.134 31.502C198.227 31.138 198.293 30.816 198.33 30.536ZM190.658 28.758H195.404V29.934H190.658V28.758ZM191.806 31.712H194.312V32.804H191.806V31.712ZM191.806 34.596H194.312V35.688H191.806V34.596ZM191.274 29.374H192.38V38.25H191.274V29.374ZM193.64 29.36H194.76V41.176H193.64V29.36ZM190.406 38.04C190.901 37.9653 191.484 37.8673 192.156 37.746C192.837 37.6153 193.533 37.48 194.242 37.34L194.34 38.474C193.687 38.614 193.038 38.754 192.394 38.894C191.759 39.0247 191.171 39.146 190.63 39.258L190.406 38.04ZM200.01 28.198H201.186C201.186 29.4207 201.2 30.5967 201.228 31.726C201.265 32.846 201.312 33.8867 201.368 34.848C201.433 35.8 201.513 36.6353 201.606 37.354C201.709 38.0633 201.821 38.6187 201.942 39.02C202.073 39.4213 202.213 39.622 202.362 39.622C202.465 39.622 202.549 39.454 202.614 39.118C202.689 38.7727 202.745 38.292 202.782 37.676C202.847 37.76 202.936 37.8533 203.048 37.956C203.16 38.0493 203.272 38.138 203.384 38.222C203.505 38.2967 203.594 38.3527 203.65 38.39C203.557 39.1273 203.431 39.6967 203.272 40.098C203.123 40.4993 202.964 40.7747 202.796 40.924C202.637 41.0827 202.479 41.162 202.32 41.162C201.947 41.1527 201.629 40.938 201.368 40.518C201.107 40.098 200.887 39.5053 200.71 38.74C200.542 37.9653 200.411 37.0413 200.318 35.968C200.225 34.8947 200.155 33.7047 200.108 32.398C200.061 31.082 200.029 29.682 200.01 28.198Z" fill="white"/>
<path d="M36.96 137V132.48V130.12C36.96 127.16 37.5067 124.6 38.6 122.44C39.72 120.28 41.1867 118.4 43 116.8C44.84 115.173 46.84 113.72 49 112.44C51.1867 111.16 53.36 109.933 55.52 108.76C57.7067 107.56 59.7067 106.32 61.52 105.04C63.3333 103.733 64.7867 102.267 65.88 100.64C67 98.9867 67.56 97.04 67.56 94.8C67.56 91.8667 66.52 89.48 64.44 87.64C62.3867 85.8 59.6 84.88 56.08 84.88C52.2933 84.88 49.2533 85.9467 46.96 88.08C44.6667 90.2133 43.3733 93.0533 43.08 96.6H35.72C35.8 93.2667 36.6267 90.2267 38.2 87.48C39.7733 84.7067 42.08 82.4933 45.12 80.84C48.16 79.1867 51.9067 78.36 56.36 78.36C60.2267 78.36 63.5867 79.0533 66.44 80.44C69.2933 81.8 71.4933 83.72 73.04 86.2C74.6133 88.6533 75.4 91.52 75.4 94.8C75.4 97.7867 74.8533 100.347 73.76 102.48C72.6667 104.613 71.2133 106.467 69.4 108.04C67.6133 109.587 65.6533 110.973 63.52 112.2C61.3867 113.427 59.24 114.613 57.08 115.76C54.92 116.88 52.9467 118.067 51.16 119.32C49.3733 120.547 47.9333 121.96 46.84 123.56C45.7467 125.16 45.2 127.067 45.2 129.28V130.44H75.72V137H36.96ZM105.496 137.88C101.016 137.88 97.1229 136.72 93.8163 134.4C90.5363 132.08 87.9896 128.773 86.1763 124.48C84.3896 120.16 83.4963 114.987 83.4963 108.96C83.4963 102.773 84.3629 97.3867 86.0963 92.8C87.8563 88.2133 90.4163 84.6667 93.7763 82.16C97.1363 79.6267 101.256 78.36 106.136 78.36C109.336 78.36 112.283 78.96 114.976 80.16C117.696 81.36 119.95 83.08 121.736 85.32C123.523 87.56 124.63 90.2667 125.056 93.44H118.096C117.323 90.6933 115.923 88.52 113.896 86.92C111.87 85.32 109.323 84.52 106.256 84.52C102.843 84.52 99.9896 85.4933 97.6963 87.44C95.4296 89.36 93.7763 92.1867 92.7363 95.92C91.6963 99.6267 91.3363 104.187 91.6563 109.6C92.3763 107.653 93.4696 105.947 94.9363 104.48C96.4296 102.987 98.1629 101.84 100.136 101.04C102.11 100.213 104.243 99.8 106.536 99.8C110.35 99.8 113.683 100.547 116.536 102.04C119.39 103.507 121.616 105.613 123.216 108.36C124.816 111.08 125.616 114.333 125.616 118.12C125.616 121.987 124.79 125.413 123.136 128.4C121.51 131.36 119.19 133.68 116.176 135.36C113.163 137.04 109.603 137.88 105.496 137.88ZM105.416 131.76C107.79 131.76 109.896 131.2 111.736 130.08C113.576 128.96 115.016 127.4 116.056 125.4C117.123 123.4 117.656 121.093 117.656 118.48C117.656 115.84 117.176 113.573 116.216 111.68C115.283 109.787 113.896 108.333 112.056 107.32C110.216 106.307 107.976 105.8 105.336 105.8C103.23 105.8 101.203 106.307 99.2563 107.32C97.3363 108.307 95.7629 109.613 94.5363 111.24C93.3363 112.867 92.7363 114.667 92.7363 116.64C92.7096 119.573 93.2163 122.187 94.2563 124.48C95.3229 126.747 96.8163 128.533 98.7363 129.84C100.656 131.12 102.883 131.76 105.416 131.76Z" fill="#274374"/>
<path d="M149.739 116.875H152.114C152.151 118.549 152.306 120.169 152.579 121.735C152.852 123.3 153.188 124.747 153.589 126.076C154.008 127.405 154.453 128.57 154.927 129.571C155.418 130.572 155.91 131.355 156.401 131.919C156.893 132.465 157.329 132.738 157.712 132.738C158.021 132.738 158.24 132.438 158.367 131.837C158.494 131.236 158.595 130.272 158.667 128.943C158.922 129.161 159.223 129.38 159.568 129.598C159.932 129.817 160.26 129.98 160.551 130.09C160.442 131.382 160.26 132.383 160.005 133.093C159.769 133.821 159.45 134.322 159.05 134.595C158.667 134.868 158.167 135.004 157.548 135.004C156.802 135.004 156.064 134.677 155.336 134.021C154.608 133.366 153.926 132.465 153.289 131.318C152.651 130.153 152.078 128.815 151.568 127.305C151.059 125.776 150.649 124.128 150.34 122.363C150.03 120.579 149.83 118.749 149.739 116.875ZM153.534 117.994L155.009 116.875C155.573 117.22 156.165 117.63 156.783 118.103C157.421 118.558 157.903 118.968 158.231 119.332L156.702 120.588C156.392 120.206 155.928 119.778 155.309 119.305C154.69 118.813 154.099 118.376 153.534 117.994ZM146.763 127.086L148.428 126.458C148.829 127.077 149.211 127.76 149.575 128.506C149.939 129.252 150.194 129.889 150.34 130.417L148.565 131.155C148.419 130.608 148.174 129.953 147.828 129.189C147.5 128.424 147.145 127.723 146.763 127.086ZM156.347 122.554L158.64 123.045C157.766 125.721 156.538 128.06 154.954 130.062C153.37 132.065 151.532 133.694 149.439 134.95C149.311 134.804 149.138 134.613 148.92 134.376C148.72 134.158 148.501 133.94 148.265 133.721C148.046 133.503 147.855 133.321 147.691 133.175C149.748 132.101 151.514 130.654 152.988 128.834C154.481 127.013 155.6 124.92 156.347 122.554ZM141.302 126.486L143.213 126.895C142.958 127.842 142.613 128.779 142.176 129.707C141.757 130.636 141.311 131.428 140.838 132.083C140.656 131.919 140.392 131.737 140.046 131.537C139.7 131.318 139.409 131.155 139.172 131.045C139.646 130.426 140.064 129.717 140.428 128.916C140.792 128.115 141.084 127.305 141.302 126.486ZM138.572 119.523H159.814V121.571H138.572V119.523ZM140.592 123.346H149.493V125.311H140.592V123.346ZM135.705 115.154H159.923V117.257H135.705V115.154ZM148.401 111.386H157.466V113.243H148.401V111.386ZM137.179 119.523H139.555V124.192C139.555 124.993 139.518 125.867 139.445 126.813C139.373 127.742 139.236 128.697 139.036 129.68C138.854 130.645 138.581 131.582 138.217 132.492C137.871 133.403 137.416 134.24 136.851 135.004C136.724 134.841 136.533 134.659 136.278 134.458C136.041 134.258 135.796 134.067 135.541 133.885C135.304 133.703 135.095 133.566 134.913 133.475C135.586 132.565 136.078 131.564 136.387 130.472C136.715 129.38 136.924 128.288 137.015 127.195C137.125 126.103 137.179 125.093 137.179 124.165V119.523ZM147.009 109.612H149.521V116.219H147.009V109.612ZM139.964 110.813H142.394V116.465H139.964V110.813ZM144.005 124.602H146.108V132.383C146.108 132.875 146.053 133.266 145.944 133.557C145.853 133.849 145.643 134.085 145.316 134.267C145.006 134.431 144.615 134.531 144.142 134.568C143.687 134.604 143.159 134.622 142.558 134.622C142.503 134.313 142.412 133.976 142.285 133.612C142.158 133.248 142.021 132.92 141.875 132.629C142.294 132.647 142.667 132.656 142.995 132.656C143.341 132.656 143.568 132.656 143.677 132.656C143.823 132.638 143.914 132.611 143.951 132.574C143.987 132.538 144.005 132.456 144.005 132.329V124.602Z" fill="#274374"/>
<g clip-path="url(#clip0_1177_43215)">
<path d="M217.355 161.236V149.514H214.645V161.236H149.594V171.155H152.304V163.941H214.645V171.155H217.355V163.941H279.695V171.155H282.406V161.236H217.355Z" fill="#003C81"/>
<path d="M216 124.265C225.481 124.265 233.167 116.595 233.167 107.133C233.167 97.6705 225.481 90 216 90C206.52 90 198.834 97.6705 198.834 107.133C198.834 116.595 206.52 124.265 216 124.265Z" fill="url(#paint0_linear_1177_43215)"/>
<path d="M204.4 128.773H227.601C236.654 128.773 244.008 136.113 244.008 145.149V150.415H187.992V145.149C187.992 136.113 195.347 128.773 204.4 128.773Z" fill="url(#paint1_linear_1177_43215)"/>
<path d="M150.95 221.199C136.756 221.199 125.2 209.666 125.2 195.5C125.2 181.334 136.756 169.801 150.95 169.801C165.143 169.801 176.699 181.334 176.699 195.5C176.699 209.666 165.143 221.199 150.95 221.199Z" fill="url(#paint2_linear_1177_43215)"/>
<path d="M150.95 200.243C156.753 200.243 161.458 195.548 161.458 189.757C161.458 183.965 156.753 179.27 150.95 179.27C145.147 179.27 140.443 183.965 140.443 189.757C140.443 195.548 145.147 200.243 150.95 200.243Z" fill="white"/>
<path d="M158.051 202.994H143.848C138.978 202.994 134.913 206.457 134 211.056C138.21 215.618 144.246 218.495 150.94 218.495C157.635 218.495 163.671 215.627 167.881 211.056C166.968 206.457 162.912 202.994 158.033 202.994H158.051Z" fill="white"/>
<path d="M216 221.199C201.807 221.199 190.251 209.666 190.251 195.5C190.251 181.334 201.807 169.801 216 169.801C230.194 169.801 241.75 181.334 241.75 195.5C241.75 209.666 230.194 221.199 216 221.199Z" fill="url(#paint3_linear_1177_43215)"/>
<path d="M216 200.243C221.803 200.243 226.507 195.548 226.507 189.757C226.507 183.965 221.803 179.27 216 179.27C210.197 179.27 205.492 183.965 205.492 189.757C205.492 195.548 210.197 200.243 216 200.243Z" fill="white"/>
<path d="M223.102 202.994H208.899C204.029 202.994 199.963 206.457 199.051 211.056C203.261 215.618 209.296 218.495 215.991 218.495C222.686 218.495 228.721 215.627 232.932 211.056C232.019 206.457 227.962 202.994 223.084 202.994H223.102Z" fill="white"/>
<path d="M281.051 221.199C266.857 221.199 255.302 209.666 255.302 195.5C255.302 181.334 266.857 169.801 281.051 169.801C295.245 169.801 306.8 181.334 306.8 195.5C306.8 209.666 295.245 221.199 281.051 221.199Z" fill="url(#paint4_linear_1177_43215)"/>
<path d="M281.052 200.243C286.855 200.243 291.559 195.548 291.559 189.757C291.559 183.965 286.855 179.27 281.052 179.27C275.249 179.27 270.544 183.965 270.544 189.757C270.544 195.548 275.249 200.243 281.052 200.243Z" fill="white"/>
<path d="M288.152 202.994H273.95C269.08 202.994 265.014 206.457 264.102 211.056C268.312 215.618 274.347 218.495 281.042 218.495C287.737 218.495 293.772 215.627 297.982 211.056C297.07 206.457 293.013 202.994 288.134 202.994H288.152Z" fill="white"/>
</g>
<defs>
<linearGradient id="paint0_linear_1177_43215" x1="216" y1="124.265" x2="216" y2="90" gradientUnits="userSpaceOnUse">
<stop stop-color="#3975BF"/>
<stop offset="1" stop-color="#ADADAD"/>
</linearGradient>
<linearGradient id="paint1_linear_1177_43215" x1="125.2" y1="150.415" x2="126.1" y2="128.773" gradientUnits="userSpaceOnUse">
<stop stop-color="#3975BF"/>
<stop offset="1" stop-color="#ADADAD"/>
</linearGradient>
<linearGradient id="paint2_linear_1177_43215" x1="150.95" y1="221.199" x2="150.95" y2="169.801" gradientUnits="userSpaceOnUse">
<stop stop-color="#3975BF"/>
<stop offset="1" stop-color="#ADADAD"/>
</linearGradient>
<linearGradient id="paint3_linear_1177_43215" x1="216" y1="221.199" x2="216" y2="169.801" gradientUnits="userSpaceOnUse">
<stop stop-color="#3975BF"/>
<stop offset="1" stop-color="#ADADAD"/>
</linearGradient>
<linearGradient id="paint4_linear_1177_43215" x1="281.051" y1="221.199" x2="281.051" y2="169.801" gradientUnits="userSpaceOnUse">
<stop stop-color="#3975BF"/>
<stop offset="1" stop-color="#ADADAD"/>
</linearGradient>
<clipPath id="clip0_1177_43215">
<rect width="181.6" height="131.2" fill="white" transform="translate(125.2 90)"/>
</clipPath>
</defs>
</svg>
