<svg width="323" height="430" viewBox="0 0 323 430" fill="none" xmlns="http://www.w3.org/2000/svg">
<path d="M202.942 231H120.058C111.742 231 105 237.716 105 246C105 254.284 111.742 261 120.058 261H202.942C211.258 261 218 254.284 218 246C218 237.716 211.258 231 202.942 231Z" fill="#274374"/>
<path d="M121.428 240.094H132.53V241.41H121.428V240.094ZM120.686 246.03H133.342V247.36H120.686V246.03ZM122.352 242.334L123.556 241.984C123.733 242.301 123.901 242.647 124.06 243.02C124.228 243.384 124.377 243.743 124.508 244.098C124.648 244.443 124.746 244.751 124.802 245.022L123.528 245.442C123.463 245.171 123.369 244.859 123.248 244.504C123.136 244.149 123.001 243.781 122.842 243.398C122.683 243.015 122.52 242.661 122.352 242.334ZM130.416 241.928L131.83 242.306C131.662 242.67 131.48 243.043 131.284 243.426C131.088 243.809 130.897 244.177 130.71 244.532C130.523 244.877 130.346 245.185 130.178 245.456L129.016 245.092C129.184 244.812 129.357 244.49 129.534 244.126C129.711 243.753 129.875 243.375 130.024 242.992C130.183 242.6 130.313 242.245 130.416 241.928ZM126.3 240.626H127.672V252.162H126.3V240.626ZM140.146 244.322H144.388V245.512H140.146V244.322ZM139.46 248.746C139.88 248.606 140.365 248.443 140.916 248.256C141.467 248.069 142.055 247.864 142.68 247.64C143.305 247.407 143.926 247.178 144.542 246.954L144.78 248.088C143.959 248.415 143.123 248.746 142.274 249.082C141.425 249.418 140.659 249.721 139.978 249.992L139.46 248.746ZM140.762 241.466H146.334V242.726H140.762V241.466ZM145.928 241.466H147.272C147.272 241.466 147.267 241.513 147.258 241.606C147.258 241.69 147.258 241.783 147.258 241.886C147.258 241.989 147.253 242.073 147.244 242.138C147.197 243.725 147.146 245.078 147.09 246.198C147.034 247.309 146.969 248.219 146.894 248.928C146.829 249.637 146.745 250.197 146.642 250.608C146.549 251.009 146.432 251.299 146.292 251.476C146.124 251.709 145.942 251.868 145.746 251.952C145.559 252.045 145.331 252.111 145.06 252.148C144.817 252.185 144.5 252.199 144.108 252.19C143.716 252.19 143.31 252.181 142.89 252.162C142.881 251.966 142.834 251.737 142.75 251.476C142.675 251.224 142.577 251.005 142.456 250.818C142.904 250.855 143.315 250.879 143.688 250.888C144.061 250.888 144.332 250.888 144.5 250.888C144.64 250.897 144.752 250.888 144.836 250.86C144.929 250.823 145.013 250.757 145.088 250.664C145.2 250.543 145.298 250.295 145.382 249.922C145.475 249.539 145.555 249.003 145.62 248.312C145.685 247.612 145.741 246.725 145.788 245.652C145.844 244.579 145.891 243.281 145.928 241.76V241.466ZM140.986 239.17L142.33 239.464C142.134 240.183 141.891 240.883 141.602 241.564C141.313 242.245 140.995 242.88 140.65 243.468C140.305 244.056 139.941 244.574 139.558 245.022C139.483 244.938 139.376 244.845 139.236 244.742C139.096 244.63 138.951 244.523 138.802 244.42C138.653 244.317 138.522 244.233 138.41 244.168C138.989 243.571 139.497 242.833 139.936 241.956C140.375 241.069 140.725 240.141 140.986 239.17ZM134.686 242.39H139.124V243.65H134.686V242.39ZM136.324 239.31H137.612V248.536H136.324V239.31ZM134.406 248.578C134.807 248.429 135.269 248.256 135.792 248.06C136.324 247.855 136.884 247.635 137.472 247.402C138.06 247.169 138.643 246.935 139.222 246.702L139.502 247.934C138.718 248.279 137.915 248.625 137.094 248.97C136.282 249.315 135.545 249.628 134.882 249.908L134.406 248.578ZM153.95 241.536L160.824 240.962L160.922 242.026L154.034 242.628L153.95 241.536ZM154.314 243.664L160.642 243.062L160.754 244.098L154.426 244.714L154.314 243.664ZM153.95 245.848L161.244 245.106L161.356 246.17L154.076 246.94L153.95 245.848ZM156.008 239.114H157.31C157.31 240.131 157.338 241.125 157.394 242.096C157.459 243.067 157.553 243.991 157.674 244.868C157.795 245.736 157.94 246.539 158.108 247.276C158.276 248.004 158.467 248.634 158.682 249.166C158.897 249.698 159.125 250.113 159.368 250.412C159.62 250.701 159.877 250.846 160.138 250.846C160.306 250.846 160.427 250.725 160.502 250.482C160.586 250.23 160.651 249.777 160.698 249.124C160.819 249.273 160.969 249.413 161.146 249.544C161.333 249.665 161.501 249.759 161.65 249.824C161.575 250.421 161.473 250.883 161.342 251.21C161.221 251.546 161.053 251.779 160.838 251.91C160.623 252.05 160.348 252.12 160.012 252.12C159.536 252.12 159.107 251.952 158.724 251.616C158.351 251.28 158.015 250.809 157.716 250.202C157.427 249.595 157.175 248.881 156.96 248.06C156.755 247.239 156.582 246.347 156.442 245.386C156.302 244.415 156.195 243.398 156.12 242.334C156.055 241.27 156.017 240.197 156.008 239.114ZM157.926 239.772L158.668 239.016C159.013 239.156 159.373 239.338 159.746 239.562C160.129 239.786 160.423 240.001 160.628 240.206L159.858 241.046C159.662 240.831 159.377 240.607 159.004 240.374C158.64 240.131 158.281 239.931 157.926 239.772ZM160.04 246.324L160.992 246.996C160.516 247.724 159.905 248.415 159.158 249.068C158.421 249.721 157.604 250.305 156.708 250.818C155.812 251.331 154.893 251.733 153.95 252.022C153.875 251.863 153.773 251.677 153.642 251.462C153.511 251.247 153.371 251.065 153.222 250.916C153.922 250.739 154.608 250.496 155.28 250.188C155.961 249.88 156.601 249.525 157.198 249.124C157.805 248.723 158.351 248.284 158.836 247.808C159.321 247.323 159.723 246.828 160.04 246.324ZM148.672 239.842H154.104V241.046H148.672V239.842ZM150.422 242.684H152.97V243.874H150.422V242.684ZM149.456 246.072L150.128 245.134C150.417 245.302 150.711 245.498 151.01 245.722C151.318 245.937 151.603 246.156 151.864 246.38C152.125 246.604 152.331 246.809 152.48 246.996L151.766 248.06C151.617 247.864 151.411 247.649 151.15 247.416C150.898 247.173 150.623 246.935 150.324 246.702C150.025 246.469 149.736 246.259 149.456 246.072ZM150.436 240.206L151.696 240.402C151.547 241.307 151.355 242.185 151.122 243.034C150.898 243.874 150.627 244.658 150.31 245.386C150.002 246.105 149.647 246.739 149.246 247.29C149.181 247.206 149.087 247.113 148.966 247.01C148.845 246.898 148.719 246.791 148.588 246.688C148.457 246.576 148.345 246.492 148.252 246.436C148.635 245.941 148.966 245.367 149.246 244.714C149.526 244.061 149.764 243.351 149.96 242.586C150.156 241.811 150.315 241.018 150.436 240.206ZM152.606 242.684H152.844L153.054 242.642L153.824 242.866C153.563 245.171 153.082 247.103 152.382 248.662C151.682 250.211 150.814 251.387 149.778 252.19C149.713 252.097 149.624 251.989 149.512 251.868C149.409 251.747 149.297 251.63 149.176 251.518C149.055 251.415 148.947 251.336 148.854 251.28C149.871 250.543 150.697 249.479 151.332 248.088C151.976 246.697 152.401 244.985 152.606 242.95V242.684ZM162.84 247.794H175.202V248.9H162.84V247.794ZM162.896 241.592H175.16V242.698H162.896V241.592ZM163.456 244.028H174.642V245.092H163.456V244.028ZM164.156 245.946H173.97V246.926H164.156V245.946ZM168.328 244.546H169.63V252.176H168.328V244.546ZM167.068 239.17H168.314V242.11H167.068V239.17ZM169.7 239.17H170.96V242.04H169.7V239.17ZM167.992 248.256L169.056 248.746C168.617 249.222 168.085 249.67 167.46 250.09C166.835 250.51 166.163 250.879 165.444 251.196C164.725 251.523 164.016 251.784 163.316 251.98C163.251 251.859 163.167 251.728 163.064 251.588C162.971 251.457 162.868 251.327 162.756 251.196C162.653 251.065 162.551 250.953 162.448 250.86C163.148 250.711 163.848 250.505 164.548 250.244C165.248 249.983 165.901 249.684 166.508 249.348C167.115 249.003 167.609 248.639 167.992 248.256ZM169.966 248.228C170.265 248.517 170.619 248.797 171.03 249.068C171.45 249.339 171.907 249.591 172.402 249.824C172.897 250.048 173.41 250.244 173.942 250.412C174.483 250.58 175.025 250.715 175.566 250.818C175.473 250.911 175.365 251.028 175.244 251.168C175.132 251.308 175.025 251.453 174.922 251.602C174.829 251.751 174.749 251.887 174.684 252.008C174.133 251.859 173.587 251.672 173.046 251.448C172.505 251.233 171.982 250.981 171.478 250.692C170.983 250.403 170.517 250.09 170.078 249.754C169.649 249.409 169.271 249.04 168.944 248.648L169.966 248.228ZM172.934 239.324L174.306 239.674C174.091 240.047 173.867 240.421 173.634 240.794C173.41 241.167 173.205 241.489 173.018 241.76L171.94 241.424C172.061 241.228 172.183 241.009 172.304 240.766C172.425 240.514 172.542 240.262 172.654 240.01C172.766 239.758 172.859 239.529 172.934 239.324ZM171.072 242.292L172.458 242.628C172.281 242.955 172.103 243.272 171.926 243.58C171.749 243.879 171.581 244.135 171.422 244.35L170.316 244.028C170.447 243.776 170.582 243.487 170.722 243.16C170.871 242.833 170.988 242.544 171.072 242.292ZM163.96 239.674L165.094 239.282C165.327 239.59 165.551 239.935 165.766 240.318C165.981 240.701 166.139 241.037 166.242 241.326L165.038 241.76C164.954 241.48 164.809 241.144 164.604 240.752C164.399 240.36 164.184 240.001 163.96 239.674ZM165.766 242.754L167.04 242.53C167.189 242.745 167.329 242.987 167.46 243.258C167.591 243.529 167.684 243.762 167.74 243.958L166.41 244.21C166.363 244.014 166.279 243.781 166.158 243.51C166.037 243.23 165.906 242.978 165.766 242.754ZM181.936 240.78H189.02V241.928H181.936V240.78ZM181.404 243.482H189.524V244.658H181.404V243.482ZM181.446 246.072H189.398V247.234H181.446V246.072ZM184.778 239.17H186.08V244.224H184.778V239.17ZM186.598 244.532H187.886V250.706C187.886 251.042 187.839 251.308 187.746 251.504C187.662 251.7 187.499 251.845 187.256 251.938C187.013 252.041 186.705 252.101 186.332 252.12C185.959 252.148 185.497 252.162 184.946 252.162C184.918 251.985 184.862 251.775 184.778 251.532C184.694 251.299 184.605 251.093 184.512 250.916C184.913 250.925 185.282 250.935 185.618 250.944C185.963 250.944 186.192 250.944 186.304 250.944C186.416 250.935 186.491 250.916 186.528 250.888C186.575 250.851 186.598 250.781 186.598 250.678V244.532ZM182.174 248.2L183.238 247.584C183.462 247.817 183.691 248.074 183.924 248.354C184.157 248.634 184.372 248.914 184.568 249.194C184.764 249.465 184.913 249.712 185.016 249.936L183.882 250.622C183.789 250.398 183.649 250.146 183.462 249.866C183.285 249.577 183.084 249.287 182.86 248.998C182.636 248.709 182.407 248.443 182.174 248.2ZM177.61 240.066H181.152V249.432H177.61V248.242H179.92V241.27H177.61V240.066ZM177.68 244.098H180.508V245.274H177.68V244.098ZM176.98 240.066H178.212V250.636H176.98V240.066ZM194.956 247.752H199.016V248.718H194.956V247.752ZM194.886 245.652H199.646V250.874H194.886V249.866H198.4V246.66H194.886V245.652ZM194.326 245.652H195.53V251.588H194.326V245.652ZM191.848 241.718H195.572V242.656H191.848V241.718ZM198.33 241.718H202.096V242.656H198.33V241.718ZM201.55 239.758H202.894V250.524C202.894 250.907 202.843 251.205 202.74 251.42C202.647 251.644 202.474 251.817 202.222 251.938C201.97 252.05 201.643 252.115 201.242 252.134C200.85 252.162 200.355 252.176 199.758 252.176C199.749 252.045 199.716 251.896 199.66 251.728C199.613 251.569 199.562 251.406 199.506 251.238C199.45 251.079 199.389 250.939 199.324 250.818C199.585 250.837 199.847 250.846 200.108 250.846C200.369 250.846 200.598 250.846 200.794 250.846C200.999 250.846 201.144 250.846 201.228 250.846C201.349 250.837 201.433 250.809 201.48 250.762C201.527 250.715 201.55 250.631 201.55 250.51V239.758ZM191.96 239.758H196.412V244.686H191.96V243.706H195.166V240.738H191.96V239.758ZM202.236 239.758V240.738H198.806V243.734H202.236V244.714H197.546V239.758H202.236ZM191.19 239.758H192.506V252.19H191.19V239.758Z" fill="white"/>
<path d="M202.942 20H120.058C111.742 20 105 26.7157 105 35C105 43.2843 111.742 50 120.058 50H202.942C211.258 50 218 43.2843 218 35C218 26.7157 211.258 20 202.942 20Z" fill="#274374"/>
<path d="M121.428 29.094H132.53V30.41H121.428V29.094ZM120.686 35.03H133.342V36.36H120.686V35.03ZM122.352 31.334L123.556 30.984C123.733 31.3013 123.901 31.6467 124.06 32.02C124.228 32.384 124.377 32.7433 124.508 33.098C124.648 33.4433 124.746 33.7513 124.802 34.022L123.528 34.442C123.463 34.1713 123.369 33.8587 123.248 33.504C123.136 33.1493 123.001 32.7807 122.842 32.398C122.683 32.0153 122.52 31.6607 122.352 31.334ZM130.416 30.928L131.83 31.306C131.662 31.67 131.48 32.0433 131.284 32.426C131.088 32.8087 130.897 33.1773 130.71 33.532C130.523 33.8773 130.346 34.1853 130.178 34.456L129.016 34.092C129.184 33.812 129.357 33.49 129.534 33.126C129.711 32.7527 129.875 32.3747 130.024 31.992C130.183 31.6 130.313 31.2453 130.416 30.928ZM126.3 29.626H127.672V41.162H126.3V29.626ZM140.146 33.322H144.388V34.512H140.146V33.322ZM139.46 37.746C139.88 37.606 140.365 37.4427 140.916 37.256C141.467 37.0693 142.055 36.864 142.68 36.64C143.305 36.4067 143.926 36.178 144.542 35.954L144.78 37.088C143.959 37.4147 143.123 37.746 142.274 38.082C141.425 38.418 140.659 38.7213 139.978 38.992L139.46 37.746ZM140.762 30.466H146.334V31.726H140.762V30.466ZM145.928 30.466H147.272C147.272 30.466 147.267 30.5127 147.258 30.606C147.258 30.69 147.258 30.7833 147.258 30.886C147.258 30.9887 147.253 31.0727 147.244 31.138C147.197 32.7247 147.146 34.078 147.09 35.198C147.034 36.3087 146.969 37.2187 146.894 37.928C146.829 38.6373 146.745 39.1973 146.642 39.608C146.549 40.0093 146.432 40.2987 146.292 40.476C146.124 40.7093 145.942 40.868 145.746 40.952C145.559 41.0453 145.331 41.1107 145.06 41.148C144.817 41.1853 144.5 41.1993 144.108 41.19C143.716 41.19 143.31 41.1807 142.89 41.162C142.881 40.966 142.834 40.7373 142.75 40.476C142.675 40.224 142.577 40.0047 142.456 39.818C142.904 39.8553 143.315 39.8787 143.688 39.888C144.061 39.888 144.332 39.888 144.5 39.888C144.64 39.8973 144.752 39.888 144.836 39.86C144.929 39.8227 145.013 39.7573 145.088 39.664C145.2 39.5427 145.298 39.2953 145.382 38.922C145.475 38.5393 145.555 38.0027 145.62 37.312C145.685 36.612 145.741 35.7253 145.788 34.652C145.844 33.5787 145.891 32.2813 145.928 30.76V30.466ZM140.986 28.17L142.33 28.464C142.134 29.1827 141.891 29.8827 141.602 30.564C141.313 31.2453 140.995 31.88 140.65 32.468C140.305 33.056 139.941 33.574 139.558 34.022C139.483 33.938 139.376 33.8447 139.236 33.742C139.096 33.63 138.951 33.5227 138.802 33.42C138.653 33.3173 138.522 33.2333 138.41 33.168C138.989 32.5707 139.497 31.8333 139.936 30.956C140.375 30.0693 140.725 29.1407 140.986 28.17ZM134.686 31.39H139.124V32.65H134.686V31.39ZM136.324 28.31H137.612V37.536H136.324V28.31ZM134.406 37.578C134.807 37.4287 135.269 37.256 135.792 37.06C136.324 36.8547 136.884 36.6353 137.472 36.402C138.06 36.1687 138.643 35.9353 139.222 35.702L139.502 36.934C138.718 37.2793 137.915 37.6247 137.094 37.97C136.282 38.3153 135.545 38.628 134.882 38.908L134.406 37.578ZM155.644 31.432H160.432V32.664H155.644V31.432ZM160.054 31.432H161.3C161.3 31.432 161.3 31.474 161.3 31.558C161.3 31.6327 161.295 31.7167 161.286 31.81C161.286 31.9033 161.286 31.978 161.286 32.034C161.258 33.4993 161.225 34.736 161.188 35.744C161.151 36.752 161.104 37.578 161.048 38.222C161.001 38.866 160.941 39.3653 160.866 39.72C160.791 40.0747 160.703 40.3267 160.6 40.476C160.46 40.672 160.315 40.812 160.166 40.896C160.017 40.98 159.835 41.036 159.62 41.064C159.433 41.1013 159.195 41.12 158.906 41.12C158.617 41.12 158.309 41.1107 157.982 41.092C157.973 40.9147 157.935 40.7047 157.87 40.462C157.814 40.2287 157.735 40.028 157.632 39.86C157.931 39.888 158.206 39.9067 158.458 39.916C158.71 39.916 158.897 39.916 159.018 39.916C159.13 39.916 159.219 39.902 159.284 39.874C159.359 39.846 159.424 39.7807 159.48 39.678C159.564 39.5753 159.634 39.3653 159.69 39.048C159.746 38.7213 159.797 38.2547 159.844 37.648C159.891 37.032 159.928 36.2387 159.956 35.268C159.993 34.2973 160.026 33.1167 160.054 31.726V31.432ZM157.142 28.31H158.374C158.374 29.7847 158.355 31.166 158.318 32.454C158.281 33.742 158.173 34.9367 157.996 36.038C157.828 37.13 157.548 38.11 157.156 38.978C156.764 39.846 156.209 40.5927 155.49 41.218C155.434 41.1153 155.35 41.0033 155.238 40.882C155.126 40.77 155.009 40.658 154.888 40.546C154.776 40.434 154.669 40.3453 154.566 40.28C155.098 39.832 155.527 39.3093 155.854 38.712C156.19 38.1053 156.447 37.4333 156.624 36.696C156.801 35.9587 156.923 35.156 156.988 34.288C157.063 33.4107 157.105 32.4727 157.114 31.474C157.133 30.4753 157.142 29.4207 157.142 28.31ZM149.036 37.326H155.308V38.292H149.036V37.326ZM148.84 35.45H155.448V36.444H148.84V35.45ZM148.63 29.304H155.686V30.298H148.63V29.304ZM151.5 31.978H152.732V39.86H151.5V31.978ZM150.058 28.184H151.276V31.306H150.058V28.184ZM152.928 28.184H154.16V31.306H152.928V28.184ZM148.532 39.636C149.111 39.5893 149.778 39.5287 150.534 39.454C151.29 39.3793 152.088 39.3 152.928 39.216C153.777 39.1227 154.622 39.034 155.462 38.95L155.476 40.014C154.664 40.098 153.847 40.1867 153.026 40.28C152.214 40.3733 151.435 40.4573 150.688 40.532C149.951 40.616 149.279 40.6907 148.672 40.756L148.532 39.636ZM150.212 32.51V33.77H154.062V32.51H150.212ZM149.064 31.586H155.266V34.708H149.064V31.586ZM170.876 28.17H172.178V32.104H170.876V28.17ZM167.782 29.402H175.314V30.494H167.782V29.402ZM168.286 31.572H174.866V32.664H168.286V31.572ZM167.796 33.49H175.398V36.122H174.236V34.526H168.916V36.122H167.796V33.49ZM172.094 35.408H173.298V39.524C173.298 39.7013 173.312 39.818 173.34 39.874C173.377 39.9207 173.457 39.944 173.578 39.944C173.615 39.944 173.681 39.944 173.774 39.944C173.877 39.944 173.975 39.944 174.068 39.944C174.171 39.944 174.245 39.944 174.292 39.944C174.367 39.944 174.427 39.9067 174.474 39.832C174.521 39.748 174.553 39.5847 174.572 39.342C174.591 39.09 174.605 38.712 174.614 38.208C174.745 38.3107 174.913 38.4087 175.118 38.502C175.333 38.586 175.524 38.6513 175.692 38.698C175.664 39.3233 175.603 39.804 175.51 40.14C175.417 40.4853 175.281 40.7233 175.104 40.854C174.936 40.994 174.707 41.064 174.418 41.064C174.362 41.064 174.287 41.064 174.194 41.064C174.101 41.064 174.003 41.064 173.9 41.064C173.797 41.064 173.695 41.064 173.592 41.064C173.499 41.064 173.429 41.064 173.382 41.064C173.037 41.064 172.771 41.0173 172.584 40.924C172.397 40.8307 172.267 40.672 172.192 40.448C172.127 40.224 172.094 39.916 172.094 39.524V35.408ZM169.546 35.422H170.75V36.416C170.75 36.7707 170.713 37.158 170.638 37.578C170.573 37.9887 170.437 38.4087 170.232 38.838C170.036 39.2673 169.737 39.6827 169.336 40.084C168.944 40.4947 168.417 40.8633 167.754 41.19C167.651 41.0593 167.511 40.9053 167.334 40.728C167.157 40.56 166.989 40.42 166.83 40.308C167.437 40.0093 167.922 39.692 168.286 39.356C168.65 39.0107 168.921 38.6653 169.098 38.32C169.275 37.9653 169.392 37.6247 169.448 37.298C169.513 36.962 169.546 36.6587 169.546 36.388V35.422ZM164.646 28.184L165.794 28.604C165.617 28.9587 165.425 29.3273 165.22 29.71C165.024 30.0833 164.823 30.4427 164.618 30.788C164.422 31.1333 164.235 31.4367 164.058 31.698L163.162 31.32C163.339 31.0493 163.517 30.732 163.694 30.368C163.881 29.9947 164.058 29.6167 164.226 29.234C164.394 28.8513 164.534 28.5013 164.646 28.184ZM166.214 29.808L167.306 30.312C166.979 30.8347 166.615 31.3853 166.214 31.964C165.822 32.5427 165.425 33.1027 165.024 33.644C164.623 34.176 164.245 34.6473 163.89 35.058L163.106 34.61C163.367 34.302 163.643 33.952 163.932 33.56C164.221 33.1587 164.501 32.7433 164.772 32.314C165.052 31.8753 165.313 31.4413 165.556 31.012C165.808 30.5827 166.027 30.1813 166.214 29.808ZM162.448 31.264L163.12 30.382C163.363 30.606 163.61 30.8533 163.862 31.124C164.114 31.3947 164.347 31.6607 164.562 31.922C164.777 32.1833 164.94 32.4213 165.052 32.636L164.338 33.644C164.226 33.4107 164.067 33.1587 163.862 32.888C163.657 32.608 163.428 32.328 163.176 32.048C162.924 31.7587 162.681 31.4973 162.448 31.264ZM165.696 33.084L166.648 32.692C166.835 33 167.017 33.336 167.194 33.7C167.371 34.0547 167.525 34.4 167.656 34.736C167.796 35.0627 167.899 35.3613 167.964 35.632L166.928 36.094C166.881 35.8233 166.793 35.5153 166.662 35.17C166.541 34.8247 166.396 34.47 166.228 34.106C166.06 33.742 165.883 33.4013 165.696 33.084ZM162.35 34.358C162.966 34.3207 163.694 34.2833 164.534 34.246C165.374 34.1993 166.237 34.148 167.124 34.092L167.138 35.184C166.307 35.2493 165.486 35.31 164.674 35.366C163.862 35.422 163.139 35.4733 162.504 35.52L162.35 34.358ZM166.074 36.528L167.026 36.234C167.203 36.6353 167.357 37.0693 167.488 37.536C167.628 38.0027 167.717 38.4087 167.754 38.754L166.76 39.076C166.723 38.7307 166.639 38.32 166.508 37.844C166.387 37.368 166.242 36.9293 166.074 36.528ZM163.092 36.29L164.184 36.472C164.1 37.1347 163.979 37.788 163.82 38.432C163.671 39.076 163.489 39.622 163.274 40.07C163.199 40.0233 163.101 39.972 162.98 39.916C162.859 39.8507 162.733 39.79 162.602 39.734C162.481 39.6687 162.378 39.622 162.294 39.594C162.509 39.1647 162.677 38.656 162.798 38.068C162.929 37.48 163.027 36.8873 163.092 36.29ZM164.604 34.918H165.752V41.176H164.604V34.918ZM179.71 28.128L181.054 28.478C180.793 29.1593 180.489 29.8313 180.144 30.494C179.799 31.1473 179.425 31.754 179.024 32.314C178.623 32.874 178.203 33.364 177.764 33.784C177.68 33.7093 177.568 33.616 177.428 33.504C177.297 33.392 177.157 33.2847 177.008 33.182C176.868 33.07 176.742 32.986 176.63 32.93C177.069 32.5473 177.479 32.104 177.862 31.6C178.245 31.0867 178.59 30.536 178.898 29.948C179.215 29.3507 179.486 28.744 179.71 28.128ZM179.71 29.808H188.684V31.082H179.066L179.71 29.808ZM178.898 33.042H188.362V34.274H180.214V37.424H178.898V33.042ZM176.616 36.766H189.398V38.054H176.616V36.766ZM183.056 30.466H184.414V41.176H183.056V30.466ZM190.49 35.576H197.462V36.668H190.49V35.576ZM190.602 30.662H197.406V31.726H190.602V30.662ZM193.066 34.456L194.298 34.722C194.074 35.1887 193.831 35.6787 193.57 36.192C193.309 36.7053 193.052 37.2 192.8 37.676C192.548 38.152 192.31 38.5767 192.086 38.95L190.924 38.572C191.139 38.2173 191.372 37.8067 191.624 37.34C191.885 36.864 192.137 36.374 192.38 35.87C192.632 35.366 192.861 34.8947 193.066 34.456ZM195.11 36.276L196.342 36.416C196.211 37.116 196.02 37.7273 195.768 38.25C195.516 38.7727 195.18 39.2207 194.76 39.594C194.34 39.9673 193.827 40.28 193.22 40.532C192.623 40.7933 191.913 41.0127 191.092 41.19C191.055 41.0033 190.98 40.8073 190.868 40.602C190.765 40.3967 190.653 40.224 190.532 40.084C191.493 39.9347 192.282 39.7153 192.898 39.426C193.523 39.1273 194.009 38.7213 194.354 38.208C194.709 37.6947 194.961 37.0507 195.11 36.276ZM196.034 28.408L197.168 28.87C196.953 29.1873 196.734 29.5047 196.51 29.822C196.295 30.1393 196.095 30.4147 195.908 30.648L195.026 30.242C195.203 29.99 195.385 29.6913 195.572 29.346C195.768 28.9913 195.922 28.6787 196.034 28.408ZM193.402 28.17H194.634V34.638H193.402V28.17ZM191.05 28.87L192.03 28.464C192.226 28.744 192.403 29.052 192.562 29.388C192.73 29.7147 192.847 29.9993 192.912 30.242L191.89 30.704C191.834 30.452 191.727 30.158 191.568 29.822C191.409 29.4767 191.237 29.1593 191.05 28.87ZM193.444 31.166L194.312 31.684C194.079 32.0667 193.785 32.454 193.43 32.846C193.085 33.2287 192.707 33.5833 192.296 33.91C191.895 34.2367 191.493 34.512 191.092 34.736C191.017 34.5867 190.915 34.414 190.784 34.218C190.653 34.022 190.523 33.8633 190.392 33.742C190.784 33.5833 191.171 33.3687 191.554 33.098C191.946 32.8273 192.305 32.524 192.632 32.188C192.968 31.852 193.239 31.5113 193.444 31.166ZM194.508 31.614C194.629 31.6793 194.807 31.7867 195.04 31.936C195.283 32.076 195.539 32.23 195.81 32.398C196.09 32.5567 196.342 32.7107 196.566 32.86C196.799 33 196.963 33.1073 197.056 33.182L196.342 34.106C196.221 33.994 196.053 33.8493 195.838 33.672C195.623 33.4947 195.39 33.3127 195.138 33.126C194.895 32.93 194.657 32.748 194.424 32.58C194.2 32.4027 194.013 32.2627 193.864 32.16L194.508 31.614ZM198.442 30.746H203.496V31.964H198.442V30.746ZM198.694 28.17L200.038 28.366C199.889 29.2993 199.697 30.2 199.464 31.068C199.231 31.936 198.951 32.7387 198.624 33.476C198.297 34.2133 197.924 34.862 197.504 35.422C197.439 35.338 197.341 35.24 197.21 35.128C197.079 35.016 196.944 34.904 196.804 34.792C196.664 34.6707 196.543 34.5773 196.44 34.512C196.841 34.0173 197.187 33.4387 197.476 32.776C197.765 32.104 198.013 31.376 198.218 30.592C198.423 29.808 198.582 29.0007 198.694 28.17ZM201.368 31.474L202.712 31.6C202.497 33.2053 202.171 34.6193 201.732 35.842C201.303 37.0647 200.71 38.1193 199.954 39.006C199.207 39.8833 198.246 40.6207 197.07 41.218C197.033 41.1153 196.967 40.9847 196.874 40.826C196.781 40.6767 196.683 40.5273 196.58 40.378C196.477 40.2287 196.384 40.112 196.3 40.028C197.383 39.524 198.265 38.8847 198.946 38.11C199.637 37.326 200.169 36.3833 200.542 35.282C200.925 34.1807 201.2 32.9113 201.368 31.474ZM199.17 31.768C199.366 33.0093 199.646 34.176 200.01 35.268C200.383 36.3507 200.864 37.3027 201.452 38.124C202.049 38.936 202.782 39.5707 203.65 40.028C203.547 40.112 203.435 40.2193 203.314 40.35C203.193 40.49 203.081 40.63 202.978 40.77C202.875 40.91 202.787 41.0407 202.712 41.162C201.788 40.6207 201.018 39.902 200.402 39.006C199.786 38.1007 199.282 37.0553 198.89 35.87C198.507 34.6753 198.199 33.3733 197.966 31.964L199.17 31.768ZM191.932 38.474L192.646 37.564C193.197 37.7787 193.747 38.0213 194.298 38.292C194.849 38.5533 195.357 38.8287 195.824 39.118C196.3 39.398 196.701 39.664 197.028 39.916L196.118 40.868C195.81 40.6067 195.432 40.3313 194.984 40.042C194.536 39.7527 194.051 39.4727 193.528 39.202C193.005 38.9313 192.473 38.6887 191.932 38.474Z" fill="white"/>
<path d="M38.8796 382V335.96H27.7196V331.12C31.1863 331.12 33.8796 330.867 35.7996 330.36C37.7196 329.853 39.0796 329.08 39.8796 328.04C40.7063 327 41.1596 325.707 41.2396 324.16H46.5196V382H38.8796ZM79.8177 382.88C76.6177 382.88 73.6311 382.28 70.8577 381.08C68.1111 379.853 65.8044 378.12 63.9377 375.88C62.0977 373.64 60.9644 370.96 60.5377 367.84H67.7377C68.4044 370.48 69.7911 372.627 71.8977 374.28C74.0044 375.907 76.5644 376.72 79.5777 376.72C82.9911 376.72 85.9111 375.827 88.3377 374.04C90.7911 372.253 92.6177 369.493 93.8177 365.76C95.0177 362.027 95.4711 357.24 95.1777 351.4C94.5111 353.427 93.4577 355.213 92.0177 356.76C90.5777 358.28 88.8444 359.48 86.8177 360.36C84.7911 361.24 82.5511 361.68 80.0977 361.68C76.2844 361.68 72.9244 360.933 70.0177 359.44C67.1111 357.947 64.8444 355.813 63.2177 353.04C61.6177 350.267 60.8177 346.947 60.8177 343.08C60.8177 339.213 61.6177 335.8 63.2177 332.84C64.8177 329.88 67.1111 327.56 70.0977 325.88C73.0844 324.2 76.6311 323.36 80.7377 323.36C85.2177 323.36 89.0977 324.52 92.3777 326.84C95.6577 329.133 98.1911 332.44 99.9777 336.76C101.764 341.053 102.658 346.213 102.658 352.24C102.658 358.72 101.764 364.24 99.9777 368.8C98.2177 373.36 95.6311 376.853 92.2177 379.28C88.8311 381.68 84.6977 382.88 79.8177 382.88ZM80.8977 355.4C83.0311 355.4 85.0577 354.907 86.9777 353.92C88.8977 352.933 90.4577 351.627 91.6577 350C92.8844 348.347 93.4977 346.547 93.4977 344.6C93.5244 341.613 93.0177 338.987 91.9777 336.72C90.9377 334.427 89.4577 332.64 87.5377 331.36C85.6177 330.053 83.3777 329.4 80.8177 329.4C78.4711 329.4 76.3911 329.96 74.5777 331.08C72.7911 332.2 71.3777 333.76 70.3377 335.76C69.3244 337.76 68.8177 340.08 68.8177 342.72C68.8177 346.587 69.8444 349.667 71.8977 351.96C73.9511 354.253 76.9511 355.4 80.8977 355.4Z" fill="#274374"/>
<path d="M121.897 358.724H135.713V360.963H121.897V358.724ZM120.859 363.994H136.696V366.288H120.859V363.994ZM120.941 369.045H136.45V371.311H120.941V369.045ZM127.44 355.584H129.979V365.441H127.44V355.584ZM130.989 366.042H133.501V378.083C133.501 378.738 133.41 379.257 133.228 379.639C133.064 380.021 132.746 380.304 132.272 380.486C131.799 380.686 131.198 380.804 130.47 380.841C129.742 380.895 128.841 380.922 127.767 380.922C127.713 380.577 127.603 380.167 127.44 379.694C127.276 379.239 127.103 378.838 126.921 378.492C127.703 378.511 128.422 378.529 129.078 378.547C129.751 378.547 130.197 378.547 130.416 378.547C130.634 378.529 130.78 378.492 130.853 378.438C130.944 378.365 130.989 378.228 130.989 378.028V366.042ZM122.361 373.195L124.436 371.994C124.873 372.449 125.319 372.95 125.774 373.496C126.229 374.042 126.648 374.588 127.03 375.134C127.412 375.662 127.703 376.144 127.904 376.581L125.692 377.919C125.51 377.482 125.237 376.991 124.873 376.445C124.527 375.88 124.136 375.316 123.699 374.752C123.262 374.187 122.816 373.669 122.361 373.195ZM113.46 357.332H120.368V375.598H113.46V373.277H117.965V359.68H113.46V357.332ZM113.596 365.195H119.112V367.489H113.596V365.195ZM112.231 357.332H114.634V377.946H112.231V357.332ZM147.29 372.322H155.208V374.206H147.29V372.322ZM147.153 368.226H156.436V378.411H147.153V376.445H154.006V370.192H147.153V368.226ZM146.061 368.226H148.409V379.803H146.061V368.226ZM141.228 360.554H148.491V362.383H141.228V360.554ZM153.87 360.554H161.215V362.383H153.87V360.554ZM160.15 356.731H162.771V377.728C162.771 378.474 162.671 379.057 162.471 379.475C162.289 379.912 161.952 380.249 161.46 380.486C160.969 380.704 160.332 380.831 159.549 380.868C158.785 380.922 157.82 380.95 156.655 380.95C156.637 380.695 156.573 380.404 156.464 380.076C156.373 379.767 156.273 379.448 156.163 379.12C156.054 378.811 155.936 378.538 155.808 378.301C156.318 378.338 156.828 378.356 157.337 378.356C157.847 378.356 158.293 378.356 158.675 378.356C159.076 378.356 159.358 378.356 159.522 378.356C159.758 378.338 159.922 378.283 160.013 378.192C160.104 378.101 160.15 377.937 160.15 377.701V356.731ZM141.446 356.731H150.129V366.342H141.446V364.431H147.699V358.642H141.446V356.731ZM161.488 356.731V358.642H154.798V364.485H161.488V366.397H152.341V356.731H161.488ZM139.945 356.731H142.511V380.977H139.945V356.731Z" fill="#274374"/>
<g clip-path="url(#clip0_1177_43236)">
<path d="M266.064 125.416C278.329 125.416 288.272 115.473 288.272 103.208C288.272 90.9429 278.329 81 266.064 81C253.799 81 243.856 90.9429 243.856 103.208C243.856 115.473 253.799 125.416 266.064 125.416Z" fill="url(#paint0_linear_1177_43236)"/>
<path d="M251.056 131.264H281.08C292.792 131.264 302.304 140.776 302.304 152.488V185.032H229.832V152.488C229.832 140.776 239.344 131.264 251.056 131.264Z" fill="url(#paint1_linear_1177_43236)"/>
<path d="M238.008 179.193H160.856V185.041H238.008V179.193Z" fill="#274374"/>
<path d="M219.304 179.193H160.856L148 137.113H206.448L219.304 179.193Z" fill="#274374"/>
</g>
<path d="M50.24 123.88C45.76 123.88 41.8667 122.72 38.56 120.4C35.28 118.08 32.7333 114.773 30.92 110.48C29.1333 106.16 28.24 100.987 28.24 94.96C28.24 88.7733 29.1067 83.3867 30.84 78.8C32.6 74.2133 35.16 70.6667 38.52 68.16C41.88 65.6267 46 64.36 50.88 64.36C54.08 64.36 57.0267 64.96 59.72 66.16C62.44 67.36 64.6933 69.08 66.48 71.32C68.2667 73.56 69.3733 76.2667 69.8 79.44H62.84C62.0667 76.6933 60.6667 74.52 58.64 72.92C56.6133 71.32 54.0667 70.52 51 70.52C47.5867 70.52 44.7333 71.4933 42.44 73.44C40.1733 75.36 38.52 78.1867 37.48 81.92C36.44 85.6267 36.08 90.1867 36.4 95.6C37.12 93.6533 38.2133 91.9467 39.68 90.48C41.1733 88.9867 42.9067 87.84 44.88 87.04C46.8533 86.2133 48.9867 85.8 51.28 85.8C55.0933 85.8 58.4267 86.5467 61.28 88.04C64.1333 89.5067 66.36 91.6133 67.96 94.36C69.56 97.08 70.36 100.333 70.36 104.12C70.36 107.987 69.5333 111.413 67.88 114.4C66.2533 117.36 63.9333 119.68 60.92 121.36C57.9067 123.04 54.3467 123.88 50.24 123.88ZM50.16 117.76C52.5333 117.76 54.64 117.2 56.48 116.08C58.32 114.96 59.76 113.4 60.8 111.4C61.8667 109.4 62.4 107.093 62.4 104.48C62.4 101.84 61.92 99.5733 60.96 97.68C60.0267 95.7867 58.64 94.3333 56.8 93.32C54.96 92.3067 52.72 91.8 50.08 91.8C47.9733 91.8 45.9467 92.3067 44 93.32C42.08 94.3067 40.5067 95.6133 39.28 97.24C38.08 98.8667 37.48 100.667 37.48 102.64C37.4533 105.573 37.96 108.187 39 110.48C40.0667 112.747 41.56 114.533 43.48 115.84C45.4 117.12 47.6267 117.76 50.16 117.76Z" fill="#274374"/>
<path d="M118.312 122.201C118.611 120.353 119.143 118.067 119.908 115.341C120.692 112.616 121.719 109.639 122.988 106.409C124.257 103.161 125.788 99.8105 127.58 96.3572C129.372 92.9038 131.425 89.5158 133.74 86.1932H111.004V81.7132H139.424V86.1932C137.987 88.1532 136.559 90.3838 135.14 92.8852C133.74 95.3678 132.405 97.9718 131.136 100.697C129.867 103.404 128.728 106.083 127.72 108.733C126.712 111.365 125.872 113.848 125.2 116.181C124.547 118.496 124.127 120.503 123.94 122.201H118.312Z" fill="#274374"/>
<path d="M84.5555 96.9028L87.1767 97.5854C86.667 98.9142 86.0754 100.225 85.4019 101.517C84.7284 102.791 84.0003 103.975 83.2176 105.067C82.4349 106.159 81.6157 107.115 80.7602 107.934C80.5964 107.788 80.378 107.606 80.1049 107.388C79.8501 107.169 79.577 106.96 79.2858 106.76C79.0128 106.541 78.767 106.377 78.5486 106.268C79.4041 105.522 80.205 104.657 80.9513 103.674C81.6977 102.673 82.3712 101.599 82.9718 100.452C83.5907 99.2874 84.1186 98.1042 84.5555 96.9028ZM84.5555 100.179H102.057V102.664H83.2995L84.5555 100.179ZM82.9718 106.487H101.429V108.889H85.5384V115.033H82.9718V106.487ZM78.5213 113.749H103.45V116.261H78.5213V113.749ZM91.0811 101.463H93.7296V122.35H91.0811V101.463Z" fill="#274374"/>
<path d="M146.588 103.811C146.497 104.084 146.397 104.348 146.288 104.603C146.197 104.839 146.115 105.076 146.042 105.312C145.897 105.695 145.715 106.141 145.496 106.65C145.296 107.16 145.078 107.661 144.841 108.152C144.623 108.644 144.413 109.062 144.213 109.408C143.885 109.991 143.476 110.619 142.984 111.292C142.511 111.966 142.02 112.594 141.51 113.176C141 113.759 140.536 114.241 140.117 114.623L137.605 113.149C138.188 112.712 138.734 112.22 139.244 111.674C139.753 111.128 140.218 110.573 140.636 110.009C141.073 109.444 141.437 108.917 141.728 108.425C142.092 107.843 142.393 107.251 142.629 106.65C142.884 106.05 143.084 105.476 143.23 104.93C143.303 104.657 143.367 104.366 143.421 104.056C143.494 103.729 143.549 103.429 143.585 103.155L146.588 103.811ZM143.585 107.415C143.84 107.415 144.286 107.415 144.923 107.415C145.578 107.415 146.325 107.415 147.162 107.415C148.017 107.415 148.9 107.415 149.81 107.415C150.739 107.415 151.612 107.415 152.432 107.415C153.251 107.415 153.951 107.415 154.534 107.415C155.135 107.415 155.517 107.415 155.681 107.415C155.99 107.415 156.354 107.415 156.773 107.415C157.21 107.397 157.601 107.36 157.947 107.306V109.954C157.565 109.918 157.155 109.9 156.718 109.9C156.3 109.881 155.954 109.872 155.681 109.872C155.517 109.872 155.135 109.872 154.534 109.872C153.951 109.872 153.242 109.872 152.404 109.872C151.585 109.872 150.711 109.872 149.783 109.872C148.855 109.872 147.963 109.872 147.107 109.872C146.252 109.872 145.487 109.872 144.814 109.872C144.158 109.872 143.676 109.872 143.367 109.872L143.585 107.415ZM152.049 108.862C151.958 111.065 151.64 113.03 151.094 114.76C150.548 116.471 149.765 117.963 148.745 119.238C147.726 120.494 146.479 121.577 145.005 122.487L142.329 120.685C142.657 120.539 143.039 120.339 143.476 120.084C143.931 119.829 144.304 119.583 144.595 119.347C145.196 118.873 145.769 118.327 146.315 117.708C146.862 117.071 147.353 116.334 147.79 115.497C148.227 114.66 148.582 113.695 148.855 112.603C149.128 111.51 149.292 110.264 149.346 108.862H152.049ZM168.95 98.3773H182.93V100.889H168.95V98.3773ZM168.95 104.93H183.039V107.388H168.95V104.93ZM168.759 111.483H182.875V113.968H168.759V111.483ZM167.23 98.3773H169.879V107.087C169.879 108.27 169.815 109.545 169.688 110.91C169.56 112.257 169.315 113.622 168.95 115.005C168.586 116.389 168.049 117.718 167.34 118.992C166.63 120.248 165.683 121.376 164.5 122.377C164.372 122.195 164.19 121.977 163.954 121.722C163.717 121.486 163.471 121.249 163.217 121.012C162.962 120.794 162.734 120.621 162.534 120.494C163.608 119.565 164.454 118.546 165.073 117.435C165.71 116.325 166.184 115.178 166.493 113.995C166.803 112.812 167.003 111.629 167.094 110.446C167.185 109.262 167.23 108.134 167.23 107.06V98.3773ZM181.756 98.3773H184.486V118.828C184.486 119.665 184.359 120.302 184.104 120.739C183.868 121.194 183.467 121.531 182.903 121.749C182.32 121.986 181.547 122.132 180.582 122.186C179.635 122.241 178.434 122.268 176.978 122.268C176.941 121.995 176.86 121.695 176.732 121.367C176.605 121.04 176.468 120.712 176.323 120.384C176.195 120.057 176.059 119.774 175.913 119.538C176.623 119.574 177.315 119.602 177.988 119.62C178.68 119.62 179.28 119.62 179.79 119.62C180.318 119.602 180.691 119.592 180.91 119.592C181.219 119.592 181.437 119.538 181.565 119.429C181.692 119.301 181.756 119.092 181.756 118.801V98.3773Z" fill="#274374"/>
<g clip-path="url(#clip1_1177_43236)">
<path d="M244.4 397.8C275.548 397.8 300.8 372.549 300.8 341.4C300.8 310.251 275.548 285 244.4 285C213.251 285 188 310.251 188 341.4C188 372.549 213.251 397.8 244.4 397.8Z" fill="url(#paint2_linear_1177_43236)"/>
<path d="M244.399 300.848V341.4L266.799 363.8" stroke="white" stroke-width="4" stroke-miterlimit="10"/>
<path d="M244.399 348.599C248.375 348.599 251.599 345.376 251.599 341.399C251.599 337.423 248.375 334.199 244.399 334.199C240.422 334.199 237.199 337.423 237.199 341.399C237.199 345.376 240.422 348.599 244.399 348.599Z" fill="#274374"/>
</g>
<defs>
<linearGradient id="paint0_linear_1177_43236" x1="266.064" y1="125.424" x2="266.064" y2="81" gradientUnits="userSpaceOnUse">
<stop stop-color="#3975BF"/>
<stop offset="1" stop-color="#ADADAD"/>
</linearGradient>
<linearGradient id="paint1_linear_1177_43236" x1="266.064" y1="185.04" x2="266.064" y2="131.264" gradientUnits="userSpaceOnUse">
<stop stop-color="#3975BF"/>
<stop offset="1" stop-color="#ADADAD"/>
</linearGradient>
<linearGradient id="paint2_linear_1177_43236" x1="244.4" y1="397.8" x2="244.4" y2="285" gradientUnits="userSpaceOnUse">
<stop stop-color="#3975BF"/>
<stop offset="1" stop-color="#ADADAD"/>
</linearGradient>
<clipPath id="clip0_1177_43236">
<rect width="154.304" height="104.04" fill="white" transform="translate(148 81)"/>
</clipPath>
<clipPath id="clip1_1177_43236">
<rect width="112.8" height="112.8" fill="white" transform="translate(188 285)"/>
</clipPath>
</defs>
</svg>
