<svg width="465" height="264" viewBox="0 0 465 264" fill="none" xmlns="http://www.w3.org/2000/svg">
<path d="M106 0H25C11.1929 0 0 11.1929 0 25C0 38.8071 11.1929 50 25 50H106C119.807 50 131 38.8071 131 25C131 11.1929 119.807 0 106 0Z" fill="#274374"/>
<path d="M36.972 18.678H42.252V20.13H36.972V18.678ZM36.84 32.472H43.55V34.012H36.84V32.472ZM35.784 23.716H42.978V25.014H35.784V23.716ZM34.904 21.142H36.708V24.596C36.708 25.3147 36.6713 26.092 36.598 26.928C36.5393 27.764 36.4147 28.6293 36.224 29.524C36.0333 30.404 35.762 31.262 35.41 32.098C35.058 32.9193 34.6033 33.6747 34.046 34.364C33.958 34.2467 33.826 34.1 33.65 33.924C33.474 33.7627 33.2907 33.6013 33.1 33.44C32.924 33.2933 32.77 33.1833 32.638 33.11C33.3127 32.2593 33.8113 31.3353 34.134 30.338C34.4567 29.3407 34.662 28.3433 34.75 27.346C34.8527 26.334 34.904 25.41 34.904 24.574V21.142ZM35.916 21.142H43.836V27.61H35.872V26.114H41.966V22.66H35.916V21.142ZM36.07 28.754H44.166V34.694H42.34V30.294H37.852V34.826H36.07V28.754ZM45.42 17.094H47.4V29.392H45.42V17.094ZM50.304 14.85H52.35V32.252C52.35 32.8827 52.2693 33.3593 52.108 33.682C51.9467 34.0193 51.6753 34.2687 51.294 34.43C50.9127 34.606 50.3993 34.716 49.754 34.76C49.1087 34.8187 48.302 34.848 47.334 34.848C47.3047 34.6573 47.2533 34.43 47.18 34.166C47.1067 33.9167 47.0187 33.66 46.916 33.396C46.828 33.1467 46.7327 32.9267 46.63 32.736C47.334 32.7653 47.9793 32.78 48.566 32.78C49.1527 32.78 49.5487 32.78 49.754 32.78C49.9593 32.7653 50.0987 32.7213 50.172 32.648C50.26 32.5747 50.304 32.4353 50.304 32.23V14.85ZM38.292 14.674H39.436V15.092H40.096V15.686C39.4653 16.5807 38.6367 17.5633 37.61 18.634C36.598 19.7047 35.3587 20.7167 33.892 21.67C33.804 21.5233 33.6793 21.3547 33.518 21.164C33.3713 20.9733 33.2173 20.79 33.056 20.614C32.8947 20.438 32.7407 20.2987 32.594 20.196C33.4887 19.668 34.3027 19.096 35.036 18.48C35.7693 17.8493 36.4073 17.204 36.95 16.544C37.5073 15.884 37.9547 15.2607 38.292 14.674ZM38.71 14.674H40.162C40.7047 15.07 41.2693 15.5173 41.856 16.016C42.4573 16.5 43.0293 16.984 43.572 17.468C44.1147 17.9373 44.5693 18.3627 44.936 18.744L43.572 20.306C43.2493 19.9247 42.8313 19.4847 42.318 18.986C41.8193 18.4727 41.284 17.9593 40.712 17.446C40.1547 16.9327 39.6193 16.4927 39.106 16.126H38.71V14.674ZM55.32 27.962H74.746V29.7H55.32V27.962ZM55.408 18.216H74.68V19.954H55.408V18.216ZM56.288 22.044H73.866V23.716H56.288V22.044ZM57.388 25.058H72.81V26.598H57.388V25.058ZM63.944 22.858H65.99V34.848H63.944V22.858ZM61.964 14.41H63.922V19.03H61.964V14.41ZM66.1 14.41H68.08V18.92H66.1V14.41ZM63.416 28.688L65.088 29.458C64.3987 30.206 63.5627 30.91 62.58 31.57C61.5973 32.23 60.5413 32.8093 59.412 33.308C58.2827 33.8213 57.168 34.232 56.068 34.54C55.9653 34.3493 55.8333 34.144 55.672 33.924C55.5253 33.7187 55.364 33.5133 55.188 33.308C55.0267 33.1027 54.8653 32.9267 54.704 32.78C55.804 32.5453 56.904 32.2227 58.004 31.812C59.104 31.4013 60.1307 30.932 61.084 30.404C62.0373 29.8613 62.8147 29.2893 63.416 28.688ZM66.518 28.644C66.9873 29.0987 67.5447 29.5387 68.19 29.964C68.85 30.3893 69.5687 30.7853 70.346 31.152C71.1233 31.504 71.93 31.812 72.766 32.076C73.6167 32.34 74.4673 32.5527 75.318 32.714C75.1713 32.8607 75.0027 33.044 74.812 33.264C74.636 33.484 74.4673 33.7113 74.306 33.946C74.1593 34.1807 74.0347 34.3933 73.932 34.584C73.0667 34.3493 72.2087 34.056 71.358 33.704C70.5073 33.3667 69.686 32.9707 68.894 32.516C68.1167 32.0613 67.3833 31.57 66.694 31.042C66.0193 30.4993 65.4253 29.92 64.912 29.304L66.518 28.644ZM71.182 14.652L73.338 15.202C73.0007 15.7887 72.6487 16.3753 72.282 16.962C71.93 17.5487 71.6073 18.0547 71.314 18.48L69.62 17.952C69.8107 17.644 70.0013 17.2993 70.192 16.918C70.3827 16.522 70.566 16.126 70.742 15.73C70.918 15.334 71.0647 14.9747 71.182 14.652ZM68.256 19.316L70.434 19.844C70.1553 20.3573 69.8767 20.856 69.598 21.34C69.3193 21.8093 69.0553 22.2127 68.806 22.55L67.068 22.044C67.2733 21.648 67.486 21.1933 67.706 20.68C67.9407 20.1667 68.124 19.712 68.256 19.316ZM57.08 15.202L58.862 14.586C59.2287 15.07 59.5807 15.6127 59.918 16.214C60.2553 16.8153 60.5047 17.3433 60.666 17.798L58.774 18.48C58.642 18.04 58.4147 17.512 58.092 16.896C57.7693 16.28 57.432 15.7153 57.08 15.202ZM59.918 20.042L61.92 19.69C62.1547 20.0273 62.3747 20.4087 62.58 20.834C62.7853 21.2593 62.932 21.626 63.02 21.934L60.93 22.33C60.8567 22.022 60.7247 21.6553 60.534 21.23C60.3433 20.79 60.138 20.394 59.918 20.042ZM81.83 14.344L83.942 14.894C83.5313 15.9647 83.0547 17.0207 82.512 18.062C81.9693 19.0887 81.3827 20.042 80.752 20.922C80.1213 21.802 79.4613 22.572 78.772 23.232C78.64 23.1147 78.464 22.968 78.244 22.792C78.0387 22.616 77.8187 22.4473 77.584 22.286C77.364 22.11 77.166 21.978 76.99 21.89C77.6793 21.2887 78.3247 20.592 78.926 19.8C79.5273 18.9933 80.07 18.128 80.554 17.204C81.0527 16.2653 81.478 15.312 81.83 14.344ZM81.83 16.984H95.932V18.986H80.818L81.83 16.984ZM80.554 22.066H95.426V24.002H82.622V28.952H80.554V22.066ZM76.968 27.918H97.054V29.942H76.968V27.918ZM87.088 18.018H89.222V34.848H87.088V18.018Z" fill="white"/>
<path opacity="0.27" d="M462.07 117.538V95.5692H465V26H183V95.5692H185.93V117.538H183V264H287.743V225.92H360.257V264H465V117.538H462.07ZM227.681 179.785H196.184V153.422H227.681V179.785ZM227.681 148.295H196.184V121.932H227.681V148.295ZM227.681 91.1754H196.184V64.8123H227.681V91.1754ZM227.681 59.6862H196.184V33.3231H227.681V59.6862ZM265.036 179.785H233.54V153.422H265.036V179.785ZM265.036 148.295H233.54V121.932H265.036V148.295ZM265.036 91.1754H233.54V64.8123H265.036V91.1754ZM265.036 59.6862H233.54V33.3231H265.036V59.6862ZM302.392 179.785H270.896V153.422H302.392V179.785ZM302.392 148.295H270.896V121.932H302.392V148.295ZM302.392 91.1754H270.896V64.8123H302.392V91.1754ZM302.392 59.6862H270.896V33.3231H302.392V59.6862ZM339.748 179.785H308.252V153.422H339.748V179.785ZM339.748 148.295H308.252V121.932H339.748V148.295ZM339.748 91.1754H308.252V64.8123H339.748V91.1754ZM339.748 59.6862H308.252V33.3231H339.748V59.6862ZM377.104 179.785H345.608V153.422H377.104V179.785ZM377.104 148.295H345.608V121.932H377.104V148.295ZM377.104 91.1754H345.608V64.8123H377.104V91.1754ZM377.104 59.6862H345.608V33.3231H377.104V59.6862ZM414.46 179.785H382.964V153.422H414.46V179.785ZM414.46 148.295H382.964V121.932H414.46V148.295ZM414.46 91.1754H382.964V64.8123H414.46V91.1754ZM414.46 59.6862H382.964V33.3231H414.46V59.6862ZM451.816 179.785H420.319V153.422H451.816V179.785ZM451.816 148.295H420.319V121.932H451.816V148.295ZM451.816 91.1754H420.319V64.8123H451.816V91.1754ZM451.816 59.6862H420.319V33.3231H451.816V59.6862Z" fill="url(#paint0_linear_1177_43072)"/>
<path d="M27.482 231V152.156H8.3705V143.868C14.3072 143.868 18.9195 143.434 22.2075 142.566C25.4955 141.699 27.8245 140.374 29.1945 138.593C30.6102 136.812 31.3865 134.598 31.5235 131.949H40.5655V231H27.482ZM97.5885 232.507C92.1085 232.507 86.9939 231.48 82.2445 229.424C77.5409 227.324 73.5907 224.355 70.394 220.519C67.243 216.683 65.3022 212.094 64.5715 206.751H76.9015C78.0432 211.272 80.4179 214.948 84.0255 217.779C87.6332 220.565 92.0172 221.958 97.1775 221.958C103.023 221.958 108.023 220.428 112.179 217.368C116.38 214.309 119.509 209.582 121.564 203.189C123.619 196.796 124.395 188.598 123.893 178.597C122.751 182.068 120.947 185.128 118.481 187.776C116.015 190.379 113.047 192.434 109.576 193.941C106.105 195.448 102.269 196.202 98.068 196.202C91.5377 196.202 85.7837 194.923 80.806 192.366C75.8284 189.809 71.9467 186.155 69.161 181.406C66.421 176.657 65.051 170.971 65.051 164.349C65.051 157.728 66.421 151.882 69.161 146.813C71.901 141.744 75.8284 137.771 80.943 134.894C86.0577 132.017 92.1314 130.579 99.164 130.579C106.836 130.579 113.481 132.565 119.098 136.538C124.715 140.466 129.053 146.128 132.113 153.526C135.172 160.879 136.702 169.715 136.702 180.036C136.702 191.133 135.172 200.586 132.113 208.395C129.099 216.204 124.669 222.186 118.824 226.342C113.024 230.452 105.946 232.507 97.5885 232.507ZM99.438 185.447C103.091 185.447 106.562 184.603 109.85 182.913C113.138 181.223 115.81 178.986 117.865 176.2C119.965 173.369 121.016 170.286 121.016 166.952C121.061 161.838 120.194 157.34 118.413 153.458C116.632 149.531 114.097 146.471 110.809 144.279C107.521 142.041 103.685 140.922 99.301 140.922C95.2824 140.922 91.7204 141.881 88.615 143.799C85.5554 145.717 83.135 148.389 81.354 151.814C79.6187 155.239 78.751 159.212 78.751 163.733C78.751 170.355 80.5092 175.629 84.0255 179.556C87.5419 183.484 92.6794 185.447 99.438 185.447ZM186.798 232.507C179.217 232.507 172.596 231.343 166.933 229.013C161.27 226.639 156.864 223.328 153.713 219.081C150.607 214.834 149.055 209.856 149.055 204.148C149.055 200.312 150.014 196.636 151.932 193.119C153.895 189.603 156.407 186.612 159.467 184.146C162.526 181.68 165.723 180.127 169.057 179.488C164.536 177.57 160.791 174.784 157.823 171.131C154.9 167.478 153.439 162.957 153.439 157.568C153.439 151.814 154.9 146.928 157.823 142.909C160.745 138.89 164.718 135.831 169.742 133.73C174.811 131.629 180.496 130.579 186.798 130.579C193.146 130.579 198.831 131.629 203.855 133.73C208.878 135.831 212.851 138.89 215.774 142.909C218.696 146.928 220.158 151.814 220.158 157.568C220.158 162.957 218.696 167.478 215.774 171.131C212.897 174.784 209.175 177.57 204.608 179.488C207.942 180.127 211.116 181.68 214.13 184.146C217.189 186.612 219.701 189.603 221.665 193.119C223.628 196.636 224.61 200.312 224.61 204.148C224.61 209.856 223.035 214.834 219.884 219.081C216.778 223.328 212.394 226.639 206.732 229.013C201.069 231.343 194.424 232.507 186.798 232.507ZM186.798 222.232C194.15 222.232 200.019 220.588 204.403 217.3C208.787 213.966 210.979 209.559 210.979 204.079C210.979 200.472 209.974 197.252 207.965 194.421C206.001 191.59 203.215 189.375 199.608 187.776C196 186.132 191.73 185.31 186.798 185.31C181.912 185.31 177.665 186.132 174.057 187.776C170.495 189.375 167.709 191.59 165.7 194.421C163.736 197.252 162.755 200.472 162.755 204.079C162.755 209.559 164.924 213.966 169.262 217.3C173.646 220.588 179.491 222.232 186.798 222.232ZM186.798 174.145C192.826 174.145 197.712 172.661 201.457 169.692C205.247 166.724 207.143 162.591 207.143 157.294C207.143 151.951 205.247 147.75 201.457 144.69C197.667 141.585 192.78 140.032 186.798 140.032C180.816 140.032 175.929 141.585 172.139 144.69C168.349 147.795 166.454 151.997 166.454 157.294C166.454 162.591 168.349 166.724 172.139 169.692C175.929 172.661 180.816 174.145 186.798 174.145ZM276.322 232.507C270.203 232.507 264.54 231.434 259.334 229.287C254.128 227.141 249.653 224.15 245.908 220.314C242.209 216.478 239.492 212.071 237.757 207.093L248.717 202.504C250.361 206.249 252.416 209.582 254.882 212.505C257.393 215.428 260.362 217.711 263.787 219.355C267.212 220.999 271.093 221.821 275.432 221.821C282.464 221.821 288.104 219.789 292.351 215.724C296.644 211.614 298.79 206.043 298.79 199.01C298.79 194.626 297.786 190.813 295.776 187.571C293.767 184.283 291.05 181.726 287.625 179.899C284.245 178.072 280.501 177.159 276.391 177.159C273.696 177.159 271.185 177.41 268.856 177.912C266.527 178.369 264.22 179.282 261.937 180.652C259.654 182.022 257.256 184.1 254.745 186.886C254.471 187.023 254.265 187.091 254.128 187.091C253.991 187.046 253.763 186.954 253.443 186.817L242.757 183.461L247.21 131.949H306.325L305.983 142.909H258.033L255.498 174.898C258.786 171.839 262.371 169.67 266.253 168.391C270.18 167.067 274.427 166.404 278.994 166.404C284.976 166.404 290.479 167.637 295.502 170.103C300.571 172.524 304.636 176.131 307.695 180.926C310.755 185.676 312.285 191.567 312.285 198.599C312.285 205.449 310.8 211.409 307.832 216.478C304.864 221.547 300.685 225.497 295.297 228.328C289.908 231.114 283.583 232.507 276.322 232.507Z" fill="#274374"/>
<path d="M326.444 195.878L329.721 196.731C329.084 198.392 328.344 200.031 327.502 201.646C326.661 203.239 325.75 204.718 324.772 206.083C323.794 207.448 322.77 208.643 321.7 209.667C321.496 209.485 321.222 209.257 320.881 208.984C320.563 208.711 320.221 208.449 319.857 208.199C319.516 207.926 319.209 207.721 318.936 207.585C320.005 206.652 321.006 205.571 321.939 204.342C322.872 203.091 323.714 201.748 324.465 200.315C325.238 198.859 325.898 197.38 326.444 195.878ZM326.444 199.974H348.322V203.08H324.874L326.444 199.974ZM324.465 207.858H347.537V210.861H327.673V218.54H324.465V207.858ZM318.902 216.936H350.062V220.076H318.902V216.936ZM334.601 201.578H337.912V227.687H334.601V201.578Z" fill="#274374"/>
<defs>
<linearGradient id="paint0_linear_1177_43072" x1="324" y1="264" x2="324" y2="26" gradientUnits="userSpaceOnUse">
<stop stop-color="#3975BF"/>
<stop offset="1" stop-color="#ADADAD"/>
</linearGradient>
</defs>
</svg>
