<svg width="323" height="310" viewBox="0 0 323 310" fill="none" xmlns="http://www.w3.org/2000/svg">
<path d="M185.924 20H137.076C128.75 20 122 26.7157 122 35C122 43.2843 128.75 50 137.076 50H185.924C194.25 50 201 43.2843 201 35C201 26.7157 194.25 20 185.924 20Z" fill="#274374"/>
<path d="M137.71 28.128L139.054 28.478C138.793 29.1593 138.489 29.8313 138.144 30.494C137.799 31.1473 137.425 31.754 137.024 32.314C136.623 32.874 136.203 33.364 135.764 33.784C135.68 33.7093 135.568 33.616 135.428 33.504C135.297 33.392 135.157 33.2847 135.008 33.182C134.868 33.07 134.742 32.986 134.63 32.93C135.069 32.5473 135.479 32.104 135.862 31.6C136.245 31.0867 136.59 30.536 136.898 29.948C137.215 29.3507 137.486 28.744 137.71 28.128ZM137.71 29.808H146.684V31.082H137.066L137.71 29.808ZM136.898 33.042H146.362V34.274H138.214V37.424H136.898V33.042ZM134.616 36.766H147.398V38.054H134.616V36.766ZM141.056 30.466H142.414V41.176H141.056V30.466ZM152.956 36.752H157.016V37.718H152.956V36.752ZM152.886 34.652H157.646V39.874H152.886V38.866H156.4V35.66H152.886V34.652ZM152.326 34.652H153.53V40.588H152.326V34.652ZM149.848 30.718H153.572V31.656H149.848V30.718ZM156.33 30.718H160.096V31.656H156.33V30.718ZM159.55 28.758H160.894V39.524C160.894 39.9067 160.843 40.2053 160.74 40.42C160.647 40.644 160.474 40.8167 160.222 40.938C159.97 41.05 159.643 41.1153 159.242 41.134C158.85 41.162 158.355 41.176 157.758 41.176C157.749 41.0453 157.716 40.896 157.66 40.728C157.613 40.5693 157.562 40.406 157.506 40.238C157.45 40.0793 157.389 39.9393 157.324 39.818C157.585 39.8367 157.847 39.846 158.108 39.846C158.369 39.846 158.598 39.846 158.794 39.846C158.999 39.846 159.144 39.846 159.228 39.846C159.349 39.8367 159.433 39.8087 159.48 39.762C159.527 39.7153 159.55 39.6313 159.55 39.51V28.758ZM149.96 28.758H154.412V33.686H149.96V32.706H153.166V29.738H149.96V28.758ZM160.236 28.758V29.738H156.806V32.734H160.236V33.714H155.546V28.758H160.236ZM149.19 28.758H150.506V41.19H149.19V28.758ZM168.314 28.184H169.63V30.382H168.314V28.184ZM163.176 29.724H174.978V32.258H173.69V30.648H164.408V32.258H163.176V29.724ZM166.592 32.076V32.888H171.506V32.076H166.592ZM165.36 31.306H172.808V33.658H165.36V31.306ZM164.492 28.604L165.668 28.268C165.873 28.464 166.069 28.688 166.256 28.94C166.452 29.192 166.601 29.416 166.704 29.612L165.5 30.046C165.407 29.85 165.262 29.6167 165.066 29.346C164.87 29.066 164.679 28.8187 164.492 28.604ZM172.43 28.212L173.788 28.562C173.564 28.8513 173.335 29.1267 173.102 29.388C172.869 29.64 172.654 29.8593 172.458 30.046L171.394 29.71C171.571 29.4953 171.758 29.248 171.954 28.968C172.159 28.6787 172.318 28.4267 172.43 28.212ZM165.822 36.388V37.046H172.36V36.388H165.822ZM165.822 37.774V38.446H172.36V37.774H165.822ZM165.822 35.016V35.66H172.36V35.016H165.822ZM164.562 34.26H173.662V39.202H164.562V34.26ZM166.788 39.258L168.062 39.734C167.707 39.958 167.287 40.1633 166.802 40.35C166.317 40.546 165.808 40.7187 165.276 40.868C164.753 41.0173 164.249 41.148 163.764 41.26C163.699 41.1667 163.605 41.0547 163.484 40.924C163.363 40.7933 163.241 40.6673 163.12 40.546C162.999 40.4247 162.887 40.3267 162.784 40.252C163.279 40.1867 163.778 40.1027 164.282 40C164.786 39.9067 165.257 39.7993 165.696 39.678C166.135 39.5473 166.499 39.4073 166.788 39.258ZM169.952 39.916L170.974 39.188C171.478 39.3093 171.991 39.4447 172.514 39.594C173.046 39.7433 173.545 39.8927 174.012 40.042C174.479 40.1913 174.88 40.3313 175.216 40.462L173.858 41.204C173.569 41.0733 173.214 40.9333 172.794 40.784C172.383 40.644 171.931 40.4947 171.436 40.336C170.951 40.1867 170.456 40.0467 169.952 39.916ZM179.724 33.196H186.164V34.414H179.724V33.196ZM180.368 30.088H187.816V31.348H180.368V30.088ZM176.714 36.22H189.314V37.494H176.714V36.22ZM185.702 33.196H187.06C187.06 33.196 187.055 33.2333 187.046 33.308C187.046 33.3733 187.041 33.4573 187.032 33.56C187.032 33.6533 187.027 33.7327 187.018 33.798C186.887 35.2447 186.752 36.43 186.612 37.354C186.481 38.2687 186.337 38.978 186.178 39.482C186.019 39.986 185.833 40.35 185.618 40.574C185.422 40.7793 185.217 40.9193 185.002 40.994C184.797 41.0687 184.545 41.12 184.246 41.148C183.994 41.1667 183.644 41.1713 183.196 41.162C182.748 41.162 182.281 41.148 181.796 41.12C181.777 40.924 181.726 40.7 181.642 40.448C181.558 40.2053 181.451 39.9907 181.32 39.804C181.833 39.8507 182.314 39.8787 182.762 39.888C183.219 39.8973 183.546 39.902 183.742 39.902C183.919 39.902 184.059 39.8927 184.162 39.874C184.265 39.8553 184.367 39.804 184.47 39.72C184.647 39.5707 184.806 39.2627 184.946 38.796C185.086 38.32 185.217 37.6433 185.338 36.766C185.469 35.8887 185.59 34.7733 185.702 33.42V33.196ZM180.074 28.156L181.446 28.296C181.343 28.8467 181.231 29.43 181.11 30.046C180.998 30.662 180.877 31.278 180.746 31.894C180.615 32.5007 180.489 33.0793 180.368 33.63C180.247 34.1807 180.13 34.666 180.018 35.086L178.632 34.974C178.753 34.5353 178.879 34.0407 179.01 33.49C179.141 32.93 179.271 32.342 179.402 31.726C179.533 31.11 179.654 30.4987 179.766 29.892C179.887 29.276 179.99 28.6973 180.074 28.156Z" fill="white"/>
<path d="M81.68 135.881C77.7067 135.854 74.2 135.121 71.16 133.681C68.1467 132.241 65.7733 130.228 64.04 127.641C62.3067 125.028 61.3733 121.934 61.24 118.361H68.64C69.2 121.961 70.6667 124.721 73.04 126.641C75.4133 128.561 78.3867 129.521 81.96 129.521C84.7867 129.521 87.2533 129.081 89.36 128.201C91.4667 127.294 93.0933 126.054 94.24 124.481C95.3867 122.908 95.96 121.068 95.96 118.961C95.96 116.641 95.32 114.681 94.04 113.081C92.76 111.481 91.0133 110.268 88.8 109.441C86.5867 108.588 84.12 108.148 81.4 108.121L76.2 108.001V101.721L81.16 101.601C83.6933 101.548 85.96 101.068 87.96 100.161C89.96 99.2276 91.5333 98.0143 92.68 96.521C93.8533 95.001 94.44 93.3343 94.44 91.521C94.44 89.921 93.9467 88.441 92.96 87.081C91.9733 85.6943 90.5467 84.5876 88.68 83.761C86.84 82.9343 84.6 82.521 81.96 82.521C79.88 82.521 77.8933 82.9343 76 83.761C74.1067 84.561 72.5467 85.801 71.32 87.481C70.0933 89.161 69.44 91.3343 69.36 94.001H62C62 90.2676 62.9067 87.0943 64.72 84.481C66.5333 81.841 68.9467 79.8276 71.96 78.441C75 77.0543 78.3467 76.361 82 76.361C86 76.361 89.5333 76.9476 92.6 78.121C95.6667 79.2676 98.0667 80.9476 99.8 83.161C101.533 85.3743 102.4 88.081 102.4 91.281C102.4 94.1343 101.493 96.721 99.68 99.041C97.8667 101.334 95.0933 103.134 91.36 104.441C93.8933 105.134 96.1067 106.148 98 107.481C99.8933 108.814 101.36 110.454 102.4 112.401C103.44 114.321 103.96 116.534 103.96 119.041C103.96 121.681 103.4 124.054 102.28 126.161C101.187 128.241 99.64 130.014 97.64 131.481C95.64 132.921 93.28 134.028 90.56 134.801C87.84 135.548 84.88 135.908 81.68 135.881Z" fill="#274374"/>
<path d="M121.513 119.561V125.159H127.357V119.561H121.513ZM119.056 117.268H129.923V127.425H119.056V117.268ZM113.022 110.824H136.148V135.125H133.336V113.473H115.698V135.125H113.022V110.824ZM114.551 131.247H134.947V133.678H114.551V131.247Z" fill="#274374"/>
<path d="M86.7604 273.081C83.1871 273.081 79.8804 272.455 76.8404 271.201C73.8004 269.948 71.1871 268.201 69.0004 265.961C66.8404 263.721 65.2537 261.148 64.2404 258.241L70.6404 255.561C71.6004 257.748 72.8004 259.695 74.2404 261.401C75.7071 263.108 77.4404 264.441 79.4404 265.401C81.4404 266.361 83.7071 266.841 86.2404 266.841C90.3471 266.841 93.6404 265.655 96.1204 263.281C98.6271 260.881 99.8804 257.628 99.8804 253.521C99.8804 250.961 99.2937 248.735 98.1204 246.841C96.9471 244.921 95.3604 243.428 93.3604 242.361C91.3871 241.295 89.2004 240.761 86.8004 240.761C85.2271 240.761 83.7604 240.908 82.4004 241.201C81.0404 241.468 79.6937 242.001 78.3604 242.801C77.0271 243.601 75.6271 244.815 74.1604 246.441C74.0004 246.521 73.8804 246.561 73.8004 246.561C73.7204 246.535 73.5871 246.481 73.4004 246.401L67.1604 244.441L69.7604 214.361H104.28L104.08 220.761H76.0804L74.6004 239.441C76.5204 237.655 78.6137 236.388 80.8804 235.641C83.1737 234.868 85.6537 234.481 88.3204 234.481C91.8137 234.481 95.0271 235.201 97.9604 236.641C100.92 238.055 103.294 240.161 105.08 242.961C106.867 245.735 107.76 249.175 107.76 253.281C107.76 257.281 106.894 260.761 105.16 263.721C103.427 266.681 100.987 268.988 97.8404 270.641C94.6937 272.268 91.0004 273.081 86.7604 273.081ZM116.05 272.201V262.761H124.85V272.201H116.05ZM155.979 273.081C152.406 273.081 149.099 272.455 146.059 271.201C143.019 269.948 140.406 268.201 138.219 265.961C136.059 263.721 134.472 261.148 133.459 258.241L139.859 255.561C140.819 257.748 142.019 259.695 143.459 261.401C144.926 263.108 146.659 264.441 148.659 265.401C150.659 266.361 152.926 266.841 155.459 266.841C159.566 266.841 162.859 265.655 165.339 263.281C167.846 260.881 169.099 257.628 169.099 253.521C169.099 250.961 168.512 248.735 167.339 246.841C166.166 244.921 164.579 243.428 162.579 242.361C160.606 241.295 158.419 240.761 156.019 240.761C154.446 240.761 152.979 240.908 151.619 241.201C150.259 241.468 148.912 242.001 147.579 242.801C146.246 243.601 144.846 244.815 143.379 246.441C143.219 246.521 143.099 246.561 143.019 246.561C142.939 246.535 142.806 246.481 142.619 246.401L136.379 244.441L138.979 214.361H173.499L173.299 220.761H145.299L143.819 239.441C145.739 237.655 147.832 236.388 150.099 235.641C152.392 234.868 154.872 234.481 157.539 234.481C161.032 234.481 164.246 235.201 167.179 236.641C170.139 238.055 172.512 240.161 174.299 242.961C176.086 245.735 176.979 249.175 176.979 253.281C176.979 257.281 176.112 260.761 174.379 263.721C172.646 266.681 170.206 268.988 167.059 270.641C163.912 272.268 160.219 273.081 155.979 273.081Z" fill="#274374"/>
<path d="M193.188 252.41C193.097 252.683 192.997 252.947 192.888 253.202C192.797 253.439 192.715 253.675 192.642 253.912C192.497 254.294 192.315 254.74 192.096 255.25C191.896 255.76 191.678 256.26 191.441 256.752C191.223 257.243 191.013 257.662 190.813 258.008C190.485 258.59 190.076 259.218 189.584 259.892C189.111 260.565 188.62 261.193 188.11 261.776C187.6 262.358 187.136 262.84 186.717 263.223L184.205 261.748C184.788 261.311 185.334 260.82 185.844 260.274C186.353 259.728 186.818 259.173 187.236 258.608C187.673 258.044 188.037 257.516 188.328 257.025C188.692 256.442 188.993 255.851 189.229 255.25C189.484 254.649 189.684 254.076 189.83 253.53C189.903 253.257 189.967 252.966 190.021 252.656C190.094 252.328 190.149 252.028 190.185 251.755L193.188 252.41ZM190.185 256.014C190.44 256.014 190.886 256.014 191.523 256.014C192.178 256.014 192.925 256.014 193.762 256.014C194.617 256.014 195.5 256.014 196.41 256.014C197.339 256.014 198.212 256.014 199.032 256.014C199.851 256.014 200.551 256.014 201.134 256.014C201.735 256.014 202.117 256.014 202.281 256.014C202.59 256.014 202.954 256.014 203.373 256.014C203.81 255.996 204.201 255.96 204.547 255.905V258.554C204.165 258.517 203.755 258.499 203.318 258.499C202.9 258.481 202.554 258.472 202.281 258.472C202.117 258.472 201.735 258.472 201.134 258.472C200.551 258.472 199.842 258.472 199.004 258.472C198.185 258.472 197.311 258.472 196.383 258.472C195.455 258.472 194.563 258.472 193.707 258.472C192.852 258.472 192.087 258.472 191.414 258.472C190.758 258.472 190.276 258.472 189.967 258.472L190.185 256.014ZM198.649 257.462C198.558 259.664 198.24 261.63 197.694 263.359C197.148 265.07 196.365 266.563 195.346 267.837C194.326 269.093 193.079 270.176 191.605 271.086L188.929 269.284C189.257 269.139 189.639 268.938 190.076 268.684C190.531 268.429 190.904 268.183 191.195 267.946C191.796 267.473 192.369 266.927 192.915 266.308C193.462 265.671 193.953 264.934 194.39 264.096C194.827 263.259 195.182 262.294 195.455 261.202C195.728 260.11 195.892 258.863 195.946 257.462H198.649ZM215.55 246.977H229.53V249.489H215.55V246.977ZM215.55 253.53H229.639V255.987H215.55V253.53ZM215.359 260.083H229.476V262.567H215.359V260.083ZM213.83 246.977H216.479V255.687C216.479 256.87 216.415 258.144 216.288 259.509C216.16 260.856 215.915 262.222 215.55 263.605C215.186 264.988 214.649 266.317 213.94 267.591C213.23 268.847 212.283 269.976 211.1 270.977C210.972 270.795 210.79 270.577 210.554 270.322C210.317 270.085 210.071 269.849 209.817 269.612C209.562 269.393 209.334 269.221 209.134 269.093C210.208 268.165 211.054 267.145 211.673 266.035C212.31 264.925 212.784 263.778 213.093 262.595C213.403 261.412 213.603 260.228 213.694 259.045C213.785 257.862 213.83 256.734 213.83 255.66V246.977ZM228.356 246.977H231.086V267.428C231.086 268.265 230.959 268.902 230.704 269.339C230.468 269.794 230.067 270.131 229.503 270.349C228.92 270.586 228.147 270.731 227.182 270.786C226.235 270.841 225.034 270.868 223.578 270.868C223.541 270.595 223.46 270.294 223.332 269.967C223.205 269.639 223.068 269.312 222.923 268.984C222.795 268.656 222.659 268.374 222.513 268.137C223.223 268.174 223.915 268.201 224.588 268.219C225.28 268.219 225.88 268.219 226.39 268.219C226.918 268.201 227.291 268.192 227.51 268.192C227.819 268.192 228.037 268.137 228.165 268.028C228.292 267.901 228.356 267.692 228.356 267.4V246.977ZM240.943 255.796H256.179V258.308H240.943V255.796ZM255.332 255.796H258.035C258.035 255.796 258.026 255.878 258.008 256.042C258.008 256.187 258.008 256.351 258.008 256.533C258.008 256.715 257.999 256.861 257.981 256.97C257.89 259.063 257.79 260.856 257.681 262.349C257.59 263.842 257.48 265.079 257.353 266.062C257.244 267.045 257.098 267.828 256.916 268.411C256.752 268.975 256.552 269.384 256.315 269.639C256.006 270.04 255.669 270.313 255.305 270.458C254.959 270.622 254.531 270.722 254.022 270.759C253.567 270.813 252.948 270.841 252.165 270.841C251.401 270.841 250.6 270.822 249.762 270.786C249.744 270.386 249.653 269.94 249.489 269.448C249.344 268.975 249.153 268.547 248.916 268.165C249.753 268.238 250.527 268.292 251.237 268.329C251.965 268.347 252.493 268.356 252.82 268.356C253.093 268.356 253.312 268.329 253.476 268.274C253.658 268.219 253.822 268.119 253.967 267.974C254.204 267.737 254.404 267.209 254.568 266.39C254.732 265.553 254.868 264.315 254.977 262.677C255.105 261.038 255.223 258.909 255.332 256.288V255.796ZM244.383 246.076L247.141 246.868C246.468 248.433 245.676 249.935 244.766 251.373C243.856 252.793 242.864 254.103 241.79 255.305C240.716 256.506 239.596 257.544 238.431 258.417C238.286 258.235 238.076 258.017 237.803 257.762C237.53 257.489 237.248 257.225 236.957 256.97C236.666 256.715 236.42 256.515 236.22 256.369C237.366 255.605 238.449 254.686 239.469 253.612C240.506 252.538 241.444 251.364 242.281 250.09C243.137 248.797 243.837 247.459 244.383 246.076ZM254.295 246.021C254.732 246.913 255.26 247.823 255.878 248.752C256.516 249.68 257.198 250.59 257.926 251.482C258.673 252.356 259.437 253.175 260.22 253.939C261.003 254.686 261.767 255.332 262.513 255.878C262.295 256.06 262.04 256.288 261.749 256.561C261.476 256.834 261.212 257.116 260.957 257.407C260.702 257.68 260.493 257.935 260.329 258.172C259.583 257.516 258.809 256.77 258.008 255.933C257.225 255.077 256.452 254.158 255.687 253.175C254.941 252.192 254.231 251.182 253.558 250.144C252.902 249.088 252.311 248.051 251.783 247.031L254.295 246.021ZM246.295 256.533H249.107C248.961 258.044 248.734 259.519 248.424 260.957C248.115 262.376 247.624 263.723 246.95 264.998C246.277 266.272 245.33 267.428 244.11 268.465C242.909 269.503 241.325 270.386 239.36 271.114C239.25 270.877 239.105 270.613 238.923 270.322C238.741 270.031 238.54 269.748 238.322 269.475C238.104 269.202 237.885 268.975 237.667 268.793C239.487 268.192 240.934 267.455 242.008 266.581C243.1 265.707 243.928 264.734 244.493 263.66C245.075 262.567 245.485 261.421 245.721 260.219C245.976 259.018 246.167 257.789 246.295 256.533Z" fill="#274374"/>
<path d="M66.3846 176.531H88.0367V179.098H66.3846V176.531ZM64.9375 188.108H89.6203V190.702H64.9375V188.108ZM68.1867 180.9L70.5348 180.217C70.8807 180.836 71.2083 181.509 71.5178 182.237C71.8454 182.947 72.1367 183.648 72.3915 184.34C72.6645 185.013 72.8557 185.614 72.9649 186.142L70.4802 186.961C70.3528 186.433 70.1708 185.823 69.9341 185.132C69.7157 184.44 69.4518 183.721 69.1423 182.975C68.8329 182.228 68.5143 181.537 68.1867 180.9ZM83.9138 180.108L86.6715 180.845C86.3438 181.555 85.9889 182.283 85.6066 183.029C85.2244 183.776 84.8512 184.495 84.4872 185.186C84.1231 185.86 83.7773 186.461 83.4496 186.988L81.1834 186.278C81.511 185.732 81.8478 185.104 82.1936 184.395C82.5395 183.666 82.858 182.929 83.1493 182.183C83.4587 181.418 83.7136 180.727 83.9138 180.108ZM75.8864 177.569H78.5622V200.067H75.8864V177.569ZM102.89 184.777H111.163V187.098H102.89V184.777ZM101.552 193.405C102.371 193.132 103.318 192.813 104.392 192.449C105.466 192.085 106.613 191.685 107.832 191.248C109.052 190.793 110.262 190.347 111.464 189.91L111.928 192.122C110.326 192.759 108.697 193.405 107.04 194.06C105.384 194.715 103.891 195.307 102.562 195.835L101.552 193.405ZM104.091 179.207H114.958V181.664H104.091V179.207ZM114.167 179.207H116.788C116.788 179.207 116.779 179.298 116.76 179.48C116.76 179.644 116.76 179.826 116.76 180.026C116.76 180.226 116.751 180.39 116.733 180.517C116.642 183.612 116.542 186.251 116.433 188.436C116.324 190.602 116.196 192.376 116.051 193.76C115.923 195.143 115.759 196.235 115.559 197.036C115.377 197.819 115.15 198.383 114.877 198.729C114.549 199.184 114.194 199.494 113.812 199.657C113.448 199.839 113.002 199.967 112.474 200.04C112.001 200.113 111.382 200.14 110.617 200.122C109.853 200.122 109.061 200.103 108.242 200.067C108.223 199.685 108.132 199.239 107.969 198.729C107.823 198.238 107.632 197.81 107.395 197.446C108.269 197.519 109.07 197.564 109.798 197.582C110.526 197.582 111.054 197.582 111.382 197.582C111.655 197.601 111.873 197.582 112.037 197.528C112.219 197.455 112.383 197.328 112.528 197.145C112.747 196.909 112.938 196.426 113.102 195.698C113.284 194.952 113.439 193.905 113.566 192.558C113.693 191.193 113.803 189.464 113.894 187.371C114.003 185.277 114.094 182.747 114.167 179.78V179.207ZM104.528 174.729L107.149 175.302C106.767 176.704 106.294 178.069 105.73 179.398C105.165 180.727 104.547 181.964 103.873 183.111C103.2 184.258 102.49 185.268 101.743 186.142C101.598 185.978 101.388 185.796 101.115 185.596C100.842 185.377 100.56 185.168 100.269 184.968C99.9776 184.768 99.7228 184.604 99.5044 184.476C100.633 183.311 101.625 181.873 102.481 180.162C103.336 178.433 104.019 176.622 104.528 174.729ZM92.2415 181.009H100.897V183.466H92.2415V181.009ZM95.4361 175.002H97.948V192.995H95.4361V175.002ZM91.6954 193.077C92.4781 192.786 93.3792 192.449 94.3985 192.067C95.4361 191.666 96.5282 191.239 97.675 190.784C98.8218 190.329 99.9594 189.874 101.088 189.418L101.634 191.821C100.105 192.495 98.5396 193.168 96.9378 193.842C95.3542 194.515 93.9162 195.125 92.6238 195.671L91.6954 193.077Z" fill="#274374"/>
<g clip-path="url(#clip0_1177_43261)">
<path opacity="0.5" d="M267.8 77H179.036V123.379H267.8V77Z" fill="url(#paint0_linear_1177_43261)"/>
<path d="M255.764 88.2188H167V134.598H255.764V88.2188Z" fill="url(#paint1_linear_1177_43261)"/>
<path d="M209.449 119.959H201.708V116.54H209.449V113.122H201.708V109.703H207.493L199.128 99.4473H203.822L211.397 109.015L218.934 99.4473H223.628L215.263 109.703H221.048V113.122H213.308V116.54H221.048V119.959H213.308V123.377H209.441V119.959H209.449Z" fill="white"/>
</g>
<defs>
<linearGradient id="paint0_linear_1177_43261" x1="179.036" y1="100.19" x2="267.8" y2="100.19" gradientUnits="userSpaceOnUse">
<stop stop-color="#3975BF"/>
<stop offset="1" stop-color="#ADADAD"/>
</linearGradient>
<linearGradient id="paint1_linear_1177_43261" x1="167" y1="111.408" x2="255.764" y2="111.408" gradientUnits="userSpaceOnUse">
<stop stop-color="#3975BF"/>
<stop offset="1" stop-color="#ADADAD"/>
</linearGradient>
<clipPath id="clip0_1177_43261">
<rect width="100.8" height="57.6" fill="white" transform="translate(167 77)"/>
</clipPath>
</defs>
</svg>
